<svg width="175" height="150" viewBox="0 0 175 150" fill="none" xmlns="http://www.w3.org/2000/svg">
<path d="M151.396 163.655C140.935 172.768 118.069 169.271 107.943 166.384C107.177 165.473 105.688 162.992 105.864 160.356C106.084 157.06 136.689 144.142 144.245 142.451C151.801 140.76 164.473 152.264 151.396 163.655Z" fill="#E7EAEE"/>
<path d="M120.492 212.136C132.002 204.482 116.443 156.738 105.202 150.725C93.9596 144.711 75.675 145.622 67.6449 150.725C59.6149 155.827 39.7713 204.3 51.281 212.136C62.7906 219.972 108.983 219.79 120.492 212.136Z" fill="white"/>
<path d="M130.766 43.4613C126.471 57.3816 108.083 84.6355 104.194 96.0319H67.4223C63.533 84.6355 46.5623 57.3816 41.1186 43.4613C34.3672 26.1968 41.3891 3.75763 60.3533 3.75767C76.0113 3.7577 83.3464 29.6141 85.4054 43.4613C87.4645 29.6141 95.3364 3.75767 110.458 3.75767C129.422 3.75767 136.231 25.7475 130.766 43.4613Z" fill="white"/>
<path d="M155.675 122.662C155.675 150.679 124.953 159.969 87.6131 159.969C50.2734 159.969 19.3252 150.679 19.3252 122.662C19.3252 74.891 50.2734 58.5123 87.6131 58.5123C124.953 58.5123 155.675 72.6162 155.675 122.662Z" fill="white"/>
<path d="M62.2699 114.34V122.929" stroke="#123041" stroke-width="8.05215" stroke-linecap="round"/>
<path d="M127.224 114.34V122.929" stroke="#123041" stroke-width="8.05215" stroke-linecap="round"/>
<path d="M46.1656 135.276H54.2178" stroke="#FFD2D2" stroke-width="10.7362" stroke-linecap="round"/>
<path d="M135.276 135.276H143.328" stroke="#FFD2D2" stroke-width="10.7362" stroke-linecap="round"/>
<path d="M103.604 136.596C103.604 141.433 103.604 143.865 94.7469 143.865C85.8895 143.865 85.8895 141.865 85.8895 136.596C85.8895 131.326 89.8551 122.929 94.7469 122.929C99.6387 122.929 103.604 131.758 103.604 136.596Z" fill="#FFD2D2"/>
<path fill-rule="evenodd" clip-rule="evenodd" d="M87.199 130.452C88.7579 126.504 91.5553 122.929 94.747 122.929C97.8952 122.929 100.66 126.586 102.231 130.482C100.106 131.474 97.5274 132.055 94.747 132.055C91.9384 132.055 89.3354 131.462 87.199 130.452Z" fill="#E7EAEE"/>
<path d="M92.5518 115.414C93.6054 115.414 94.0884 115.853 94.7469 116.293C95.4054 115.853 95.8884 115.414 96.942 115.414C98.259 115.414 99.0241 116.795 98.698 117.61C98.2589 118.708 96.6493 119.806 94.7469 120.245C92.8445 119.806 91.2349 118.708 90.7958 117.61C90.4697 116.795 91.2348 115.414 92.5518 115.414Z" fill="#FFD2D2"/>
<path d="M88.0524 166.339C77.5911 175.452 64.0746 169.226 53.9491 166.338C53.1828 165.427 51.6942 162.947 51.8701 160.31C52.0899 157.014 73.3451 146.826 80.9011 145.135C88.4571 143.444 101.129 154.947 88.0524 166.339Z" fill="#E7EAEE"/>
</svg>
