<svg width="175" height="117" viewBox="0 0 175 117" fill="none" xmlns="http://www.w3.org/2000/svg">
<g clip-path="url(#clip0_476_455)">
<path d="M149.097 24.5284C132.278 34.4816 137.474 39.4438 141.819 46.7863C146.165 54.1289 148.356 60.8693 164.833 51.1181C173.197 46.1679 176.456 36.2027 172.11 28.8601C167.765 21.5176 157.462 19.5782 149.097 24.5284Z" fill="white"/>
<path d="M124.444 26.2302C124.444 35.5007 127.678 35.5556 131.667 35.5556C135.655 35.5556 138.889 35.5007 138.889 26.2302C138.889 16.9597 134.462 9.44447 131.667 9.44447C128.871 9.44447 124.444 16.9597 124.444 26.2302Z" fill="#6A5B3D"/>
<path d="M37.2222 26.2302C37.2222 35.5007 40.4557 35.5556 44.4444 35.5556C48.4331 35.5556 51.6666 35.5007 51.6666 26.2302C51.6666 16.9597 47.2401 9.44447 44.4444 9.44447C41.6487 9.44447 37.2222 16.9597 37.2222 26.2302Z" fill="#6A5B3D"/>
<path d="M25.4267 24.5284C42.2452 34.4816 37.0495 39.4438 32.7042 46.7863C28.3589 54.1289 26.1681 60.8693 9.69084 51.1181C1.32625 46.1679 -1.932 36.2027 2.41333 28.8601C6.75867 21.5176 17.0621 19.5782 25.4267 24.5284Z" fill="#123041"/>
<path d="M21.2762 33.0138C29.6587 37.9746 27.4883 39.7395 25.8396 42.5253C24.1909 45.3112 23.5182 47.9624 15.3057 43.1023C11.1367 40.6351 9.09361 36.3766 10.7423 33.5907C12.391 30.8049 17.1072 30.5465 21.2762 33.0138Z" fill="#FFC0C1"/>
<path d="M153.747 33.0138C145.364 37.9746 147.534 39.7395 149.183 42.5253C150.832 45.3112 151.505 47.9624 159.717 43.1023C163.886 40.6351 165.929 36.3766 164.28 33.5907C162.632 30.8049 157.916 30.5465 153.747 33.0138Z" fill="#FFC0C1"/>
<path d="M155.016 122.703C144.19 132.134 120.525 128.516 110.046 125.528C109.253 124.585 107.712 122.018 107.894 119.289C108.122 115.878 139.796 102.509 147.615 100.759C155.435 99.0089 168.55 110.914 155.016 122.703Z" fill="#EFEFEF"/>
<path d="M51.9666 172.877C40.0551 164.956 56.157 115.545 67.7915 109.321C79.426 103.098 98.3491 104.041 106.66 109.321C114.97 114.602 135.507 164.768 123.595 172.877C111.683 180.987 63.8782 180.798 51.9666 172.877Z" fill="white"/>
<path d="M158.889 81.9457C158.889 110.941 127.094 120.556 88.4504 120.556C49.8067 120.556 17.7778 110.941 17.7778 81.9457C17.7778 32.5063 49.8067 15.5556 88.4504 15.5556C127.094 15.5556 158.889 30.152 158.889 81.9457Z" fill="white"/>
<path fill-rule="evenodd" clip-rule="evenodd" d="M83.306 15.6372C82.9813 24.8887 81.049 37.0228 74.9871 41.9301C69.6563 46.2455 63.5042 47.3445 58.0069 48.3266C53.3084 49.1659 49.0883 49.9198 46.2678 52.5233C44.7692 53.9066 43.4399 55.8262 42.0001 57.9055C37.6621 64.1701 32.3206 71.8839 18.3203 70.7452C22.4616 29.9875 49.8118 16.7717 83.306 15.6372Z" fill="#123041"/>
<path d="M54.4445 76.6667V85.5556" stroke="#123041" stroke-width="8.33333" stroke-linecap="round"/>
<path d="M128.889 76.6667V85.5556" stroke="#123041" stroke-width="8.33333" stroke-linecap="round"/>
<path d="M65.5555 97.3334C65.5555 85.9195 74.8083 76.6667 86.2222 76.6667H96.5555C107.969 76.6667 117.222 85.9195 117.222 97.3334C117.222 104.943 111.054 111.111 103.444 111.111H79.3333C71.7241 111.111 65.5555 104.943 65.5555 97.3334Z" fill="#FFC0C1"/>
<path d="M80.5555 92.2223V98.3334" stroke="#123041" stroke-width="5.55556" stroke-linecap="round"/>
<path d="M102.778 92.2223L102.778 98.3334" stroke="#123041" stroke-width="5.55556" stroke-linecap="round"/>
<path d="M37.7778 98.3334H46.1112" stroke="#FFC0C1" stroke-width="11.1111" stroke-linecap="round"/>
<path d="M137.222 98.3334H145.556" stroke="#FFC0C1" stroke-width="11.1111" stroke-linecap="round"/>
<path d="M89.4605 125.481C78.634 134.912 64.6454 128.468 54.1663 125.48C53.3733 124.538 51.8327 121.97 52.0147 119.242C52.2422 115.831 74.2396 105.287 82.0595 103.536C89.8794 101.786 102.994 113.692 89.4605 125.481Z" fill="#EFEFEF"/>
</g>
<defs>
<clipPath id="clip0_476_455">
<rect width="175" height="207.778" fill="white" transform="matrix(-1 0 0 1 175 0)"/>
</clipPath>
</defs>
</svg>
