<svg width="175" height="104" viewBox="0 0 175 104" fill="none" xmlns="http://www.w3.org/2000/svg">
<path d="M155.016 114.37C144.19 123.801 120.525 120.182 110.046 117.194C109.253 116.252 107.712 113.684 107.894 110.956C108.122 107.545 139.796 94.1758 147.615 92.4257C155.435 90.6756 168.55 102.581 155.016 114.37Z" fill="#5C9A15"/>
<ellipse cx="22.2065" cy="23.9304" rx="22.2065" ry="23.9304" transform="matrix(-0.877234 -0.480064 -0.480064 0.877234 167.778 21.9401)" fill="#5BB42B"/>
<ellipse cx="40.3304" cy="31.6536" rx="22.2065" ry="23.9304" transform="rotate(-28.6896 40.3304 31.6536)" fill="#5BB42B"/>
<path d="M123.033 164.544C134.945 156.623 118.843 107.212 107.208 100.988C95.574 94.7644 76.6509 95.7073 68.3404 100.988C60.0299 106.269 39.4934 156.434 51.405 164.544C63.3165 172.653 111.122 172.465 123.033 164.544Z" fill="#5BB42B"/>
<path d="M160 70.7038C160 100.006 127.704 109.722 88.4521 109.722C49.1999 109.722 16.6666 100.006 16.6666 70.7038C16.6666 28.6111 49.1999 10.5556 88.4521 10.5556C127.704 10.5556 160 25.2778 160 70.7038Z" fill="#5BB42B"/>
<path d="M43.8889 32.2222V41.1111" stroke="#123041" stroke-width="8.33333" stroke-linecap="round"/>
<path d="M138.333 31.6667V40.5556" stroke="#123041" stroke-width="8.33333" stroke-linecap="round"/>
<path d="M31.6666 60.5556H41.1111" stroke="#A1DC3C" stroke-width="11.1111" stroke-linecap="round"/>
<path d="M134.444 60.5556H143.889" stroke="#A1DC3C" stroke-width="11.1111" stroke-linecap="round"/>
<path d="M101.667 51.6975C101.667 45.0225 101.667 41.6667 89.1666 41.6667C76.6666 41.6667 76.6666 44.4262 76.6666 51.6975C76.6666 63.6111 82.2631 70.5556 89.1666 70.5556C96.0702 70.5556 101.667 62.7778 101.667 51.6975Z" fill="#D52C2F"/>
<path fill-rule="evenodd" clip-rule="evenodd" d="M76.687 52.9295C77.0598 64.0885 82.5046 70.5556 89.1666 70.5556C94.003 70.5556 98.1978 66.7384 100.276 60.6427C97.8587 57.8178 94.2808 55.368 89.9606 53.8534C85.2485 52.2014 80.5317 51.9698 76.687 52.9295Z" fill="#FF686B"/>
<path d="M89.4605 117.147C78.634 126.578 64.6454 120.135 54.1663 117.147C53.3733 116.204 51.8327 113.637 52.0147 110.908C52.2422 107.497 74.2396 96.9532 82.0595 95.2031C89.8794 93.453 102.994 105.358 89.4605 117.147Z" fill="#5C9A15"/>
</svg>
