<svg width="1108" height="130" viewBox="0 0 1108 130" fill="none" xmlns="http://www.w3.org/2000/svg">
<path fill-rule="evenodd" clip-rule="evenodd" d="M653 7C653 3.13401 656.134 0 660 0H703C706.866 0 710 3.13401 710 7C710 10.866 706.866 14 703 14H660C656.134 14 653 10.866 653 7ZM720 7C720 3.13401 723.134 0 727 0H911C914.866 0 918 3.13401 918 7C918 10.866 914.866 14 911 14H727C723.134 14 720 10.866 720 7ZM7 31C3.13401 31 0 34.134 0 38C0 41.866 3.13401 45 7 45H54C57.866 45 61 41.866 61 38C61 34.134 57.866 31 54 31H7ZM274 38C274 34.134 277.134 31 281 31H399C402.866 31 406 34.134 406 38C406 41.866 402.866 45 399 45H281C277.134 45 274 41.866 274 38ZM618 31C614.134 31 611 34.134 611 38C611 41.866 614.134 45 618 45H802C805.866 45 809 41.866 809 38C809 34.134 805.866 31 802 31H618ZM132 92C132 88.134 135.134 85 139 85H185C188.866 85 192 88.134 192 92C192 95.866 188.866 99 185 99H139C135.134 99 132 95.866 132 92ZM42 116C38.134 116 35 119.134 35 123C35 126.866 38.134 130 42 130H158C161.866 130 165 126.866 165 123C165 119.134 161.866 116 158 116H42ZM177 123C177 119.134 180.134 116 184 116H216C219.866 116 223 119.134 223 123C223 126.866 219.866 130 216 130H184C180.134 130 177 126.866 177 123ZM983 116C979.134 116 976 119.134 976 123C976 126.866 979.134 130 983 130H1101C1104.87 130 1108 126.866 1108 123C1108 119.134 1104.87 116 1101 116H983Z" fill="#A6EAF4"/>
</svg>
