<svg width="379" height="118" viewBox="0 0 379 118" fill="none" xmlns="http://www.w3.org/2000/svg">
<path fill-rule="evenodd" clip-rule="evenodd" d="M350.961 84.6352C348.508 84.6352 346.472 82.8281 345.628 80.5254C341.904 70.3702 330.969 63.0154 318.06 63.0154C315.39 63.0154 312.805 63.3301 310.35 63.919C308.014 64.4795 305.507 63.6433 304.056 61.7287C296.932 52.3306 286.318 46.3688 274.463 46.3688C270.023 46.3688 265.757 47.205 261.784 48.7447C258.308 50.0914 254.007 48.1231 253.066 44.5163C246.382 18.8816 223.541 0 196.392 0C173.031 0 152.86 13.98 143.427 34.213C142.147 36.9585 138.86 38.2534 136.01 37.2266C131.075 35.4484 125.628 34.4624 119.903 34.4624C110.915 34.4624 102.612 36.8924 95.8997 41.0025C93.7488 42.3196 90.951 42.1405 88.9812 40.5653C82.0653 35.0347 73.1543 31.7053 63.4292 31.7053C41.4321 31.7053 23.5998 48.7391 23.5998 69.7513C23.5998 72.3444 23.8714 74.877 24.3889 77.3245C25.1378 80.8662 22.6823 84.6352 19.0622 84.6352H16.8672C7.75449 84.6352 0.367188 92.0225 0.367188 101.135C0.367188 110.248 7.75449 117.635 16.8672 117.635H362.452C371.564 117.635 378.952 110.248 378.952 101.135C378.952 92.0225 371.564 84.6352 362.452 84.6352H350.961Z" fill="white" fill-opacity="0.5"/>
</svg>
