<svg width="502" height="159" viewBox="0 0 502 159" fill="none" xmlns="http://www.w3.org/2000/svg">
<path fill-rule="evenodd" clip-rule="evenodd" d="M-120 109.654C-120 111.311 -118.657 112.654 -117 112.654H142.515C144.906 112.654 146.471 115.466 146.16 117.837C146.091 118.367 146.056 118.906 146.056 119.454C146.056 126.27 151.581 131.796 158.398 131.796H267.128C269.294 131.796 270.771 134.053 270.391 136.186C270.194 137.296 270.091 138.438 270.091 139.605C270.091 141.325 268.797 142.878 267.077 142.878H199.053C194.602 142.878 190.993 146.487 190.993 150.939C190.993 155.39 194.602 158.999 199.053 158.999H289.278C289.347 158.999 289.416 159 289.485 159H340.581C340.65 159 340.719 158.999 340.788 158.999H341.131C341.457 158.999 341.779 158.979 342.096 158.942C349.974 158.333 356.532 153.018 358.964 145.804C359.421 144.449 360.628 143.429 362.058 143.429H495.644C499.155 143.429 502.001 140.584 502.001 137.073C502.001 133.562 499.155 130.717 495.644 130.717H462.862C459.628 130.717 456.108 122.879 456.158 119.646C456.159 119.582 456.159 119.518 456.159 119.454C456.159 112.638 450.633 107.112 443.817 107.112H349.128C346.555 107.112 344.968 103.862 345.746 101.409C346.233 99.8707 346.496 98.2328 346.496 96.5334C346.496 87.6304 339.279 80.4131 330.376 80.4131H215.146C212.858 80.4131 211.38 77.9125 211.963 75.6997C212.359 74.1966 212.565 72.6591 212.565 71.0949C212.565 53.7062 187.212 39.61 155.937 39.61C143.763 39.61 132.486 41.7459 123.253 45.3806C122.057 45.8511 120.696 45.5526 119.788 44.644C108.011 32.86 86.8363 25 62.6719 25C44.4254 25 27.8833 29.4815 15.8049 36.7501C14.9545 37.2618 13.9136 37.3459 12.9922 36.9771C4.54803 33.5979 -5.54034 31.6338 -16.3771 31.6338C-29.1481 31.6338 -40.8796 34.3616 -50.1055 38.9186C-51.0012 39.361 -52.0515 39.3581 -52.9463 38.9138C-62.0508 34.393 -74.1882 31.6338 -87.5159 31.6338C-99.0315 31.6338 -109.659 33.6937 -118.208 37.1701C-119.306 37.6163 -120 38.696 -120 39.8806V109.654Z" fill="white" fill-opacity="0.5"/>
<path fill-rule="evenodd" clip-rule="evenodd" d="M-169 75.8344C-169 77.0816 -168.232 78.2119 -167.04 78.5775C-164.023 79.5023 -160.82 80 -157.5 80H51.3203C53.7118 80 55.2326 82.7506 54.5702 85.0486C54.1017 86.6739 53.8506 88.3914 53.8506 90.1675C53.8506 100.355 62.1091 108.613 72.2965 108.613H154.529C156.442 108.613 157.857 110.387 157.772 112.298C157.757 112.629 157.75 112.962 157.75 113.297V122.177C157.75 123.834 156.407 125.177 154.75 125.177H103.542C96.8886 125.177 91.4953 130.57 91.4953 137.223C91.4953 143.876 96.8886 149.27 103.542 149.27H179.724L179.75 149.27H211.039L211.065 149.27H211.958C212.842 149.27 213.704 149.174 214.534 148.993C225.024 147.319 233.039 138.23 233.039 127.27C233.039 126.568 233.608 126 234.309 126H342.499C347.746 126 351.999 121.747 351.999 116.5C351.999 111.253 347.746 107 342.499 107H316.698C313.465 107 310.983 100.18 312.214 97.1911C313.107 95.0262 313.599 92.6543 313.599 90.1675C313.599 79.9801 305.34 71.7216 295.153 71.7216H219.019C216.265 71.7216 214.781 68.1097 216.336 65.8379C219.91 60.6183 222 54.3033 222 47.5C222 29.5507 207.449 15 189.5 15H112.299C110.713 15 109.412 13.762 109.22 12.1877C106.383 -11.1114 86.3831 -29.1661 62.1324 -29.1661C52.4922 -29.1661 43.5236 -26.313 36.0379 -21.4115C34.4647 -20.3813 32.3033 -20.8708 31.3586 -22.4969C21.4039 -39.6324 3.91595 -51 -15.9949 -51C-30.8923 -51 -44.4333 -44.6363 -54.4775 -34.2544C-55.5746 -33.1203 -57.345 -32.9492 -58.6549 -33.829C-65.5073 -38.4318 -73.5715 -41.0859 -82.2026 -41.0859C-92.4701 -41.0859 -101.936 -37.3299 -109.513 -31.0057C-110.739 -29.982 -112.544 -29.9878 -113.77 -31.0122C-121.282 -37.2889 -131.076 -41.0859 -141.788 -41.0859C-151.594 -41.0859 -160.631 -37.9042 -167.852 -32.5512C-168.587 -32.0066 -169 -31.1368 -169 -30.2222V75.8344Z" fill="white" fill-opacity="0.95"/>
</svg>
