<svg width="313" height="97" viewBox="0 0 313 97" fill="none" xmlns="http://www.w3.org/2000/svg">
<path fill-rule="evenodd" clip-rule="evenodd" d="M119.35 41.3245C121.289 42.085 123.625 41.0692 124.236 39.0788C129.763 21.0825 146.508 8 166.308 8C181.228 8 194.415 15.4299 202.373 26.7935C203.473 28.365 205.722 28.7027 207.281 27.5835C212.31 23.971 218.479 21.8438 225.144 21.8438C242.075 21.8438 255.8 35.5688 255.8 52.4994C255.8 55.0033 255.499 57.437 254.933 59.7666C254.43 61.8343 255.893 64 258.021 64H270.501C277.404 64 283.001 69.5964 283.001 76.5C283.001 83.4036 277.404 89 270.501 89H34.5009C27.5973 89 22.0009 83.4036 22.0009 76.5C22.0009 69.5964 27.5973 64 34.5009 64H82.8053C84.4295 64 85.7398 62.7011 85.9697 61.0932C87.7035 48.9626 97.9964 39.6441 110.435 39.6441C113.578 39.6441 116.585 40.2393 119.35 41.3245Z" fill="white" fill-opacity="0.95"/>
<path fill-rule="evenodd" clip-rule="evenodd" d="M117.363 40.2277C119.279 41.0441 121.61 40.0291 122.189 38.0292C128.549 16.061 148.806 0 172.813 0C190.945 0 206.938 9.1621 216.42 23.1115C217.498 24.6981 219.747 25.0364 221.283 23.8864C227.411 19.2963 235.022 16.5775 243.268 16.5775C263.543 16.5775 279.979 33.0135 279.979 53.2885C279.979 56.5939 279.543 59.7973 278.723 62.844C278.171 64.899 279.632 67.0619 281.76 67.0619H297.586C305.854 67.0619 312.556 73.7638 312.556 82.031C312.556 90.2983 305.854 97.0002 297.586 97.0002H14.9691C6.70187 97.0002 -3.05176e-05 90.2983 -3.05176e-05 82.031C-3.05176e-05 73.7638 6.70187 67.0619 14.9691 67.0619H73.3929C75.0171 67.0619 76.3305 65.7652 76.5298 64.1532C78.3601 49.3482 90.8135 37.895 105.904 37.895C109.967 37.895 113.839 38.7253 117.363 40.2277Z" fill="white" fill-opacity="0.5"/>
</svg>
