<svg width="502" height="166" viewBox="0 0 502 166" fill="none" xmlns="http://www.w3.org/2000/svg">
<path fill-rule="evenodd" clip-rule="evenodd" d="M152 46C152 25.5655 117.974 9 76 9C34.0264 9 0 25.5655 0 46H-11C-25.9117 46 -38 58.0883 -38 73C-38 87.9117 -25.9117 100 -11 100H12.7094C14.8828 100 16.3538 102.258 15.8213 104.365C15.285 106.488 15 108.711 15 111C15 125.912 27.0883 138 42 138H60.4129C62.8115 138 64.3358 140.77 63.6813 143.078C63.2375 144.642 63 146.293 63 148C63 157.941 71.0589 166 81 166H374C383.941 166 392 157.941 392 148C392 145.787 391.601 143.667 390.87 141.709C389.964 139.279 391.534 136 394.128 136H490.5C496.851 136 502 130.851 502 124.5C502 118.149 496.851 113 490.5 113H353.5C347.149 113 342 118.149 342 124.5C342 124.728 342.007 124.955 342.02 125.18C342.152 127.453 340.621 130 338.344 130H295.377C292.712 130 291.2 126.601 292.513 124.281C294.733 120.36 296 115.828 296 111C296 96.0883 283.912 84 269 84H214.291C212.117 84 210.646 81.7423 211.179 79.6352C211.715 77.5124 212 75.2895 212 73C212 58.0883 199.912 46 185 46H152Z" fill="white" fill-opacity="0.5"/>
<path fill-rule="evenodd" clip-rule="evenodd" d="M141 37C141 16.5655 106.974 0 65 0C23.0264 0 -11 16.5655 -11 37H-22C-36.9117 37 -49 49.0883 -49 64C-49 78.9117 -36.9117 91 -22 91H1.70939C3.88275 91 5.35376 93.2577 4.82133 95.3648C4.28496 97.4876 4 99.7105 4 102C4 116.912 16.0883 129 31 129H49.4129C51.8115 129 53.3358 131.77 52.6813 134.078C52.2375 135.642 52 137.293 52 139C52 148.941 60.0589 157 70 157H363C372.941 157 381 148.941 381 139C381 136.787 380.601 134.667 379.87 132.709C378.964 130.279 380.534 127 383.128 127H479.5C485.851 127 491 121.851 491 115.5C491 109.149 485.851 104 479.5 104H342.5C336.149 104 331 109.149 331 115.5C331 115.728 331.007 115.955 331.02 116.18C331.152 118.453 329.621 121 327.344 121H284.377C281.712 121 280.2 117.601 281.513 115.281C283.733 111.36 285 106.828 285 102C285 87.0883 272.912 75 258 75H203.291C201.117 75 199.646 72.7423 200.179 70.6352C200.715 68.5124 201 66.2895 201 64C201 49.0883 188.912 37 174 37H141Z" fill="white" fill-opacity="0.95"/>
</svg>
