<svg width="240" height="355" viewBox="0 0 240 355" fill="none" xmlns="http://www.w3.org/2000/svg">
<path fill-rule="evenodd" clip-rule="evenodd" d="M182 200.5C182 189.178 172.822 180 161.5 180H-66.6385C-86.1681 180 -102 195.832 -102 215.362V221V223V244.5C-102 246.985 -104.015 249 -106.5 249C-108.985 249 -111 251.015 -111 253.5V293.5C-111 293.776 -111.224 294 -111.5 294C-111.776 294 -112 294.224 -112 294.5V324.5C-112 341.345 -98.3447 355 -81.5 355H117.5C129.926 355 140 344.926 140 332.5C140 320.074 150.074 310 162.5 310H191.5C201.717 310 210 301.717 210 291.5V288C210 279.716 216.716 273 225 273C233.284 273 240 266.284 240 258V247C240 232.641 228.359 221 214 221H202.5C191.178 221 182 211.822 182 200.5Z" fill="#AFD157"/>
<path fill-rule="evenodd" clip-rule="evenodd" d="M85.5499 197.592C85.5499 192.547 81.46 188.457 76.4149 188.457H-106.167C-107.698 188.457 -108.938 189.698 -108.938 191.228C-108.938 192.759 -110.179 194 -111.71 194H-115.469C-119.076 194 -122 196.924 -122 200.53V276.638C-122 296.168 -106.168 312 -86.6385 312H-12.3615C7.16811 312 23 296.168 23 276.638V238.002C23 220.729 37.0023 206.727 54.275 206.727H76.4149C81.46 206.727 85.5499 202.637 85.5499 197.592Z" fill="#8EC442"/>
<path fill-rule="evenodd" clip-rule="evenodd" d="M-172 83.9231C-172 74.1298 -167.8 64.8068 -160.464 58.3186L-99.545 4.43727C-94.0277 -0.442589 -86.0632 -1.39087 -79.5545 2.05714L-37.9096 24.1184C-26.7238 30.0441 -19.7284 41.6662 -19.7284 54.3246V81.5104C-18.6474 80.2349 -17.0335 79.4253 -15.2305 79.4253H-12.8731C-9.61816 79.4253 -6.97952 82.064 -6.97952 85.3189C-6.97952 86.2954 -6.18793 87.087 -5.21144 87.087C-3.25848 87.087 -1.67529 88.6702 -1.67529 90.6231C-1.67529 92.5761 -3.25848 94.1593 -5.21144 94.1593C-5.21701 94.1593 -5.22037 94.1654 -5.21739 94.1701C-4.84042 94.7633 -4.62209 95.4672 -4.62209 96.222C-4.62209 96.4337 -4.63925 96.6414 -4.67229 96.8438L7.45332 100.903V91.4972C7.27039 91.5354 7.09315 91.5788 6.9234 91.628C6.53242 91.7412 6.11914 91.8018 5.6917 91.8018C3.25049 91.8018 1.2715 89.8229 1.2715 87.3816C1.2715 85.2446 2.78802 83.4618 4.80357 83.0507C5.13379 82.9834 5.39702 82.7091 5.39702 82.3721C5.39702 79.1172 8.03566 76.4785 11.2906 76.4785C13.6159 76.4785 15.6267 77.8252 16.5856 79.7811C17.1082 80.8472 18.0596 81.7827 19.2469 81.7827C21.0372 81.7827 22.4884 83.234 22.4884 85.0242C22.4884 87.804 19.08 91.2125 16.3002 91.2125H15.1837L11.4254 94.9707L12.706 102.661L21.3093 105.541C27.1646 107.5 32.0172 111.679 34.8241 117.179L49.1891 145.325C57.1944 161.01 45.8014 179.616 28.1914 179.616H20.0705C19.8146 179.616 19.5634 179.764 19.3122 179.911C19.0611 180.058 18.8099 180.206 18.554 180.206H-154.319C-164.084 180.206 -172 172.29 -172 162.525V83.9231ZM11.1875 93.5417L13.5167 91.2125H11.5853C11.3352 91.2125 11.0719 91.213 10.8002 91.2161L11.1875 93.5417Z" fill="#5F8924"/>
<path d="M-131.334 140.129C-131.334 130.364 -123.418 122.448 -113.653 122.448H-47.9015C-40.0897 122.448 -33.7569 128.781 -33.7569 136.593C-33.7569 144.405 -27.4241 150.738 -19.6123 150.738H53.43C63.1948 150.738 71.1108 158.654 71.1108 168.418V171.572C71.1108 174.53 71.8531 177.441 73.2697 180.038L77.2323 187.303C77.6607 188.088 77.0922 189.046 76.1975 189.046H15.711H-20.8263C-21.6063 189.046 -22.3785 189.201 -23.0982 189.502L-106.837 224.487C-118.485 229.353 -131.334 220.797 -131.334 208.173V140.129Z" fill="#7FB732"/>
<path fill-rule="evenodd" clip-rule="evenodd" d="M14.4258 145.619C14.4258 144.745 13.7173 144.036 12.8433 144.036H-37.0742C-40.1118 144.036 -42.5742 146.499 -42.5742 149.536C-42.5742 152.574 -40.1118 155.036 -37.0742 155.036H4.59972C6.34208 155.036 7.75455 156.449 7.75455 158.191C7.75455 159.934 9.16702 161.346 10.9094 161.346H29.2662C31.0564 161.346 32.5076 159.895 32.5076 158.105C32.5076 156.314 33.9589 154.863 35.7491 154.863L41.9374 154.863L43.7054 154.863L60.7968 154.863C63.4008 154.863 65.5117 156.974 65.5117 159.578V160.757C65.5117 162.71 67.0949 164.293 69.0479 164.293C71.0008 164.293 72.584 162.71 72.584 160.757V154.274C72.584 151.019 69.9454 148.38 66.6904 148.38H45.7682C44.629 148.38 43.7054 147.457 43.7054 146.318C43.7054 145.178 42.7819 144.255 41.6427 144.255H30.4449C29.6311 144.255 28.9715 144.914 28.9715 145.728C28.9715 146.542 28.3118 147.202 27.4981 147.202H16.0083C15.1343 147.202 14.4258 146.493 14.4258 145.619Z" fill="#AFD157"/>
<path d="M36.0439 164.882L36.0439 163.468C36.0439 160.343 38.577 157.81 41.7018 157.81L43.1163 157.81L43.1163 159.224C43.1163 162.349 40.5831 164.882 37.4584 164.882L36.0439 164.882Z" fill="#AFD157"/>
<path d="M50.1885 164.882L48.774 164.882C45.6493 164.882 43.1162 162.349 43.1162 159.224L43.1162 157.81L44.5306 157.81C47.6554 157.81 50.1885 160.343 50.1885 163.468L50.1885 164.882Z" fill="#AFD157"/>
<path d="M5.39746 164.882L3.983 164.882C0.858257 164.882 -1.67484 162.349 -1.67485 159.224L-1.67485 157.81L-0.260383 157.81C2.86436 157.81 5.39746 160.343 5.39746 163.468L5.39746 164.882Z" fill="#AFD157"/>
<path d="M45.4736 146.612L45.4736 145.198C45.4736 142.073 48.0067 139.54 51.1315 139.54L52.5459 139.54L52.5459 140.954C52.5459 144.079 50.0128 146.612 46.8881 146.612L45.4736 146.612Z" fill="#AFD157"/>
<path d="M56 323L58.9468 323C65.4567 323 70.734 328.277 70.734 334.787L70.734 337.734L67.7872 337.734C61.2773 337.734 56 332.457 56 325.947L56 323Z" fill="#8EC442"/>
<path d="M27 178L29.9468 178C36.4567 178 41.734 183.277 41.734 189.787L41.734 192.734L38.7872 192.734C32.2773 192.734 27 187.457 27 180.947L27 178Z" fill="#70A22B"/>
<path d="M85.4668 323L85.4668 325.947C85.4668 332.457 80.1895 337.734 73.6796 337.734L70.7328 337.734L70.7328 334.787C70.7328 328.277 76.0101 323 82.52 323L85.4668 323Z" fill="#8EC442"/>
<path d="M56.4668 178L56.4668 180.947C56.4668 187.457 51.1895 192.734 44.6796 192.734L41.7328 192.734L41.7328 189.787C41.7328 183.277 47.0101 178 53.52 178L56.4668 178Z" fill="#70A22B"/>
<ellipse cx="154" cy="292" rx="27" ry="6" fill="#8EC442"/>
<ellipse cx="58" cy="285" rx="27" ry="6" fill="#8EC442"/>
<ellipse cx="117.5" cy="253" rx="49.5" ry="9" fill="#8EC442"/>
<ellipse cx="200" cy="257" rx="27" ry="6" fill="#8EC442"/>
<g clip-path="url(#clip0_1071_1115)">
<g clip-path="url(#clip1_1071_1115)">
<ellipse cx="102.248" cy="182.928" rx="7.46151" ry="8.04073" transform="rotate(-28.6896 102.248 182.928)" fill="#5BB42B"/>
<ellipse cx="7.46151" cy="8.04073" rx="7.46151" ry="8.04073" transform="matrix(-0.877234 -0.480064 -0.480064 0.877234 145.07 179.249)" fill="#5BB42B"/>
<path d="M138.751 215.1C134.125 216.469 127.399 212.055 124.615 209.678C124.505 209.279 124.393 208.279 124.83 207.471C125.376 206.46 136.923 206.802 139.557 207.361C142.191 207.919 144.534 213.39 138.751 215.1Z" fill="#5C9A15"/>
<path d="M128.71 235.451C130.048 234.904 131.352 227.61 131.088 223.979L118.228 226.031C117.964 228.978 117.946 234.988 118.58 235.451C119.373 236.03 127.036 236.135 128.71 235.451Z" fill="#5C9A15"/>
<path d="M129.715 227.372C133.717 224.711 128.307 208.108 124.397 206.017C120.488 203.926 114.13 204.243 111.337 206.017C108.545 207.791 101.645 224.647 105.647 227.372C109.649 230.097 125.712 230.034 129.715 227.372Z" fill="#5BB42B"/>
<path d="M106.841 235.451C105.502 234.904 104.199 227.61 104.463 223.979L117.323 226.031C117.587 228.978 117.605 234.988 116.97 235.451C116.178 236.03 108.515 236.135 106.841 235.451Z" fill="#5BB42B"/>
<path d="M97.2506 214.782C101.808 216.366 108.732 212.273 111.625 210.029C111.754 209.635 111.913 208.642 111.514 207.814C111.016 206.779 99.4662 206.579 96.8089 207.013C94.1516 207.447 91.5543 212.802 97.2506 214.782Z" fill="#5BB42B"/>
<path d="M127.95 220.881C127.95 226.54 123.688 227.899 118.43 227.899C113.172 227.899 108.91 226.54 108.91 220.881C108.91 213.442 113.172 209.232 118.43 209.232C123.688 209.232 127.95 213.442 127.95 220.881Z" fill="#A1DC3C"/>
<path d="M118.721 224.912C118.759 224.912 118.797 224.905 118.833 224.891C118.868 224.876 118.9 224.855 118.928 224.828L120.224 223.524C120.272 223.468 120.297 223.397 120.294 223.324C120.291 223.251 120.261 223.182 120.209 223.13C120.157 223.079 120.088 223.048 120.014 223.046C119.941 223.043 119.869 223.068 119.814 223.115L118.514 224.405C118.487 224.432 118.465 224.464 118.45 224.499C118.435 224.535 118.428 224.572 118.428 224.611C118.428 224.649 118.435 224.687 118.45 224.722C118.465 224.757 118.487 224.79 118.514 224.816C118.54 224.845 118.572 224.869 118.608 224.885C118.643 224.902 118.682 224.911 118.721 224.912Z" fill="#5BB42B"/>
<path d="M120.004 224.912C120.042 224.912 120.079 224.905 120.115 224.891C120.15 224.876 120.182 224.855 120.209 224.828C120.236 224.801 120.258 224.769 120.272 224.734C120.287 224.699 120.294 224.661 120.294 224.623C120.294 224.585 120.287 224.547 120.272 224.512C120.258 224.477 120.236 224.445 120.209 224.418L118.922 223.131C118.895 223.104 118.864 223.082 118.828 223.068C118.793 223.053 118.755 223.045 118.717 223.045C118.679 223.045 118.641 223.053 118.606 223.068C118.571 223.082 118.539 223.104 118.512 223.131C118.458 223.185 118.428 223.258 118.428 223.335C118.428 223.411 118.458 223.484 118.512 223.539L119.801 224.828C119.855 224.882 119.928 224.912 120.004 224.912Z" fill="#5BB42B"/>
<path d="M142.615 195.842C142.615 205.687 131.764 208.952 118.575 208.952C105.386 208.952 94.4546 205.687 94.4546 195.842C94.4546 181.698 105.386 175.632 118.575 175.632C131.764 175.632 142.615 180.578 142.615 195.842Z" fill="#5BB42B"/>
<path d="M103.602 182.911V185.898" stroke="black" stroke-width="2.80004" stroke-linecap="round"/>
<path d="M135.336 182.725V185.712" stroke="black" stroke-width="2.80004" stroke-linecap="round"/>
<path d="M99.4951 192.431H102.668" stroke="#A1DC3C" stroke-width="3.73339" stroke-linecap="round"/>
<path d="M134.028 192.431H137.202" stroke="#A1DC3C" stroke-width="3.73339" stroke-linecap="round"/>
<path d="M123.015 189.456C123.015 187.213 123.015 186.085 118.815 186.085C114.615 186.085 114.615 187.012 114.615 189.456C114.615 193.459 116.496 195.792 118.815 195.792C121.135 195.792 123.015 193.179 123.015 189.456Z" fill="#FFD2D2"/>
<path fill-rule="evenodd" clip-rule="evenodd" d="M114.623 189.869C114.748 193.619 116.577 195.793 118.816 195.793C120.441 195.793 121.85 194.51 122.548 192.463C121.736 191.513 120.533 190.689 119.081 190.18C117.498 189.625 115.914 189.547 114.623 189.869Z" fill="#FF2D2D"/>
<path fill-rule="evenodd" clip-rule="evenodd" d="M143.027 195.636C142.816 195.353 142.742 194.975 142.861 194.614C143.056 194.027 143.69 193.709 144.277 193.903C144.864 194.098 145.182 194.732 144.988 195.319C144.871 195.67 144.598 195.925 144.271 196.032C144.268 196.043 144.264 196.054 144.261 196.065L138.622 213.078C138.509 213.421 138.139 213.607 137.797 213.493C137.454 213.38 137.268 213.01 137.382 212.667L143.02 195.654C143.022 195.648 143.024 195.642 143.027 195.636Z" fill="#AC6647"/>
<path fill-rule="evenodd" clip-rule="evenodd" d="M92.1824 195.636C92.3934 195.353 92.4673 194.975 92.3478 194.614C92.1532 194.027 91.5195 193.709 90.9323 193.903C90.3451 194.098 90.0269 194.732 90.2215 195.319C90.3379 195.67 90.6114 195.925 90.9382 196.032C90.9412 196.043 90.9446 196.054 90.9483 196.065L96.5867 213.078C96.7002 213.421 97.0699 213.607 97.4124 213.493C97.7549 213.38 97.9406 213.01 97.827 212.667L92.1887 195.654C92.1867 195.648 92.1846 195.642 92.1824 195.636Z" fill="#AC6647"/>
</g>
<rect x="81.6143" y="213.186" width="22.0271" height="26.5844" fill="#377246"/>
<path d="M81.6143 239.77H103.641" stroke="#E7EAEE" stroke-width="1.26592" stroke-linecap="round"/>
<path d="M81.6143 213.186H103.641" stroke="#E7EAEE" stroke-width="1.26592" stroke-linecap="round"/>
<path d="M102.375 213.439V215.338" stroke="#A1DC3C" stroke-width="1.26592" stroke-linecap="round"/>
<path d="M102.375 237.239V239.138" stroke="#A1DC3C" stroke-width="1.26592" stroke-linecap="round"/>
<rect x="97.0586" y="203.818" width="17.4697" height="13.1656" fill="#377246"/>
<path d="M113.264 203.818V205.717" stroke="#E7EAEE" stroke-width="1.26592" stroke-linecap="round"/>
<rect x="127.434" y="212.933" width="18.4825" height="8.35509" fill="#377246"/>
<path d="M127.44 212.933H145.923" stroke="#E7EAEE" stroke-width="1.26592" stroke-linecap="round"/>
<rect x="122.376" y="204.578" width="17.2166" height="11.6465" fill="#377246"/>
<path d="M112.755 210.401H116.806V217.997" stroke="#E7EAEE" stroke-width="1.51911" stroke-linecap="round" stroke-linejoin="round"/>
<path d="M124.402 210.401H120.351V217.997" stroke="#E7EAEE" stroke-width="1.51911" stroke-linecap="round" stroke-linejoin="round"/>
<path d="M97.0586 203.818H114.528" stroke="#E7EAEE" stroke-width="1.26592" stroke-linecap="round"/>
<path d="M122.376 204.578H139.593" stroke="#E7EAEE" stroke-width="1.26592" stroke-linecap="round"/>
<path d="M122.376 216.225H139.593" stroke="#E7EAEE" stroke-width="1.26592" stroke-linecap="round"/>
<path d="M97.0586 216.984H114.528" stroke="#E7EAEE" stroke-width="1.26592" stroke-linecap="round"/>
<path d="M79.9678 222.807V239.137C79.9678 240.361 79.6386 242.986 78.3221 243.695C76.6764 244.581 75.537 246.48 75.537 248.758" stroke="#E7EAEE" stroke-width="1.26592" stroke-linecap="round"/>
<path d="M78.5767 227.871C78.5767 227.451 78.9167 227.111 79.3362 227.111H81.6149V231.415H79.3362C78.9167 231.415 78.5767 231.075 78.5767 230.656V227.871Z" fill="#E7EAEE"/>
<rect x="94.7798" y="227.237" width="3.03821" height="4.30414" rx="0.759554" fill="#E7EAEE"/>
<rect x="74.2734" y="247.366" width="2.53185" height="2.78503" rx="0.506369" fill="#377246"/>
<path d="M92.5 213.439V215.338" stroke="#E7EAEE" stroke-width="1.26592" stroke-linecap="round"/>
<path d="M105.667 203.818V205.717" stroke="#E7EAEE" stroke-width="1.26592" stroke-linecap="round"/>
<path d="M130.985 204.832V206.73" stroke="#E7EAEE" stroke-width="1.26592" stroke-linecap="round"/>
<path d="M98.3242 203.818V205.717" stroke="#E7EAEE" stroke-width="1.26592" stroke-linecap="round"/>
<path d="M123.642 204.832V206.73" stroke="#E7EAEE" stroke-width="1.26592" stroke-linecap="round"/>
<path d="M138.58 204.832V206.73" stroke="#E7EAEE" stroke-width="1.26592" stroke-linecap="round"/>
<path d="M105.667 214.452V216.351" stroke="#E7EAEE" stroke-width="1.26592" stroke-linecap="round"/>
<path d="M130.985 213.693V215.592" stroke="#E7EAEE" stroke-width="1.26592" stroke-linecap="round"/>
<path d="M123.642 213.693V215.592" stroke="#E7EAEE" stroke-width="1.26592" stroke-linecap="round"/>
<path d="M136.808 219.263V221.162" stroke="#E7EAEE" stroke-width="1.26592" stroke-linecap="round"/>
<path d="M138.58 213.693V215.592" stroke="#E7EAEE" stroke-width="1.26592" stroke-linecap="round"/>
<path d="M98.3242 214.452V216.351" stroke="#E7EAEE" stroke-width="1.26592" stroke-linecap="round"/>
<path d="M128.706 219.263V221.162" stroke="#E7EAEE" stroke-width="1.26592" stroke-linecap="round"/>
<path d="M113.264 214.452V216.351" stroke="#E7EAEE" stroke-width="1.26592" stroke-linecap="round"/>
<path d="M144.658 219.263V221.162" stroke="#E7EAEE" stroke-width="1.26592" stroke-linecap="round"/>
<path d="M144.658 213.186V215.085" stroke="#E7EAEE" stroke-width="1.26592" stroke-linecap="round"/>
<path d="M82.8813 213.439V215.338" stroke="#E7EAEE" stroke-width="1.26592" stroke-linecap="round"/>
<path d="M92.5 237.239V239.138" stroke="#E7EAEE" stroke-width="1.26592" stroke-linecap="round"/>
<path d="M82.8813 237.239V239.138" stroke="#E7EAEE" stroke-width="1.26592" stroke-linecap="round"/>
<path d="M136.733 221.415V225.593M136.733 236.733L130.91 243.442C130.783 243.611 130.505 243.999 130.403 244.202C130.302 244.404 130.277 245.046 130.277 245.341M136.733 236.733L142.556 243.442C142.683 243.611 142.961 243.999 143.063 244.202C143.164 244.404 143.189 245.046 143.189 245.341M136.733 236.733V225.593M136.733 236.733V246.48M136.733 225.593L142.809 221.415M136.733 225.593L130.657 221.415" stroke="#E7EAEE" stroke-width="1.01274" stroke-linecap="round" stroke-linejoin="round"/>
<path d="M127.44 221.288H145.923" stroke="#E7EAEE" stroke-width="1.26592" stroke-linecap="round"/>
<path d="M96.2979 222.933V239.264C96.2979 240.487 96.627 243.112 97.9436 243.821C99.5893 244.707 100.729 246.606 100.729 248.885" stroke="#E7EAEE" stroke-width="1.26592" stroke-linecap="round"/>
<rect x="99.3374" y="247.493" width="2.53185" height="2.78503" rx="0.506369" fill="#377246"/>
<path d="M104.973 249.772L103.707 254.076" stroke="#E7EAEE" stroke-width="1.01274" stroke-linecap="round" stroke-linejoin="round"/>
<path d="M131.048 249.772L132.314 254.076" stroke="#E7EAEE" stroke-width="1.01274" stroke-linecap="round" stroke-linejoin="round"/>
<circle cx="118.074" cy="236.48" r="18.4825" fill="#377246" stroke="#E7EAEE" stroke-width="1.26592"/>
<path d="M113.567 236.498V233.334L106.931 239.972L108.499 241.573L113.567 236.498ZM128.686 234.52C128.195 232.048 126.337 230.194 126.123 229.974L121.562 225.339L118.956 227.944L118.77 228.129V231.294L121.553 228.512L124.147 231.149L124.543 231.55L124.571 231.578C124.571 231.578 124.744 231.748 124.982 232.032C125.713 232.871 126.231 233.873 126.494 234.953C126.865 236.807 127.051 238.992 124.982 241.644V244.913C125.177 244.743 125.291 244.623 125.344 244.58C127.199 242.763 128.309 240.927 128.745 238.964C129.047 237.496 129.028 235.98 128.69 234.52H128.686ZM114.871 244.289L114.803 244.255H114.769C114.567 244.15 114.375 244.027 114.194 243.887C114.024 243.767 113.817 243.606 113.576 243.399C113.199 243.09 112.729 242.67 112.157 242.11L110.873 240.8L109.29 242.382L110.567 243.683V243.702C112.543 245.63 113.557 246.174 113.931 246.332C115.116 246.915 116.4 247.271 117.716 247.38C118.321 247.427 118.929 247.414 119.531 247.343L119.676 247.327V245.059C118.035 245.319 116.353 245.049 114.874 244.289H114.871Z" fill="#E7EAEE"/>
<path d="M117.656 229.248V242.759H114.69V232.214L114.987 231.918L115.148 231.757L116.045 230.861L116.651 230.255L116.849 230.057L117.458 229.448L117.656 229.248Z" fill="#E7EAEE"/>
<path d="M123.864 232.267V245.747L123.827 245.775C123.691 245.862 123.546 245.951 123.391 246.038C123.342 246.069 123.289 246.097 123.236 246.124C123.1 246.202 122.955 246.279 122.807 246.353C122.658 246.427 122.525 246.489 122.377 246.554L122.133 246.659L121.799 246.789L121.527 246.885C121.341 246.946 121.149 247.005 120.951 247.058L120.806 247.095V232.267H123.864Z" fill="#E7EAEE"/>
<path d="M120.805 235.83H117.654V238.89H120.805V235.83Z" fill="#E7EAEE"/>
<path d="M88.9547 192.805V237.366M88.9547 237.366L83.5112 244.582M88.9547 237.366V249.266M88.9547 237.366L94.2715 244.582M78.7007 252.43C78.7007 252.43 78.7588 251.405 78.9539 250.785C79.0999 250.32 79.5868 249.645 79.5868 249.645L83.5112 244.582M99.2086 252.43C99.2086 252.43 99.1795 251.395 98.9554 250.785C98.7801 250.307 98.3225 249.645 98.3225 249.645L94.2715 244.582M88.9547 254.709V249.266M83.5112 244.582L88.9547 249.266M88.9547 249.266L94.2715 244.582" stroke="#E7EAEE" stroke-width="1.26592" stroke-linecap="round"/>
<rect x="98.0718" y="252.05" width="2.53185" height="2.78503" rx="0.506369" fill="#377246"/>
<rect x="77.562" y="252.05" width="2.53185" height="2.78503" rx="0.506369" fill="#377246"/>
<rect x="87.6899" y="254.076" width="2.53185" height="2.78503" rx="0.506369" fill="#377246"/>
<path d="M156.809 195.21V231.416M156.809 231.416L151.365 238.631M156.809 231.416V243.315M156.809 231.416L162.126 238.631M146.555 246.48C146.555 246.48 146.613 245.455 146.808 244.834C146.954 244.37 147.441 243.695 147.441 243.695L151.365 238.631M167.063 246.48C167.063 246.48 167.033 245.445 166.809 244.834C166.634 244.357 166.176 243.695 166.176 243.695L162.126 238.631M156.809 248.759V243.315M151.365 238.631L156.809 243.315M156.809 243.315L162.126 238.631" stroke="#E7EAEE" stroke-width="1.26592" stroke-linecap="round"/>
<rect x="87.6899" y="200.4" width="2.53185" height="2.53185" rx="0.506369" fill="#377246"/>
<path d="M88.1963 195.337H89.7154" stroke="#377246" stroke-width="1.01274" stroke-linecap="round"/>
<path d="M155.007 203.565C154.431 203.902 147.695 204.451 147.695 205.084C147.695 205.717 151.493 206.35 156.809 206.35C162.126 206.35 165.924 205.717 165.924 205.084C165.924 204.451 159.188 203.987 158.612 203.649C158.035 203.312 157.819 202.805 156.809 202.805C155.8 202.805 155.584 203.227 155.007 203.565Z" fill="#C79622"/>
<path d="M85.8479 196.982C84.8351 197.489 73.0063 198.628 73.0063 199.261C73.0063 199.894 82.7599 200.4 89.0125 200.4C95.2651 200.4 105.019 200.021 105.019 199.388C105.019 198.755 93.1901 197.615 92.1774 197.109C91.1646 196.603 90.7848 195.843 89.0125 195.843C87.2403 195.843 86.8606 196.476 85.8479 196.982Z" fill="#C79622"/>
<rect x="145.416" y="245.34" width="2.53185" height="2.78503" rx="0.506369" fill="#377246"/>
<rect x="142.14" y="244.766" width="2.02548" height="2.02548" rx="0.506369" fill="#377246"/>
<rect x="135.759" y="245.779" width="2.02548" height="2.02548" rx="0.506369" fill="#377246"/>
<rect x="102.843" y="252.403" width="2.53185" height="2.78503" rx="0.506369" transform="rotate(15 102.843 252.403)" fill="#377246"/>
<rect width="2.53185" height="2.78503" rx="0.506369" transform="matrix(-0.965926 0.258819 0.258819 0.965926 133.177 252.403)" fill="#377246"/>
<rect x="155.543" y="247.366" width="2.53185" height="2.78503" rx="0.506369" fill="#377246"/>
<rect x="155.543" y="206.35" width="2.53185" height="1.51911" rx="0.506369" fill="#377246"/>
<rect x="165.925" y="245.34" width="2.53185" height="2.78503" rx="0.506369" fill="#377246"/>
<path d="M156.05 202.552H157.569" stroke="#377246" stroke-width="1.01274" stroke-linecap="round"/>
<rect x="110.478" y="208.629" width="3.54458" height="3.54458" rx="0.759554" fill="#E7EAEE"/>
<rect x="115.287" y="211.92" width="3.03821" height="1.77229" rx="0.759554" fill="#E7EAEE"/>
<rect x="118.832" y="211.921" width="3.03821" height="1.77229" rx="0.759554" fill="#E7EAEE"/>
<rect x="123.137" y="208.629" width="3.54458" height="3.54458" rx="0.759554" fill="#E7EAEE"/>
</g>
<g clip-path="url(#clip2_1071_1115)">
<path d="M76.703 259.221C72.3791 257.831 69.8785 256.227 66.2811 256.908C65.9871 257.199 65.3935 258.012 65.3715 258.93C65.3439 260.079 73.2758 264.025 75.9406 264.41C78.8764 264.834 80.9621 260.59 76.703 259.221Z" fill="#E7EAEE"/>
<path d="M69.7613 284.848C71.1001 284.3 72.4037 277.006 72.1394 273.375L59.2797 275.428C59.0155 278.375 58.9979 284.384 59.6321 284.848C60.4248 285.426 68.0878 285.532 69.7613 284.848Z" fill="#E7EAEE"/>
<path d="M70.7664 276.769C74.7687 274.107 69.3584 257.505 65.4491 255.413C61.5399 253.322 55.1816 253.639 52.3892 255.413C49.5969 257.188 42.6965 274.044 46.6989 276.769C50.7012 279.493 66.764 279.43 70.7664 276.769Z" fill="white"/>
<path d="M47.893 284.848C46.5542 284.3 45.2506 277.006 45.5149 273.375L58.3745 275.428C58.6388 278.375 58.6564 284.384 58.0222 284.848C57.2295 285.426 49.5665 285.532 47.893 284.848Z" fill="white"/>
<path d="M69.0003 271.119C69.0003 276.098 64.7379 277.294 59.4801 277.294C54.2223 277.294 49.96 276.098 49.96 271.119C49.96 264.573 54.2223 260.867 59.4801 260.867C64.7379 260.867 69.0003 264.573 69.0003 271.119Z" fill="#E7EAEE"/>
<path d="M43.8211 218.113C45.3144 222.954 51.7087 232.431 53.0612 236.394H65.8481C67.2005 232.431 73.1019 222.954 74.9949 218.113C77.3426 212.11 74.9008 204.307 68.3062 204.307C62.8614 204.307 60.3107 213.298 59.5946 218.113C58.8786 213.298 56.1412 204.307 50.883 204.307C44.2884 204.307 41.9208 211.954 43.8211 218.113Z" fill="white"/>
<path d="M82.5732 245.654C82.5732 255.396 71.89 258.627 58.9055 258.627C45.9211 258.627 35.1592 255.396 35.1592 245.654C35.1592 229.042 45.9211 223.346 58.9055 223.346C71.89 223.346 82.5732 228.251 82.5732 245.654Z" fill="white"/>
<path d="M50.0952 242.761V245.748" stroke="#123041" stroke-width="2.80004" stroke-linecap="round"/>
<path d="M72.6807 242.761V245.748" stroke="#123041" stroke-width="2.80004" stroke-linecap="round"/>
<path d="M44.4937 250.041H47.2937" stroke="#FFC0C1" stroke-width="3.73339" stroke-linecap="round"/>
<path d="M75.481 250.041H78.281" stroke="#FFC0C1" stroke-width="3.73339" stroke-linecap="round"/>
<path d="M64.4667 250.5C64.4667 252.182 64.4667 253.028 61.3867 253.028C58.3066 253.028 58.3066 252.332 58.3066 250.5C58.3066 248.667 59.6856 245.747 61.3867 245.747C63.0878 245.747 64.4667 248.818 64.4667 250.5Z" fill="#FFC0C1"/>
<path fill-rule="evenodd" clip-rule="evenodd" d="M58.7637 248.363C59.3058 246.99 60.2785 245.747 61.3884 245.747C62.4832 245.747 63.4446 247.019 63.9908 248.374C63.2522 248.719 62.3554 248.921 61.3885 248.921C60.4118 248.921 59.5066 248.715 58.7637 248.363Z" fill="#E7EAEE"/>
<path d="M60.624 243.134C60.9904 243.134 61.1583 243.287 61.3873 243.44C61.6163 243.287 61.7843 243.134 62.1506 243.134C62.6086 243.134 62.8747 243.614 62.7613 243.898C62.6086 244.28 62.0489 244.662 61.3873 244.814C60.7258 244.662 60.1661 244.28 60.0134 243.898C59.9 243.614 60.166 243.134 60.624 243.134Z" fill="#FFC0C1"/>
<g clip-path="url(#clip3_1071_1115)">
<path d="M64.8058 275.702C68.4523 274.472 71.1404 270.243 68.6861 262.968C66.2318 255.694 61.5309 253.957 57.8843 255.188C55.4853 255.997 54.9038 258.233 51.1613 259.496C47.4188 260.759 44.4356 256.985 38.6299 258.944C32.8243 260.903 32.708 268.636 34.6679 274.446C36.6278 280.255 41.4054 286.337 47.2111 284.378C53.0167 282.42 53.1043 277.61 56.8468 276.347C60.5892 275.085 62.4067 276.512 64.8058 275.702Z" fill="#AC6647"/>
<circle cx="57.4016" cy="266.777" r="3.85865" transform="rotate(71.3563 57.4016 266.777)" fill="#7B5341"/>
<circle cx="57.4017" cy="266.776" r="4.52972" transform="rotate(71.3563 57.4017 266.776)" stroke="black" stroke-width="0.335535"/>
<path d="M92.5312 251.56C92.8319 251.458 93.1642 251.535 93.3768 251.771C93.8364 252.28 94.611 253.219 94.8882 254.04C95.1654 254.862 95.1179 256.078 95.0606 256.761C95.0341 257.078 94.8163 257.34 94.5156 257.441L87.2645 259.888C87.0325 259.966 86.7778 259.939 86.5674 259.814L85.9013 259.417C85.6908 259.292 85.4362 259.265 85.2042 259.344L85.0134 259.408C84.5744 259.556 84.0985 259.32 83.9504 258.881L83.2532 256.815C83.1051 256.376 83.3409 255.9 83.7798 255.752L84.0294 255.668C84.2733 255.585 84.4659 255.396 84.5519 255.153L84.7784 254.514C84.8643 254.271 85.057 254.081 85.3009 253.999L92.5312 251.56Z" fill="#563628"/>
<path d="M59.9355 263.266L83.941 255.698L85.1745 259.354L61.5445 268.034L59.9355 263.266Z" fill="#D07C57"/>
<path d="M44.8184 264.647L48.6263 275.934L46.2418 276.738C46.2418 276.738 45.9782 275.855 45.7591 275.308C45.0978 273.655 43.9664 273.099 43.3841 271.417C42.7808 269.674 43.3691 268.497 42.863 266.724C42.7191 266.22 42.4339 265.452 42.4339 265.452L44.8184 264.647Z" fill="#563628"/>
<path d="M44.7816 268.467L86.6456 255.316" stroke="#968779" stroke-width="0.167767"/>
<path d="M46.3883 273.236L87.4487 257.966" stroke="#968779" stroke-width="0.167767"/>
<path d="M45.4238 270.375L92.4771 254.499" stroke="#968779" stroke-width="0.167767"/>
<path d="M92.6924 255.135L45.7464 271.328" stroke="#968779" stroke-width="0.167767"/>
<path d="M46.0684 272.282L89.9922 256.578" stroke="#968779" stroke-width="0.167767"/>
<path d="M89.4544 254.988L45.1015 269.421" stroke="#968779" stroke-width="0.167767"/>
<circle cx="44.7795" cy="268.467" r="0.251651" transform="rotate(71.3563 44.7795 268.467)" fill="black"/>
<circle cx="45.1018" cy="269.421" r="0.251651" transform="rotate(71.3563 45.1018 269.421)" fill="black"/>
<circle cx="45.424" cy="270.374" r="0.251651" transform="rotate(71.3563 45.424 270.374)" fill="black"/>
<circle cx="45.7463" cy="271.328" r="0.251651" transform="rotate(71.3563 45.7463 271.328)" fill="black"/>
<circle cx="46.0666" cy="272.282" r="0.251651" transform="rotate(71.3563 46.0666 272.282)" fill="black"/>
<circle cx="46.3889" cy="273.235" r="0.251651" transform="rotate(71.3563 46.3889 273.235)" fill="black"/>
<circle cx="86.592" cy="255.422" r="0.251651" transform="rotate(71.3563 86.592 255.422)" fill="#B9B9B9"/>
<circle cx="89.4548" cy="254.989" r="0.251651" transform="rotate(71.3563 89.4548 254.989)" fill="#B9B9B9"/>
<circle cx="92.4768" cy="254.499" r="0.251651" transform="rotate(71.3563 92.4768 254.499)" fill="#B9B9B9"/>
<circle cx="92.6921" cy="255.135" r="0.251651" transform="rotate(71.3563 92.6921 255.135)" fill="#B9B9B9"/>
<circle cx="89.9924" cy="256.577" r="0.251651" transform="rotate(71.3563 89.9924 256.577)" fill="#B9B9B9"/>
<circle cx="87.4504" cy="257.966" r="0.251651" transform="rotate(71.3563 87.4504 257.966)" fill="#B9B9B9"/>
<path d="M79.5796 262.445C79.3938 264.009 77.6767 265.091 75.7446 264.862C71.7504 265.063 72.0713 263.073 72.6165 262.04C73.1616 261.007 74.3196 259.793 76.3583 259.697C78.3971 259.601 79.7655 260.881 79.5796 262.445Z" fill="#E7EAEE"/>
</g>
<path d="M55.5418 268.119C52.9473 267.681 49.247 262.992 47.7913 259.633C47.5833 259.153 47.3518 258.033 48.954 257.745C50.0846 257.541 58.0808 260.28 59.6674 261.522C61.788 263.181 61.488 269.125 55.5418 268.119Z" fill="#E7EAEE"/>
</g>
<g clip-path="url(#clip4_1071_1115)">
<path d="M180.731 235.452C185.362 236.805 192.073 232.37 194.849 229.984C194.959 229.584 195.067 228.584 194.628 227.777C194.078 226.769 182.533 227.148 179.901 227.715C177.268 228.281 174.943 233.76 180.731 235.452Z" fill="#FFC532"/>
<path d="M189.814 257.114C188.476 256.567 187.172 249.273 187.436 245.642L200.296 247.694C200.56 250.641 200.578 256.651 199.944 257.114C199.151 257.693 191.488 257.798 189.814 257.114Z" fill="#FFC532"/>
<path d="M188.809 249.035C184.807 246.374 190.217 229.771 194.127 227.68C198.036 225.589 204.394 225.906 207.186 227.68C209.979 229.454 216.879 246.31 212.877 249.035C208.874 251.76 192.812 251.697 188.809 249.035Z" fill="#FFDB40"/>
<path d="M211.683 257.114C213.022 256.567 214.326 249.273 214.061 245.642L201.202 247.694C200.937 250.641 200.92 256.651 201.554 257.114C202.347 257.693 210.01 257.798 211.683 257.114Z" fill="#FFDB40"/>
<path d="M199.802 246.574C199.764 246.574 199.726 246.567 199.69 246.553C199.655 246.538 199.622 246.517 199.595 246.49L198.299 245.186C198.251 245.13 198.226 245.059 198.229 244.986C198.232 244.913 198.262 244.844 198.314 244.792C198.366 244.741 198.435 244.711 198.509 244.708C198.582 244.705 198.654 244.73 198.709 244.777L200.009 246.067C200.036 246.094 200.058 246.126 200.073 246.161C200.088 246.197 200.095 246.235 200.095 246.273C200.095 246.311 200.088 246.349 200.073 246.384C200.058 246.42 200.036 246.452 200.009 246.479C199.983 246.508 199.951 246.531 199.915 246.547C199.88 246.564 199.841 246.573 199.802 246.574Z" fill="#FFB132"/>
<path d="M198.519 246.574C198.481 246.574 198.444 246.567 198.408 246.553C198.373 246.538 198.341 246.517 198.314 246.49C198.287 246.463 198.265 246.431 198.251 246.396C198.236 246.361 198.229 246.323 198.229 246.285C198.229 246.247 198.236 246.209 198.251 246.174C198.265 246.139 198.287 246.107 198.314 246.08L199.601 244.793C199.627 244.766 199.659 244.744 199.695 244.73C199.73 244.715 199.768 244.708 199.806 244.708C199.844 244.708 199.882 244.715 199.917 244.73C199.952 244.744 199.984 244.766 200.011 244.793C200.065 244.847 200.095 244.921 200.095 244.997C200.095 245.073 200.065 245.147 200.011 245.201L198.722 246.49C198.668 246.544 198.595 246.574 198.519 246.574Z" fill="#FFB132"/>
<path d="M176.988 217.734C176.988 227.477 187.671 230.708 200.656 230.708C213.64 230.708 224.402 227.477 224.402 217.734C224.402 201.123 213.64 195.427 200.656 195.427C187.671 195.427 176.988 200.332 176.988 217.734Z" fill="#FFDB40"/>
<path d="M216.002 222.495H213.202" stroke="#FCA18E" stroke-width="3.73339" stroke-linecap="round"/>
<path d="M185.015 222.495H182.215" stroke="#FCA18E" stroke-width="3.73339" stroke-linecap="round"/>
<path d="M210.403 215.774V218.761" stroke="black" stroke-width="2.80004" stroke-linecap="round"/>
<path d="M187.814 215.774V218.761" stroke="black" stroke-width="2.80004" stroke-linecap="round"/>
<path d="M194.349 220.067C194.349 221.768 196.48 222.494 199.109 222.494C201.738 222.494 203.869 221.768 203.869 220.067C203.869 218.366 201.738 216.334 199.109 216.334C196.48 216.334 194.349 218.366 194.349 220.067Z" fill="#FFB132"/>
<path d="M204.193 188.935C201.362 191.446 199.735 194.263 199.254 196.826L204.237 196.294C206.289 196.075 208.255 193.657 208.164 190.721C208.073 187.785 205.633 187.658 204.193 188.935Z" fill="#FFDB40"/>
<path d="M198.993 192.902C199.874 193.763 200.097 195.639 200.098 196.469C198.39 196.311 195.524 195.786 195.011 194.692C194.497 193.599 194.817 192.239 195.443 191.915C196.069 191.591 197.89 191.826 198.993 192.902Z" fill="#FFDB40"/>
<path d="M198.624 235.523C202.926 237.707 210.339 234.586 213.509 232.752C213.69 232.38 213.535 231.268 213.163 230.428C212.162 228.166 201.926 227.694 199.235 227.765C196.543 227.837 193.247 232.792 198.624 235.523Z" fill="#FFC532"/>
<g clip-path="url(#clip5_1071_1115)">
<rect width="70.9344" height="5.30946" rx="1.06189" transform="matrix(-1 0 0 1 230.149 231.627)" fill="#FF686B"/>
<rect width="19.7512" height="4.45995" rx="1.06189" transform="matrix(-1 0 0 1 203.814 222.495)" fill="#FF686B"/>
<rect width="1.06189" height="22.776" rx="0.424757" transform="matrix(-0.810295 -0.586022 -0.586022 0.810295 201.053 238.195)" fill="#123041"/>
<rect x="186.824" y="238.195" width="1.06189" height="22.776" rx="0.424757" transform="rotate(-35.8752 186.824 238.195)" fill="#123041"/>
<rect x="196.262" y="225.778" width="1.06189" height="12.9287" rx="0.424757" transform="rotate(-16.9822 196.262 225.778)" fill="#123041"/>
<rect width="1.06189" height="12.9287" rx="0.424757" transform="matrix(-0.956396 -0.292074 -0.292074 0.956396 191.615 225.779)" fill="#123041"/>
<ellipse cx="1.27427" cy="1.27427" rx="1.27427" ry="1.27427" transform="matrix(-1 0 0 1 201.902 236.937)" fill="#FF686B"/>
<ellipse cx="187.247" cy="238.211" rx="1.27427" ry="1.27427" fill="#FF686B"/>
<ellipse cx="1.69903" cy="1.69903" rx="1.69903" ry="1.69903" transform="matrix(-1 0 0 1 195.531 245.432)" fill="#FF686B"/>
<ellipse cx="1.27427" cy="1.27427" rx="1.27427" ry="1.27427" transform="matrix(-1 0 0 1 188.523 254.989)" fill="#FF686B"/>
<ellipse cx="200.628" cy="256.263" rx="1.27427" ry="1.27427" fill="#FF686B"/>
</g>
</g>
<g clip-path="url(#clip6_1071_1115)">
<path d="M135.094 274.421C139.909 274.736 145.496 268.95 147.688 266.017C147.708 265.603 147.596 264.603 146.992 263.911C146.236 263.046 135.049 265.924 132.603 267.049C130.157 268.174 129.077 274.027 135.094 274.421Z" fill="#E7EAEE"/>
<path d="M142.928 291.097C141.589 290.55 140.285 283.256 140.55 279.625L153.409 281.677C153.673 284.624 153.691 290.634 153.057 291.097C152.264 291.676 144.601 291.781 142.928 291.097Z" fill="#E7EAEE"/>
<path d="M141.923 283.018C137.92 280.357 143.331 263.754 147.24 261.663C151.149 259.572 157.507 259.889 160.3 261.663C163.092 263.437 169.992 280.293 165.99 283.018C161.988 285.743 145.925 285.679 141.923 283.018Z" fill="white"/>
<path fill-rule="evenodd" clip-rule="evenodd" d="M152.617 285.019C152.585 284.036 152.618 282.032 153.301 280.836C154.395 278.923 157.968 277.663 157.968 277.663C159.399 277.445 162.485 276.412 163.381 274.023C163.762 273.006 164.641 272.326 165.657 271.881C167.254 276.689 168.004 281.645 165.988 283.017C163.809 284.501 158.054 285.158 152.617 285.019Z" fill="#123041"/>
<path d="M164.794 291.097C166.133 290.55 167.437 283.256 167.173 279.625L154.313 281.677C154.049 284.624 154.031 290.634 154.665 291.097C155.458 291.676 163.121 291.781 164.794 291.097Z" fill="#123041"/>
<path d="M172.808 274.997C172.891 270.174 166.841 264.872 163.806 262.824C163.392 262.824 162.399 262.983 161.736 263.621C160.909 264.417 164.323 275.452 165.565 277.842C166.806 280.231 172.704 281.027 172.808 274.997Z" fill="white"/>
<path d="M143.315 276.996C143.315 281.976 147.577 283.172 152.835 283.172C158.093 283.172 162.355 281.976 162.355 276.996C162.355 270.45 158.093 266.745 152.835 266.745C147.577 266.745 143.315 270.45 143.315 276.996Z" fill="#FFC0C1"/>
<path d="M152.915 281.491C152.877 281.491 152.839 281.484 152.803 281.47C152.768 281.455 152.735 281.434 152.708 281.407L151.411 280.103C151.364 280.047 151.339 279.976 151.342 279.903C151.344 279.83 151.375 279.761 151.427 279.709C151.479 279.658 151.548 279.628 151.621 279.625C151.695 279.622 151.766 279.647 151.822 279.694L153.122 280.984C153.149 281.011 153.171 281.043 153.186 281.078C153.2 281.114 153.208 281.152 153.208 281.19C153.208 281.228 153.2 281.266 153.186 281.301C153.171 281.337 153.149 281.369 153.122 281.396C153.096 281.425 153.064 281.448 153.028 281.464C152.993 281.481 152.954 281.49 152.915 281.491Z" fill="#FF8D8D"/>
<path d="M151.632 281.491C151.594 281.491 151.556 281.484 151.521 281.47C151.486 281.455 151.454 281.434 151.427 281.407C151.4 281.38 151.378 281.348 151.364 281.313C151.349 281.278 151.341 281.24 151.341 281.202C151.341 281.164 151.349 281.126 151.364 281.091C151.378 281.056 151.4 281.024 151.427 280.997L152.713 279.71C152.74 279.683 152.772 279.661 152.807 279.647C152.843 279.632 152.88 279.625 152.919 279.625C152.957 279.625 152.995 279.632 153.03 279.647C153.065 279.661 153.097 279.683 153.124 279.71C153.178 279.764 153.208 279.838 153.208 279.914C153.208 279.99 153.178 280.064 153.124 280.118L151.834 281.407C151.781 281.461 151.708 281.491 151.632 281.491Z" fill="#FF8D8D"/>
<path d="M174.496 233.171C168.845 236.516 170.591 238.183 172.051 240.65C173.511 243.117 174.247 245.382 179.784 242.106C182.594 240.442 183.689 237.094 182.229 234.627C180.769 232.16 177.307 231.508 174.496 233.171Z" fill="white"/>
<path d="M166.211 233.743C166.211 236.858 167.298 236.877 168.638 236.877C169.978 236.877 171.064 236.858 171.064 233.743C171.064 230.629 169.577 228.103 168.638 228.103C167.698 228.103 166.211 230.629 166.211 233.743Z" fill="#6A5B3D"/>
<path d="M136.904 233.743C136.904 236.858 137.99 236.877 139.331 236.877C140.671 236.877 141.757 236.858 141.757 233.743C141.757 230.629 140.27 228.103 139.331 228.103C138.391 228.103 136.904 230.629 136.904 233.743Z" fill="#6A5B3D"/>
<path d="M132.942 233.171C138.593 236.516 136.848 238.183 135.387 240.65C133.927 243.117 133.191 245.382 127.655 242.106C124.844 240.442 123.75 237.094 125.21 234.627C126.67 232.16 130.132 231.508 132.942 233.171Z" fill="#123041"/>
<path d="M131.546 236.024C134.363 237.691 133.634 238.284 133.08 239.22C132.526 240.156 132.3 241.047 129.54 239.414C128.139 238.585 127.453 237.154 128.007 236.218C128.561 235.282 130.146 235.195 131.546 236.024Z" fill="#FFC0C1"/>
<path d="M176.056 236.024C173.24 237.691 173.969 238.284 174.523 239.22C175.077 240.156 175.303 241.047 178.062 239.414C179.463 238.585 180.15 237.154 179.596 236.218C179.042 235.282 177.457 235.195 176.056 236.024Z" fill="#FFC0C1"/>
<path d="M130.37 252.464C130.37 262.207 141.053 265.437 154.038 265.437C167.022 265.437 177.784 262.207 177.784 252.464C177.784 235.852 167.022 230.157 154.038 230.157C141.053 230.157 130.37 235.061 130.37 252.464Z" fill="white"/>
<path fill-rule="evenodd" clip-rule="evenodd" d="M152.39 230.184C152.281 233.293 151.631 237.37 149.594 239.019C147.803 240.469 145.736 240.838 143.889 241.168C142.31 241.45 140.892 241.703 139.945 242.578C139.441 243.043 138.994 243.688 138.511 244.387C137.053 246.492 135.258 249.084 130.554 248.701C131.945 235.006 141.135 230.566 152.39 230.184Z" fill="#123041"/>
<path d="M165.464 250.691V253.678" stroke="#123041" stroke-width="2.80004" stroke-linecap="round"/>
<path d="M140.452 250.691V253.678" stroke="#123041" stroke-width="2.80004" stroke-linecap="round"/>
<path d="M161.731 257.635C161.731 253.8 158.622 250.691 154.787 250.691H151.315C147.48 250.691 144.371 253.8 144.371 257.635C144.371 260.192 146.443 262.265 149 262.265H157.102C159.658 262.265 161.731 260.192 161.731 257.635Z" fill="#FFC0C1"/>
<path d="M156.692 255.918V257.971" stroke="#123041" stroke-width="1.8667" stroke-linecap="round"/>
<path d="M149.226 255.918L149.226 257.971" stroke="#123041" stroke-width="1.8667" stroke-linecap="round"/>
<path d="M171.064 257.971H168.264" stroke="#FFC0C1" stroke-width="3.73339" stroke-linecap="round"/>
<path d="M137.651 257.971H134.851" stroke="#FFD2D2" stroke-width="3.73339" stroke-linecap="round"/>
<g clip-path="url(#clip7_1071_1115)">
<path d="M140.399 259.418C139.673 262.717 138.259 263.404 135.972 263.147C133.684 262.891 132.458 261.908 132.481 258.529C132.499 255.901 134.399 254.142 136.95 254.429C139.502 254.715 140.965 256.851 140.399 259.418Z" fill="#9EE7E5"/>
<path d="M140.388 258.947L132.597 258.073" stroke="#005271" stroke-width="0.933348" stroke-linecap="round"/>
<rect width="3.36005" height="2.24003" rx="0.373339" transform="matrix(-0.993765 -0.111499 -0.111499 0.993765 136.361 275.588)" fill="#005271"/>
<path d="M138.895 262.926C138.926 262.716 138.777 262.523 138.567 262.499L133.772 261.961C133.562 261.938 133.374 262.093 133.358 262.305L132.305 276.462C132.29 276.662 132.436 276.839 132.636 276.861L136.373 277.28C136.573 277.303 136.754 277.163 136.784 276.965L138.895 262.926Z" fill="#005271"/>
</g>
</g>
<path fill-rule="evenodd" clip-rule="evenodd" d="M-82.6757 190C-90.5868 190 -97 196.413 -97 204.324V236.171C-97 242.418 -101.852 247.679 -105.024 253.061C-106.28 255.19 -107 257.673 -107 260.324V315.676C-107 323.587 -100.587 330 -92.6757 330H-12.3243C-4.41322 330 2 323.587 2 315.676C2 314.098 3.27859 312.82 4.85581 312.82H38.0943C40.0853 312.82 41.2015 310.526 39.973 308.959L21.1241 284.92C19.1467 282.399 18.0721 279.286 18.0721 276.082V204.324C18.0721 196.413 11.6588 190 3.74773 190H-82.6757Z" fill="#7FB732"/>
<path fill-rule="evenodd" clip-rule="evenodd" d="M-17.8919 185.014C-17.8919 182.245 -15.6473 180 -12.8784 180H15.054C20.3281 180 24.6036 184.275 24.6036 189.55V197.428C24.6036 202.702 20.3281 206.977 15.054 206.977H3.23648C0.269821 206.977 -2.13514 209.382 -2.13514 212.349C-2.13514 215.316 -4.54009 217.721 -7.50675 217.721H-10.2523C-13.6804 217.721 -16.4595 220.5 -16.4595 223.928V227.748C-16.4595 229.066 -17.5283 230.135 -18.8468 230.135C-20.1654 230.135 -21.2342 229.066 -21.2342 227.748V223.928C-21.2342 220.5 -24.0133 217.721 -27.4414 217.721H-48.4504C-53.7245 217.721 -58 213.445 -58 208.171V199.577C-58 194.303 -53.7245 190.027 -48.4504 190.027H-22.9054C-20.1365 190.027 -17.8919 187.782 -17.8919 185.014Z" fill="#AFD157"/>
<path fill-rule="evenodd" clip-rule="evenodd" d="M14.1374 174.179C12.8297 172.871 10.7094 172.871 9.40169 174.179C8.36709 175.214 8.15101 176.757 8.75344 178.004C8.77621 178.051 8.72299 178.104 8.67586 178.082C7.42895 177.479 5.88616 177.696 4.85175 178.73C3.54402 180.038 3.54402 182.158 4.85175 183.466C5.88626 184.5 7.42926 184.716 8.67624 184.114C8.72338 184.091 8.77661 184.145 8.75383 184.192C8.15102 185.439 8.367 186.982 9.40177 188.017C10.7095 189.325 12.8297 189.325 14.1375 188.017C15.1722 186.982 15.3882 185.439 14.7854 184.192C14.7626 184.145 14.8158 184.091 14.863 184.114C16.11 184.716 17.653 184.5 18.6875 183.466C19.9952 182.158 19.9952 180.038 18.6875 178.73C17.653 177.696 16.1101 177.479 14.8632 178.082C14.816 178.104 14.7628 178.051 14.7856 178.004C15.3881 176.757 15.172 175.214 14.1374 174.179Z" fill="#FFC53D"/>
<circle cx="11.7676" cy="181.16" r="1.39164" transform="rotate(45 11.7676 181.16)" fill="#E98B2D"/>
<rect x="-7.17969" y="223.883" width="14.3243" height="4.77477" rx="2.38739" fill="#AFD157"/>
<rect x="-11" y="232" width="15.2793" height="4.77477" rx="2.38739" fill="#AFD157"/>
<defs>
<clipPath id="clip0_1071_1115">
<rect width="101.735" height="87.548" fill="white" transform="translate(70.0811 170.777)"/>
</clipPath>
<clipPath id="clip1_1071_1115">
<rect width="55.4409" height="68.8811" fill="white" transform="translate(89.8672 170.777)"/>
</clipPath>
<clipPath id="clip2_1071_1115">
<rect width="76.9078" height="85.1213" fill="white" transform="translate(27 203)"/>
</clipPath>
<clipPath id="clip3_1071_1115">
<rect width="29.0238" height="68.2813" fill="white" transform="translate(93.3789 239.588) rotate(71.3563)"/>
</clipPath>
<clipPath id="clip4_1071_1115">
<rect width="71.1211" height="75.2278" fill="white" transform="matrix(-1 0 0 1 230.335 185.16)"/>
</clipPath>
<clipPath id="clip5_1071_1115">
<rect width="82.5079" height="42.5606" fill="white" transform="matrix(-1 0 0 1 235.189 215.027)"/>
</clipPath>
<clipPath id="clip6_1071_1115">
<rect width="58.8009" height="69.8144" fill="white" transform="matrix(-1 0 0 1 183.635 224.93)"/>
</clipPath>
<clipPath id="clip7_1071_1115">
<rect width="10.6402" height="25.5737" fill="white" transform="matrix(-0.993765 -0.111499 -0.111499 0.993765 142.567 253.744)"/>
</clipPath>
</defs>
</svg>
