<svg width="755" height="439" viewBox="0 0 755 439" fill="none" xmlns="http://www.w3.org/2000/svg">
<path fill-rule="evenodd" clip-rule="evenodd" d="M669 159C669 125.863 642.137 99 609 99H102C68.8629 99 42 125.863 42 159V168V171V210C42 213.314 39.3137 216 36 216C32.6863 216 30 218.686 30 222V291C30 291.552 29.5523 292 29 292C28.4477 292 28 292.448 28 293V344C28 372.719 51.2812 396 80 396H277.5C289.374 396 299 405.626 299 417.5C299 429.374 308.626 439 320.5 439H537C551.912 439 564 426.912 564 412C564 397.088 576.088 385 591 385H651.5C669.449 385 684 370.449 684 352.5C684 334.551 698.551 320 716.5 320H719.5C739.106 320 755 304.106 755 284.5V259C755 235.252 735.748 216 712 216C688.252 216 669 196.748 669 173V171V168V159Z" fill="#AFD157"/>
<path d="M331 341L336 341C347.046 341 356 349.954 356 361L356 366L351 366C339.954 366 331 357.046 331 346L331 341Z" fill="#8EC442"/>
<path d="M381 341L381 346C381 357.046 372.046 366 361 366L356 366L356 361C356 349.954 364.954 341 376 341L381 341Z" fill="#8EC442"/>
<path d="M630 271L635 271C646.046 271 655 279.954 655 291L655 296L650 296C638.954 296 630 287.046 630 276L630 271Z" fill="#8EC442"/>
<path d="M680 271L680 276C680 287.046 671.046 296 660 296L655 296L655 291C655 279.954 663.954 271 675 271L680 271Z" fill="#8EC442"/>
<path fill-rule="evenodd" clip-rule="evenodd" d="M363 128.5C363 119.94 356.06 113 347.5 113H37.5C35.0147 113 33 115.015 33 117.5C33 119.985 30.9853 122 28.5 122H22C15.9249 122 11 126.925 11 133V214C11 218.971 15.0294 223 20 223C24.9706 223 29 227.029 29 232V342C29 345.314 26.3137 348 23 348C19.6863 348 17 350.686 17 354V371.5C17 384.479 27.5213 395 40.5 395H266.5C279.479 395 290 384.479 290 371.5C290 358.521 279.479 348 266.5 348H221C187.863 348 161 321.137 161 288V265.5C161 242.028 180.028 223 203.5 223H206.5C228.315 223 246 205.315 246 183.5C246 161.685 263.685 144 285.5 144H347.5C356.06 144 363 137.06 363 128.5Z" fill="#8EC442"/>
<path d="M-5 31C-5 14.4315 8.43146 1 25 1H170.5C183.755 1 194.5 11.7452 194.5 25C194.5 38.2548 205.245 49 218.5 49H308.5C325.069 49 338.5 62.4315 338.5 79V84.3502C338.5 89.3698 339.759 94.3091 342.163 98.7157L348.887 111.042C349.614 112.375 348.649 114 347.131 114H244.5H182.505C181.181 114 179.871 114.263 178.65 114.773L36.5649 174.135C16.8008 182.392 -5 167.873 -5 146.453V31Z" fill="#7FB732"/>
<path fill-rule="evenodd" clip-rule="evenodd" d="M116 10C116 4.47715 120.477 0 126 0H191C196.523 0 201 4.47715 201 10V11C201 16.5228 196.523 21 191 21H126C120.477 21 116 16.5228 116 11V10ZM185 47C185 42.0294 189.029 38 194 38H239.5C240.881 38 242 39.1193 242 40.5C242 41.8807 243.119 43 244.5 43H264.5C265.881 43 267 41.8807 267 40.5C267 39.1193 268.119 38 269.5 38H288.5C290.433 38 292 39.567 292 41.5C292 43.433 293.567 45 295.5 45H331C336.523 45 341 49.4772 341 55V66C341 69.3137 338.314 72 335 72C331.686 72 329 69.3137 329 66V64C329 59.5817 325.418 56 321 56H292H289H278.5C275.462 56 273 58.4624 273 61.5C273 64.5376 270.538 67 267.5 67H236.5C233.462 67 231 64.5376 231 61.5C231 58.4624 228.538 56 225.5 56H194C189.029 56 185 51.9706 185 47Z" fill="#AFD157"/>
<path d="M279 73L279 70.6C279 65.2981 283.298 61 288.6 61L291 61L291 63.4C291 68.7019 286.702 73 281.4 73L279 73Z" fill="#AFD157"/>
<path d="M303 73L300.6 73C295.298 73 291 68.7019 291 63.4L291 61L293.4 61C298.702 61 303 65.2981 303 70.6L303 73Z" fill="#AFD157"/>
<path d="M227 73L224.6 73C219.298 73 215 68.7019 215 63.4L215 61L217.4 61C222.702 61 227 65.2981 227 70.6L227 73Z" fill="#AFD157"/>
<path d="M295 42L295 39.6C295 34.2981 299.298 30 304.6 30L307 30L307 32.4C307 37.7019 302.702 42 297.4 42L295 42Z" fill="#AFD157"/>
<path d="M165 98L170 98C181.046 98 190 106.954 190 118L190 123L185 123C173.954 123 165 114.046 165 103L165 98Z" fill="#70A22B"/>
<path d="M215 98L215 103C215 114.046 206.046 123 195 123L190 123L190 118C190 106.954 198.954 98 210 98L215 98Z" fill="#70A22B"/>
<path fill-rule="evenodd" clip-rule="evenodd" d="M195.408 21.9591C192.669 19.2203 188.229 19.2203 185.49 21.9591C183.323 24.1259 182.871 27.3579 184.133 29.9696C184.18 30.0683 184.069 30.1798 183.97 30.1321C181.359 28.8711 178.127 29.3238 175.961 31.4903C173.222 34.2291 173.222 38.6696 175.961 41.4085C178.127 43.5751 181.359 44.0277 183.971 42.7664C184.069 42.7187 184.181 42.8302 184.133 42.929C182.871 45.5409 183.323 48.7735 185.49 50.9407C188.229 53.6795 192.669 53.6795 195.408 50.9407C197.575 48.7735 198.028 45.5409 196.765 42.929C196.718 42.8302 196.829 42.7187 196.928 42.7664C199.539 44.0277 202.771 43.5751 204.938 41.4085C207.676 38.6696 207.676 34.2291 204.938 31.4903C202.771 29.3238 199.54 28.8711 196.928 30.1321C196.83 30.1798 196.718 30.0683 196.766 29.9696C198.028 27.3579 197.575 24.1259 195.408 21.9591Z" fill="#FF686B"/>
<circle cx="190.445" cy="36.5789" r="2.91457" transform="rotate(45 190.445 36.5789)" fill="#E23636"/>
<path fill-rule="evenodd" clip-rule="evenodd" d="M524.409 370.959C521.67 368.22 517.23 368.22 514.491 370.959C512.324 373.126 511.871 376.358 513.133 378.97C513.181 379.068 513.069 379.18 512.971 379.132C510.359 377.871 507.128 378.324 504.962 380.49C502.223 383.229 502.223 387.67 504.962 390.408C507.128 392.575 510.36 393.028 512.971 391.766C513.07 391.719 513.182 391.83 513.134 391.929C511.871 394.541 512.324 397.774 514.491 399.941C517.23 402.68 521.67 402.68 524.409 399.941C526.576 397.774 527.028 394.541 525.766 391.929C525.718 391.83 525.83 391.719 525.928 391.766C528.54 393.028 531.772 392.575 533.938 390.408C536.677 387.67 536.677 383.229 533.938 380.49C531.772 378.324 528.541 377.871 525.929 379.132C525.83 379.18 525.719 379.068 525.767 378.97C527.028 376.358 526.576 373.126 524.409 370.959Z" fill="#FF686B"/>
<circle cx="519.446" cy="385.579" r="2.91457" transform="rotate(45 519.446 385.579)" fill="#E23636"/>
<path fill-rule="evenodd" clip-rule="evenodd" d="M361.409 313.959C358.67 311.22 354.23 311.22 351.491 313.959C349.324 316.126 348.871 319.358 350.133 321.97C350.181 322.068 350.069 322.18 349.971 322.132C347.359 320.871 344.128 321.324 341.962 323.49C339.223 326.229 339.223 330.67 341.962 333.408C344.128 335.575 347.36 336.028 349.971 334.766C350.07 334.719 350.182 334.83 350.134 334.929C348.871 337.541 349.324 340.774 351.491 342.941C354.23 345.68 358.67 345.68 361.409 342.941C363.576 340.774 364.028 337.541 362.766 334.929C362.718 334.83 362.83 334.719 362.928 334.766C365.54 336.028 368.772 335.575 370.938 333.408C373.677 330.67 373.677 326.229 370.938 323.49C368.772 321.324 365.541 320.871 362.929 322.132C362.83 322.18 362.719 322.068 362.767 321.97C364.028 319.358 363.576 316.126 361.409 313.959Z" fill="#FFC53D"/>
<circle cx="356.446" cy="328.579" r="2.91457" transform="rotate(45 356.446 328.579)" fill="#E98B2D"/>
</svg>
