<svg width="424" height="120" viewBox="0 0 424 120" fill="none" xmlns="http://www.w3.org/2000/svg">
<path fill-rule="evenodd" clip-rule="evenodd" d="M136.824 13C136.824 5.8203 131.004 0 123.824 0H38.8242C29.9877 0 22.8242 7.16344 22.8242 16V16C22.8242 24.8366 29.9877 32 38.8242 32H82.4801C89.2729 32 96.0159 33.1602 102.418 35.4305L144.456 50.3377C145.693 50.776 146.994 51 148.306 51H157.824C158.929 51 159.824 51.8954 159.824 53V53C159.824 54.1046 158.929 55 157.824 55H152.324C148.182 55 144.824 58.3579 144.824 62.5V70.5C144.824 72.433 143.257 74 141.324 74V74C139.391 74 137.824 75.567 137.824 77.5V85.5C137.824 91.8513 142.973 97 149.324 97H249.324C254.019 97 257.824 100.806 257.824 105.5V105.5C257.824 110.194 261.63 114 266.324 114H410.824C418.004 114 423.824 108.18 423.824 101V101C423.824 93.8203 418.004 88 410.824 88H310.824C306.958 88 303.824 84.866 303.824 81V81C303.824 77.134 300.69 74 296.824 74H250.824C246.958 74 243.824 70.866 243.824 67V67C243.824 63.134 246.958 60 250.824 60H256.324C261.019 60 264.824 56.1944 264.824 51.5V51.5C264.824 46.8056 261.019 43 256.324 43H233.324C228.63 43 224.824 39.1944 224.824 34.5V34.5C224.824 29.8056 221.019 26 216.324 26H149.824C142.645 26 136.824 20.1797 136.824 13V13Z" fill="#98E0F7"/>
<rect x="188.824" y="31" width="29" height="11" rx="5.5" fill="#4DB7D9"/>
<rect x="247.824" y="46" width="12" height="11" rx="5.5" fill="#4DB7D9"/>
<rect x="173.824" y="31" width="11" height="11" rx="5.5" fill="#4DB7D9"/>
<path fill-rule="evenodd" clip-rule="evenodd" d="M21.8246 0C21.2723 0 20.8246 0.447715 20.8246 1C20.8246 5.66567 16.399 9.06156 11.8923 7.85399L9.21243 7.13593C5.30913 6.09005 1.29702 8.40644 0.251132 12.3097C-0.794754 16.213 1.52164 20.2251 5.42494 21.271L24.0189 26.2533C26.8535 27.0128 28.8246 29.5815 28.8246 32.5162C28.8246 36.0971 31.7275 39 35.3084 39H66.6151C69.9177 39 73.206 39.4329 76.3961 40.2877L135.202 56.0448C136.749 56.4592 137.825 57.8608 137.825 59.4621C137.825 61.416 136.241 63 134.287 63H78.3246C71.9733 63 66.8246 68.1487 66.8246 74.5C66.8246 80.8513 71.9733 86 78.3246 86H85.3242C88.3618 86 90.8242 88.4624 90.8242 91.5C90.8242 94.5376 93.2867 97 96.3242 97H159.824C163.138 97 165.824 99.6863 165.824 103C165.824 106.314 168.511 109 171.824 109H210.325C213.362 109 215.825 111.462 215.825 114.5C215.825 117.538 218.287 120 221.325 120H416.825C420.691 120 423.825 116.866 423.825 113C423.825 109.134 420.691 106 416.825 106H313.324C310.287 106 307.824 103.538 307.824 100.5C307.824 97.4624 305.362 95 302.324 95H199.324C196.287 95 193.824 92.5376 193.824 89.5C193.824 86.4624 191.362 84 188.324 84H159.825C157.063 84 154.825 81.7614 154.825 79C154.825 76.2386 157.063 74 159.825 74H181.825C188.452 74 193.825 68.6274 193.825 62C193.825 55.3726 188.452 50 181.825 50H172.05C170.147 50 168.252 49.7506 166.414 49.258L52.4156 18.7122C44.399 16.5641 38.8246 9.29944 38.8246 1C38.8246 0.447715 38.3769 0 37.8246 0H21.8246ZM172.824 59C172.824 56.7909 174.615 55 176.824 55H181.824C184.033 55 185.824 56.7909 185.824 59C185.824 61.2091 184.033 63 181.824 63H176.824C174.615 63 172.824 61.2091 172.824 59ZM82.3242 69C79.2867 69 76.8242 71.4624 76.8242 74.5C76.8242 77.5376 79.2867 80 82.3242 80H97.3242C100.362 80 102.824 77.5376 102.824 74.5C102.824 71.4624 100.362 69 97.3242 69H82.3242ZM283.324 100C280.287 100 277.824 102.462 277.824 105.5C277.824 108.538 280.287 111 283.324 111H298.324C301.362 111 303.824 108.538 303.824 105.5C303.824 102.462 301.362 100 298.324 100H283.324Z" fill="white"/>
</svg>
