<svg width="609" height="261" viewBox="0 0 609 261" fill="none" xmlns="http://www.w3.org/2000/svg">
<path fill-rule="evenodd" clip-rule="evenodd" d="M237 20C237 8.95431 228.046 0 217 0H47C21.0426 0 0 21.0426 0 47C0 72.9574 21.0426 94 47 94H81C108.062 94 130 115.938 130 143C130 170.062 151.938 192 179 192H272.5C291.554 192 307 207.446 307 226.5C307 245.554 322.446 261 341.5 261H598C639.421 261 673 227.421 673 186C673 144.579 639.421 111 598 111H443.5C423.894 111 408 95.1061 408 75.5C408 55.8939 392.106 40 372.5 40H257C245.954 40 237 31.0457 237 20Z" fill="#E6BB7B"/>
<path fill-rule="evenodd" clip-rule="evenodd" d="M285 8.5C285 3.80558 281.194 0 276.5 0H195.5C185.835 0 178 7.83502 178 17.5V19.5C178 28.0604 184.94 35 193.5 35H196C203.18 35 209 40.8203 209 48C209 55.1797 214.82 61 222 61H233C239.627 61 245 66.3726 245 73C245 79.6274 250.373 85 257 85H259.5C267.508 85 274 91.4919 274 99.5V106C274 117.598 283.402 127 295 127H348.5C355.956 127 362 133.044 362 140.5C362 147.956 368.044 154 375.5 154H709C726.121 154 740 140.121 740 123C740 105.879 726.121 92 709 92H427.5C421.701 92 417 87.299 417 81.5C417 75.701 412.299 71 406.5 71H371.5C366.253 71 362 66.7467 362 61.5V58C362 54.6863 359.314 52 356 52C352.686 52 350 49.3137 350 46V34.5C350 24.835 342.165 17 332.5 17H293.5C288.806 17 285 13.1944 285 8.5Z" fill="#DFAF67"/>
</svg>
