<svg width="23" height="23" viewBox="0 0 23 23" fill="none" xmlns="http://www.w3.org/2000/svg">
<path d="M13.3757 2.06901C12.7314 0.327773 10.2686 0.327775 9.6243 2.06901L7.90283 6.7212C7.70026 7.26864 7.26864 7.70026 6.7212 7.90283L2.06901 9.6243C0.327772 10.2686 0.327774 12.7314 2.06901 13.3757L6.7212 15.0972C7.26864 15.2997 7.70026 15.7314 7.90283 16.2788L9.6243 20.931C10.2686 22.6722 12.7314 22.6722 13.3757 20.931L15.0972 16.2788C15.2997 15.7314 15.7314 15.2997 16.2788 15.0972L20.931 13.3757C22.6722 12.7314 22.6722 10.2686 20.931 9.6243L16.2788 7.90283C15.7314 7.70026 15.2997 7.26864 15.0972 6.7212L13.3757 2.06901Z" fill="white"/>
</svg>
