<svg width="12" height="12" viewBox="0 0 12 12" fill="none" xmlns="http://www.w3.org/2000/svg">
<path d="M6.90551 1.44711C6.59446 0.60651 5.40554 0.606512 5.09449 1.44711L4.26344 3.69299C4.16564 3.95727 3.95727 4.16564 3.69299 4.26344L1.44711 5.09449C0.60651 5.40554 0.606512 6.59446 1.44711 6.90551L3.69299 7.73656C3.95727 7.83436 4.16564 8.04273 4.26344 8.30701L5.09449 10.5529C5.40554 11.3935 6.59446 11.3935 6.90551 10.5529L7.73656 8.30701C7.83436 8.04273 8.04273 7.83436 8.30701 7.73656L10.5529 6.90551C11.3935 6.59446 11.3935 5.40554 10.5529 5.09449L8.30701 4.26344C8.04273 4.16564 7.83436 3.95727 7.73656 3.69299L6.90551 1.44711Z" fill="white"/>
</svg>
