<svg width="2200" height="2200" viewBox="0 0 2200 2200" fill="none" xmlns="http://www.w3.org/2000/svg">
<mask id="mask0_2013_234" style="mask-type:alpha" maskUnits="userSpaceOnUse" x="0" y="0" width="2200" height="2200">
<rect width="2200" height="2200" fill="#D9D9D9"/>
</mask>
<g mask="url(#mask0_2013_234)">
<path fill-rule="evenodd" clip-rule="evenodd" d="M1025.45 1253.99L1041.79 1280.09L812.325 1860.99L729.505 1728.69L1025.45 1253.99ZM976.525 1242.54L924.045 1151.63L386.877 1410.41L525.475 1650.47L976.525 1242.54ZM897.515 1057.32L882.205 1120.45L254.376 1296.27L123.021 1262.61L56.923 1182.27L897.515 1057.32ZM905.195 989.01L881.695 1029.72L-64 942.71L29.252 781.2L905.195 989.01ZM1120.46 1292.21L1069.97 1270.79L1098.35 1866.36L1315.7 1894.5L1120.46 1292.21Z" fill="url(#paint0_linear_2013_234)" fill-opacity="0.5"/>
<path fill-rule="evenodd" clip-rule="evenodd" d="M1000.03 892.99L969.535 888.73L672.025 339.562L826.615 361.163L1000.03 892.99ZM1040.24 862.88L1143.61 881.11L1290.66 303.275L1017.67 255.14L1040.24 862.88ZM1232.91 921.41L1194.4 869.11L1463.27 275.146L1573.48 196.155L1677.52 197.165L1232.91 921.41ZM1280.3 971.2L1264.22 927.04L1938.76 258.516L2002.54 433.77L1280.3 971.2ZM909.675 941.21L958.535 916.31L484.059 555.22L322.804 703.625L909.675 941.21Z" fill="url(#paint1_linear_2013_234)" fill-opacity="0.5"/>
<g filter="url(#filter0_f_2013_234)">
<path fill-rule="evenodd" clip-rule="evenodd" d="M953.385 782.8L922.885 778.53L625.385 229.365L779.965 250.965L953.385 782.8ZM1035.29 804.12L1138.66 822.35L1285.71 244.515L1012.72 196.38L1035.29 804.12ZM1279.01 847.09L1198.82 832.95L1396.05 318.808L1577.9 160L1683.12 199.388L1279.01 847.09ZM1318.93 906.6L1299.97 854.5L1864.14 251.041L2163.83 245.815L1318.93 906.6ZM909.675 941.21L958.535 916.31L484.059 555.219L322.804 703.624L909.675 941.21Z" fill="url(#paint2_linear_2013_234)" fill-opacity="0.5"/>
</g>
<path fill-rule="evenodd" clip-rule="evenodd" d="M1305.76 973.26L1296.27 1002.56L1850.14 924.12L1898.25 775.64L1305.76 973.26ZM1283.04 1146.03L1318.94 1047.39L1921.38 1130.7L1826.56 1391.18L1283.04 1146.03ZM1286.04 1198.12L1227.85 1226.97L1863.89 1790.59L1882.94 1688.31L1824.29 1566.05L1286.04 1198.12ZM1216.87 1256.83L1170.58 1264.99L1574.43 2069.59L1758.1 2037.2L1216.87 1256.83Z" fill="url(#paint3_linear_2013_234)" fill-opacity="0.5"/>
<g filter="url(#filter1_f_2013_234)">
<path fill-rule="evenodd" clip-rule="evenodd" d="M1422.4 946.46L1412.9 975.76L1966.77 897.32L2014.88 748.84L1422.4 946.46ZM1341.78 1151.35L1377.68 1052.71L1980.11 1136.02L1885.3 1396.5L1341.78 1151.35ZM1320.89 1208.74L1293.04 1285.27L1860.73 1795.71L1917.79 1698.93L1792.97 1492.27L1320.89 1208.74ZM1282.1 1304.62L1227.5 1314.25L1731.53 2261.06L1778.43 1965.01L1282.1 1304.62Z" fill="url(#paint4_linear_2013_234)" fill-opacity="0.5"/>
</g>
</g>
<defs>
<filter id="filter0_f_2013_234" x="272.804" y="110" width="1941.03" height="881.21" filterUnits="userSpaceOnUse" color-interpolation-filters="sRGB">
<feFlood flood-opacity="0" result="BackgroundImageFix"/>
<feBlend mode="normal" in="SourceGraphic" in2="BackgroundImageFix" result="shape"/>
<feGaussianBlur stdDeviation="25" result="effect1_foregroundBlur_2013_234"/>
</filter>
<filter id="filter1_f_2013_234" x="1177.5" y="698.84" width="887.38" height="1612.22" filterUnits="userSpaceOnUse" color-interpolation-filters="sRGB">
<feFlood flood-opacity="0" result="BackgroundImageFix"/>
<feBlend mode="normal" in="SourceGraphic" in2="BackgroundImageFix" result="shape"/>
<feGaussianBlur stdDeviation="25" result="effect1_foregroundBlur_2013_234"/>
</filter>
<linearGradient id="paint0_linear_2013_234" x1="982.355" y1="1194.24" x2="268.05" y2="1548.55" gradientUnits="userSpaceOnUse">
<stop stop-color="white" stop-opacity="0.5"/>
<stop offset="1" stop-color="#50B7D8" stop-opacity="0"/>
</linearGradient>
<linearGradient id="paint1_linear_2013_234" x1="1073.49" y1="898.4" x2="1261.22" y2="123.453" gradientUnits="userSpaceOnUse">
<stop stop-color="white" stop-opacity="0.5"/>
<stop offset="1" stop-color="#50B7D8" stop-opacity="0"/>
</linearGradient>
<linearGradient id="paint2_linear_2013_234" x1="1137.7" y1="864.67" x2="1285.71" y2="65.298" gradientUnits="userSpaceOnUse">
<stop stop-color="white" stop-opacity="0.5"/>
<stop offset="1" stop-color="#50B7D8" stop-opacity="0"/>
</linearGradient>
<linearGradient id="paint3_linear_2013_234" x1="1326.74" y1="1349.32" x2="1924.35" y2="1728.02" gradientUnits="userSpaceOnUse">
<stop stop-color="white" stop-opacity="0.5"/>
<stop offset="1" stop-color="#50B7D8" stop-opacity="0"/>
</linearGradient>
<linearGradient id="paint4_linear_2013_234" x1="1348.6" y1="1417.15" x2="2010.3" y2="1763.77" gradientUnits="userSpaceOnUse">
<stop stop-color="white" stop-opacity="0.5"/>
<stop offset="1" stop-color="#50B7D8" stop-opacity="0"/>
</linearGradient>
</defs>
</svg>
