<svg width="2832" height="2832" viewBox="0 0 2832 2832" fill="none" xmlns="http://www.w3.org/2000/svg">
<g clip-path="url(#clip0_1080_5403)">
<path fill-rule="evenodd" clip-rule="evenodd" d="M1373.23 1297.8L1355.23 1375.64L1324.5 1188L1182 19.5L1480.5 109L1373.23 1297.8ZM1390.5 1252.5L1378.88 1348.14L2037.24 209.138L1774.23 123.638L1390.5 1252.5ZM1373.23 1357.64L1415.26 1297.8L2291.39 301.138L2429.73 443.638L2498 626.638L1373.23 1357.64ZM1415.26 1343.64L1421.73 1326.12L2651.24 833.638L2745.74 1003.64L1415.26 1343.64Z" fill="url(#paint0_linear_1080_5403)" fill-opacity="0.5"/>
<path fill-rule="evenodd" clip-rule="evenodd" d="M1351.32 1330.25L919.815 126.254L678.815 226.254L1351.32 1330.25Z" fill="url(#paint1_linear_1080_5403)" fill-opacity="0.5"/>
<g filter="url(#filter0_f_1080_5403)">
<path fill-rule="evenodd" clip-rule="evenodd" d="M1234.64 1089.54L1289.31 1093.79L903.296 89.5126L632.288 203.798L1234.64 1089.54Z" fill="url(#paint2_linear_1080_5403)" fill-opacity="0.5"/>
</g>
<g filter="url(#filter1_f_1080_5403)">
<path fill-rule="evenodd" clip-rule="evenodd" d="M1388.52 1011.4L1363.11 993.999L1333.69 86.4879L1536.81 166.488L1388.52 1011.4ZM1461 1165.58L1505 1165.58L1991.46 407.5L1731.5 342.5L1461 1165.58ZM1651.47 1213.94L1585.96 1165.58L1991.46 793.011L2407.5 659.762L2301.68 813.887L1651.47 1213.94ZM1645.25 1357.59L1651.47 1302.5L2711.45 851.988L2711.45 1069.48L1645.25 1357.59Z" fill="url(#paint3_linear_1080_5403)" fill-opacity="0.5"/>
</g>
<path fill-rule="evenodd" clip-rule="evenodd" d="M1513 1433.44L1566.5 1442L2591.5 1802.5L2368.57 2080.62L1513 1433.44ZM1474 1426.99L1425.42 1411.89L1913.58 2555.49L2229.58 2296.9L1474 1426.99ZM1359.41 1400.6L1412.15 1412L1758.44 2670.16L1631.48 2706.42L1442.33 2675.82L1359.41 1400.6ZM1359.41 1367.76L1359.41 1433.44L1190 2690L980.002 2655.5L1359.41 1367.76Z" fill="url(#paint4_linear_1080_5403)" fill-opacity="0.5"/>
<path fill-rule="evenodd" clip-rule="evenodd" d="M1398.2 1320.49L1387 1376L2541.5 1592.5L2715 1302L1398.2 1320.49Z" fill="url(#paint5_linear_1080_5403)" fill-opacity="0.5"/>
<g filter="url(#filter2_f_1080_5403)">
<path fill-rule="evenodd" clip-rule="evenodd" d="M1727.92 1366.08L1701.04 1413.7L2755.93 1479.01L2769.03 1187.17L1727.92 1366.08Z" fill="url(#paint6_linear_1080_5403)" fill-opacity="0.5"/>
<path fill-rule="evenodd" clip-rule="evenodd" d="M1695.23 1355.43L1668.35 1403.06L2609.89 1551.39L2655.59 1310.33L1695.23 1355.43Z" fill="url(#paint7_linear_1080_5403)" fill-opacity="0.5"/>
</g>
<g filter="url(#filter3_f_1080_5403)">
<path fill-rule="evenodd" clip-rule="evenodd" d="M1718.28 1553.2L1745.7 1539.77L2558 1889L2360.51 2094.76L1718.28 1553.2ZM1639.35 1581.16L1544.4 1623.58L1834.86 2434.62L2058.18 2220.4L1639.35 1581.16ZM1415.49 1681.18L1453.46 1582.67L1602.75 2180.81L1508.24 2605.33L1430.37 2438.52L1415.49 1681.18ZM1303 1539.77L1341.58 1556.27L1159.5 2718L986.502 2605.33L1303 1539.77Z" fill="url(#paint8_linear_1080_5403)" fill-opacity="0.5"/>
</g>
<path fill-rule="evenodd" clip-rule="evenodd" d="M1296 1420.5L1239.5 1482L341.5 2201.5L237.622 1864.57L1296 1420.5ZM1260 1420.5L1360 1375.5L14.8376 1340L119.697 1635.31L1260 1420.5ZM1340 1340L1351 1363.5L14.8376 1130L69.0752 907.635L193.426 757.018L1340 1340ZM1351 1326.5L1280 1302L307.501 522.001L419.001 337.001L1351 1326.5Z" fill="url(#paint9_linear_1080_5403)" fill-opacity="0.5"/>
<path fill-rule="evenodd" clip-rule="evenodd" d="M1356 1388.5L1301 1449.5L490.224 2334.93L807.182 2488.94L1356 1388.5Z" fill="url(#paint10_linear_1080_5403)" fill-opacity="0.5"/>
<g filter="url(#filter4_f_1080_5403)">
<path fill-rule="evenodd" clip-rule="evenodd" d="M1191.82 1649.8L1163.93 1602.58L562.794 2494.89L811.872 2651.3L1191.82 1649.8Z" fill="url(#paint11_linear_1080_5403)" fill-opacity="0.5"/>
<path fill-rule="evenodd" clip-rule="evenodd" d="M1191.43 1643.44L1160.2 1602.82L453.728 2390.09L737.279 2521.92L1191.43 1643.44Z" fill="url(#paint12_linear_1080_5403)" fill-opacity="0.5"/>
</g>
<g filter="url(#filter5_f_1080_5403)">
<path fill-rule="evenodd" clip-rule="evenodd" d="M1032.67 1560.83L1030.31 1591.54L259.088 2070.77L226.81 1854.87L1032.67 1560.83ZM1048.86 1477.76L1060.63 1373.46L199.898 1225.28L272.547 1527.44L1048.86 1477.76ZM1076.6 1231.84L1067.47 1312.76L542.067 1147.86L218.652 854.186L405.037 868.766L1076.6 1231.84ZM1212.32 1166.14L1161.5 1188.3L233.149 494.845L421.499 386.1L1212.32 1166.14Z" fill="url(#paint13_linear_1080_5403)" fill-opacity="0.5"/>
<path fill-rule="evenodd" clip-rule="evenodd" d="M1128.5 1253.5L1128.5 1291.5L460 1171L218.652 854.186L405.037 868.766L1128.5 1253.5Z" fill="url(#paint14_linear_1080_5403)" fill-opacity="0.5"/>
</g>
</g>
<defs>
<filter id="filter0_f_1080_5403" x="582.288" y="39.5127" width="757.026" height="1104.27" filterUnits="userSpaceOnUse" color-interpolation-filters="sRGB">
<feFlood flood-opacity="0" result="BackgroundImageFix"/>
<feBlend mode="normal" in="SourceGraphic" in2="BackgroundImageFix" result="shape"/>
<feGaussianBlur stdDeviation="25" result="effect1_foregroundBlur_1080_5403"/>
</filter>
<filter id="filter1_f_1080_5403" x="1283.69" y="36.4878" width="1477.76" height="1371.1" filterUnits="userSpaceOnUse" color-interpolation-filters="sRGB">
<feFlood flood-opacity="0" result="BackgroundImageFix"/>
<feBlend mode="normal" in="SourceGraphic" in2="BackgroundImageFix" result="shape"/>
<feGaussianBlur stdDeviation="25" result="effect1_foregroundBlur_1080_5403"/>
</filter>
<filter id="filter2_f_1080_5403" x="1618.35" y="1137.17" width="1200.68" height="464.228" filterUnits="userSpaceOnUse" color-interpolation-filters="sRGB">
<feFlood flood-opacity="0" result="BackgroundImageFix"/>
<feBlend mode="normal" in="SourceGraphic" in2="BackgroundImageFix" result="shape"/>
<feGaussianBlur stdDeviation="25" result="effect1_foregroundBlur_1080_5403"/>
</filter>
<filter id="filter3_f_1080_5403" x="936.502" y="1489.77" width="1671.5" height="1278.23" filterUnits="userSpaceOnUse" color-interpolation-filters="sRGB">
<feFlood flood-opacity="0" result="BackgroundImageFix"/>
<feBlend mode="normal" in="SourceGraphic" in2="BackgroundImageFix" result="shape"/>
<feGaussianBlur stdDeviation="25" result="effect1_foregroundBlur_1080_5403"/>
</filter>
<filter id="filter4_f_1080_5403" x="403.728" y="1552.58" width="838.094" height="1148.72" filterUnits="userSpaceOnUse" color-interpolation-filters="sRGB">
<feFlood flood-opacity="0" result="BackgroundImageFix"/>
<feBlend mode="normal" in="SourceGraphic" in2="BackgroundImageFix" result="shape"/>
<feGaussianBlur stdDeviation="25" result="effect1_foregroundBlur_1080_5403"/>
</filter>
<filter id="filter5_f_1080_5403" x="149.898" y="336.1" width="1112.42" height="1784.67" filterUnits="userSpaceOnUse" color-interpolation-filters="sRGB">
<feFlood flood-opacity="0" result="BackgroundImageFix"/>
<feBlend mode="normal" in="SourceGraphic" in2="BackgroundImageFix" result="shape"/>
<feGaussianBlur stdDeviation="25" result="effect1_foregroundBlur_1080_5403"/>
</filter>
<linearGradient id="paint0_linear_1080_5403" x1="1438.33" y1="1140.54" x2="1951.44" y2="530.209" gradientUnits="userSpaceOnUse">
<stop stop-color="white" stop-opacity="0.5"/>
<stop offset="1" stop-color="#50B7D8" stop-opacity="0"/>
</linearGradient>
<linearGradient id="paint1_linear_1080_5403" x1="1386.32" y1="1148.25" x2="1062.82" y2="283.754" gradientUnits="userSpaceOnUse">
<stop offset="0.234415" stop-color="white" stop-opacity="0.5"/>
<stop offset="1" stop-color="#50B7D8" stop-opacity="0"/>
</linearGradient>
<linearGradient id="paint2_linear_1080_5403" x1="1413.39" y1="1267.63" x2="1039.73" y2="170.729" gradientUnits="userSpaceOnUse">
<stop offset="0.180876" stop-color="white" stop-opacity="0.5"/>
<stop offset="0.701376" stop-color="#50B7D8" stop-opacity="0"/>
</linearGradient>
<linearGradient id="paint3_linear_1080_5403" x1="1471.5" y1="1310" x2="1873" y2="328.5" gradientUnits="userSpaceOnUse">
<stop stop-color="white" stop-opacity="0.5"/>
<stop offset="0.713407" stop-color="#50B7D8" stop-opacity="0"/>
</linearGradient>
<linearGradient id="paint4_linear_1080_5403" x1="1535.12" y1="1509.14" x2="1810.19" y2="2245.9" gradientUnits="userSpaceOnUse">
<stop stop-color="white" stop-opacity="0.5"/>
<stop offset="1" stop-color="#50B7D8" stop-opacity="0"/>
</linearGradient>
<linearGradient id="paint5_linear_1080_5403" x1="1499.62" y1="1443.13" x2="2391.79" y2="1597.78" gradientUnits="userSpaceOnUse">
<stop offset="0.234415" stop-color="white" stop-opacity="0.5"/>
<stop offset="1" stop-color="#50B7D8" stop-opacity="0"/>
</linearGradient>
<linearGradient id="paint6_linear_1080_5403" x1="1494.23" y1="1454.1" x2="2624.34" y2="1584.38" gradientUnits="userSpaceOnUse">
<stop offset="0.180876" stop-color="white" stop-opacity="0.5"/>
<stop offset="0.701376" stop-color="#50B7D8" stop-opacity="0"/>
</linearGradient>
<linearGradient id="paint7_linear_1080_5403" x1="1461.54" y1="1443.46" x2="2591.65" y2="1573.73" gradientUnits="userSpaceOnUse">
<stop offset="0.346631" stop-color="white" stop-opacity="0.5"/>
<stop offset="1" stop-color="#50B7D8" stop-opacity="0"/>
</linearGradient>
<linearGradient id="paint8_linear_1080_5403" x1="1423.8" y1="1478.74" x2="2066.29" y2="2297.39" gradientUnits="userSpaceOnUse">
<stop stop-color="white" stop-opacity="0.5"/>
<stop offset="0.713407" stop-color="#50B7D8" stop-opacity="0"/>
</linearGradient>
<linearGradient id="paint9_linear_1080_5403" x1="1168.31" y1="1417.77" x2="383.191" y2="1278.56" gradientUnits="userSpaceOnUse">
<stop stop-color="white" stop-opacity="0.5"/>
<stop offset="1" stop-color="#50B7D8" stop-opacity="0"/>
</linearGradient>
<linearGradient id="paint10_linear_1080_5403" x1="1217.22" y1="1429.75" x2="713.092" y2="2225.48" gradientUnits="userSpaceOnUse">
<stop offset="0.234415" stop-color="white" stop-opacity="0.5"/>
<stop offset="1" stop-color="#50B7D8" stop-opacity="0"/>
</linearGradient>
<linearGradient id="paint11_linear_1080_5403" x1="1235.15" y1="1401.23" x2="551.05" y2="2336.54" gradientUnits="userSpaceOnUse">
<stop offset="0.180876" stop-color="white" stop-opacity="0.5"/>
<stop offset="0.701376" stop-color="#50B7D8" stop-opacity="0"/>
</linearGradient>
<linearGradient id="paint12_linear_1080_5403" x1="1263.33" y1="1505.45" x2="699.703" y2="2412.05" gradientUnits="userSpaceOnUse">
<stop offset="0.282206" stop-color="white" stop-opacity="0.5"/>
<stop offset="0.8402" stop-color="#50B7D8" stop-opacity="0"/>
</linearGradient>
<linearGradient id="paint13_linear_1080_5403" x1="1249.77" y1="1339.67" x2="199.02" y2="1482.71" gradientUnits="userSpaceOnUse">
<stop stop-color="white" stop-opacity="0.5"/>
<stop offset="0.713407" stop-color="#50B7D8" stop-opacity="0"/>
</linearGradient>
<linearGradient id="paint14_linear_1080_5403" x1="1131" y1="1322" x2="282" y2="1093" gradientUnits="userSpaceOnUse">
<stop offset="0.359206" stop-color="white" stop-opacity="0.5"/>
<stop offset="0.996186" stop-color="#50B7D8" stop-opacity="0"/>
</linearGradient>
<clipPath id="clip0_1080_5403">
<rect width="2832" height="2832" fill="white"/>
</clipPath>
</defs>
</svg>
