<svg width="2832" height="2832" viewBox="0 0 2832 2832" fill="none" xmlns="http://www.w3.org/2000/svg">
<g clip-path="url(#clip0_1080_5403)">
<path fill-rule="evenodd" clip-rule="evenodd" d="M1379.5 1357.66L1361.5 1435.5L1278.85 73.5L1523 171L1379.5 1357.66ZM1385.15 1310.96L1385.15 1408L2163.5 331L1780.5 183.5L1385.15 1310.96ZM1379.5 1417.5L1421.53 1357.66L2297.66 361L2436 503.5L2504.26 686.5L1379.5 1417.5ZM1421.53 1403.5L1428 1385.98L2671 981.5L2731 1153.79L1421.53 1403.5Z" fill="url(#paint0_linear_1080_5403)" fill-opacity="0.5"/>
<path fill-rule="evenodd" clip-rule="evenodd" d="M1350 1243.5L1345 1188.5L859.127 183.5L575.5 331L1350 1243.5Z" fill="url(#paint1_linear_1080_5403)" fill-opacity="0.5"/>
<g filter="url(#filter0_f_1080_5403)">
<path fill-rule="evenodd" clip-rule="evenodd" d="M1242.89 1085.69L1297.73 1085.15L825.542 118.396L565.542 255.895L1242.89 1085.69Z" fill="url(#paint2_linear_1080_5403)" fill-opacity="0.5"/>
</g>
<g filter="url(#filter1_f_1080_5403)">
<path fill-rule="evenodd" clip-rule="evenodd" d="M1388.52 1011.4L1363.11 993.999L1333.69 86.4879L1536.81 166.488L1388.52 1011.4ZM1452.36 1066.96L1536.81 1129.3L2095.5 457.974L1797.5 369.812L1452.36 1066.96ZM1651.47 1213.94L1585.96 1165.58L1991.46 793.011L2407.5 659.762L2301.68 813.887L1651.47 1213.94ZM1645.25 1357.59L1651.47 1302.5L2711.45 851.988L2711.45 1069.48L1645.25 1357.59Z" fill="url(#paint3_linear_1080_5403)" fill-opacity="0.5"/>
</g>
<path fill-rule="evenodd" clip-rule="evenodd" d="M1490.5 1456L1552.2 1463L2563.65 1958.79L2357.14 2121.48L1490.5 1456ZM1471 1446L1392.5 1440L1898.33 2596.17L2217.56 2338.23L1471 1446ZM1345 1440L1379 1440L1805.27 2697.35L1612.69 2745.91L1420.07 2713.53L1345 1440ZM1345 1424L1351.04 1542.5L1081.23 2710.43L902.02 2676.25L1345 1424Z" fill="url(#paint4_linear_1080_5403)" fill-opacity="0.5"/>
<path fill-rule="evenodd" clip-rule="evenodd" d="M1454.5 1430L1530.5 1460.5L2678.25 1540.3L2692.33 1220.92L1454.5 1430Z" fill="url(#paint5_linear_1080_5403)" fill-opacity="0.5"/>
<g filter="url(#filter2_f_1080_5403)">
<path fill-rule="evenodd" clip-rule="evenodd" d="M1705.05 1421.55L1678.1 1469.32L2751.42 1543.77L2762.35 1249.85L1705.05 1421.55Z" fill="url(#paint6_linear_1080_5403)" fill-opacity="0.5"/>
<path fill-rule="evenodd" clip-rule="evenodd" d="M1671.72 1410.56L1644.77 1458.32L2718.09 1532.77L2729.02 1238.86L1671.72 1410.56Z" fill="url(#paint7_linear_1080_5403)" fill-opacity="0.5"/>
</g>
<g filter="url(#filter3_f_1080_5403)">
<path fill-rule="evenodd" clip-rule="evenodd" d="M1696.57 1584.81L1724.35 1571.51L2524.99 1999.79L2354.14 2135.7L1696.57 1584.81ZM1616.54 1612.33L1520.32 1654.29L1822.36 2473.79L2047.71 2259.8L1616.54 1612.33ZM1389.69 1711.27L1464.33 1678.72L1584.23 2216.18L1491.61 2643.1L1411.04 2474.4L1389.69 1711.27ZM1277 1612.33L1321.6 1645.26L1173.16 2810.22L984.81 2701.47L1277 1612.33Z" fill="url(#paint8_linear_1080_5403)" fill-opacity="0.5"/>
</g>
<path fill-rule="evenodd" clip-rule="evenodd" d="M1296 1420.5L1243.5 1483L275.258 2124.76L237.621 1864.57L1296 1420.5ZM1263.5 1434.14L1360 1375.5L55.935 1229.88L119.697 1635.31L1263.5 1434.14ZM1340 1340L1351 1363.5L14.8378 1098.69L69.0746 907.634L193.426 757.017L1340 1340ZM1351 1326.5L1278 1308.48L365.535 465.118L484.74 327.013L1351 1326.5Z" fill="url(#paint9_linear_1080_5403)" fill-opacity="0.5"/>
<path fill-rule="evenodd" clip-rule="evenodd" d="M1296 1419.5L1243.5 1481.5L580.383 2433.25L849.935 2605.12L1296 1419.5Z" fill="url(#paint10_linear_1080_5403)" fill-opacity="0.5"/>
<g filter="url(#filter4_f_1080_5403)">
<path fill-rule="evenodd" clip-rule="evenodd" d="M1169.82 1649.8L1141.93 1602.58L540.794 2494.88L789.872 2651.3L1169.82 1649.8Z" fill="url(#paint11_linear_1080_5403)" fill-opacity="0.5"/>
<path fill-rule="evenodd" clip-rule="evenodd" d="M1169.82 1649.8L1141.93 1602.58L540.794 2494.88L789.872 2651.3L1169.82 1649.8Z" fill="url(#paint12_linear_1080_5403)" fill-opacity="0.5"/>
</g>
<g filter="url(#filter5_f_1080_5403)">
<path fill-rule="evenodd" clip-rule="evenodd" d="M1032.67 1560.83L1030.31 1591.54L259.088 2070.77L226.81 1854.86L1032.67 1560.83ZM1048.86 1477.76L1060.63 1373.46L199.898 1225.28L272.547 1527.44L1048.86 1477.76ZM1076.6 1231.84L1067.47 1312.75L542.067 1147.86L218.652 854.185L405.037 868.765L1076.6 1231.84ZM1212.32 1166.14L1161.5 1188.3L233.149 494.843L421.499 386.099L1212.32 1166.14Z" fill="url(#paint13_linear_1080_5403)" fill-opacity="0.5"/>
<path fill-rule="evenodd" clip-rule="evenodd" d="M1128.5 1253.5L1128.5 1291.5L542.067 1147.86L218.652 854.185L405.037 868.765L1128.5 1253.5Z" fill="url(#paint14_linear_1080_5403)" fill-opacity="0.5"/>
</g>
</g>
<defs>
<filter id="filter0_f_1080_5403" x="515.542" y="68.3958" width="832.187" height="1067.3" filterUnits="userSpaceOnUse" color-interpolation-filters="sRGB">
<feFlood flood-opacity="0" result="BackgroundImageFix"/>
<feBlend mode="normal" in="SourceGraphic" in2="BackgroundImageFix" result="shape"/>
<feGaussianBlur stdDeviation="25" result="effect1_foregroundBlur_1080_5403"/>
</filter>
<filter id="filter1_f_1080_5403" x="1283.69" y="36.4878" width="1477.76" height="1371.1" filterUnits="userSpaceOnUse" color-interpolation-filters="sRGB">
<feFlood flood-opacity="0" result="BackgroundImageFix"/>
<feBlend mode="normal" in="SourceGraphic" in2="BackgroundImageFix" result="shape"/>
<feGaussianBlur stdDeviation="25" result="effect1_foregroundBlur_1080_5403"/>
</filter>
<filter id="filter2_f_1080_5403" x="1594.77" y="1188.86" width="1217.58" height="404.911" filterUnits="userSpaceOnUse" color-interpolation-filters="sRGB">
<feFlood flood-opacity="0" result="BackgroundImageFix"/>
<feBlend mode="normal" in="SourceGraphic" in2="BackgroundImageFix" result="shape"/>
<feGaussianBlur stdDeviation="25" result="effect1_foregroundBlur_1080_5403"/>
</filter>
<filter id="filter3_f_1080_5403" x="934.81" y="1521.51" width="1640.18" height="1338.71" filterUnits="userSpaceOnUse" color-interpolation-filters="sRGB">
<feFlood flood-opacity="0" result="BackgroundImageFix"/>
<feBlend mode="normal" in="SourceGraphic" in2="BackgroundImageFix" result="shape"/>
<feGaussianBlur stdDeviation="25" result="effect1_foregroundBlur_1080_5403"/>
</filter>
<filter id="filter4_f_1080_5403" x="490.794" y="1552.58" width="729.029" height="1148.72" filterUnits="userSpaceOnUse" color-interpolation-filters="sRGB">
<feFlood flood-opacity="0" result="BackgroundImageFix"/>
<feBlend mode="normal" in="SourceGraphic" in2="BackgroundImageFix" result="shape"/>
<feGaussianBlur stdDeviation="25" result="effect1_foregroundBlur_1080_5403"/>
</filter>
<filter id="filter5_f_1080_5403" x="149.898" y="336.099" width="1112.42" height="1784.67" filterUnits="userSpaceOnUse" color-interpolation-filters="sRGB">
<feFlood flood-opacity="0" result="BackgroundImageFix"/>
<feBlend mode="normal" in="SourceGraphic" in2="BackgroundImageFix" result="shape"/>
<feGaussianBlur stdDeviation="25" result="effect1_foregroundBlur_1080_5403"/>
</filter>
<linearGradient id="paint0_linear_1080_5403" x1="1444.59" y1="1200.4" x2="1957.71" y2="590.069" gradientUnits="userSpaceOnUse">
<stop stop-color="white" stop-opacity="0.5"/>
<stop offset="1" stop-color="#50B7D8" stop-opacity="0"/>
</linearGradient>
<linearGradient id="paint1_linear_1080_5403" x1="1400.5" y1="1188" x2="1077" y2="323.5" gradientUnits="userSpaceOnUse">
<stop offset="0.234415" stop-color="white" stop-opacity="0.5"/>
<stop offset="1" stop-color="#50B7D8" stop-opacity="0"/>
</linearGradient>
<linearGradient id="paint2_linear_1080_5403" x1="1436.5" y1="1247.5" x2="968.542" y2="187.396" gradientUnits="userSpaceOnUse">
<stop offset="0.180876" stop-color="white" stop-opacity="0.5"/>
<stop offset="0.701376" stop-color="#50B7D8" stop-opacity="0"/>
</linearGradient>
<linearGradient id="paint3_linear_1080_5403" x1="1471.5" y1="1310" x2="1873" y2="328.5" gradientUnits="userSpaceOnUse">
<stop stop-color="white" stop-opacity="0.5"/>
<stop offset="0.713407" stop-color="#50B7D8" stop-opacity="0"/>
</linearGradient>
<linearGradient id="paint4_linear_1080_5403" x1="1504.86" y1="1538.88" x2="1776.86" y2="2288.42" gradientUnits="userSpaceOnUse">
<stop stop-color="white" stop-opacity="0.5"/>
<stop offset="1" stop-color="#50B7D8" stop-opacity="0"/>
</linearGradient>
<linearGradient id="paint5_linear_1080_5403" x1="1537.64" y1="1506.89" x2="2448.07" y2="1658.98" gradientUnits="userSpaceOnUse">
<stop offset="0.234415" stop-color="white" stop-opacity="0.5"/>
<stop offset="1" stop-color="#50B7D8" stop-opacity="0"/>
</linearGradient>
<linearGradient id="paint6_linear_1080_5403" x1="1468.11" y1="1508.32" x2="2620.17" y2="1633.11" gradientUnits="userSpaceOnUse">
<stop offset="0.180876" stop-color="white" stop-opacity="0.5"/>
<stop offset="0.701376" stop-color="#50B7D8" stop-opacity="0"/>
</linearGradient>
<linearGradient id="paint7_linear_1080_5403" x1="1434.78" y1="1497.33" x2="2586.84" y2="1622.11" gradientUnits="userSpaceOnUse">
<stop offset="0.346631" stop-color="white" stop-opacity="0.5"/>
<stop offset="1" stop-color="#50B7D8" stop-opacity="0"/>
</linearGradient>
<linearGradient id="paint8_linear_1080_5403" x1="1396.49" y1="1507.38" x2="2045.74" y2="2345.84" gradientUnits="userSpaceOnUse">
<stop stop-color="white" stop-opacity="0.5"/>
<stop offset="0.713407" stop-color="#50B7D8" stop-opacity="0"/>
</linearGradient>
<linearGradient id="paint9_linear_1080_5403" x1="1168.31" y1="1417.77" x2="383.192" y2="1278.56" gradientUnits="userSpaceOnUse">
<stop stop-color="white" stop-opacity="0.5"/>
<stop offset="1" stop-color="#50B7D8" stop-opacity="0"/>
</linearGradient>
<linearGradient id="paint10_linear_1080_5403" x1="1179.62" y1="1462.15" x2="592.69" y2="2174.56" gradientUnits="userSpaceOnUse">
<stop offset="0.234415" stop-color="white" stop-opacity="0.5"/>
<stop offset="1" stop-color="#50B7D8" stop-opacity="0"/>
</linearGradient>
<linearGradient id="paint11_linear_1080_5403" x1="1213.15" y1="1401.23" x2="529.049" y2="2336.54" gradientUnits="userSpaceOnUse">
<stop offset="0.180876" stop-color="white" stop-opacity="0.5"/>
<stop offset="0.701376" stop-color="#50B7D8" stop-opacity="0"/>
</linearGradient>
<linearGradient id="paint12_linear_1080_5403" x1="1230" y1="1492.5" x2="529.049" y2="2336.54" gradientUnits="userSpaceOnUse">
<stop offset="0.282206" stop-color="white" stop-opacity="0.5"/>
<stop offset="0.8402" stop-color="#50B7D8" stop-opacity="0"/>
</linearGradient>
<linearGradient id="paint13_linear_1080_5403" x1="1249.77" y1="1339.67" x2="199.02" y2="1482.71" gradientUnits="userSpaceOnUse">
<stop stop-color="white" stop-opacity="0.5"/>
<stop offset="0.713407" stop-color="#50B7D8" stop-opacity="0"/>
</linearGradient>
<linearGradient id="paint14_linear_1080_5403" x1="1131" y1="1322" x2="282" y2="1093" gradientUnits="userSpaceOnUse">
<stop offset="0.359206" stop-color="white" stop-opacity="0.5"/>
<stop offset="0.996186" stop-color="#50B7D8" stop-opacity="0"/>
</linearGradient>
<clipPath id="clip0_1080_5403">
<rect width="2832" height="2832" fill="white"/>
</clipPath>
</defs>
</svg>
