<svg width="375" height="223" viewBox="0 0 375 223" fill="none" xmlns="http://www.w3.org/2000/svg">
<path d="M0 0H408V223H0V0Z" fill="#E5C28E"/>
<path fill-rule="evenodd" clip-rule="evenodd" d="M309 13C309 5.8203 303.18 0 296 0H215.5C205.835 0 198 7.83502 198 17.5C198 27.165 205.835 35 215.5 35H228.5C242.031 35 253 45.969 253 59.5V63C253 74.598 262.402 84 274 84H283.66C289.923 84 295 89.0771 295 95.34C295 101.603 300.077 106.68 306.34 106.68H327.34C337.093 106.68 345 114.587 345 124.34C345 134.093 352.907 142 362.66 142H492.5C515.972 142 535 122.972 535 99.5V82.2303C535 68.296 523.704 57 509.77 57H498.539C490.807 57 484.539 50.732 484.539 43C484.539 35.268 478.271 29 470.539 29H401.5C400.672 29 400 28.3284 400 27.5C400 26.6716 399.328 26 398.5 26H322C314.82 26 309 20.1797 309 13Z" fill="#E6BB7B"/>
<path fill-rule="evenodd" clip-rule="evenodd" d="M270.412 4.5C270.412 2.01472 268.397 0 265.912 0H224.063C219.057 0 215 4.0575 215 9.06267V10.1253C215 14.5436 218.582 18.1253 223 18.1253H224.17C227.942 18.1253 231 21.1834 231 24.9557C231 28.7281 234.058 31.7861 237.83 31.7861H243.848C247.246 31.7861 250 34.5404 250 37.9379C250 41.3354 252.754 44.0896 256.152 44.0896H257.5C261.642 44.0896 265 47.4475 265 51.5896V55.0451C265 61.0956 269.905 66.0005 275.955 66.0005H302.946C306.842 66.0005 310 69.1586 310 73.0542C310 76.9498 313.158 80.1078 317.054 80.1078H489.7C498.566 80.1078 505.754 72.9202 505.754 64.0539C505.754 55.1876 498.566 48 489.7 48H344.555C341.517 48 339.055 45.5376 339.055 42.5C339.055 39.4624 336.593 37 333.555 37H315.59C312.829 37 310.59 34.7614 310.59 32V30.2856C310.59 28.471 309.119 27 307.305 27C305.49 27 304.019 25.529 304.019 23.7144V18C304.019 13.0294 299.99 9 295.019 9H274.912C272.426 9 270.412 6.98528 270.412 4.5Z" fill="#DFAF67"/>
<path fill-rule="evenodd" clip-rule="evenodd" d="M244.379 10.2306C238.351 8.87167 239.339 0 245.518 0H487.26C492.281 0 494.364 6.42854 490.297 9.37322C489.591 9.88428 489.953 11 490.824 11H568.95C575.242 11 580.343 16.1009 580.343 22.3931V30.6789C580.343 36.9712 575.242 42.072 568.95 42.072H550.935C547.081 42.072 544.487 46.8828 544.487 50.7366C544.487 59.4737 536.929 66.2922 528.238 65.3955L446.614 56.9736H390.566C388.594 56.9736 386.81 55.804 386.024 53.9959C385.238 52.1877 383.454 51.0181 381.482 51.0181H331.929C329.848 51.0181 327.772 50.8091 325.733 50.3941L285.231 42.152C281.559 41.4049 282.104 36 285.85 36H322.179C324.597 36 326.48 33.902 326.219 31.4984C326.032 29.771 324.768 28.3537 323.073 27.9716L244.379 10.2306Z" fill="#4DB7D9"/>
<path fill-rule="evenodd" clip-rule="evenodd" d="M299.036 6.5C299.036 2.91015 296.126 0 292.536 0H248.285C243.709 0 240 3.70971 240 8.28587C240 12.862 243.709 16.5717 248.285 16.5717H271.63C275.231 16.5717 278.807 17.1869 282.201 18.3906L302.473 25.5792C303.159 25.8224 303.881 25.9467 304.609 25.9467H309.973C310.54 25.9467 311 26.4063 311 26.9733C311 27.5403 310.54 28 309.973 28H307C304.79 28 303 29.7909 303 32V36.5C303 37.3284 302.328 38 301.5 38C300.671 38 300 38.6716 300 39.5V43.9555C300 47.2446 302.666 49.9109 305.955 49.9109H350.646C353.05 49.9109 355 51.86 355 54.2643C355 56.6685 356.949 58.6176 359.353 58.6176H440.79C444.551 58.6176 447.599 55.5692 447.599 51.8088C447.599 48.0484 444.551 45 440.79 45H389.465C387.532 45 385.965 43.433 385.965 41.5C385.965 39.567 384.398 38 382.465 38H357.866C355.879 38 354.268 36.3891 354.268 34.4019C354.268 32.4147 355.879 30.8037 357.866 30.8037H360.974C363.405 30.8037 365.376 28.833 365.376 26.4019C365.376 23.9708 363.405 22 360.974 22H348.662C346.176 22 344.162 19.9853 344.162 17.5C344.162 15.0147 342.147 13 339.662 13H305.536C301.946 13 299.036 10.0899 299.036 6.5Z" fill="#98E0F7"/>
<path fill-rule="evenodd" clip-rule="evenodd" d="M239.517 0C239.231 0 238.999 0.231857 238.999 0.517867C238.999 3.1221 236.529 5.01759 234.014 4.34356L232.659 3.98071C230.638 3.43908 228.56 4.63866 228.019 6.66005C227.477 8.68144 228.677 10.7592 230.698 11.3008L240.644 13.9657C242.033 14.338 242.999 15.5973 242.999 17.0359C242.999 18.7913 244.422 20.2144 246.178 20.2144H261.525C263.144 20.2144 264.756 20.4266 266.32 20.8456L297.574 29.2203C298.415 29.4455 298.999 30.2072 298.999 31.0774C298.999 32.1392 298.139 33 297.077 33H268.955C265.666 33 262.999 35.6664 262.999 38.9555C262.999 42.2446 265.666 44.9109 268.955 44.9109H272.589C273.92 44.9109 274.999 45.9902 274.999 47.3216C274.999 48.653 276.079 49.7323 277.41 49.7323H310.741C312.54 49.7323 313.999 51.1913 313.999 52.9912C313.999 54.7911 315.459 56.2501 317.258 56.2501H337C338.657 56.2501 340 57.5933 340 59.2501C340 60.907 341.343 62.2501 343 62.2501H444.091C446.093 62.2501 447.716 60.6271 447.716 58.6251C447.716 56.623 446.093 55 444.091 55H390.537C388.88 55 387.537 53.6569 387.537 52C387.537 50.3431 386.193 49 384.537 49H331.34C329.683 49 328.34 47.6569 328.34 46C328.34 44.3431 326.997 43 325.34 43H310.857C309.595 43 308.572 41.9767 308.572 40.7144C308.572 39.4521 309.595 38.4288 310.857 38.4288H321.786C325.218 38.4288 328 35.6465 328 32.2144C328 28.7823 325.218 26 321.786 26H316.368C315.351 26 314.339 25.8667 313.357 25.6036L255.719 10.1596C251.355 8.99029 248.321 5.03571 248.321 0.517867C248.321 0.231857 248.089 0 247.803 0H239.517ZM318 30.0715C318 28.9274 318.927 28 320.071 28H322.661C323.805 28 324.732 28.9274 324.732 30.0715C324.732 31.2155 323.805 32.1429 322.661 32.1429H320.071C318.927 32.1429 318 31.2155 318 30.0715ZM270.848 35C269.275 35 268 36.2752 268 37.8483C268 39.4213 269.275 40.6965 270.848 40.6965H278.616C280.189 40.6965 281.465 39.4213 281.465 37.8483C281.465 36.2752 280.189 35 278.616 35H270.848ZM359.848 51C358.275 51 357 52.2752 357 53.8483C357 55.4213 358.275 56.6965 359.848 56.6965H367.616C369.189 56.6965 370.465 55.4213 370.465 53.8483C370.465 52.2752 369.189 51 367.616 51H359.848Z" fill="white"/>
<rect x="323" y="59" width="10.8752" height="5.17867" rx="2.58933" fill="white"/>
<rect x="253" y="23" width="13.4645" height="5.17867" rx="2.58933" fill="white"/>
<rect x="313" y="59" width="5.69654" height="5.17867" rx="2.58933" fill="white"/>
<rect x="266" y="46" width="4.6608" height="4.6608" rx="2.3304" fill="white"/>
<rect x="233" y="15" width="4.6608" height="4.6608" rx="2.3304" fill="white"/>
<rect x="326" y="16" width="15.0181" height="5.69654" rx="2.84827" fill="#4DB7D9"/>
<rect x="356" y="24" width="6.2144" height="5.69654" rx="2.84827" fill="#4DB7D9"/>
<rect x="318" y="16" width="5.69654" height="5.69654" rx="2.84827" fill="#4DB7D9"/>
</svg>
