<svg width="609" height="261" viewBox="0 0 609 261" fill="none" xmlns="http://www.w3.org/2000/svg">
<path fill-rule="evenodd" clip-rule="evenodd" d="M237 20C237 8.95431 228.046 0 217 0H47C21.0426 0 0 21.0426 0 47C0 72.9574 21.0426 94 47 94H81C108.062 94 130 115.938 130 143C130 170.062 151.938 192 179 192H272.5C291.554 192 307 207.446 307 226.5C307 245.554 322.446 261 341.5 261H598C639.421 261 673 227.421 673 186C673 144.579 639.421 111 598 111H443.5C423.894 111 408 95.1061 408 75.5C408 55.8939 392.106 40 372.5 40H257C245.954 40 237 31.0457 237 20Z" fill="#E6BB7B"/>
<path fill-rule="evenodd" clip-rule="evenodd" d="M285 8.5C285 3.80558 281.194 0 276.5 0H195.5C185.835 0 178 7.83502 178 17.5V19.5C178 28.0604 184.94 35 193.5 35H196C203.18 35 209 40.8203 209 48C209 55.1797 214.82 61 222 61H233C239.627 61 245 66.3726 245 73C245 79.6274 250.373 85 257 85H259.5C267.508 85 274 91.4919 274 99.5V106C274 117.598 283.402 127 295 127H348.5C355.956 127 362 133.044 362 140.5C362 147.956 368.044 154 375.5 154H709C726.121 154 740 140.121 740 123C740 105.879 726.121 92 709 92H427.5C421.701 92 417 87.299 417 81.5C417 75.701 412.299 71 406.5 71H371.5C366.253 71 362 66.7467 362 61.5V58C362 54.6863 359.314 52 356 52C352.686 52 350 49.3137 350 46V34.5C350 24.835 342.165 17 332.5 17H293.5C288.806 17 285 13.1944 285 8.5Z" fill="#DFAF67"/>
<path fill-rule="evenodd" clip-rule="evenodd" d="M359 13C359 5.8203 353.18 0 346 0H261C252.163 0 245 7.16344 245 16C245 24.8366 252.163 32 261 32H304.656C311.449 32 318.192 33.1602 324.594 35.4305L366.632 50.3377C367.868 50.776 369.17 51 370.482 51H380C381.105 51 382 51.8954 382 53C382 54.1046 381.105 55 380 55H374.5C370.358 55 367 58.3579 367 62.5V70.5C367 72.433 365.433 74 363.5 74C361.567 74 360 75.567 360 77.5V85.5C360 91.8513 365.149 97 371.5 97H471.5C476.194 97 480 100.806 480 105.5C480 110.194 483.806 114 488.5 114H633C640.18 114 646 108.18 646 101C646 93.8203 640.18 88 633 88H533C529.134 88 526 84.866 526 81C526 77.134 522.866 74 519 74H473C469.134 74 466 70.866 466 67C466 63.134 469.134 60 473 60H478.5C483.194 60 487 56.1944 487 51.5C487 46.8056 483.194 43 478.5 43H455.5C450.806 43 447 39.1944 447 34.5C447 29.8056 443.194 26 438.5 26H372C364.82 26 359 20.1797 359 13Z" fill="#98E0F7"/>
<path fill-rule="evenodd" clip-rule="evenodd" d="M253.127 19.7552C241.487 17.1312 243.394 0 255.326 0H722.129C731.825 0 735.847 12.4135 727.994 18.0997C726.736 19.0108 727.38 21 728.934 21H880C892.15 21 902 30.8497 902 43V59C902 71.1503 892.15 81 880 81H845.302C837.943 81 832.992 90.0972 832.992 97.4564C832.992 114.328 818.397 127.494 801.615 125.763L644 109.5H535.77C531.963 109.5 528.518 107.242 527 103.75C525.482 100.258 522.037 98 518.23 98H422.543C418.524 98 414.516 97.5963 410.578 96.795L332.369 80.8795C325.279 79.4368 326.33 69 333.565 69H403.795C408.283 69 411.778 65.1054 411.295 60.6434C410.947 57.4368 408.6 54.8058 405.454 54.0965L253.127 19.7552Z" fill="#4DB7D9"/>
<path fill-rule="evenodd" clip-rule="evenodd" d="M244 0C243.448 0 243 0.447715 243 1C243 5.66567 238.575 9.06156 234.068 7.85399L231.388 7.13593C227.485 6.09005 223.473 8.40644 222.427 12.3097C221.381 16.213 223.697 20.2251 227.601 21.271L246.195 26.2533C249.029 27.0128 251 29.5815 251 32.5162C251 36.0971 253.903 39 257.484 39H288.791C292.093 39 295.382 39.4329 298.572 40.2877L357.378 56.0448C358.925 56.4592 360 57.8608 360 59.4621C360 61.416 358.416 63 356.462 63H300.5C294.149 63 289 68.1487 289 74.5C289 80.8513 294.149 86 300.5 86H307.5C310.538 86 313 88.4624 313 91.5C313 94.5376 315.462 97 318.5 97H382C385.314 97 388 99.6863 388 103C388 106.314 390.686 109 394 109H432.5C435.538 109 438 111.462 438 114.5C438 117.538 440.463 120 443.5 120H639C642.866 120 646 116.866 646 113C646 109.134 642.866 106 639 106H535.5C532.462 106 530 103.538 530 100.5C530 97.4624 527.538 95 524.5 95H421.5C418.462 95 416 92.5376 416 89.5C416 86.4624 413.538 84 410.5 84H382C379.239 84 377 81.7614 377 79C377 76.2386 379.239 74 382 74H404C410.628 74 416 68.6274 416 62C416 55.3726 410.628 50 404 50H394.226C392.323 50 390.428 49.7506 388.59 49.258L274.591 18.7122C266.575 16.5641 261 9.29944 261 1C261 0.447715 260.553 0 260 0H244ZM395 59C395 56.7909 396.791 55 399 55H404C406.209 55 408 56.7909 408 59C408 61.2091 406.209 63 404 63H399C396.791 63 395 61.2091 395 59ZM304.5 69C301.462 69 299 71.4624 299 74.5C299 77.5376 301.462 80 304.5 80H319.5C322.538 80 325 77.5376 325 74.5C325 71.4624 322.538 69 319.5 69H304.5ZM505.5 100C502.462 100 500 102.462 500 105.5C500 108.538 502.462 111 505.5 111H520.5C523.538 111 526 108.538 526 105.5C526 102.462 523.538 100 520.5 100H505.5Z" fill="white"/>
<rect x="405" y="114" width="21" height="10" rx="5" fill="white"/>
<rect x="271" y="44" width="26" height="10" rx="5" fill="white"/>
<rect x="386" y="114" width="11" height="10" rx="5" fill="white"/>
<rect x="296" y="89" width="9" height="9" rx="4.5" fill="white"/>
<rect x="232" y="29" width="9" height="9" rx="4.5" fill="white"/>
</svg>
