<svg width="240" height="318" viewBox="0 0 240 318" fill="none" xmlns="http://www.w3.org/2000/svg">
<g clip-path="url(#clip0_1080_4956)">
<path fill-rule="evenodd" clip-rule="evenodd" d="M0 173.14V310L166.451 309.062C210.457 308.814 246 273.07 246 229.064V0H167.619C161.815 91.1564 90.347 164.465 0 173.14Z" fill="url(#paint0_linear_1080_4956)"/>
<path fill-rule="evenodd" clip-rule="evenodd" d="M160.5 -518V-377V-343.5V-1C160.5 87.6417 88.6417 159.5 0 159.5V174.5C96.926 174.5 175.5 95.926 175.5 -1V-343.5V-377V-518C175.5 -614.926 96.926 -693.5 0 -693.5V-678.5C88.6417 -678.5 160.5 -606.642 160.5 -518Z" fill="white"/>
<path d="M214.5 -558C214.5 -562.142 217.858 -565.5 222 -565.5C226.142 -565.5 229.5 -562.142 229.5 -558H214.5ZM0 196.5H62V211.5H0V196.5ZM214.5 44V-558H229.5V44H214.5ZM62 196.5C146.223 196.5 214.5 128.223 214.5 44H229.5C229.5 136.508 154.508 211.5 62 211.5V196.5Z" fill="#98E0F7"/>
<path d="M266.6 -22.2192C267.273 -26.3062 271.132 -29.0736 275.219 -28.4002C279.306 -27.7269 282.074 -23.8678 281.4 -19.7808L266.6 -22.2192ZM0 232.5H95.2033V247.5H0V232.5ZM245.675 104.79L266.6 -22.2192L281.4 -19.7808L260.475 107.229L245.675 104.79ZM95.2033 232.5C169.859 232.5 233.539 178.453 245.675 104.79L260.475 107.229C247.146 188.137 177.202 247.5 95.2033 247.5V232.5Z" fill="#98E0F7"/>
<path d="M298.234 -1.35933C299.261 -5.37216 303.346 -7.79275 307.359 -6.76587C311.372 -5.739 313.793 -1.65351 312.766 2.35933L298.234 -1.35933ZM0 268.5H110.788V283.5H0V268.5ZM258.528 153.806L298.234 -1.35933L312.766 2.35933L273.059 157.525L258.528 153.806ZM110.788 268.5C180.45 268.5 241.258 221.294 258.528 153.806L273.059 157.525C254.091 231.651 187.302 283.5 110.788 283.5V268.5Z" fill="#98E0F7"/>
<path d="M337.008 26.2877C338.506 22.4259 342.851 20.5096 346.712 22.0076C350.574 23.5056 352.49 27.8506 350.992 31.7123L337.008 26.2877ZM0 302.5H125.448V317.5H0V302.5ZM267.626 205.151L337.008 26.2877L350.992 31.7123L281.611 210.576L267.626 205.151ZM125.448 302.5C188.389 302.5 244.864 263.832 267.626 205.151L281.611 210.576C256.61 275.028 194.58 317.5 125.448 317.5V302.5Z" fill="white"/>
</g>
<defs>
<linearGradient id="paint0_linear_1080_4956" x1="123" y1="-1032" x2="-293.184" y2="804.168" gradientUnits="userSpaceOnUse">
<stop offset="0.264586" stop-color="#4DB7D9"/>
<stop offset="0.519416" stop-color="#116C96"/>
</linearGradient>
<clipPath id="clip0_1080_4956">
<rect width="240" height="318" fill="white"/>
</clipPath>
</defs>
</svg>
