<svg width="355" height="904" viewBox="0 0 355 904" fill="none" xmlns="http://www.w3.org/2000/svg">
<path fill-rule="evenodd" clip-rule="evenodd" d="M355 754.14V896L178.504 889.386C135.517 887.775 101.5 852.459 101.5 809.442V313H187V569C187 665.653 260.721 745.087 355 754.14Z" fill="#106B95"/>
<path d="M355 753V753C262.216 753 187 677.784 187 585V312.5" stroke="#98E0F7" stroke-width="15"/>
<path d="M122.479 551.933L121.912 544.455L106.955 545.588L107.521 553.067L122.479 551.933ZM355 782.5H281.333V797.5H355V782.5ZM129.269 641.525L122.479 551.933L107.521 553.067L114.312 642.658L129.269 641.525ZM281.333 782.5C201.58 782.5 135.296 721.05 129.269 641.525L114.312 642.658C120.932 730.005 193.735 797.5 281.333 797.5V782.5Z" fill="#98E0F7"/>
<path d="M87.4002 563.781L86.181 556.381L71.3806 558.819L72.5998 566.219L87.4002 563.781ZM355 818.5H258.797V833.5H355V818.5ZM108.325 690.79L87.4002 563.781L72.5998 566.219L93.5247 693.229L108.325 690.79ZM258.797 818.5C184.141 818.5 120.461 764.453 108.325 690.79L93.5247 693.229C106.854 774.137 176.798 833.5 258.797 833.5V818.5Z" fill="#98E0F7"/>
<path d="M55.7659 584.641L53.9065 577.375L39.3748 581.093L41.2341 588.359L55.7659 584.641ZM355 854.5H243.212V869.5H355V854.5ZM95.4725 739.806L55.7659 584.641L41.2341 588.359L80.9408 743.525L95.4725 739.806ZM243.212 854.5C173.55 854.5 112.742 807.294 95.4725 739.806L80.9408 743.525C99.9094 817.651 166.698 869.5 243.212 869.5V854.5Z" fill="#98E0F7"/>
<path d="M16.9924 612.288L14.28 605.295L0.295291 610.72L3.00763 617.712L16.9924 612.288ZM355 888.5H228.552V903.5H355V888.5ZM86.3735 791.151L16.9924 612.288L3.00763 617.712L72.3888 796.576L86.3735 791.151ZM228.552 888.5C165.611 888.5 109.136 849.832 86.3735 791.151L72.3888 796.576C97.39 861.028 159.42 903.5 228.552 903.5V888.5Z" fill="white"/>
<path fill-rule="evenodd" clip-rule="evenodd" d="M252 43C252 35.8203 246.18 30 239 30H219.5C212.596 30 207 35.5964 207 42.5C207 49.4036 201.404 55 194.5 55H174.127C166.604 55 159.309 57.5802 153.459 62.31L124.745 85.5257C118.763 90.3618 111.304 93 103.612 93C85.0486 93 70 108.049 70 126.612V174.5C70 219.511 106.489 256 151.5 256H199.375H220.125C232.482 256 242.5 245.982 242.5 233.625V229.25C242.5 219.309 250.559 211.25 260.5 211.25C270.441 211.25 278.5 203.191 278.5 193.25V188.875C278.5 176.518 268.482 166.5 256.125 166.5H223.5C219.634 166.5 216.5 169.634 216.5 173.5V191.083C216.5 202.807 208.22 212.9 196.722 215.192L195.19 215.497C174.117 219.697 157.077 198.377 165.817 178.748L172.477 163.789C174.47 159.313 175.5 154.468 175.5 149.568V124C175.5 110.745 186.245 100 199.5 100H201.5C213.65 100 223.5 90.1503 223.5 78V70.25C223.5 62.3799 229.88 56 237.75 56H239C246.18 56 252 50.1797 252 43Z" fill="#98E0F7"/>
<path fill-rule="evenodd" clip-rule="evenodd" d="M133 14.345C133 6.42246 139.422 0 147.345 0C155.267 0 161.69 6.42246 161.69 14.345V15.655C161.69 23.5775 155.267 30 147.345 30C139.422 30 133 23.5775 133 15.655V14.345ZM248 120C248 110.611 255.611 103 265 103H286.467C295.856 103 303.467 110.611 303.467 120C303.467 129.389 295.856 137 286.467 137H265C255.611 137 248 129.389 248 120ZM149.985 118C139.491 118 130.985 126.507 130.985 137C130.985 147.493 122.478 156 111.985 156H109.228C97.2123 156 87.4716 165.741 87.4716 177.757V219.264C87.4716 228.507 79.9787 236 70.7358 236C61.4929 236 54 243.493 54 252.736V315C54 325.493 62.5066 334 73 334C83.4934 334 92 342.507 92 353V514.479C92 539.551 97.2241 564.348 107.339 587.29L138.682 658.377C139.114 659.356 140.574 659.065 140.597 657.995L140.865 645.5V481.999C140.865 449.352 136.85 415.137 150.286 385.384C153.732 377.753 158.394 369.798 164.692 362C172.436 352.412 180.052 345.051 186.995 339.423C191.559 335.724 197.351 334 203.226 334C219.117 334 232 321.117 232 305.226V287.63C232 277.893 239.893 270 249.63 270H250.26C259.649 270 267.26 262.389 267.26 253C267.26 243.611 259.649 236 250.26 236H232H211.793H176.569C166.974 236 159.197 228.222 159.197 218.628C159.197 213.477 161.482 208.592 165.436 205.291L205.087 172.192C212.065 166.367 216.098 157.746 216.098 148.657C216.098 131.726 202.373 118 185.441 118H149.985ZM333 42.5C333 35.5964 327.404 30 320.5 30C313.596 30 308 35.5964 308 42.5C308 49.4036 313.596 55 320.5 55C327.404 55 333 49.4036 333 42.5Z" fill="white"/>
<path d="M355 753H293C204.634 753 133 681.366 133 593V318" stroke="white" stroke-width="15"/>
</svg>
