<svg width="409" height="397" viewBox="0 0 409 397" fill="none" xmlns="http://www.w3.org/2000/svg">
<g clip-path="url(#clip0_735_2580)">
<path d="M224.441 259.262C154.114 223.558 103.697 206.678 78.4708 218.863C73.918 221.063 60.7946 227.024 58.5251 231.495C43.6813 260.733 102.028 294.707 185.048 336.855C268.067 379.003 312.732 357.126 314.445 353.752C316.157 350.379 307.46 301.41 224.441 259.262Z" fill="#FF686B"/>
<path d="M80.9708 233.994L182.971 289.494L289.971 346.494" stroke="#E64E51" stroke-width="5"/>
<path d="M141.288 193.896C155.468 182.899 184.737 189.098 197.6 193.572C198.522 194.805 200.262 198.118 199.84 201.509C199.314 205.749 158.843 220.176 148.961 221.803C139.079 223.43 123.564 207.642 141.288 193.896Z" fill="#FFC532"/>
<path d="M130.624 263.697C130.512 258.318 166.348 226.979 179.132 222.512L191.14 269.436C181.472 274.695 160.987 283.641 158.469 282.161C155.321 280.311 130.763 270.42 130.624 263.697Z" fill="#FFC532"/>
<path d="M166.23 258.679C154.413 245.264 189.833 190.824 205.891 187.075C221.949 183.325 244.487 190.584 252.811 199.647C261.135 208.71 269.699 275.911 252.697 281.847C235.695 287.784 178.047 272.093 166.23 258.679Z" fill="#FFDB40"/>
<path d="M216.192 309.743C221.261 311.545 251.103 289.199 258.05 276.685L210.49 257.638C202.45 265.153 179.804 288.606 180.414 291.462C181.177 295.033 209.856 307.49 216.192 309.743Z" fill="#FFDB40"/>
<path d="M312.509 215.387C299.79 202.729 269.98 205.278 256.665 208.135C255.598 209.245 253.464 212.319 253.465 215.737C253.465 220.009 291.854 239.307 301.46 242.137C311.066 244.968 328.407 231.21 312.509 215.387Z" fill="#FFDB40"/>
<path d="M202.728 258.987C202.59 258.951 202.46 258.888 202.346 258.802C202.233 258.716 202.137 258.609 202.065 258.486L198.662 252.552C198.544 252.307 198.523 252.026 198.604 251.767C198.684 251.508 198.86 251.288 199.096 251.153C199.332 251.017 199.611 250.976 199.877 251.036C200.143 251.097 200.377 251.255 200.532 251.479L203.959 257.364C204.031 257.487 204.078 257.623 204.098 257.764C204.117 257.905 204.108 258.049 204.071 258.186C204.034 258.324 203.97 258.452 203.883 258.565C203.796 258.678 203.687 258.772 203.563 258.842C203.441 258.921 203.304 258.975 203.16 258.999C203.017 259.024 202.87 259.02 202.728 258.987Z" fill="#FFBB4D"/>
<path d="M198.119 257.752C197.982 257.716 197.853 257.654 197.741 257.568C197.628 257.482 197.533 257.375 197.462 257.253C197.391 257.13 197.344 256.995 197.325 256.854C197.306 256.713 197.316 256.57 197.352 256.433C197.389 256.296 197.453 256.168 197.539 256.055C197.626 255.943 197.734 255.848 197.857 255.778L203.718 252.394C203.841 252.322 203.976 252.276 204.117 252.257C204.258 252.238 204.401 252.247 204.538 252.284C204.675 252.321 204.804 252.384 204.916 252.471C205.028 252.558 205.123 252.666 205.193 252.789C205.334 253.035 205.372 253.328 205.299 253.602C205.225 253.877 205.046 254.111 204.801 254.254L198.927 257.646C198.682 257.786 198.392 257.824 198.119 257.752V257.752Z" fill="#FFBB4D"/>
<path d="M140.287 163.34C140.287 199.576 180.023 211.593 228.318 211.593C276.613 211.593 316.641 199.576 316.641 163.34C316.641 101.553 276.613 80.3691 228.318 80.3691C180.023 80.3691 140.287 98.611 140.287 163.34Z" fill="#FFDB40"/>
<path d="M298.91 184.35H288.495" stroke="#FCA18E" stroke-width="13.8861" stroke-linecap="round"/>
<path d="M183.656 184.35H173.242" stroke="#FCA18E" stroke-width="13.8861" stroke-linecap="round"/>
<path d="M278.078 159.355V170.464" stroke="#123041" stroke-width="10.4146" stroke-linecap="round"/>
<path d="M194.066 159.355V170.464" stroke="#123041" stroke-width="10.4146" stroke-linecap="round"/>
<path d="M218.368 175.324C218.368 181.651 226.295 184.35 236.073 184.35C245.851 184.35 253.777 181.651 253.777 175.324C253.777 168.997 245.851 161.438 236.073 161.438C226.295 161.438 218.368 168.997 218.368 175.324Z" fill="#FFB132"/>
<path d="M215.449 56.2227C225.981 65.5626 232.032 76.0373 233.822 85.5708L215.287 83.5944C207.655 82.7805 200.344 73.7843 200.681 62.8647C201.018 51.9451 210.093 51.4731 215.449 56.2227Z" fill="#FFDB40"/>
<path d="M234.792 70.974C231.513 74.1759 230.684 81.1538 230.679 84.2425C237.032 83.6554 247.691 81.7024 249.603 77.6345C251.514 73.5666 250.322 68.5091 247.995 67.3036C245.667 66.0981 238.891 66.9715 234.792 70.974Z" fill="#FFDB40"/>
</g>
<defs>
<clipPath id="clip0_735_2580">
<rect width="337.911" height="319.15" fill="white" transform="translate(82.6033 0.542236) rotate(15)"/>
</clipPath>
</defs>
</svg>
