<svg width="240" height="513" viewBox="0 0 240 513" fill="none" xmlns="http://www.w3.org/2000/svg">
<g clip-path="url(#clip0_1080_4948)">
<path fill-rule="evenodd" clip-rule="evenodd" d="M246 0H0V339.86C90.347 348.536 161.815 421.844 167.619 513H246V0Z" fill="url(#paint0_linear_1080_4948)"/>
<path fill-rule="evenodd" clip-rule="evenodd" d="M160.5 514V655V688.5V1031C160.5 1117.13 92.6608 1187.41 7.50199 1191.33C3.36423 1191.52 0 1194.86 0 1199C0 1203.14 3.36718 1206.52 7.50566 1206.34C100.95 1202.41 175.5 1125.41 175.5 1031V688.5V655V514C175.5 419.589 100.95 342.589 7.50566 338.658C3.36718 338.483 0 341.858 0 346C0 350.142 3.36423 353.482 7.50199 353.672C92.6608 357.59 160.5 427.873 160.5 514Z" fill="white"/>
<path d="M229.5 513C229.5 517.142 226.142 520.5 222 520.5C217.858 520.5 214.5 517.142 214.5 513L229.5 513ZM214.5 513L214.5 436.001L229.5 436.001L229.5 513L214.5 513ZM62.0002 283.501L-8.12486e-06 283.5L8.12486e-06 268.5L62.0002 268.501L62.0002 283.501ZM214.5 436.001C214.5 351.777 146.224 283.501 62.0002 283.501L62.0002 268.501C154.508 268.501 229.5 343.493 229.5 436.001L214.5 436.001Z" fill="#98E0F7"/>
<path d="M287.5 428C287.5 432.142 284.142 435.5 280 435.5C275.858 435.5 272.5 432.142 272.5 428L287.5 428ZM272.5 428L272.5 366L287.5 366L287.5 428L272.5 428ZM120 213.5L-5.6575e-06 213.5L5.6575e-06 198.5L120 198.5L120 213.5ZM272.5 366C272.5 281.777 204.224 213.5 120 213.5L120 198.5C212.508 198.5 287.5 273.492 287.5 366L272.5 366Z" fill="#98E0F7"/>
<path d="M354.5 358C354.5 362.142 351.142 365.5 347 365.5C342.858 365.5 339.5 362.142 339.5 358L354.5 358ZM339.5 358L339.5 296L354.5 296L354.5 358L339.5 358ZM187 143.5L-4.62843e-06 143.5L4.62843e-06 128.5L187 128.5L187 143.5ZM339.5 296C339.5 211.777 271.223 143.5 187 143.5L187 128.5C279.508 128.5 354.5 203.492 354.5 296L339.5 296Z" fill="#98E0F7"/>
<path d="M246 66.0003L0 66" stroke="#98E0F7" stroke-width="15"/>
</g>
<defs>
<linearGradient id="paint0_linear_1080_4948" x1="123" y1="-1.20806e-06" x2="-295.557" y2="1841.13" gradientUnits="userSpaceOnUse">
<stop offset="0.264586" stop-color="#4DB7D9"/>
<stop offset="0.519416" stop-color="#116C96"/>
</linearGradient>
<clipPath id="clip0_1080_4948">
<rect width="240" height="513" fill="white"/>
</clipPath>
</defs>
</svg>
