<svg preserveAspectRatio="none" width="1562" height="476" viewBox="0 0 1562 476" fill="none" xmlns="http://www.w3.org/2000/svg">
<path fill-rule="evenodd" clip-rule="evenodd" d="M1356 34.7795C1356 15.5713 1340.43 0 1321.22 0H1062.05C1037.17 0 1017 20.1717 1017 45.0547C1017 69.9377 996.828 90.1094 971.945 90.1094H728.349C714.901 90.1094 704 101.011 704 114.458C704 127.905 693.099 138.807 679.651 138.807H629.597C603.586 138.807 582.5 159.893 582.5 185.903C582.5 211.914 561.414 233 535.403 233H483.5C479.358 233 476 236.358 476 240.5C476 244.642 472.642 248 468.5 248H364.5C349.864 248 338 259.864 338 274.5C338 289.136 326.136 301 311.5 301H132.807C116.345 301 103 314.345 103 330.807V333.114C103 348.302 90.6878 360.614 75.5 360.614C60.3122 360.614 48 372.926 48 388.114V415.531C48 428.786 37.2548 439.531 24 439.531H18.2347C8.16397 439.531 0 447.695 0 457.766C0 467.837 8.16396 476.001 18.2347 476.001H496.765C506.836 476.001 515 467.837 515 457.766C515 447.695 506.836 439.531 496.765 439.531H425.338C415.762 439.531 408 431.769 408 422.193C408 412.618 415.762 404.855 425.338 404.855H607.572C624.377 404.855 638 391.232 638 374.428C638 357.623 651.623 344 668.428 344H738.5C758.106 344 774 328.106 774 308.5C774 288.894 789.894 273 809.5 273H813H919H956.5C960.642 273 964 269.642 964 265.5C964 261.358 960.642 258 956.5 258H931.5C924.596 258 919 252.404 919 245.5C919 238.596 913.404 233 906.5 233H864.5C856.216 233 849.5 226.284 849.5 218C849.5 209.716 856.216 203 864.5 203H925.5C929.642 203 933 199.642 933 195.5C933 191.358 929.642 188 925.5 188H862.5C855.32 188 849.5 182.18 849.5 175C849.5 167.82 855.32 162 862.5 162H1086.72C1096.27 162 1104 154.265 1104 144.724C1104 135.183 1111.73 127.448 1121.28 127.448H1348.55C1352.67 127.448 1356 124.113 1356 120V34.7795Z" fill="#5FC6E7"/>
<path fill-rule="evenodd" clip-rule="evenodd" d="M1562 34.7795C1562 15.5713 1546.43 0 1527.22 0H1268.05C1243.17 0 1223 20.1717 1223 45.0547C1223 69.9377 1202.83 90.1094 1177.95 90.1094H934.349C920.901 90.1094 910 101.011 910 114.458C910 127.905 899.099 138.807 885.651 138.807H835.597C809.586 138.807 788.5 159.893 788.5 185.903C788.5 211.914 767.414 233 741.403 233H689.5C685.358 233 682 236.358 682 240.5C682 244.642 678.642 248 674.5 248H570.5C555.864 248 544 259.864 544 274.5C544 289.136 532.136 301 517.5 301H338.807C322.345 301 309 314.345 309 330.807V333.114C309 348.302 296.688 360.614 281.5 360.614C266.312 360.614 254 372.926 254 388.114V415.531C254 428.786 243.255 439.531 230 439.531H224.235C214.164 439.531 206 447.695 206 457.766C206 467.837 214.164 476.001 224.235 476.001H702.765C712.836 476.001 721 467.837 721 457.766C721 447.695 712.836 439.531 702.765 439.531H631.338C621.762 439.531 614 431.769 614 422.193C614 412.618 621.762 404.855 631.338 404.855H813.572C830.377 404.855 844 391.232 844 374.428C844 357.623 857.623 344 874.428 344H957C969.703 344 980 333.703 980 321C980 308.297 990.297 298 1003 298H1013.75C1023.83 298 1032 289.829 1032 279.75C1032 269.671 1040.17 261.5 1050.25 261.5H1162.5C1166.64 261.5 1170 258.142 1170 254C1170 249.858 1166.64 246.5 1162.5 246.5H1083C1067.81 246.5 1055.5 234.188 1055.5 219C1055.5 203.812 1067.81 191.5 1083 191.5H1131.5C1135.64 191.5 1139 188.142 1139 184C1139 179.858 1135.64 176.5 1131.5 176.5H1062.75C1058.75 176.5 1055.5 173.254 1055.5 169.25C1055.5 165.246 1058.75 162 1062.75 162H1292.72C1302.27 162 1310 154.265 1310 144.724C1310 135.183 1317.73 127.448 1327.28 127.448H1554.55C1558.67 127.448 1562 124.113 1562 120V34.7795Z" fill="#5FC6E7"/>
</svg>
