<svg width="1631" height="509" viewBox="0 0 1631 509" fill="none" xmlns="http://www.w3.org/2000/svg">
<path fill-rule="evenodd" clip-rule="evenodd" d="M1352 13H1010V61H1352V13ZM753 114H1106V162H753V114ZM614 171H829V244V295H614H500V363H48V338C48 304.863 74.8629 278 108 278H318.902C325.903 258.192 344.794 244 367 244H614V171Z" fill="#DFAF67"/>
<path fill-rule="evenodd" clip-rule="evenodd" d="M990 78.2667C990 63.2261 1002.19 51.0333 1017.23 51.0333H1188.5H1264C1277.51 51.0333 1280.93 32.2953 1268.3 27.5188L1263 25.5167C1249.29 20.3335 1253 0 1267.66 0H1407.5H1578.25C1605.95 0 1628.67 21.3543 1630.83 48.4999L1399.54 48.4999C1386.57 48.4998 1377.2 60.9014 1380.74 73.3794C1384.39 86.2567 1374.31 98.9126 1360.94 98.2337L1297.71 95.0226C1276.48 93.9446 1258.68 110.866 1258.68 132.121V133.097C1258.68 145.843 1252.09 157.049 1242.13 163.491C1242.11 163.504 1242.09 163.514 1242.06 163.521C1242.04 163.53 1242.01 163.535 1241.98 163.535H967.3C955.083 163.535 945.18 173.439 945.18 185.656C945.18 197.873 955.083 207.777 967.3 207.777H1006.99C1012.29 207.777 1016 213.236 1016 218.538C1016 222.78 1012.95 226.908 1008.7 226.908H875.893C859.384 226.908 846 240.292 846 256.801C846 273.311 859.384 286.694 875.893 286.694H948.358C962.436 286.694 967.526 301.64 953.448 301.64H819.527C808.999 301.64 806.314 316.234 816.152 319.982C825.662 323.604 823.561 337.626 813.407 338.302L766.058 341.457C756.459 342.097 749 350.069 749 359.689V365.136C749 379.597 737.278 391.319 722.817 391.319H605.017C603.625 391.319 602.235 391.469 600.846 391.619C599.457 391.769 598.068 391.919 596.675 391.919H518.235C511.301 391.919 505.68 386.298 505.68 379.364C505.68 372.43 500.059 366.809 493.125 366.809H340.046C317.549 366.809 313.198 398.741 334.876 404.759C353.388 409.899 351.731 436.673 332.726 439.491L304.378 443.693C275.138 448.028 278.318 491.164 307.877 491.164H584.049C587.581 492.653 590.194 495.906 590.194 499.818C590.194 504.613 586.307 508.5 581.512 508.5H94.0001C42.0853 508.5 0 466.415 0 414.5C0 362.585 42.0852 320.5 94 320.5H410.262C421.991 320.5 431.5 310.991 431.5 299.262C431.5 287.533 441.009 278.024 452.738 278.024H619.744C628.17 278.024 635 271.194 635 262.768C635 254.342 641.83 247.512 650.256 247.512H791.502C799.022 247.512 805.084 241.271 806.254 233.842C807.748 224.358 800.974 214.951 791.373 214.951H655.85C632.737 214.951 614 196.214 614 173.1C614 149.987 632.737 131.25 655.85 131.25H935.5C940.747 131.25 945 126.997 945 121.75V114.238C945 106.958 950.901 101.057 958.181 101.057H975.32C983.329 101.057 990 86.2758 990 78.2667Z" fill="white"/>
<path fill-rule="evenodd" clip-rule="evenodd" d="M1303 73.0551C1303 66.1211 1308.62 60.5 1315.56 60.5H1350.44C1357.38 60.5 1363 66.1211 1363 73.0551C1363 79.9891 1357.38 85.6102 1350.44 85.6102H1315.56C1308.62 85.6102 1303 79.9891 1303 73.0551ZM466.555 293.684C459.621 293.684 454 299.305 454 306.239C454 313.173 459.621 318.794 466.555 318.794H501.445C508.379 318.794 514 313.173 514 306.239C514 299.305 508.379 293.684 501.445 293.684H466.555ZM81 372.406C81 359.409 91.5359 348.873 104.533 348.873H252.752C268.552 348.873 281.359 361.681 281.359 377.48V384.726C281.359 391.552 285.356 397.746 291.575 400.559C308.619 408.268 303.12 433.769 284.414 433.769H166.072C155.625 433.769 147.156 425.301 147.156 414.854C147.156 404.407 138.688 395.938 128.241 395.938H104.533C91.5359 395.938 81 385.402 81 372.406ZM193 461.477C193 454.543 198.621 448.922 205.555 448.922H240.445C247.379 448.922 253 454.543 253 461.477C253 468.411 247.379 474.032 240.445 474.032H205.555C198.621 474.032 193 468.411 193 461.477ZM972.968 119.326C968.015 119.326 964 123.341 964 128.294C964 133.247 968.015 137.262 972.968 137.262H1015.03C1019.98 137.262 1024 133.247 1024 128.294C1024 123.341 1019.98 119.326 1015.03 119.326H972.968ZM651 173.102C651 160.224 661.439 149.785 674.317 149.785H794.683C807.561 149.785 818 160.224 818 173.102C818 185.979 807.561 196.418 794.683 196.418H674.317C661.439 196.418 651 185.979 651 173.102ZM1240 115.018C1240 98.0136 1226.21 84.2285 1209.21 84.2285H1141.89C1133.39 84.2285 1126.5 91.1211 1126.5 99.6234C1126.5 108.126 1133.39 115.018 1141.89 115.018H1150.61C1159.11 115.018 1166 121.911 1166 130.413C1166 138.916 1172.89 145.808 1181.39 145.808H1209.21C1226.21 145.808 1240 132.023 1240 115.018ZM670.02 318.68C665.314 318.68 661.5 314.865 661.5 310.16C661.5 305.455 665.314 301.641 670.02 301.641H768.904C777.241 301.641 784 308.399 784 316.737C784 325.074 777.241 331.833 768.904 331.833H744.554C737.031 331.833 729.686 329.538 723.5 325.256C717.314 320.974 709.969 318.68 702.446 318.68H670.02ZM601.121 333.328C588.904 333.328 579 343.232 579 355.449C579 367.666 588.904 377.57 601.121 377.57H703.879C716.096 377.57 726 367.666 726 355.449C726 343.232 716.096 333.328 703.879 333.328H601.121Z" fill="#98E0F7" fill-opacity="0.5"/>
</svg>
