<svg width="922" height="444" viewBox="0 0 922 444" fill="none" xmlns="http://www.w3.org/2000/svg">
<path d="M632.5 85V0L922 2V438.5L0 436.5V311H333V85H632.5Z" fill="#4DB7D9"/>
<path d="M485 436L629 436" stroke="white" stroke-width="15" stroke-linecap="round"/>
<path d="M414 358.5C409.858 358.5 406.5 361.858 406.5 366C406.5 370.142 409.858 373.5 414 373.5L414 358.5ZM675 373.5L682.5 373.5L682.5 358.5L675 358.5L675 373.5ZM414 373.5L675 373.5L675 358.5L414 358.5L414 373.5Z" fill="#98E0F7"/>
<path d="M414 288.5C409.858 288.5 406.5 291.858 406.5 296C406.5 300.142 409.858 303.5 414 303.5L414 288.5ZM675 303.5L682.5 303.5L682.5 288.5L675 288.5L675 303.5ZM414 303.5L675 303.5L675 288.5L414 288.5L414 303.5Z" fill="#98E0F7"/>
<path d="M414 218.5C409.858 218.5 406.5 221.858 406.5 226C406.5 230.142 409.858 233.5 414 233.5L414 218.5ZM675 233.5L682.5 233.5L682.5 218.5L675 218.5L675 233.5ZM414 233.5L675 233.5L675 218.5L414 218.5L414 233.5Z" fill="#98E0F7"/>
<path d="M414 148.5C409.858 148.5 406.5 151.858 406.5 156C406.5 160.142 409.858 163.5 414 163.5L414 148.5ZM675 163.5L682.5 163.5L682.5 148.5L675 148.5L675 163.5ZM414 163.5L675 163.5L675 148.5L414 148.5L414 163.5Z" fill="#98E0F7"/>
</svg>
