<svg width="1522" height="478" viewBox="0 0 1522 478" fill="none" xmlns="http://www.w3.org/2000/svg">
<path fill-rule="evenodd" clip-rule="evenodd" d="M1154 29.5C1154 13.2076 1167.21 0 1183.5 0H1321.5C1349.39 0 1372 22.6096 1372 50.5V80.5C1372 91.8218 1362.82 101 1351.5 101H1332.5C1331.67 101 1331 101.672 1331 102.5C1331 103.328 1330.33 104 1329.5 104H1123.86C1112.17 104 1105.11 116.916 1111.42 126.75C1117.72 136.584 1110.66 149.5 1098.98 149.5H858.25C845.133 149.5 834.5 160.133 834.5 173.25C834.5 186.367 845.133 197 858.25 197H864.75C881.457 197 895 210.543 895 227.25V228C895 245.121 881.121 259 864 259H813.571C795.03 259 780 274.03 780 292.571C780 311.112 764.97 326.142 746.429 326.142H622.649C614.558 326.142 608 332.701 608 340.791C608 348.881 614.558 355.439 622.649 355.439H662.048C669.477 355.439 675.5 361.462 675.5 368.891C675.5 376.321 669.477 382.343 662.048 382.343H285.328C274.93 382.343 266.5 390.773 266.5 401.172C266.5 411.57 274.93 420 285.328 420H426C442.016 420 455 432.984 455 449C455 465.016 442.016 478 426 478H29C12.9837 478 0 465.016 0 449V420.25C0 420.112 0.111929 420 0.25 420C0.388071 420 0.5 419.888 0.5 419.75V373.5C0.5 347.819 21.3188 327 47 327H210H467C494.062 327 516 305.062 516 278V266.5C516 245.789 532.789 229 553.5 229H568.571C580.958 229 591 218.958 591 206.571V197C591 154.738 625.26 120.479 667.521 120.479H800H805.151C813.076 120.479 819.5 114.054 819.5 106.13C819.5 98.2054 825.924 91.7812 833.849 91.7812H930.609C939.662 91.7812 947 84.4429 947 75.3906C947 66.3383 954.338 59 963.391 59H1124.5C1140.79 59 1154 45.7924 1154 29.5Z" fill="#98E0F7"/>
<path fill-rule="evenodd" clip-rule="evenodd" d="M1304 29.5C1304 13.2076 1317.21 0 1333.5 0H1471.5C1499.39 0 1522 22.6096 1522 50.5V80.5C1522 91.8218 1512.82 101 1501.5 101H1482.5C1481.67 101 1481 101.672 1481 102.5C1481 103.328 1480.33 104 1479.5 104H1273.86C1262.17 104 1255.11 116.916 1261.42 126.75C1267.72 136.584 1260.66 149.5 1248.98 149.5H1008.25C995.133 149.5 984.5 160.133 984.5 173.25C984.5 186.367 995.133 197 1008.25 197H1014.75C1031.46 197 1045 210.543 1045 227.25V228C1045 245.121 1031.12 259 1014 259H963.571C945.03 259 930 274.03 930 292.571C930 311.112 914.97 326.142 896.429 326.142H772.649C764.558 326.142 758 332.701 758 340.791C758 348.881 764.558 355.439 772.649 355.439H812.048C819.477 355.439 825.5 361.462 825.5 368.891C825.5 376.321 819.477 382.343 812.048 382.343H435.328C424.93 382.343 416.5 390.773 416.5 401.172C416.5 411.57 424.93 420 435.328 420H576C592.016 420 605 432.984 605 449C605 465.016 592.016 478 576 478H179C162.984 478 150 465.016 150 449V420.25C150 420.112 150.112 420 150.25 420C150.388 420 150.5 419.888 150.5 419.75V373.5C150.5 347.819 171.319 327 197 327H360H617C644.062 327 666 305.062 666 278V266.5C666 245.789 682.789 229 703.5 229H718.571C730.958 229 741 218.958 741 206.571V197C741 154.738 775.26 120.479 817.521 120.479H950H955.151C963.076 120.479 969.5 114.054 969.5 106.13C969.5 98.2054 975.924 91.7812 983.849 91.7812H1080.61C1089.66 91.7812 1097 84.4429 1097 75.3906C1097 66.3383 1104.34 59 1113.39 59H1274.5C1290.79 59 1304 45.7924 1304 29.5Z" fill="#98E0F7"/>
</svg>
