<svg width="1440" height="435" viewBox="0 0 1440 435" fill="none" xmlns="http://www.w3.org/2000/svg">
<path fill-rule="evenodd" clip-rule="evenodd" d="M173 6.5C173 2.91015 170.09 0 166.5 0H46.5966C42.9534 0 40 2.95339 40 6.59658C40 10.2398 37.0466 13.1932 33.4034 13.1932H-104.729C-114.267 13.1932 -122 20.9257 -122 30.4642C-122 40.0027 -114.267 47.7352 -104.729 47.7352H-2C20.0914 47.7352 38 65.6438 38 87.7352V136.5C38 143.956 44.0442 150 51.5 150C58.9558 150 65 143.956 65 136.5V108C65 85.9086 82.9086 68 105 68H166C169.866 68 173 64.866 173 61C173 57.134 176.134 54 180 54H258.5C264.851 54 270 59.1487 270 65.5C270 71.8513 275.149 77 281.5 77H285.165C290.597 77 295 72.5967 295 67.165C295 61.7333 299.403 57.3301 304.835 57.3301H463.282C465.335 57.3301 467 58.9948 467 61.0483C467 63.1018 468.665 64.7665 470.718 64.7665H755.682C758.067 64.7665 760 66.6996 760 69.0843C760 71.4689 761.933 73.4021 764.318 73.4021H778.643C782.154 73.4021 785 70.5561 785 67.0453C785 63.5346 787.846 60.6886 791.357 60.6886H917.084C921.456 60.6886 925 64.2327 925 68.6044C925 72.9762 928.544 76.5203 932.916 76.5203H940.165C945.597 76.5203 950 72.117 950 66.6853C950 61.2536 954.403 56.8504 959.835 56.8504H1016.44C1018.96 56.8504 1021 58.891 1021 61.4082C1021 63.9254 1023.04 65.966 1025.56 65.966H1189.08C1191.8 65.966 1194 63.7643 1194 61.0483C1194 58.3324 1196.2 56.1307 1198.92 56.1307H1277.57C1284.43 56.1307 1290 61.6979 1290 68.5653C1290 75.4328 1295.57 81 1302.43 81H1323.5C1333.72 81 1342 89.2827 1342 99.5V105.5C1342 112.404 1347.6 118 1354.5 118C1361.4 118 1367 112.404 1367 105.5V99.5C1367 89.2827 1375.28 81 1385.5 81H1489.5C1510.21 81 1527 64.2107 1527 43.5C1527 22.7893 1510.21 6 1489.5 6H1298.27C1293.7 6 1290 9.70442 1290 14.2741C1290 18.8437 1286.3 22.5481 1281.73 22.5481H1199.28C1196.36 22.5481 1194 20.1855 1194 17.2711C1194 14.3566 1191.64 11.994 1188.72 11.994H1029.64C1024.87 11.994 1021 15.8602 1021 20.6294C1021 25.3985 1017.13 29.2647 1012.36 29.2647H924.997C921.685 29.2647 919 31.9497 919 35.2617C919 38.5738 916.315 41.2587 913.003 41.2587H779H769H505.595C500.296 41.2587 496 36.9628 496 31.6636C496 26.3643 491.704 22.0684 486.405 22.0684H406.534C404.03 22.0684 402 20.0384 402 17.5342C402 15.03 399.97 13 397.466 13H179.5C175.91 13 173 10.0899 173 6.5Z" fill="#AFD157"/>
<path d="M137.5 114.5L130.5 114.5C115.036 114.5 102.5 101.964 102.5 86.5L102.5 79.5L109.5 79.5C124.964 79.5 137.5 92.036 137.5 107.5L137.5 114.5Z" fill="#AFD157"/>
<path d="M917 104L910 104C894.536 104 882 91.464 882 76L882 69L889 69C904.464 69 917 81.536 917 97L917 104Z" fill="#AFD157"/>
<path d="M408.5 107.5L415.5 107.5C430.964 107.5 443.5 94.964 443.5 79.5L443.5 72.5L436.5 72.5C421.036 72.5 408.5 85.036 408.5 100.5L408.5 107.5Z" fill="#AFD157"/>
<path d="M1226 104L1233 104C1248.46 104 1261 91.464 1261 76L1261 69L1254 69C1238.54 69 1226 81.536 1226 97L1226 104Z" fill="#AFD157"/>
<rect x="289" y="297" width="135" height="31" rx="10" fill="#AFD157"/>
<rect x="850" y="328" width="135" height="21" rx="10" fill="#AFD157"/>
<rect x="938" y="368" width="67" height="21" rx="10" fill="#AFD157"/>
<rect x="188" y="349" width="138" height="26" rx="10" fill="#AFD157"/>
<rect x="1177" y="407" width="138" height="28" rx="10" fill="#AFD157"/>
<rect x="1280" y="362" width="53" height="26" rx="10" fill="#AFD157"/>
<path fill-rule="evenodd" clip-rule="evenodd" d="M238.678 49.9606C238.85 50.0441 239.045 49.849 238.962 49.6763C236.754 45.11 237.544 39.4577 241.333 35.6686C246.121 30.881 253.883 30.881 258.671 35.6686C262.46 39.4577 263.25 45.11 261.042 49.6763C260.958 49.849 261.153 50.0441 261.326 49.9606C265.893 47.7515 271.545 48.5416 275.335 52.331C280.123 57.1187 280.123 64.8811 275.335 69.6688C271.545 73.4581 265.893 74.2483 261.326 72.0394C261.154 71.9559 260.959 72.151 261.042 72.3236C263.25 76.8898 262.46 82.5417 258.671 86.3307C253.883 91.1184 246.121 91.1184 241.333 86.3307C237.544 82.5417 236.754 76.8898 238.962 72.3236C239.045 72.151 238.85 71.9559 238.677 72.0394C234.111 74.2483 228.458 73.4581 224.669 69.6688C219.881 64.8811 219.881 57.1187 224.669 52.331C228.458 48.5416 234.111 47.7515 238.678 49.9606Z" fill="#FFC53D"/>
<circle cx="250.002" cy="61.2248" r="5.09493" transform="rotate(45 250.002 61.2248)" fill="#E98B2D"/>
<path fill-rule="evenodd" clip-rule="evenodd" d="M1180.26 381.757C1176.53 378.025 1170.47 378.025 1166.74 381.757C1163.79 384.709 1163.17 389.113 1164.89 392.672C1164.96 392.806 1164.81 392.958 1164.67 392.893C1161.11 391.174 1156.71 391.791 1153.76 394.743C1150.03 398.475 1150.03 404.525 1153.76 408.256C1156.71 411.209 1161.11 411.825 1164.67 410.106C1164.81 410.041 1164.96 410.193 1164.89 410.328C1163.17 413.886 1163.79 418.291 1166.74 421.243C1170.47 424.975 1176.53 424.975 1180.26 421.243C1183.21 418.291 1183.83 413.886 1182.11 410.328C1182.04 410.193 1182.19 410.041 1182.33 410.106C1185.89 411.825 1190.29 411.209 1193.24 408.256C1196.97 404.525 1196.97 398.475 1193.24 394.743C1190.29 391.791 1185.89 391.174 1182.33 392.893C1182.19 392.958 1182.04 392.806 1182.11 392.672C1183.83 389.113 1183.21 384.709 1180.26 381.757Z" fill="#FF686B"/>
<circle cx="1173.5" cy="401.675" r="3.97105" transform="rotate(45 1173.5 401.675)" fill="#E23636"/>
</svg>
