<svg width="1649" height="215" viewBox="0 0 1649 215" fill="none" xmlns="http://www.w3.org/2000/svg">
<path fill-rule="evenodd" clip-rule="evenodd" d="M162 9.5C162 4.25329 166.253 0 171.5 0H285.683C290.829 0 295 4.17121 295 9.31667C295 14.4621 299.171 18.6333 304.317 18.6333H517.317C521.008 18.6333 524 21.6256 524 25.3167C524 29.0078 526.992 32 530.683 32H1135.5C1139.64 32 1143 28.6421 1143 24.5C1143 20.3579 1146.36 17 1150.5 17H1308.34C1312.57 17 1316 20.4292 1316 24.6593C1316 28.8894 1319.43 32.3186 1323.66 32.3186H1400.14C1406.69 32.3186 1412 27.009 1412 20.4593C1412 13.9096 1417.31 8.6 1423.86 8.6H1609C1631.09 8.6 1649 26.5086 1649 48.6V76.1C1649 98.1914 1631.09 116.1 1609 116.1H1515.52C1500.87 116.1 1489 127.972 1489 142.617V156.633C1489 163.537 1483.4 169.133 1476.5 169.133C1469.6 169.133 1464 163.537 1464 156.633V142.1C1464 127.741 1452.36 116.1 1438 116.1H1429.82C1419.98 116.1 1412 108.12 1412 98.2768C1412 88.4333 1404.02 80.4536 1394.18 80.4536H1328.27C1321.49 80.4536 1316 85.9485 1316 92.7268C1316 99.5051 1310.51 105 1303.73 105H1154.5C1148.15 105 1143 99.8513 1143 93.5C1143 87.1487 1137.85 82 1131.5 82H1100.84C1084.91 82 1072 94.9119 1072 110.84V127.179C1072 134.083 1066.4 139.679 1059.5 139.679C1052.6 139.679 1047 134.083 1047 127.179V113.333C1047 98.7826 1035.2 86.9871 1020.65 86.9871H913.923C906.786 86.9871 901 92.7727 901 99.9097C901 107.047 895.214 112.832 888.077 112.832H604.416C595.902 112.832 589 105.93 589 97.4161C589 88.902 582.098 82 573.584 82H445C429.536 82 417 94.536 417 110V125.5C417 132.404 411.404 138 404.5 138C397.596 138 392 132.404 392 125.5V107.7C392 90.9658 378.434 77.4 361.7 77.4H305.033C299.492 77.4 295 81.8921 295 87.4333C295 92.9746 290.508 97.4667 284.967 97.4667H227C204.909 97.4667 187 115.375 187 137.467V201.5C187 208.956 180.956 215 173.5 215C166.044 215 160 208.956 160 201.5V145C160 122.909 142.091 105 120 105H40C17.9086 105 0 87.0914 0 65V59C0 36.9086 17.9086 19 40 19H152.5C157.747 19 162 14.7467 162 9.5Z" fill="#AFD157"/>
<path fill-rule="evenodd" clip-rule="evenodd" d="M360.678 59.9606C360.85 60.0441 361.045 59.849 360.962 59.6763C358.754 55.11 359.544 49.4577 363.333 45.6686C368.121 40.881 375.883 40.881 380.671 45.6686C384.46 49.4577 385.25 55.11 383.042 59.6763C382.958 59.849 383.153 60.0441 383.326 59.9606C387.892 57.7515 393.545 58.5416 397.335 62.331C402.122 67.1187 402.122 74.8811 397.335 79.6688C393.545 83.4581 387.893 84.2483 383.326 82.0394C383.154 81.9559 382.959 82.151 383.042 82.3236C385.25 86.8898 384.46 92.5417 380.671 96.3307C375.883 101.118 368.121 101.118 363.333 96.3307C359.544 92.5417 358.754 86.8898 360.962 82.3236C361.045 82.151 360.85 81.9559 360.677 82.0394C356.111 84.2483 350.458 83.4581 346.669 79.6688C341.881 74.8811 341.881 67.1187 346.669 62.331C350.458 58.5416 356.111 57.7515 360.678 59.9606Z" fill="#FFC53D"/>
<circle cx="372.002" cy="71.2248" r="5.09493" transform="rotate(45 372.002 71.2248)" fill="#E98B2D"/>
<path d="M249.5 149.5L242.5 149.5C227.036 149.5 214.5 136.964 214.5 121.5L214.5 114.5L221.5 114.5C236.964 114.5 249.5 127.036 249.5 142.5L249.5 149.5Z" fill="#AFD157"/>
<path d="M1029 139L1022 139C1006.54 139 994 126.464 994 111L994 104L1001 104C1016.46 104 1029 116.536 1029 132L1029 139Z" fill="#AFD157"/>
<path d="M520.5 142.5L527.5 142.5C542.964 142.5 555.5 129.964 555.5 114.5L555.5 107.5L548.5 107.5C533.036 107.5 520.5 120.036 520.5 135.5L520.5 142.5Z" fill="#AFD157"/>
<path d="M1338 139L1345 139C1360.46 139 1373 126.464 1373 111L1373 104L1366 104C1350.54 104 1338 116.536 1338 132L1338 139Z" fill="#AFD157"/>
</svg>
