<svg width="1145" height="107" viewBox="0 0 1145 107" fill="none" xmlns="http://www.w3.org/2000/svg">
<rect x="101" y="5" width="135" height="31" rx="10" fill="#AFD157"/>
<rect x="662" width="135" height="21" rx="10" fill="#AFD157"/>
<rect x="750" y="40" width="67" height="21" rx="10" fill="#AFD157"/>
<rect y="57" width="138" height="26" rx="10" fill="#AFD157"/>
<rect x="989" y="79" width="138" height="28" rx="10" fill="#AFD157"/>
<rect x="1092" y="34" width="53" height="26" rx="10" fill="#AFD157"/>
<path fill-rule="evenodd" clip-rule="evenodd" d="M992.257 53.7566C988.525 50.025 982.475 50.025 978.743 53.7566C975.791 56.7092 975.174 61.1132 976.894 64.6719C976.959 64.8064 976.807 64.9583 976.673 64.8933C973.114 63.1744 968.711 63.7911 965.759 66.7432C962.027 70.4748 962.027 76.5249 965.759 80.2565C968.711 83.2087 973.114 83.8253 976.673 82.1063C976.807 82.0414 976.959 82.1933 976.894 82.3278C975.174 85.8864 975.791 90.2906 978.743 93.2432C982.475 96.9748 988.525 96.9748 992.257 93.2432C995.209 90.2906 995.826 85.8864 994.106 82.3278C994.041 82.1933 994.193 82.0414 994.327 82.1063C997.886 83.8253 1002.29 83.2087 1005.24 80.2565C1008.97 76.5249 1008.97 70.4748 1005.24 66.7432C1002.29 63.7911 997.886 63.1744 994.327 64.8933C994.193 64.9583 994.041 64.8064 994.106 64.6719C995.826 61.1133 995.209 56.7092 992.257 53.7566Z" fill="#FF686B"/>
<circle cx="985.5" cy="73.6755" r="3.97105" transform="rotate(45 985.5 73.6755)" fill="#E23636"/>
</svg>
