<svg xmlns="http://www.w3.org/2000/svg" width="50" height="50" viewBox="0 0 50 50" fill="none">
  <path d="M15.0578 25.3014V18.1276L0 33.1724L3.55815 36.8002L15.0578 25.3014ZM49.3689 20.8183C48.25 15.1884 44.0376 10.9817 43.5527 10.5127L33.2007 0L27.2854 5.91042L26.8647 6.33042V13.5034L33.1711 7.20253L39.0584 13.1806L39.9564 14.0924L40.0208 14.1549C40.0318 14.1659 40.416 14.5403 40.9568 15.1867C42.0631 16.5101 43.8244 18.9743 44.388 21.8053C45.2276 26.0341 45.65 30.9634 40.9568 36.9693V44.3839C41.3995 44.0011 41.6771 43.7264 41.777 43.6259C45.9758 39.5078 48.5065 35.3433 49.512 30.8957C50.3846 27.0388 49.9292 23.6366 49.3689 20.8183ZM18.021 42.9591L17.8619 42.8814L17.7848 42.8569C17.6731 42.8036 17.2542 42.5856 16.478 42.0253C16.0946 41.7473 15.6224 41.3856 15.0578 40.9183C14.2038 40.2101 13.1374 39.2602 11.8365 37.9935L8.92585 35.0256L5.33469 38.6112L8.22844 41.5605L8.26737 41.6002C12.7472 45.9709 15.0494 47.2191 15.8974 47.5664C18.9689 49.0385 21.8559 49.7366 24.4839 49.9369C25.9422 50.0484 27.3209 50.0061 28.6066 49.8574C28.7166 49.8447 28.8266 49.8312 28.9358 49.8169V44.6763C25.8626 45.2036 22.1538 44.9594 18.021 42.9591Z" fill="white"/>
  <path d="M24.3265 8.86743V39.4902H17.5978V15.5908L18.2741 14.9148L18.6363 14.5539L20.6693 12.5224L22.0472 11.1449L22.4958 10.697L23.8745 9.3187L24.3265 8.86743Z" fill="white"/>
  <path d="M38.4172 15.7161V46.2772C38.3876 46.2966 38.358 46.316 38.3275 46.3355C38.0186 46.5341 37.6893 46.7352 37.3423 46.9346C37.2281 47.0005 37.1121 47.0665 36.9928 47.1324C36.6805 47.3056 36.3546 47.4772 36.0152 47.6453C35.7021 47.8008 35.3771 47.9538 35.041 48.1017C34.8582 48.182 34.6729 48.2605 34.4833 48.3391C34.2395 48.4389 33.9873 48.5369 33.7275 48.6324C33.5252 48.7076 33.3187 48.7794 33.1071 48.8504C32.6907 48.9915 32.2565 49.1234 31.8037 49.2459C31.6953 49.2755 31.5853 49.3034 31.4744 49.3312V15.7161H38.4172Z" fill="white"/>
  <path d="M31.4753 23.7844H24.326V30.7174H31.4753V23.7844Z" fill="white"/>
</svg>