<svg width="350" height="264" viewBox="0 0 350 264" fill="none" xmlns="http://www.w3.org/2000/svg">
<g clip-path="url(#clip0_476_701)">
<path d="M127.087 18.0847C139.125 25.2085 135.406 28.76 132.296 34.0152C129.186 39.2704 127.618 44.0947 115.825 37.1155C109.838 33.5726 107.506 26.4403 110.616 21.1851C113.726 15.9299 121.101 14.5418 127.087 18.0847Z" fill="white"/>
<path d="M144.738 19.3013C144.738 25.9364 142.424 25.9757 139.569 25.9757C136.714 25.9757 134.4 25.9364 134.4 19.3013C134.4 12.6663 137.568 7.28748 139.569 7.28748C141.57 7.28748 144.738 12.6663 144.738 19.3013Z" fill="#6A5B3D"/>
<path d="M207.163 19.3013C207.163 25.9364 204.849 25.9757 201.994 25.9757C199.139 25.9757 196.825 25.9364 196.825 19.3013C196.825 12.6663 199.993 7.28748 201.994 7.28748C203.995 7.28748 207.163 12.6663 207.163 19.3013Z" fill="#6A5B3D"/>
<path d="M215.703 18.2558C209.684 21.8175 207.693 24.4402 207.515 26.7658C207.426 27.9313 207.789 29.0521 208.379 30.2211C208.771 30.9962 209.254 31.7763 209.762 32.5984C210.026 33.0239 210.296 33.4607 210.564 33.9139C210.787 34.2914 211.002 34.6643 211.211 35.0295C211.738 35.9469 212.237 36.8153 212.782 37.583C213.541 38.6514 214.372 39.4965 215.452 39.9712C217.609 40.9186 220.869 40.4326 226.763 36.9444C232.677 33.4446 234.944 26.4268 231.902 21.2863C228.859 16.1459 221.617 14.756 215.703 18.2558Z" fill="#123041" stroke="#123041" stroke-width="0.397622"/>
<path d="M218.567 24.1569C212.568 27.7075 214.121 28.9707 215.301 30.9646C216.481 32.9585 216.962 34.856 222.84 31.3775C225.824 29.6117 227.286 26.5638 226.106 24.5699C224.926 22.576 221.551 22.3911 218.567 24.1569Z" fill="#FFC0C1"/>
<path d="M123.759 24.1569C129.759 27.7075 128.206 28.9707 127.026 30.9646C125.846 32.9585 125.364 34.856 119.486 31.3775C116.502 29.6117 115.04 26.5638 116.22 24.5699C117.4 22.576 120.776 22.3911 123.759 24.1569Z" fill="#FFC0C1"/>
<path d="M219.708 95.8216C210.681 100.733 194.707 94.5351 187.848 90.8224C187.44 90.0409 186.762 88.0082 187.312 86.1297C188 83.7817 212.204 79.3515 217.939 79.3411C223.675 79.3308 230.992 89.6827 219.708 95.8216Z" fill="#E7EAEE"/>
<path d="M194.072 141.469C196.924 140.303 199.701 124.767 199.138 117.032L171.745 121.404C171.183 127.681 171.145 140.483 172.496 141.469C174.185 142.702 190.507 142.926 194.072 141.469Z" fill="#E7EAEE"/>
<path d="M196.213 124.259C204.738 118.59 193.214 83.2256 184.887 78.7713C176.56 74.317 163.016 74.9918 157.068 78.7713C151.12 82.5508 136.422 118.455 144.947 124.259C153.472 130.064 187.688 129.929 196.213 124.259Z" fill="white"/>
<path fill-rule="evenodd" clip-rule="evenodd" d="M173.423 128.524C173.49 126.432 173.421 122.162 171.966 119.616C169.636 115.54 162.025 112.856 162.025 112.856C158.977 112.392 152.403 110.192 150.494 105.102C149.682 102.937 147.81 101.487 145.646 100.54C142.244 110.783 140.649 121.337 144.942 124.26C149.584 127.42 161.843 128.82 173.423 128.524Z" fill="#123041"/>
<path d="M173.423 128.524L173.428 128.723L173.616 128.718L173.622 128.53L173.423 128.524ZM171.966 119.616L171.793 119.714L171.966 119.616ZM162.025 112.856L162.091 112.669L162.074 112.662L162.055 112.66L162.025 112.856ZM150.494 105.102L150.308 105.172L150.494 105.102ZM145.646 100.54L145.726 100.358L145.526 100.271L145.458 100.478L145.646 100.54ZM144.942 124.26L145.054 124.096L144.942 124.26ZM173.622 128.53C173.656 127.479 173.655 125.878 173.463 124.217C173.271 122.561 172.886 120.825 172.138 119.517L171.793 119.714C172.501 120.953 172.878 122.625 173.068 124.263C173.257 125.897 173.258 127.477 173.225 128.518L173.622 128.53ZM172.138 119.517C170.943 117.427 168.413 115.715 166.216 114.532C165.112 113.938 164.082 113.473 163.328 113.156C162.951 112.997 162.642 112.876 162.428 112.794C162.32 112.753 162.237 112.722 162.18 112.701C162.151 112.69 162.129 112.682 162.114 112.677C162.107 112.674 162.101 112.672 162.097 112.671C162.095 112.67 162.094 112.67 162.093 112.669C162.092 112.669 162.092 112.669 162.092 112.669C162.092 112.669 162.091 112.669 162.091 112.669C162.091 112.669 162.091 112.669 162.025 112.856C161.959 113.044 161.959 113.044 161.959 113.044C161.959 113.044 161.959 113.044 161.959 113.044C161.959 113.044 161.96 113.044 161.96 113.044C161.961 113.044 161.962 113.045 161.964 113.045C161.967 113.047 161.973 113.048 161.98 113.051C161.994 113.056 162.015 113.064 162.043 113.074C162.098 113.094 162.18 113.125 162.286 113.165C162.496 113.246 162.801 113.366 163.174 113.522C163.919 113.836 164.937 114.296 166.027 114.883C168.218 116.061 170.658 117.729 171.793 119.714L172.138 119.517ZM162.055 112.66C160.551 112.431 158.168 111.771 155.928 110.54C153.686 109.307 151.611 107.515 150.68 105.033L150.308 105.172C151.285 107.779 153.452 109.632 155.736 110.888C158.023 112.145 160.451 112.818 161.995 113.053L162.055 112.66ZM150.68 105.033C149.842 102.797 147.915 101.316 145.726 100.358L145.567 100.722C147.705 101.658 149.522 103.077 150.308 105.172L150.68 105.033ZM145.458 100.478C143.754 105.607 142.499 110.824 142.21 115.132C142.066 117.285 142.162 119.222 142.57 120.811C142.978 122.399 143.703 123.657 144.83 124.424L145.054 124.096C144.034 123.401 143.349 122.244 142.955 120.712C142.561 119.179 142.464 117.289 142.607 115.158C142.893 110.898 144.137 105.716 145.835 100.603L145.458 100.478ZM144.83 124.424C147.192 126.033 151.458 127.177 156.553 127.885C161.658 128.595 167.629 128.871 173.428 128.723L173.418 128.325C167.637 128.473 161.688 128.197 156.608 127.491C151.518 126.784 147.333 125.648 145.054 124.096L144.83 124.424Z" fill="#123041"/>
<path d="M147.489 141.469C144.637 140.304 141.86 124.767 142.423 117.032L169.815 121.404C170.378 127.681 170.416 140.483 169.065 141.469C167.376 142.702 151.054 142.927 147.489 141.469Z" fill="#123041" stroke="#123041" stroke-width="0.397622"/>
<path d="M130.423 107.176C130.247 96.9007 143.133 85.6079 149.598 81.2458C150.48 81.2458 152.596 81.5851 154.006 82.9422C155.77 84.6385 148.496 108.145 145.851 113.234C143.207 118.323 130.644 120.019 130.423 107.176Z" fill="white"/>
<path d="M193.243 111.432C193.243 122.039 184.164 124.587 172.965 124.587C161.765 124.587 152.686 122.039 152.686 111.432C152.686 97.4886 161.765 89.5959 172.965 89.5959C184.164 89.5959 193.243 97.4886 193.243 111.432Z" fill="#FFC0C1"/>
<path d="M172.788 121.008C172.87 121.009 172.95 120.993 173.026 120.963C173.102 120.932 173.171 120.887 173.229 120.829L175.991 118.051C176.092 117.933 176.145 117.781 176.139 117.626C176.133 117.47 176.069 117.323 175.958 117.213C175.847 117.103 175.699 117.039 175.543 117.033C175.387 117.027 175.234 117.08 175.115 117.181L172.347 119.928C172.289 119.985 172.243 120.054 172.211 120.129C172.18 120.204 172.164 120.285 172.164 120.366C172.164 120.448 172.18 120.529 172.211 120.604C172.243 120.679 172.289 120.747 172.347 120.805C172.403 120.866 172.471 120.916 172.547 120.951C172.622 120.986 172.704 121.006 172.788 121.008Z" fill="#FF8D8D"/>
<path d="M175.52 121.008C175.601 121.009 175.682 120.993 175.757 120.963C175.832 120.932 175.9 120.887 175.958 120.83C176.015 120.773 176.061 120.704 176.092 120.629C176.124 120.554 176.14 120.474 176.14 120.393C176.14 120.311 176.124 120.231 176.092 120.156C176.061 120.081 176.015 120.012 175.958 119.955L173.217 117.214C173.16 117.157 173.092 117.111 173.017 117.08C172.942 117.048 172.861 117.032 172.78 117.032C172.699 117.032 172.618 117.048 172.543 117.08C172.468 117.111 172.4 117.157 172.343 117.214C172.228 117.33 172.164 117.486 172.164 117.649C172.164 117.811 172.228 117.967 172.343 118.083L175.089 120.83C175.204 120.944 175.359 121.008 175.52 121.008Z" fill="#FF8D8D"/>
<path d="M221.081 59.1791C221.081 79.9314 198.325 86.8129 170.667 86.8129C143.009 86.8129 120.085 79.9314 120.085 59.1791C120.085 23.7944 143.009 11.6625 170.667 11.6625C198.325 11.6625 221.081 22.1094 221.081 59.1791Z" fill="white"/>
<path fill-rule="evenodd" clip-rule="evenodd" d="M174.181 11.7211C174.414 18.3424 175.797 27.0263 180.135 30.5384C183.951 33.627 188.354 34.4136 192.288 35.1165C195.651 35.7172 198.672 36.2568 200.69 38.1201C201.763 39.1102 202.714 40.4841 203.745 41.9723C206.849 46.456 210.673 51.977 220.693 51.1619C217.729 21.9915 198.154 12.5329 174.181 11.7211Z" fill="#123041"/>
<path d="M180.135 30.5384L180.26 30.3838L180.135 30.5384ZM174.181 11.7211L174.188 11.5224L173.975 11.5152L173.983 11.728L174.181 11.7211ZM192.288 35.1165L192.253 35.3122L192.288 35.1165ZM200.69 38.1201L200.825 37.974L200.69 38.1201ZM203.745 41.9723L203.581 42.0854L203.745 41.9723ZM220.693 51.1619L220.709 51.36L220.911 51.3436L220.891 51.1418L220.693 51.1619ZM180.26 30.3838C178.141 28.668 176.724 25.6693 175.811 22.2445C174.899 18.8261 174.496 15.0159 174.38 11.7141L173.983 11.728C174.099 15.0476 174.504 18.89 175.426 22.347C176.347 25.7975 177.791 28.8967 180.01 30.6929L180.26 30.3838ZM192.323 34.9207C188.384 34.217 184.031 33.436 180.26 30.3838L180.01 30.6929C183.871 33.818 188.324 34.6102 192.253 35.3122L192.323 34.9207ZM200.825 37.974C199.786 37.015 198.496 36.4027 197.052 35.9549C195.61 35.5077 194.002 35.2206 192.323 34.9207L192.253 35.3122C193.938 35.6131 195.521 35.8961 196.934 36.3347C198.346 36.7727 199.576 37.3619 200.555 38.2662L200.825 37.974ZM203.908 41.8591C202.881 40.3762 201.917 38.982 200.825 37.974L200.555 38.2662C201.609 39.2384 202.547 40.592 203.581 42.0854L203.908 41.8591ZM220.677 50.9637C215.71 51.3678 212.296 50.2017 209.74 48.3919C207.177 46.5763 205.463 44.1044 203.908 41.8591L203.581 42.0854C205.131 44.3239 206.881 46.8544 209.511 48.7164C212.148 50.5842 215.656 51.7711 220.709 51.36L220.677 50.9637ZM174.175 11.9198C186.14 12.325 196.981 14.888 205.197 20.9668C213.405 27.0403 219.018 36.6423 220.495 51.182L220.891 51.1418C219.404 36.511 213.747 26.7985 205.433 20.6472C197.127 14.5012 186.195 11.929 174.188 11.5224L174.175 11.9198Z" fill="#123041"/>
<path d="M154.272 70.1922C154.272 62.023 160.894 55.4006 169.063 55.4006H176.459C184.628 55.4006 191.251 62.023 191.251 70.1922C191.251 75.6382 186.836 80.0532 181.39 80.0532H164.133C158.687 80.0532 154.272 75.6382 154.272 70.1922Z" fill="#FFC0C1"/>
<path d="M165.018 66.5342V70.908" stroke="#123041" stroke-width="3.97622" stroke-linecap="round"/>
<path d="M180.918 66.5342L180.918 70.908" stroke="#123041" stroke-width="3.97622" stroke-linecap="round"/>
<path d="M134.4 70.908H140.364" stroke="#FFC0C1" stroke-width="7.95243" stroke-linecap="round"/>
<path d="M205.575 70.908H211.54" stroke="#FFC0C1" stroke-width="7.95243" stroke-linecap="round"/>
<path d="M150.239 62.2904C150.239 62.2904 149.086 60.9678 146.491 60.9678C143.897 60.9678 142.744 62.2904 142.744 62.2904" stroke="#123041" stroke-width="4.70064" stroke-linecap="round"/>
<path d="M203.524 62.2904C203.524 62.2904 202.371 60.9678 199.777 60.9678C197.183 60.9678 196.029 62.2904 196.029 62.2904" stroke="#123041" stroke-width="4.70064" stroke-linecap="round"/>
</g>
<g clip-path="url(#clip1_476_701)">
<path d="M216.585 49.2307C216.942 47.7211 218.455 46.7868 219.965 47.1439L236.366 51.0237C237.875 51.3808 238.81 52.8941 238.453 54.4037L235.219 68.0709C233.791 74.1094 227.738 77.8466 221.699 76.4181C215.661 74.9897 211.923 68.9364 213.352 62.8979L216.585 49.2307Z" fill="#E6AD25"/>
<path d="M225.897 74.5255L218.517 72.7797C218.517 72.7797 219.351 75.3915 219.145 76.9052C218.874 78.9017 216.448 81.5266 216.448 81.5266L223.828 83.2725C223.828 83.2725 222.835 79.8387 223.487 77.9322C223.981 76.4867 225.897 74.5255 225.897 74.5255Z" fill="#E6AD25"/>
<path d="M212.479 84.9145C213.194 81.8952 216.22 80.0266 219.24 80.7409L221.973 81.3875C224.992 82.1017 226.861 85.1284 226.147 88.1476L225.888 89.241C225.709 89.9958 224.953 90.463 224.198 90.2844L213.264 87.6979C212.509 87.5193 212.042 86.7627 212.221 86.0079L212.479 84.9145Z" fill="#E6AD25"/>
<path fill-rule="evenodd" clip-rule="evenodd" d="M240.688 55.8046C237.669 55.0904 234.643 56.959 233.928 59.9782L231.988 68.1785C231.631 69.6881 232.566 71.2014 234.075 71.5586C238.604 72.6299 243.144 69.827 244.215 65.2981L244.862 62.5647C245.576 59.5455 243.708 56.5188 240.688 55.8046ZM239.521 60.7242C238.313 60.4385 237.102 61.186 236.817 62.3937L236.041 65.6738C235.898 66.2777 236.271 66.883 236.875 67.0258C238.687 67.4544 240.503 66.3332 240.931 64.5217L241.19 63.4283C241.476 62.2206 240.728 61.0099 239.521 60.7242Z" fill="#E6AD25"/>
<path fill-rule="evenodd" clip-rule="evenodd" d="M213.915 49.4686C216.934 50.1828 218.803 53.2094 218.089 56.2287L216.149 64.429C215.792 65.9386 214.278 66.8729 212.769 66.5158C208.24 65.4444 205.437 60.9045 206.508 56.3756L207.155 53.6422C207.869 50.6229 210.896 48.7543 213.915 49.4686ZM212.759 54.3892C213.966 54.6749 214.714 55.8856 214.428 57.0933L213.652 60.3734C213.509 60.9772 212.904 61.351 212.3 61.2081C210.489 60.7796 209.367 58.9636 209.796 57.152L210.055 56.0587C210.34 54.851 211.551 54.1035 212.759 54.3892Z" fill="#E6AD25"/>
<path d="M210.294 85.5566C210.365 85.2546 210.668 85.0678 210.97 85.1392L227.37 89.019C227.672 89.0904 227.859 89.393 227.788 89.695L225.525 99.262L208.031 95.1236L210.294 85.5566Z" fill="black"/>
<rect x="212.036" y="87.9861" width="13.4826" height="5.33686" rx="0.561775" transform="rotate(13.3093 212.036 87.9861)" fill="#E6AD25"/>
<path d="M207.354 95.5394C207.426 95.2374 207.729 95.0506 208.03 95.122L225.524 99.2604C225.826 99.3318 226.013 99.6345 225.942 99.9364L225.748 100.756L207.16 96.3594L207.354 95.5394Z" fill="black"/>
<path d="M206.22 96.7126C206.291 96.4107 206.594 96.2238 206.896 96.2952L226.03 100.822C226.332 100.893 226.518 101.196 226.447 101.498L226.253 102.318L206.026 97.5326L206.22 96.7126Z" fill="black"/>
<rect x="205.207" y="97.3394" width="22.471" height="1.40444" rx="0.561775" transform="rotate(13.3093 205.207 97.3394)" fill="black"/>
</g>
<path d="M119.914 153.285C119.914 147.359 124.718 142.555 130.644 142.555H211.118C217.044 142.555 221.848 147.359 221.848 153.285V263.267H119.914V153.285Z" fill="#E6AD25"/>
<path d="M170.876 190.693L165.178 194.314L162.716 190.065L172.035 183.74H176.863V216.911H170.876V190.693Z" fill="#A66E1C"/>
<path d="M4.57202 180.11C4.57202 174.184 9.37596 169.38 15.3019 169.38H95.7762C101.702 169.38 106.506 174.184 106.506 180.11V263.267H4.57202V180.11Z" fill="#B2B7BB"/>
<path d="M55.1693 215.645C57.2294 214.003 58.6941 212.506 59.5632 211.154C60.4323 209.802 60.8669 208.434 60.8669 207.05C60.8669 205.537 60.3035 204.314 59.1769 203.38C58.0825 202.447 56.7627 201.98 55.2176 201.98C53.5759 201.98 52.0791 202.383 50.7271 203.187C49.4073 203.96 48.1036 205.119 46.8161 206.664L42.905 203.042C46.1884 198.729 50.3569 196.572 55.4107 196.572C57.5996 196.572 59.5632 197.007 61.3014 197.876C63.0719 198.745 64.456 199.968 65.4539 201.546C66.484 203.123 66.999 204.909 66.999 206.905C66.999 209.126 66.4035 211.203 65.2125 213.134C64.0536 215.033 62.074 217.061 59.2735 219.218L52.3205 224.819H67.337V230.323H42.9533V225.398L55.1693 215.645Z" fill="#78848E"/>
<path d="M235.249 206.935C235.249 201.009 240.053 196.205 245.979 196.205H326.453C332.379 196.205 337.183 201.009 337.183 206.935V263.267H235.249V206.935Z" fill="#D69E84"/>
<path d="M286.04 244.315C283.239 244.315 280.728 243.817 278.507 242.819C276.318 241.789 274.516 240.421 273.099 238.714L276.769 234.755C277.928 236.075 279.28 237.105 280.825 237.845C282.37 238.586 284.028 238.956 285.798 238.956C287.794 238.956 289.355 238.521 290.482 237.652C291.641 236.751 292.22 235.56 292.22 234.079C292.22 232.598 291.608 231.488 290.385 230.748C289.194 229.975 287.424 229.589 285.074 229.589L281.356 229.637V224.422H285.074C287.07 224.454 288.647 224.084 289.806 223.312C290.965 222.507 291.544 221.396 291.544 219.98C291.544 218.628 290.965 217.534 289.806 216.697C288.679 215.828 287.214 215.393 285.412 215.393C283.835 215.393 282.386 215.747 281.066 216.455C279.746 217.163 278.491 218.177 277.3 219.497L273.727 215.828C276.817 211.933 280.873 209.985 285.895 209.985C288.212 209.985 290.256 210.371 292.027 211.144C293.829 211.917 295.214 212.995 296.179 214.379C297.177 215.731 297.676 217.276 297.676 219.014C297.676 220.946 297.097 222.571 295.938 223.891C294.779 225.211 293.266 226.144 291.399 226.692C293.363 227.142 295.02 228.044 296.372 229.396C297.724 230.748 298.4 232.47 298.4 234.562C298.4 236.461 297.885 238.151 296.855 239.632C295.825 241.08 294.377 242.223 292.51 243.06C290.643 243.897 288.486 244.315 286.04 244.315Z" fill="#936651"/>
<g clip-path="url(#clip2_476_701)">
<ellipse cx="20.572" cy="56.5007" rx="15.8936" ry="17.1274" transform="rotate(-28.6896 20.572 56.5007)" fill="#5BB42B"/>
<ellipse cx="15.8936" cy="17.1274" rx="15.8936" ry="17.1274" transform="matrix(-0.877234 -0.480064 -0.480064 0.877234 111.787 48.6633)" fill="#5BB42B"/>
<path d="M100.704 123.753C91.3819 128.078 75.8356 120.874 69.2276 116.732C68.8703 115.926 68.3229 113.854 68.9919 112.014C69.8281 109.715 94.2652 106.837 99.9895 107.193C105.714 107.548 112.356 118.346 100.704 123.753Z" fill="#A1DC3C"/>
<path d="M77.9582 168.379C80.81 167.214 83.5868 151.677 83.0239 143.942L55.6317 148.314C55.0689 154.591 55.0313 167.393 56.3822 168.379C58.0707 169.612 74.3935 169.837 77.9582 168.379Z" fill="#4F9A15"/>
<path d="M80.0992 151.17C88.6245 145.501 77.1 110.136 68.773 105.682C60.4459 101.228 46.9023 101.902 40.9544 105.682C35.0064 109.461 20.308 145.366 28.8334 151.17C37.3587 156.974 71.5738 156.839 80.0992 151.17Z" fill="#5BB42B"/>
<path d="M31.382 168.379C28.5302 167.214 25.7534 151.677 26.3163 143.942L53.7085 148.314C54.2714 154.591 54.3089 167.393 52.958 168.379C51.2695 169.612 34.9467 169.837 31.382 168.379Z" fill="#5BB42B"/>
<path d="M14.3162 134.086C14.1399 123.811 27.0261 112.518 33.4913 108.156C34.3729 108.156 36.4888 108.495 37.8994 109.852C39.6626 111.549 32.3893 135.055 29.7445 140.144C27.0996 145.233 14.5366 146.93 14.3162 134.086Z" fill="#5BB42B"/>
<path d="M76.3502 137.343C76.3502 149.397 67.2712 152.292 56.0715 152.292C44.8719 152.292 35.7928 149.397 35.7928 137.343C35.7928 121.498 44.8719 112.529 56.0715 112.529C67.2712 112.529 76.3502 121.498 76.3502 137.343Z" fill="#A1DC3C"/>
<path d="M56.681 145.93C56.7627 145.93 56.8437 145.914 56.9193 145.884C56.9949 145.853 57.0637 145.808 57.1217 145.751L59.8837 142.972C59.9854 142.854 60.0385 142.702 60.0325 142.547C60.0265 142.392 59.9617 142.244 59.8512 142.134C59.7406 142.024 59.5924 141.96 59.4362 141.954C59.28 141.948 59.1273 142.001 59.0086 142.102L56.2403 144.849C56.1822 144.907 56.136 144.975 56.1045 145.05C56.073 145.125 56.0567 145.206 56.0567 145.287C56.0567 145.369 56.073 145.45 56.1045 145.525C56.136 145.6 56.1822 145.668 56.2403 145.726C56.2962 145.788 56.3641 145.837 56.4398 145.872C56.5155 145.907 56.5976 145.927 56.681 145.93Z" fill="#49B236"/>
<path d="M59.4136 145.93C59.4946 145.93 59.5749 145.914 59.65 145.884C59.725 145.853 59.7932 145.808 59.8508 145.751C59.9085 145.694 59.9543 145.626 59.9856 145.551C60.0169 145.475 60.033 145.395 60.033 145.314C60.033 145.232 60.0169 145.152 59.9856 145.077C59.9543 145.002 59.9085 144.934 59.8508 144.876L57.1103 142.136C57.0531 142.078 56.985 142.032 56.9099 142.001C56.8349 141.969 56.7544 141.953 56.6731 141.953C56.5918 141.953 56.5113 141.969 56.4362 142.001C56.3612 142.032 56.2931 142.078 56.2358 142.136C56.1211 142.251 56.0567 142.407 56.0567 142.57C56.0567 142.732 56.1211 142.889 56.2358 143.004L58.9825 145.751C59.0972 145.865 59.252 145.929 59.4136 145.93Z" fill="#49B236"/>
<path d="M106.565 84.0069C106.565 104.979 83.4504 111.933 55.3569 111.933C27.2633 111.933 3.97864 104.979 3.97864 84.0069C3.97864 53.8803 27.2633 40.9576 55.3569 40.9576C83.4504 40.9576 106.565 51.4946 106.565 84.0069Z" fill="#5BB42B"/>
<path d="M23.454 56.4661V62.828" stroke="#123041" stroke-width="5.96432" stroke-linecap="round"/>
<path d="M91.0542 56.067V62.429" stroke="#123041" stroke-width="5.96432" stroke-linecap="round"/>
<path d="M14.7109 76.7435H21.4705" stroke="#9CD43D" stroke-width="7.95243" stroke-linecap="round"/>
<path d="M88.272 76.7435H95.0315" stroke="#9CD43D" stroke-width="7.95243" stroke-linecap="round"/>
<path d="M64.8146 70.4036C64.8146 65.6262 64.8146 63.2243 55.8681 63.2243C46.9216 63.2243 46.9216 65.1993 46.9216 70.4036C46.9216 78.9304 50.9271 83.9006 55.8681 83.9006C60.8091 83.9006 64.8146 78.3339 64.8146 70.4036Z" fill="#D52C2F"/>
<path fill-rule="evenodd" clip-rule="evenodd" d="M46.9177 71.2886C47.1849 79.2746 51.0817 83.9027 55.8496 83.9027C59.3121 83.9027 62.3151 81.1691 63.8023 76.8041C62.072 74.7839 59.5125 73.0321 56.4224 71.9487C53.048 70.7657 49.6702 70.6004 46.9177 71.2886Z" fill="#FF2D2D"/>
</g>
<g clip-path="url(#clip3_476_701)">
<path d="M98.2382 79.8059C98.5418 78.4829 99.8603 77.6565 101.183 77.96L115.556 81.2578C116.879 81.5614 117.706 82.8799 117.402 84.2029L114.654 96.1805C113.44 101.472 108.166 104.778 102.874 103.564C97.5816 102.35 94.2759 97.0755 95.4901 91.7834L98.2382 79.8059Z" fill="#B2B7BB"/>
<path d="M106.534 101.882L100.066 100.398C100.066 100.398 100.812 102.678 100.641 104.004C100.415 105.752 98.3073 108.063 98.3073 108.063L104.775 109.547C104.775 109.547 103.886 106.549 104.445 104.877C104.869 103.609 106.534 101.882 106.534 101.882Z" fill="#B2B7BB"/>
<path d="M94.845 111.053C95.4521 108.407 98.0892 106.754 100.735 107.361L103.131 107.911C105.777 108.518 107.43 111.155 106.822 113.801L106.603 114.759C106.451 115.421 105.792 115.834 105.13 115.682L95.548 113.484C94.8865 113.332 94.4733 112.673 94.6251 112.011L94.845 111.053Z" fill="#B2B7BB"/>
<path fill-rule="evenodd" clip-rule="evenodd" d="M119.374 85.4163C116.728 84.8092 114.091 86.462 113.484 89.108L111.835 96.2946C111.532 97.6176 112.358 98.9361 113.681 99.2397C117.65 100.15 121.606 97.6711 122.516 93.7021L123.066 91.3065C123.673 88.6605 122.02 86.0234 119.374 85.4163ZM118.386 89.7277C117.328 89.4849 116.273 90.146 116.03 91.2044L115.371 94.079C115.249 94.6082 115.58 95.1356 116.109 95.2571C117.697 95.6213 119.279 94.6296 119.643 93.042L119.863 92.0838C120.106 91.0254 119.445 89.9705 118.386 89.7277Z" fill="#B2B7BB"/>
<path fill-rule="evenodd" clip-rule="evenodd" d="M95.9077 80.0307C98.5537 80.6378 100.207 83.275 99.5995 85.921L97.9506 93.1075C97.647 94.4305 96.3284 95.257 95.0054 94.9534C91.0364 94.0428 88.5572 90.087 89.4678 86.118L90.0174 83.7225C90.6245 81.0765 93.2617 79.4236 95.9077 80.0307ZM94.9064 84.3428C95.9648 84.5856 96.6259 85.6405 96.3831 86.6989L95.7235 89.5735C95.6021 90.1027 95.0747 90.4333 94.5455 90.3119C92.9579 89.9476 91.9662 88.3653 92.3304 86.7777L92.5503 85.8195C92.7931 84.7611 93.848 84.1 94.9064 84.3428Z" fill="#B2B7BB"/>
<path d="M92.9427 111.626C93.0034 111.362 93.2671 111.196 93.5317 111.257L107.905 114.555C108.169 114.616 108.335 114.879 108.274 115.144L106.35 123.528L91.019 120.011L92.9427 111.626Z" fill="black"/>
<rect x="94.4813" y="113.743" width="11.7972" height="4.66973" rx="0.491551" transform="rotate(12.9224 94.4813 113.743)" fill="#B2B7BB"/>
<path d="M90.4407 120.38C90.5014 120.116 90.7652 119.95 91.0298 120.011L106.361 123.529C106.626 123.589 106.791 123.853 106.73 124.118L106.565 124.836L90.2758 121.099L90.4407 120.38Z" fill="black"/>
<path d="M89.4427 121.413C89.5034 121.148 89.7671 120.983 90.0317 121.043L106.8 124.891C107.065 124.952 107.23 125.215 107.169 125.48L107.005 126.198L89.2778 122.131L89.4427 121.413Z" fill="black"/>
<rect x="88.5614" y="121.967" width="19.662" height="1.22888" rx="0.491551" transform="rotate(12.9224 88.5614 121.967)" fill="black"/>
</g>
<g clip-path="url(#clip4_476_701)">
<path d="M246.615 152.926C256.092 156.901 271.358 149.121 277.807 144.735C278.134 143.916 278.603 141.825 277.866 140.012C276.945 137.745 252.417 135.783 246.71 136.351C241.003 136.92 234.769 147.958 246.615 152.926Z" fill="#FFC532"/>
<path d="M267.645 196.386C264.793 195.22 262.016 179.684 262.579 171.949L289.971 176.321C290.534 182.598 290.572 195.4 289.221 196.386C287.532 197.619 271.209 197.843 267.645 196.386Z" fill="#FFC532"/>
<path d="M265.504 179.178C256.978 173.509 268.503 138.144 276.83 133.69C285.157 129.235 298.701 129.91 304.649 133.69C310.597 137.469 325.295 173.374 316.77 179.178C308.244 184.982 274.029 184.847 265.504 179.178Z" fill="#FFDB40"/>
<path d="M314.235 196.386C317.086 195.22 319.863 179.684 319.3 171.949L291.908 176.321C291.345 182.598 291.308 195.4 292.659 196.386C294.347 197.619 310.67 197.843 314.235 196.386Z" fill="#FFDB40"/>
<path d="M331.307 162.094C331.483 151.819 318.597 140.526 312.132 136.164C311.251 136.164 309.135 136.503 307.724 137.86C305.961 139.556 313.234 163.063 315.879 168.152C318.524 173.241 331.087 174.937 331.307 162.094Z" fill="#FFDB40"/>
<path d="M285.75 173.938C285.668 173.938 285.587 173.923 285.512 173.892C285.436 173.861 285.367 173.816 285.309 173.759L282.547 170.98C282.446 170.862 282.393 170.71 282.399 170.555C282.405 170.4 282.469 170.252 282.58 170.142C282.691 170.032 282.839 169.968 282.995 169.962C283.151 169.956 283.304 170.009 283.423 170.11L286.191 172.857C286.249 172.915 286.295 172.983 286.327 173.058C286.358 173.133 286.374 173.214 286.374 173.296C286.374 173.377 286.358 173.458 286.327 173.533C286.295 173.608 286.249 173.676 286.191 173.734C286.135 173.796 286.067 173.845 285.991 173.88C285.916 173.915 285.834 173.935 285.75 173.938Z" fill="#FFB132"/>
<path d="M283.018 173.938C282.937 173.938 282.856 173.923 282.781 173.892C282.706 173.861 282.638 173.816 282.58 173.759C282.523 173.702 282.477 173.634 282.446 173.559C282.414 173.484 282.398 173.403 282.398 173.322C282.398 173.24 282.414 173.16 282.446 173.085C282.477 173.01 282.523 172.942 282.58 172.884L285.321 170.144C285.378 170.086 285.446 170.04 285.521 170.009C285.596 169.978 285.677 169.961 285.758 169.961C285.839 169.961 285.92 169.978 285.995 170.009C286.07 170.04 286.138 170.086 286.195 170.144C286.31 170.259 286.374 170.415 286.374 170.578C286.374 170.741 286.31 170.897 286.195 171.012L283.449 173.759C283.334 173.873 283.179 173.937 283.018 173.938Z" fill="#FFB132"/>
<path d="M241.216 112.507C241.216 133.26 263.972 140.141 291.63 140.141C319.288 140.141 342.212 133.26 342.212 112.507C342.212 77.1226 319.288 64.9907 291.63 64.9907C263.972 64.9907 241.216 75.4376 241.216 112.507Z" fill="#FFDB40"/>
<path d="M324.336 122.644H318.372" stroke="#FCA18E" stroke-width="7.95243" stroke-linecap="round"/>
<path d="M258.315 122.644H252.351" stroke="#FCA18E" stroke-width="7.95243" stroke-linecap="round"/>
<path d="M278.191 117.476C278.191 121.1 282.73 122.645 288.33 122.645C293.93 122.645 298.469 121.1 298.469 117.476C298.469 113.853 293.93 109.524 288.33 109.524C282.73 109.524 278.191 113.853 278.191 117.476Z" fill="#FFB132"/>
<path d="M284.264 51.1617C290.296 56.5106 293.761 62.5094 294.786 67.9691L284.171 66.8372C279.8 66.3711 275.613 61.2191 275.806 54.9655C276 48.712 281.196 48.4417 284.264 51.1617Z" fill="#FFDB40"/>
<path d="M295.344 59.6096C293.466 61.4434 292.992 65.4395 292.989 67.2084C296.627 66.8721 302.732 65.7537 303.826 63.424C304.921 61.0944 304.238 58.198 302.906 57.5076C301.573 56.8172 297.692 57.3174 295.344 59.6096Z" fill="#FFDB40"/>
<path d="M268.043 115.564C268.043 115.564 266.89 114.241 264.295 114.241C261.701 114.241 260.548 115.564 260.548 115.564" stroke="#123041" stroke-width="4.70064" stroke-linecap="round"/>
<path d="M316.051 115.564C316.051 115.564 314.898 114.241 312.304 114.241C309.709 114.241 308.556 115.564 308.556 115.564" stroke="#123041" stroke-width="4.70064" stroke-linecap="round"/>
</g>
<g clip-path="url(#clip5_476_701)">
<path d="M232.112 115.769C231.906 114.624 232.668 113.529 233.813 113.323L246.253 111.084C247.398 110.878 248.493 111.639 248.699 112.784L250.565 123.151C251.389 127.731 248.345 132.112 243.764 132.937C239.184 133.761 234.803 130.716 233.978 126.136L232.112 115.769Z" fill="#D69E84"/>
<path d="M246.087 130.378L240.489 131.386C240.489 131.386 241.845 132.932 242.156 134.035C242.567 135.489 241.683 138.02 241.683 138.02L247.281 137.013C247.281 137.013 245.571 134.948 245.449 133.442C245.356 132.3 246.087 130.378 246.087 130.378Z" fill="#D69E84"/>
<path d="M239.957 141.541C239.545 139.251 241.067 137.061 243.358 136.648L245.431 136.275C247.721 135.863 249.912 137.385 250.324 139.675L250.473 140.505C250.576 141.077 250.196 141.625 249.623 141.728L241.33 143.221C240.757 143.324 240.21 142.943 240.107 142.371L239.957 141.541Z" fill="#D69E84"/>
<path fill-rule="evenodd" clip-rule="evenodd" d="M250.679 113.07C248.388 113.482 246.866 115.673 247.278 117.963L248.398 124.183C248.604 125.328 249.699 126.089 250.844 125.883C254.28 125.265 256.563 121.979 255.945 118.544L255.572 116.47C255.159 114.18 252.969 112.658 250.679 113.07ZM251.349 116.803C250.433 116.968 249.824 117.844 249.989 118.76L250.436 121.248C250.519 121.706 250.957 122.011 251.415 121.929C252.789 121.681 253.703 120.367 253.455 118.993L253.306 118.163C253.141 117.247 252.265 116.638 251.349 116.803Z" fill="#D69E84"/>
<path fill-rule="evenodd" clip-rule="evenodd" d="M230.354 116.728C232.644 116.316 234.835 117.838 235.247 120.128L236.367 126.348C236.573 127.493 235.812 128.589 234.667 128.795C231.232 129.413 227.946 127.13 227.327 123.694L226.954 121.621C226.542 119.331 228.064 117.14 230.354 116.728ZM231.024 120.46C231.94 120.296 232.816 120.905 232.981 121.821L233.429 124.309C233.511 124.767 233.207 125.205 232.749 125.287C231.375 125.535 230.06 124.621 229.813 123.247L229.664 122.418C229.499 121.502 230.108 120.625 231.024 120.46Z" fill="#D69E84"/>
<path d="M238.657 142.631C238.615 142.402 238.768 142.183 238.997 142.142L251.437 139.903C251.666 139.861 251.885 140.014 251.926 140.243L253.232 147.499L239.963 149.888L238.657 142.631Z" fill="black"/>
<rect x="240.585" y="143.784" width="10.1119" height="4.00263" rx="0.42133" transform="rotate(-10.2037 240.585 143.784)" fill="#D69E84"/>
<path d="M239.621 150.377C239.579 150.148 239.732 149.928 239.961 149.887L253.23 147.499C253.459 147.458 253.678 147.61 253.719 147.839L253.831 148.461L239.732 150.999L239.621 150.377Z" fill="black"/>
<path d="M239.197 151.527C239.155 151.298 239.308 151.079 239.537 151.037L254.05 148.425C254.279 148.384 254.498 148.536 254.539 148.765L254.651 149.387L239.309 152.149L239.197 151.527Z" fill="black"/>
<rect x="238.685" y="152.26" width="16.8532" height="1.05332" rx="0.42133" transform="rotate(-10.2037 238.685 152.26)" fill="black"/>
</g>
<defs>
<clipPath id="clip0_476_701">
<rect width="125.251" height="141.951" fill="white" transform="translate(108.553 0.529053)"/>
</clipPath>
<clipPath id="clip1_476_701">
<rect width="40.2371" height="57.1367" fill="white" transform="translate(209.163 42.1067) rotate(13.3093)"/>
</clipPath>
<clipPath id="clip2_476_701">
<rect width="111.732" height="138.77" fill="white" transform="translate(-0.0012207 30.6202)"/>
</clipPath>
<clipPath id="clip3_476_701">
<rect width="39.4324" height="53.3813" fill="white" transform="translate(90.5333 71.6621) rotate(12.9224)"/>
</clipPath>
<clipPath id="clip4_476_701">
<rect width="120.877" height="154.277" fill="white" transform="translate(229.124 42.0477)"/>
</clipPath>
<clipPath id="clip5_476_701">
<rect width="35.1404" height="43.9926" fill="white" transform="translate(222.439 113.189) rotate(-10.2037)"/>
</clipPath>
</defs>
</svg>
