<svg width="1583" height="380" viewBox="0 0 1583 380" fill="none" xmlns="http://www.w3.org/2000/svg">
<path d="M1583 209.797C1583 231.888 1565.09 249.797 1543 249.797H1463C1440.91 249.797 1423 267.706 1423 289.797V338.297C1423 345.753 1416.96 351.797 1409.5 351.797C1402.04 351.797 1396 345.753 1396 338.297V327.797C1396 314.542 1385.25 303.797 1372 303.797H1305.5C1295.83 303.797 1288 295.962 1288 286.297C1288 276.632 1280.17 268.797 1270.5 268.797H1201C1178.91 268.797 1161 286.706 1161 308.797V359.297C1161 366.201 1155.4 371.797 1148.5 371.797C1141.6 371.797 1136 366.201 1136 359.297V329.797C1136 307.706 1118.09 289.797 1096 289.797H1009.5C1000.94 289.797 994 296.737 994 305.297C994 313.857 987.06 320.797 978.5 320.797H719C709.059 320.797 701 328.856 701 338.797V344.297C701 351.201 695.404 356.797 688.5 356.797C681.596 356.797 676 351.201 676 344.297V330.297C676 315.661 664.136 303.797 649.5 303.797H569C550.775 303.797 536 318.572 536 336.797V357.297C536 364.201 530.404 369.797 523.5 369.797C516.596 369.797 511 364.201 511 357.297V323.297C511 303.691 495.106 287.797 475.5 287.797H459C448.507 287.797 440 296.304 440 306.797C440 317.29 431.493 325.797 421 325.797H287.5C276.178 325.797 267 316.619 267 305.297C267 293.975 257.822 284.797 246.5 284.797H159C136.909 284.797 119 302.706 119 324.797V359.297C119 366.201 113.404 371.797 106.5 371.797C99.5964 371.797 94 366.201 94 359.297V303.797C94 281.706 76.0914 263.797 54 263.797H40C17.9086 263.797 0 245.888 0 223.797C0 65.0044 542 197.797 542 197.797C542 197.797 553.193 222.797 567 222.797H925C947.091 222.797 965 204.888 965 182.797C965 114.5 1583 110 1583 209.797Z" fill="#E1E6EC"/>
<path d="M1321 379.797H1331C1353.09 379.797 1371 361.888 1371 339.797V329.797H1361C1338.91 329.797 1321 347.706 1321 369.797V379.797Z" fill="#E1E6EC"/>
<path d="M600 379.797H610C632.091 379.797 650 361.888 650 339.797V329.797H640C617.909 329.797 600 347.706 600 369.797V379.797Z" fill="#E1E6EC"/>
<path d="M1065 372.797H1055C1032.91 372.797 1015 354.888 1015 332.797V322.797H1025C1047.09 322.797 1065 340.706 1065 362.797V372.797Z" fill="#E1E6EC"/>
<path d="M206 378.798H196C173.909 378.798 156 360.889 156 338.798V328.798H166C188.091 328.798 206 346.707 206 368.798V378.798Z" fill="#E1E6EC"/>
<path d="M1288 68.5001C1288 53.8645 1299.86 42.0001 1314.5 42.0001H1393.5C1408.69 42.0001 1421 54.3122 1421 69.5001C1421 84.6879 1433.31 97.0001 1448.5 97.0001H1543C1565.09 97.0001 1583 114.909 1583 137V201C1583 223.091 1565.09 241 1543 241H1463C1440.91 241 1423 258.909 1423 281V329.5C1423 336.956 1416.96 343 1409.5 343C1402.04 343 1396 336.956 1396 329.5V319C1396 305.745 1385.25 295 1372 295H1305.5C1295.83 295 1288 287.165 1288 277.5C1288 267.835 1280.17 260 1270.5 260H1201C1178.91 260 1161 277.909 1161 300V350.5C1161 357.404 1155.4 363 1148.5 363C1141.6 363 1136 357.404 1136 350.5V321C1136 298.909 1118.09 281 1096 281H1009.5C1000.94 281 994 287.94 994 296.5C994 305.06 987.06 312 978.5 312H719C709.059 312 701 320.059 701 330V335.5C701 342.404 695.404 348 688.5 348C681.596 348 676 342.404 676 335.5V321.5C676 306.865 664.136 295 649.5 295H569C550.775 295 536 309.775 536 328V348.5C536 355.404 530.404 361 523.5 361C516.596 361 511 355.404 511 348.5V314.5C511 294.894 495.106 279 475.5 279H459C448.507 279 440 287.507 440 298C440 308.493 431.493 317 421 317H287.5C276.178 317 267 307.822 267 296.5C267 285.178 257.822 276 246.5 276H159C136.909 276 119 293.909 119 316V350.5C119 357.404 113.404 363 106.5 363C99.5964 363 94 357.404 94 350.5V295C94 272.909 76.0914 255 54 255H40C17.9086 255 0 237.091 0 215V107C0 84.9087 17.9086 67.0001 40 67.0001H136.5C155.554 67.0001 171 82.4462 171 101.5C171 120.554 186.446 136 205.5 136H245C257.15 136 267 126.15 267 114C267 101.85 276.85 92.0001 289 92.0001H404C423.882 92.0001 440 108.118 440 128C440 147.882 456.118 164 476 164H517C530.807 164 542 175.193 542 189C542 202.807 553.193 214 567 214H925C947.091 214 965 196.091 965 174C965 151.909 982.909 134 1005 134H1039.5C1050.27 134 1059 125.27 1059 114.5C1059 103.731 1067.73 95.0001 1078.5 95.0001H1261.5C1276.14 95.0001 1288 83.1356 1288 68.5001Z" fill="#AFD157"/>
<path d="M1177 31H1187C1209.09 31 1227 48.9086 1227 71V81H1217C1194.91 81 1177 63.0914 1177 41V31Z" fill="#93CA45"/>
<path d="M1277 31H1267C1244.91 31 1227 48.9086 1227 71V81H1237C1259.09 81 1277 63.0914 1277 41V31Z" fill="#93CA45"/>
<path d="M1321 371H1331C1353.09 371 1371 353.091 1371 331V321H1361C1338.91 321 1321 338.909 1321 361V371Z" fill="#93CA45"/>
<path d="M600 371H610C632.091 371 650 353.091 650 331V321H640C617.909 321 600 338.909 600 361V371Z" fill="#93CA45"/>
<path d="M1065 364H1055C1032.91 364 1015 346.091 1015 324V314H1025C1047.09 314 1065 331.909 1065 354V364Z" fill="#93CA45"/>
<path d="M206 370.001H196C173.909 370.001 156 352.092 156 330.001V320.001H166C188.091 320.001 206 337.91 206 360.001V370.001Z" fill="#93CA45"/>
<path d="M1426 114H1416V124C1416 146.091 1433.91 164 1456 164H1466V154C1466 131.909 1448.09 114 1426 114Z" fill="#7FB732"/>
<path d="M1004 161H994V171C994 193.091 1011.91 211 1034 211H1054C1076.09 211 1094 193.091 1094 171V161H1084C1061.91 161 1044 178.909 1044 201C1044 178.909 1026.09 161 1004 161Z" fill="#7FB732"/>
<path d="M419 293H409C386.909 293 369 275.091 369 253C369 275.091 351.091 293 329 293H319V283C319 260.909 336.909 243 359 243H379C401.091 243 419 260.909 419 283V293Z" fill="#7FB732"/>
<path d="M98 181H108V191C108 213.091 90.0914 231 68 231H58V221C58 198.909 75.9086 181 98 181Z" fill="#7FB732"/>
<path d="M71 0H81C103.091 0 121 17.9086 121 40V50H111C88.9086 50 71 32.0914 71 10V0Z" fill="#93CA45"/>
<path d="M171 0H161C138.909 0 121 17.9086 121 40V50H131C153.091 50 171 32.0914 171 10V0Z" fill="#93CA45"/>
<path d="M989 65H999C1021.09 65 1039 82.9086 1039 105V115H1029C1006.91 115 989 97.0914 989 75V65Z" fill="#93CA45"/>
<path d="M1281 187H1291C1313.09 187 1331 204.909 1331 227V237H1321C1298.91 237 1281 219.091 1281 197V187Z" fill="#93CA45"/>
<path d="M1381 187H1371C1348.91 187 1331 204.909 1331 227V237H1341C1363.09 237 1381 219.091 1381 197V187Z" fill="#93CA45"/>
<path d="M1327 185.001H1335V230.001H1327V185.001Z" fill="#93CA45"/>
<path d="M1346.04 96.0439C1337.74 87.7354 1324.26 87.7354 1315.96 96.0439C1309.38 102.619 1308.01 112.426 1311.84 120.35C1311.98 120.65 1311.65 120.988 1311.35 120.843C1303.42 117.013 1293.62 118.385 1287.04 124.96C1278.73 133.268 1278.73 146.739 1287.04 155.048C1293.62 161.622 1303.42 162.994 1311.35 159.164C1311.65 159.019 1311.98 159.358 1311.84 159.657C1308.01 167.581 1309.38 177.388 1315.96 183.963C1324.26 192.271 1337.74 192.271 1346.04 183.963C1352.62 177.388 1353.99 167.581 1350.16 159.657C1350.02 159.358 1350.35 159.019 1350.65 159.164C1358.58 162.994 1368.38 161.622 1374.96 155.048C1383.27 146.739 1383.27 133.268 1374.96 124.96C1368.38 118.385 1358.58 117.013 1350.65 120.843C1350.35 120.988 1350.01 120.65 1350.16 120.35C1353.99 112.426 1352.62 102.619 1346.04 96.0439Z" fill="#FFC53D"/>
<path d="M1337.25 146.646C1333.8 150.099 1328.2 150.099 1324.75 146.646C1321.29 143.193 1321.29 137.595 1324.75 134.142C1328.2 130.689 1333.8 130.689 1337.25 134.142C1340.7 137.595 1340.7 143.193 1337.25 146.646Z" fill="#E98B2D"/>
<path d="M234 145H239.6C251.971 145 262 155.029 262 167.4V173H256.4C244.029 173 234 162.971 234 150.6V145Z" fill="#93CA45"/>
<path d="M297 162H290.2C275.178 162 263 174.178 263 189.2V196H269.8C284.822 196 297 183.822 297 168.8V162Z" fill="#93CA45"/>
<path d="M261 141.001C261 138.792 262.791 137.001 265 137.001C267.209 137.001 269 138.792 269 141.001V210.001C269 212.21 267.209 214.001 265 214.001C262.791 214.001 261 212.21 261 210.001V141.001Z" fill="#93CA45"/>
<path d="M280.044 53.0439C271.735 44.7354 258.265 44.7354 249.956 53.0439C243.381 59.6188 242.009 69.4263 245.84 77.3503C245.985 77.6498 245.647 77.9883 245.347 77.8435C237.423 74.0131 227.616 75.3852 221.042 81.9598C212.733 90.2683 212.733 103.739 221.042 112.048C227.616 118.622 237.423 119.994 245.347 116.164C245.646 116.019 245.985 116.358 245.84 116.657C242.009 124.581 243.382 134.388 249.956 140.963C258.265 149.271 271.735 149.271 280.044 140.963C286.619 134.388 287.991 124.581 284.16 116.657C284.016 116.358 284.354 116.019 284.653 116.164C292.577 119.994 302.384 118.622 308.958 112.048C317.267 103.739 317.267 90.2683 308.958 81.9598C302.384 75.3852 292.577 74.0131 284.653 77.8435C284.353 77.9883 284.015 77.6498 284.16 77.3503C287.991 69.4263 286.619 59.6188 280.044 53.0439Z" fill="#FF686B"/>
<path d="M271.252 103.646C267.799 107.099 262.201 107.099 258.748 103.646C255.295 100.193 255.295 94.595 258.748 91.1421C262.201 87.6892 267.799 87.6892 271.252 91.1421C274.705 94.595 274.705 100.193 271.252 103.646Z" fill="#E23636"/>
</svg>
