<svg xmlns="http://www.w3.org/2000/svg" width="1440" height="416" viewBox="0 0 1440 416" fill="none">
  <path fill-rule="evenodd" clip-rule="evenodd" d="M1228 20C1228 8.9543 1236.95 0 1248 0H1278C1289.05 0 1298 8.95431 1298 20V50C1298 61.0457 1289.05 70 1278 70H1248C1236.95 70 1228 61.0457 1228 50V20ZM-45 43.9987C-45 21.9073 -27.0914 3.99866 -5 3.99866H56C78.0914 3.99866 96 21.9073 96 43.9987V76.9987C96 99.09 113.909 116.999 136 116.999H194.5C211.897 116.999 226 131.102 226 148.499C226 165.896 240.103 179.999 257.5 179.999H416.5C428.926 179.999 439 190.072 439 202.499C439 214.925 449.074 224.999 461.5 224.999H526C548.091 224.999 566 242.907 566 264.999V268.999C566 291.09 583.909 308.999 606 308.999H782C804.091 308.999 822 291.09 822 268.999V216C822 193.909 839.909 176 862 176H1068C1090.09 176 1108 158.091 1108 136V132.999C1108 110.907 1125.91 92.9987 1148 92.9987H1314C1336.09 92.9987 1354 75.09 1354 52.9987V43.9987C1354 21.9073 1371.91 3.99866 1394 3.99866H1508C1530.09 3.99866 1548 21.9073 1548 43.9987V52.9987C1548 75.09 1565.91 92.9987 1588 92.9987H1597C1619.09 92.9987 1637 110.907 1637 132.999V261.999C1637 284.09 1619.09 301.999 1597 301.999H1357C1334.91 301.999 1317 319.907 1317 341.999V350C1317 372.091 1299.09 390 1277 390H1036.23C1023.47 390 1012.15 397.274 1001.06 404.409C997.65 406.6 994.263 408.777 990.861 410.727C985.009 414.081 978.229 415.999 971 415.999H481C478.239 415.999 476 413.76 476 410.999C476 408.237 473.761 405.999 471 405.999H397.5C397.224 405.999 397 405.775 397 405.499C397 405.223 396.776 404.999 396.5 404.999H20C-2.09139 404.999 -20 387.09 -20 364.999V241.499C-20 234.595 -25.5964 228.999 -32.5 228.999C-39.4036 228.999 -45 223.402 -45 216.499V43.9987ZM604 217C592.954 217 584 225.954 584 237V267C584 278.046 592.954 287 604 287H634C645.046 287 654 278.046 654 267V237C654 225.954 645.046 217 634 217H604ZM141 24C129.954 24 121 32.9543 121 44V74C121 85.0457 129.954 94 141 94H171C182.046 94 191 85.0457 191 74V44C191 32.9543 182.046 24 171 24H141ZM1040 123C1040 114.716 1046.72 108 1055 108H1073C1081.28 108 1088 114.716 1088 123V141C1088 149.284 1081.28 156 1073 156H1055C1046.72 156 1040 149.284 1040 141V123ZM525 163C516.716 163 510 169.716 510 178V196C510 204.284 516.716 211 525 211H543C551.284 211 558 204.284 558 196V178C558 169.716 551.284 163 543 163H525ZM1310 54.5C1310 47.5964 1315.6 42 1322.5 42C1329.4 42 1335 47.5964 1335 54.5C1335 61.4036 1329.4 67 1322.5 67C1315.6 67 1310 61.4036 1310 54.5ZM217.5 25C210.596 25 205 30.5964 205 37.5C205 44.4036 210.596 50 217.5 50C224.404 50 230 44.4036 230 37.5C230 30.5964 224.404 25 217.5 25Z" fill="#B38F5A"/>
</svg>