<svg xmlns="http://www.w3.org/2000/svg" width="1440" height="432" viewBox="0 0 1440 432" fill="none">
  <path fill-rule="evenodd" clip-rule="evenodd" d="M1853 60C1853 26.8629 1826.14 0 1793 0H1236C1202.86 0 1176 26.8629 1176 60V63C1176 96.1371 1149.14 123 1116 123H877C848.833 123 826 145.833 826 174C826 202.167 803.167 225 775 225H672C653.775 225 639 210.225 639 192C639 173.775 624.225 159 606 159H365C331.863 159 305 132.137 305 99V62C305 28.8629 278.137 2 245 2H-141C-174.137 2 -201 28.8629 -201 62V215C-201 248.137 -174.137 275 -141 275H137C170.137 275 197 301.863 197 335V372C197 405.137 223.863 432 257 432H626C633.18 432 639 426.18 639 419C639 411.82 644.82 406 652 406H1092.5C1106.03 406 1117 395.031 1117 381.5C1117 367.969 1127.97 357 1141.5 357H1487C1520.14 357 1547 330.137 1547 297V294C1547 260.863 1573.86 234 1607 234H1793C1826.14 234 1853 207.137 1853 174V60Z" fill="#DFAF67"/>
</svg>