<svg width="1440" height="331" viewBox="0 0 1440 331" fill="none" xmlns="http://www.w3.org/2000/svg">
<g filter="url(#filter0_d_409_290)">
<path fill-rule="evenodd" clip-rule="evenodd" d="M1249 26.4989C1249 11.8634 1260.86 -0.00109863 1275.5 -0.00109863H1354.5C1369.69 -0.00109863 1382 12.3111 1382 27.4989C1382 42.6867 1394.31 54.9989 1409.5 54.9989H1504C1526.09 54.9989 1544 72.9075 1544 94.9989V158.999C1544 181.09 1526.09 198.999 1504 198.999H1424C1401.91 198.999 1384 216.908 1384 238.999V287.499C1384 294.955 1377.96 300.999 1370.5 300.999C1363.04 300.999 1357 294.955 1357 287.499V276.999C1357 263.744 1346.25 252.999 1333 252.999H1266.5C1256.83 252.999 1249 245.164 1249 235.499C1249 225.834 1241.17 217.999 1231.5 217.999H1162C1139.91 217.999 1122 235.908 1122 257.999V308.499C1122 315.402 1116.4 320.999 1109.5 320.999C1102.6 320.999 1097 315.402 1097 308.499V278.999C1097 256.908 1079.09 238.999 1057 238.999H970.5C961.94 238.999 955 245.938 955 254.499C955 263.059 948.06 269.999 939.5 269.999H680C670.059 269.999 662 278.058 662 287.999V293.499C662 300.402 656.404 305.999 649.5 305.999C642.596 305.999 637 300.402 637 293.499V279.499C637 264.863 625.136 252.999 610.5 252.999H530C511.775 252.999 497 267.773 497 285.999V306.499C497 313.402 491.404 318.999 484.5 318.999C477.596 318.999 472 313.402 472 306.499V272.499C472 252.893 456.106 236.999 436.5 236.999H420C409.507 236.999 401 245.505 401 255.999C401 266.492 392.493 274.999 382 274.999H248.5C237.178 274.999 228 265.821 228 254.499C228 243.177 218.822 233.999 207.5 233.999H120C97.9086 233.999 80 251.908 80 273.999V308.499C80 315.402 74.4036 320.999 67.5 320.999C60.5964 320.999 55 315.402 55 308.499V252.999C55 230.908 37.0914 212.999 15 212.999H1C-21.0914 212.999 -39 195.09 -39 172.999V64.9989C-39 42.9075 -21.0914 24.9989 1 24.9989H97.5C116.554 24.9989 132 40.4451 132 59.4989C132 78.5527 147.446 93.9989 166.5 93.9989H206C218.15 93.9989 228 84.1492 228 71.9989C228 59.8486 237.85 49.9989 250 49.9989H365C384.882 49.9989 401 66.1167 401 85.9989C401 105.881 417.118 121.999 437 121.999H478C491.807 121.999 503 133.192 503 146.999C503 160.806 514.193 171.999 528 171.999H643H653H886C908.091 171.999 926 154.09 926 131.999C926 109.908 943.909 91.9989 966 91.9989H1000.5C1011.27 91.9989 1020 83.2685 1020 72.4989C1020 61.7293 1028.73 52.9989 1039.5 52.9989H1222.5C1237.14 52.9989 1249 41.1344 1249 26.4989Z" fill="#AFD157"/>
</g>
<defs>
<filter id="filter0_d_409_290" x="-39" y="-0.00109863" width="1586" height="331" filterUnits="userSpaceOnUse" color-interpolation-filters="sRGB">
<feFlood flood-opacity="0" result="BackgroundImageFix"/>
<feColorMatrix in="SourceAlpha" type="matrix" values="0 0 0 0 0 0 0 0 0 0 0 0 0 0 0 0 0 0 127 0" result="hardAlpha"/>
<feOffset dx="3" dy="10"/>
<feComposite in2="hardAlpha" operator="out"/>
<feColorMatrix type="matrix" values="0 0 0 0 0.596078 0 0 0 0 0.666667 0 0 0 0 0.74902 0 0 0 0.3 0"/>
<feBlend mode="normal" in2="BackgroundImageFix" result="effect1_dropShadow_409_290"/>
<feBlend mode="normal" in="SourceGraphic" in2="effect1_dropShadow_409_290" result="shape"/>
</filter>
</defs>
</svg>
