<svg width="188" height="188" viewBox="0 0 188 188" fill="none" xmlns="http://www.w3.org/2000/svg">
<g clip-path="url(#clip0_311_2261)">
<circle cx="93.8742" cy="93.8519" r="93.5927" fill="#1E1E1E"/>
<circle cx="93.8921" cy="93.8696" r="88.1269" stroke="#454545" stroke-width="0.748741"/>
<circle cx="93.8074" cy="93.8848" r="79.8158" stroke="#454545" stroke-width="0.748741"/>
<circle cx="93.8321" cy="93.8158" r="53.1606" stroke="#454545" stroke-width="0.748741"/>
<circle cx="93.8053" cy="93.8832" r="62.5948" stroke="#454545" stroke-width="0.748741"/>
<circle cx="93.8547" cy="93.8444" r="71.355" stroke="#454545" stroke-width="0.748741"/>
<circle cx="93.896" cy="93.8785" r="44.3255" fill="#33D2EA"/>
<mask id="mask0_311_2261" style="mask-type:alpha" maskUnits="userSpaceOnUse" x="49" y="49" width="90" height="90">
<circle cx="93.8882" cy="93.8787" r="44.3255" fill="#808080"/>
</mask>
<g mask="url(#mask0_311_2261)">
<path d="M138.216 49.5532H49.5627V138.206H138.216V49.5532Z" fill="url(#paint0_linear_311_2261)"/>
<path d="M128.524 96.2222L129.324 105.992" stroke="#998675" stroke-width="0.283841" stroke-miterlimit="10"/>
<path d="M140.992 96.2935L140.572 101.173L140.151 106.053" stroke="#998675" stroke-width="0.283841" stroke-miterlimit="10"/>
<path d="M134.883 96.2612L134.945 106.027" stroke="#998675" stroke-width="0.283841" stroke-miterlimit="10"/>
<path d="M156.716 75.1251C156.714 78.0037 156.138 80.8511 155.021 83.5033C153.904 86.1555 152.269 88.5601 150.208 90.5787C149.908 90.8746 149.598 91.1616 149.28 91.4396C148.75 91.9038 148.198 92.3426 147.623 92.756C146.759 93.3765 145.895 93.9974 145.047 94.6381L141.107 97.3979L128.084 97.317L124.156 94.5083C123.31 93.857 122.449 93.2254 121.588 92.5943C121.013 92.1743 120.462 91.7285 119.935 91.257C119.619 90.9753 119.311 90.685 119.012 90.3859C116.961 88.3419 115.336 85.9174 114.231 83.2519C113.125 80.5864 112.562 77.7326 112.572 74.8547C112.595 62.7717 122.479 53.038 134.654 53.0949C146.818 53.152 156.739 63.0587 156.716 75.1251Z" fill="#F2F2FA"/>
<path opacity="0.1" d="M156.714 75.1254C156.712 78.0041 156.136 80.8516 155.02 83.5039C153.903 86.1562 152.267 88.5609 150.206 90.5795C149.906 90.8754 149.596 91.1624 149.278 91.4404C148.749 91.9049 148.197 92.3437 147.621 92.7568C146.758 93.3776 145.894 93.9977 145.045 94.6397L141.105 97.3987L128.082 97.3178L124.154 94.5096C123.945 94.3491 123.736 94.1894 123.527 94.0293C139.326 91.8541 151.485 78.4432 151.519 62.1457C151.521 61.7482 151.514 61.3522 151.5 60.9576C154.878 64.9224 156.726 69.9453 156.714 75.1254Z" fill="black"/>
<path d="M128.305 105.933L140.859 106.011L140.848 111.104C140.847 111.511 140.683 111.902 140.391 112.188C140.1 112.475 139.705 112.634 139.294 112.632L129.841 112.573C129.43 112.57 129.036 112.406 128.746 112.115C128.456 111.825 128.293 111.433 128.294 111.025L128.305 105.933Z" fill="#FFC53D"/>
<path opacity="0.1" d="M140.854 106.009L140.842 110.925C140.841 111.15 140.796 111.372 140.709 111.579C140.622 111.787 140.494 111.975 140.333 112.133C140.173 112.291 139.982 112.416 139.772 112.501C139.562 112.586 139.338 112.628 139.111 112.627L132.67 112.587C134.197 112.016 135.587 111.136 136.75 110.001C137.913 108.867 138.825 107.504 139.426 105.999L140.854 106.009Z" fill="black"/>
<path d="M129.778 76.2364L127.289 76.1626L127.241 78.0302L129.73 78.104L129.778 76.2364Z" fill="#45D5D9" stroke="#45D5D9" stroke-width="0.0237255" stroke-miterlimit="10"/>
<path d="M125.213 76.3023L125.256 74.375L121.092 78.308L122.032 79.3079L125.213 76.3023ZM134.514 75.3448C134.246 73.8251 133.133 72.6645 133.006 72.5359L130.272 69.6382L128.637 71.1827L128.523 71.2927L128.48 73.2195L130.22 71.5735L131.775 73.2213L132.013 73.4725L132.03 73.4897C132.033 73.4912 132.134 73.5964 132.277 73.7723C132.568 74.1336 133.026 74.809 133.164 75.5741C133.365 76.7161 133.449 78.0428 132.143 79.6219L132.097 81.6129C132.22 81.5133 132.296 81.4417 132.324 81.4157C133.484 80.3396 134.192 79.241 134.493 78.0524C134.752 77.0238 134.65 76.1065 134.514 75.3448ZM125.905 81.0652L125.863 81.0433L125.843 81.0352C125.721 80.9672 125.604 80.8893 125.495 80.8022C125.393 80.725 125.267 80.6245 125.118 80.4948C124.89 80.298 124.609 80.036 124.265 79.6859L123.496 78.8683L122.502 79.8072L123.266 80.6198L123.277 80.6313C124.461 81.8371 125.076 82.189 125.302 82.2883C126.021 82.662 126.804 82.899 127.609 82.9871C127.98 83.0252 128.354 83.028 128.724 82.9954L128.814 82.9867L128.845 81.6067C128.012 81.7246 127.01 81.6322 125.905 81.0652Z" fill="url(#paint1_linear_311_2261)"/>
<path d="M127.814 71.9558L127.626 80.1796L125.807 80.1311L125.954 73.7128L126.141 73.5362L126.241 73.4419L126.803 72.9107L127.184 72.5509L127.308 72.4337L127.689 72.0738L127.814 71.9558Z" fill="#45D5D9" stroke="#45D5D9" stroke-width="0.0236534" stroke-miterlimit="10"/>
<path d="M131.586 73.8968L131.396 82.1034L131.371 82.1183C131.288 82.1704 131.196 82.2211 131.101 82.2718C131.07 82.2892 131.037 82.3072 131.005 82.3229C130.92 82.3675 130.831 82.4109 130.738 82.4531C130.653 82.493 130.564 82.5317 130.472 82.569C130.422 82.5891 130.371 82.609 130.319 82.6295C130.253 82.6547 130.184 82.6793 130.113 82.7032C130.058 82.7219 130.002 82.7395 129.944 82.7571C129.83 82.7926 129.712 82.8249 129.59 82.8539L129.5 82.8745L129.707 73.847L131.586 73.8968Z" fill="#45D5D9" stroke="#45D5D9" stroke-width="0.0236534" stroke-miterlimit="10"/>
<g opacity="0.75">
<circle cx="55.4919" cy="67.9011" r="6.71045" fill="white"/>
<circle cx="49.247" cy="69.1874" r="3.48893" fill="white"/>
<ellipse cx="64.646" cy="68.7796" rx="5.30979" ry="5.24612" fill="white"/>
<circle cx="70.8407" cy="71.1227" r="3.48893" fill="white"/>
<rect x="43.0316" y="69.8491" width="34.5837" height="5.62812" rx="2.81406" fill="white"/>
</g>
<g opacity="0.85">
<circle cx="16.9374" cy="16.9374" r="16.9374" transform="matrix(-1 -1.23066e-09 -6.67576e-09 1 136.039 100.644)" fill="white"/>
<circle cx="8.80616" cy="8.80616" r="8.80616" transform="matrix(-1 -1.23066e-09 -6.67576e-09 1 143.688 112.021)" fill="white"/>
<ellipse cx="13.4021" cy="13.2414" rx="13.4021" ry="13.2414" transform="matrix(-1 -1.23066e-09 -6.67576e-09 1 109.43 106.558)" fill="white"/>
<circle cx="8.80616" cy="8.80616" r="8.80616" transform="matrix(-1 -1.23066e-09 -6.67576e-09 1 89.1877 116.906)" fill="white"/>
<rect width="87.2903" height="14.2056" rx="7.10278" transform="matrix(-1 -1.23066e-09 -6.67576e-09 1 150.571 122.499)" fill="white"/>
</g>
<circle cx="16.9374" cy="16.9374" r="16.9374" transform="matrix(-1 -1.23066e-09 -6.67576e-09 1 137.781 104.133)" fill="white"/>
<circle cx="8.80616" cy="8.80616" r="8.80616" transform="matrix(-1 -1.23066e-09 -6.67576e-09 1 145.43 115.51)" fill="white"/>
<ellipse cx="13.4021" cy="13.2414" rx="13.4021" ry="13.2414" transform="matrix(-1 -1.23066e-09 -6.67576e-09 1 111.172 110.046)" fill="white"/>
<circle cx="8.80616" cy="8.80616" r="8.80616" transform="matrix(-1 -1.23066e-09 -6.67576e-09 1 90.9299 120.395)" fill="white"/>
<rect width="87.2903" height="14.2056" rx="7.10278" transform="matrix(-1 -1.23066e-09 -6.67576e-09 1 152.313 125.987)" fill="white"/>
</g>
<mask id="mask1_311_2261" style="mask-type:alpha" maskUnits="userSpaceOnUse" x="112" y="53" width="45" height="45">
<path d="M156.716 75.1249C156.714 78.0035 156.138 80.8508 155.021 83.5031C153.904 86.1553 152.269 88.5599 150.208 90.5784C149.908 90.8743 149.598 91.1613 149.28 91.4394C148.75 91.9035 148.198 92.3423 147.623 92.7558C146.759 93.3763 145.895 93.9971 145.047 94.6379L141.107 97.3977L128.084 97.3167L124.156 94.508C123.31 93.8568 122.449 93.2252 121.588 92.5941C121.013 92.1741 120.463 91.7283 119.936 91.2567C119.619 90.9751 119.312 90.6847 119.012 90.3856C116.961 88.3417 115.336 85.9172 114.231 83.2517C113.126 80.5862 112.562 77.7323 112.572 74.8545C112.595 62.7715 122.479 53.0378 134.654 53.0946C146.818 53.1517 156.74 63.0585 156.716 75.1249Z" fill="#F2F2FA"/>
</mask>
<g mask="url(#mask1_311_2261)">
<path d="M108.202 83.2003C107.99 82.9141 107.878 82.6014 107.867 82.2623C107.86 81.9205 107.948 81.5823 108.133 81.2476C108.32 80.9163 108.592 80.619 108.947 80.3557C109.302 80.0923 109.663 79.9204 110.031 79.84C110.405 79.7605 110.753 79.7752 111.074 79.8843C111.399 79.9908 111.668 80.1872 111.88 80.4734C112.09 80.7561 112.198 81.0684 112.206 81.4101C112.217 81.7493 112.129 82.0846 111.941 82.4158C111.76 82.7479 111.492 83.0457 111.137 83.3091C110.782 83.5724 110.417 83.7439 110.043 83.8234C109.672 83.9064 109.324 83.8946 108.999 83.7881C108.68 83.6825 108.415 83.4865 108.202 83.2003ZM108.575 82.9242C108.728 83.1311 108.927 83.2695 109.171 83.3396C109.419 83.407 109.687 83.4038 109.974 83.3298C110.264 83.2532 110.551 83.1101 110.834 82.9004C111.117 82.6908 111.335 82.4593 111.489 82.206C111.647 81.9501 111.728 81.6952 111.732 81.441C111.736 81.1869 111.661 80.9564 111.507 80.7495C111.354 80.5426 111.155 80.4042 110.911 80.3342C110.667 80.2642 110.398 80.2657 110.105 80.3388C109.817 80.4128 109.533 80.5546 109.25 80.7643C108.967 80.9739 108.747 81.2067 108.589 81.4626C108.438 81.7193 108.358 81.976 108.351 82.2327C108.347 82.4868 108.421 82.7173 108.575 82.9242Z" fill="#005271"/>
<path d="M112.302 86.7434C112.662 86.936 112.968 87.057 113.222 87.1064C113.481 87.1583 113.715 87.1441 113.923 87.0638C114.084 87.002 114.208 86.9079 114.298 86.7815C114.391 86.6535 114.444 86.511 114.457 86.3542C114.47 86.1973 114.448 86.0447 114.391 85.8965C114.303 85.6682 114.168 85.4856 113.987 85.3486C113.807 85.2156 113.585 85.1124 113.322 85.0389L113.465 84.6042C114.137 84.7729 114.589 85.1556 114.819 85.7524C114.911 85.9927 114.946 86.2323 114.923 86.4712C114.9 86.7101 114.819 86.9231 114.68 87.1103C114.542 87.3015 114.353 87.4434 114.112 87.5361C113.836 87.6427 113.544 87.6677 113.237 87.6113C112.936 87.5573 112.568 87.414 112.133 87.1813L110.779 86.4613L111.587 88.5581L111.143 88.7295L110.045 85.8817L110.435 85.7311L112.302 86.7434Z" fill="#005271"/>
<path d="M113.467 91.4231C113.767 91.6991 114.034 91.8925 114.267 92.0034C114.506 92.118 114.736 92.1623 114.957 92.1363C115.128 92.1163 115.272 92.0561 115.39 91.9558C115.512 91.855 115.599 91.7303 115.651 91.5816C115.702 91.4329 115.719 91.2796 115.7 91.1219C115.672 90.8789 115.587 90.6684 115.445 90.4906C115.303 90.317 115.114 90.162 114.878 90.0255L115.124 89.64C115.734 89.9704 116.076 90.4532 116.15 91.0885C116.18 91.3443 116.155 91.5851 116.073 91.8107C115.992 92.0364 115.86 92.2226 115.678 92.3693C115.497 92.5202 115.279 92.6107 115.023 92.6408C114.729 92.6753 114.44 92.6271 114.157 92.4961C113.878 92.3689 113.557 92.1386 113.194 91.8053L112.061 90.7713L112.323 93.0032L111.85 93.0588L111.494 90.0275L111.909 89.9787L113.467 91.4231Z" fill="#005271"/>
</g>
<circle cx="93.862" cy="93.8491" r="3.29446" transform="rotate(180 93.862 93.8491)" fill="#E5E5E5"/>
<path d="M85.6376 64.9043L86.1374 64.0096C86.1485 63.9868 86.168 63.9696 86.1874 63.9582L87.0565 63.4437C87.1482 63.3893 87.1482 63.2521 87.0565 63.195L86.1902 62.6776C86.168 62.6662 86.1513 62.6462 86.1402 62.6262L85.6376 61.7343C85.5848 61.64 85.4516 61.64 85.396 61.7343L84.8962 62.629C84.8851 62.6519 84.8657 62.669 84.8462 62.6805L83.9771 63.195C83.8855 63.2493 83.8855 63.3865 83.9771 63.4437L84.8462 63.9582C84.8684 63.9696 84.8851 63.9896 84.8962 64.0096L85.396 64.9043C85.4516 64.9986 85.5848 64.9986 85.6376 64.9043Z" fill="#FFC53D"/>
<path d="M66.8501 107.82L67.6881 106.44C67.7067 106.405 67.7393 106.378 67.7718 106.361L69.2289 105.567C69.3825 105.483 69.3825 105.271 69.2289 105.183L67.7765 104.385C67.7393 104.367 67.7113 104.336 67.6927 104.305L66.8501 102.929C66.7617 102.784 66.5382 102.784 66.4451 102.929L65.6072 104.31C65.5886 104.345 65.556 104.372 65.5234 104.389L64.0664 105.183C63.9127 105.267 63.9127 105.479 64.0664 105.567L65.5234 106.361C65.5606 106.378 65.5886 106.409 65.6072 106.44L66.4451 107.82C66.5382 107.966 66.7617 107.966 66.8501 107.82Z" fill="#FFC53D"/>
<path d="M109.79 72.9421L110.348 71.9968C110.361 71.9729 110.381 71.9556 110.406 71.9403L111.376 71.3971C111.479 71.3384 111.479 71.195 111.376 71.1363L110.408 70.5887C110.385 70.5757 110.365 70.5561 110.352 70.5344L109.79 69.5913C109.729 69.4914 109.58 69.4914 109.522 69.5913L108.964 70.5366C108.95 70.5605 108.93 70.58 108.906 70.5931L107.935 71.1363C107.832 71.195 107.832 71.3406 107.935 71.3971L108.904 71.9403C108.928 71.9534 108.946 71.9729 108.962 71.9968L109.52 72.9421C109.58 73.0421 109.729 73.0421 109.79 72.9421Z" fill="#FFC53D"/>
</g>
<defs>
<linearGradient id="paint0_linear_311_2261" x1="130.357" y1="56.3222" x2="82.2407" y2="109.693" gradientUnits="userSpaceOnUse">
<stop stop-color="#B3EBE8"/>
<stop offset="0.921875" stop-color="#26E5EA"/>
</linearGradient>
<linearGradient id="paint1_linear_311_2261" x1="121.208" y1="76.2922" x2="134.766" y2="76.6436" gradientUnits="userSpaceOnUse">
<stop stop-color="#60DBC1"/>
<stop offset="1" stop-color="#2CD0EF"/>
</linearGradient>
<clipPath id="clip0_311_2261">
<rect width="187.335" height="187.185" fill="white" transform="translate(0.179932 0.259277)"/>
</clipPath>
</defs>
</svg>
