<svg width="188" height="188" viewBox="0 0 188 188" fill="none" xmlns="http://www.w3.org/2000/svg">
<g clip-path="url(#clip0_311_2173)">
<circle cx="93.96" cy="93.8519" r="93.5927" fill="#1E1E1E"/>
<circle cx="93.9545" cy="93.8518" r="88.1269" stroke="#454545" stroke-width="0.748741"/>
<circle cx="93.9559" cy="93.8518" r="79.8158" stroke="#454545" stroke-width="0.748741"/>
<circle cx="93.957" cy="93.8519" r="53.1606" stroke="#454545" stroke-width="0.748741"/>
<circle cx="93.9536" cy="93.852" r="62.5948" stroke="#454545" stroke-width="0.748741"/>
<circle cx="93.9483" cy="93.852" r="71.355" stroke="#454545" stroke-width="0.748741"/>
<circle cx="93.9506" cy="93.8519" r="44.3255" fill="#123041"/>
<mask id="mask0_311_2173" style="mask-type:alpha" maskUnits="userSpaceOnUse" x="49" y="49" width="90" height="90">
<circle cx="93.9194" cy="93.7838" r="44.3256" fill="white"/>
</mask>
<g mask="url(#mask0_311_2173)">
<rect opacity="0.05" width="7.45295" height="102.344" transform="matrix(0.612594 0.790398 0.790461 -0.612512 32.2032 106.208)" fill="white"/>
<rect opacity="0.05" width="3.83545" height="102.344" transform="matrix(0.612594 0.790398 0.790461 -0.612512 28.4454 101.944)" fill="white"/>
</g>
<path d="M72.0895 89.2131L72.1662 88.7168L76.5381 89.3917L76.4615 89.8881L74.4696 89.5806L74.0717 92.1579L76.0636 92.4654L75.987 92.9618L71.615 92.2869L71.6917 91.7905L73.6008 92.0852L73.9987 89.5079L72.0895 89.2131Z" fill="#88D8DD"/>
<path d="M74.4839 85.2085C74.665 84.8052 74.9177 84.5516 75.2419 84.4478C75.564 84.3384 75.915 84.3689 76.2949 84.5395L78.1452 85.3705L77.9473 85.811L77.4715 85.5973C77.5964 85.7805 77.6629 85.9939 77.6711 86.2375C77.6771 86.4755 77.6327 86.7003 77.5377 86.9117C77.3917 87.2368 77.184 87.4635 76.9146 87.5919C76.6452 87.7203 76.3636 87.7186 76.0699 87.5867C75.8741 87.4987 75.7236 87.3676 75.6184 87.1933C75.511 87.0133 75.4566 86.8148 75.4553 86.5977C75.4518 86.375 75.4984 86.1559 75.5951 85.9405C75.7323 85.6351 75.9368 85.3316 76.2086 85.0302L76.097 84.9801C75.8503 84.8693 75.6146 84.8387 75.39 84.8884C75.1614 84.9363 74.9803 85.1091 74.8466 85.4067C74.785 85.5438 74.7472 85.6962 74.733 85.8639C74.7167 86.026 74.7138 86.2106 74.7243 86.4177L74.2869 86.433C74.267 85.9535 74.3326 85.5453 74.4839 85.2085ZM77.1843 86.6613C77.2828 86.442 77.3203 86.2118 77.2968 85.9706C77.2712 85.7238 77.1708 85.5282 76.9957 85.3837L76.5317 85.1753C76.3158 85.436 76.1375 85.7229 75.9968 86.0362C75.8931 86.2673 75.863 86.4914 75.9066 86.7086C75.952 86.9219 76.0647 87.0691 76.2449 87.15C76.4289 87.2326 76.6074 87.2281 76.7804 87.1363C76.9512 87.0389 77.0858 86.8806 77.1843 86.6613Z" fill="#88D8DD"/>
<path d="M79.7992 83.0374C79.6158 83.2808 79.3805 83.4609 79.0935 83.5778C78.8064 83.6947 78.5088 83.7365 78.2007 83.7031C77.8917 83.6637 77.6138 83.551 77.367 83.365C77.1202 83.1789 76.937 82.9441 76.8175 82.6605C76.7006 82.3734 76.6588 82.0758 76.6922 81.7677C76.7256 81.4595 76.834 81.1838 77.0175 80.9404C77.1519 80.7622 77.3141 80.6183 77.5041 80.5089C77.6967 80.396 77.9025 80.3227 78.1215 80.2889L78.1822 80.7539C78.019 80.7707 77.8661 80.8167 77.7233 80.8919C77.5806 80.9671 77.4602 81.0698 77.362 81.2001C77.2302 81.3749 77.1555 81.5739 77.1377 81.7971C77.1192 82.0143 77.1569 82.2282 77.2508 82.4387C77.3473 82.6459 77.4881 82.8192 77.6732 82.9588C77.8617 83.1009 78.0689 83.1898 78.2946 83.2256C78.5195 83.2553 78.7354 83.2327 78.9425 83.1576C79.1522 83.0791 79.3229 82.9525 79.4547 82.7777C79.5529 82.6474 79.6198 82.5016 79.6554 82.3403C79.6876 82.1764 79.6871 82.0094 79.6541 81.8393L80.1179 81.7696C80.1491 81.9921 80.1374 82.2144 80.0827 82.4366C80.0307 82.6555 79.9362 82.8557 79.7992 83.0374Z" fill="#88D8DD"/>
<path d="M78.3545 77.7416L78.7235 77.4299L80.668 79.7321L80.8718 77.1494L81.3441 76.7505L81.1826 78.8845L83.4283 79.3478L82.9659 79.7383L81.1338 79.3556L81.0586 80.1946L81.6278 80.8685L81.2589 81.1801L78.3545 77.7416Z" fill="#88D8DD"/>
<path d="M84.0831 73.8709C84.5028 73.6738 84.9159 73.5841 85.3226 73.6017C85.7332 73.6176 86.101 73.7341 86.4259 73.9514C86.7548 74.1669 87.0096 74.4669 87.1903 74.8516C87.3709 75.2363 87.4401 75.6259 87.3978 76.0204C87.3575 76.4093 87.2124 76.7668 86.9625 77.0928C86.7164 77.4171 86.3835 77.6778 85.9639 77.8749L84.6118 78.5101L82.731 74.5061L84.0831 73.8709ZM85.7695 77.4611C86.0998 77.306 86.3612 77.1002 86.5538 76.8437C86.7502 76.5855 86.8638 76.3021 86.8944 75.9937C86.9289 75.6834 86.874 75.3748 86.7298 75.0679C86.5856 74.7609 86.3841 74.5236 86.1251 74.356C85.8682 74.1826 85.5776 74.089 85.2534 74.0753C84.9331 74.0598 84.6078 74.1296 84.2775 74.2847L83.38 74.7063L84.872 77.8827L85.7695 77.4611Z" fill="#88D8DD"/>
<path d="M90.0707 72.9528C90.5055 72.8726 90.8578 72.9364 91.1274 73.1442C91.4006 73.3471 91.5749 73.6532 91.6504 74.0627L92.0183 76.0574L91.5433 76.145L91.4487 75.6321C91.369 75.8388 91.2312 76.0149 91.0354 76.1601C90.843 76.3003 90.6328 76.3915 90.4049 76.4335C90.0545 76.4981 89.7499 76.4561 89.4911 76.3074C89.2323 76.1587 89.0737 75.926 89.0153 75.6094C88.9764 75.3983 88.9988 75.1999 89.0824 75.0143C89.1694 74.8236 89.3019 74.6661 89.4797 74.5416C89.661 74.4121 89.8678 74.326 90.1 74.2832C90.4292 74.2224 90.7951 74.2182 91.1977 74.2706L91.1755 74.1503C91.1264 73.8843 91.0176 73.673 90.849 73.5164C90.6797 73.3556 90.4346 73.3048 90.1138 73.3639C89.966 73.3912 89.8191 73.4466 89.673 73.5303C89.5304 73.609 89.3769 73.7115 89.2125 73.8379L88.9513 73.4866C89.3345 73.1977 89.7076 73.0198 90.0707 72.9528ZM90.4101 76.0004C90.6465 75.9568 90.8572 75.8568 91.0423 75.7005C91.2308 75.5391 91.3348 75.3453 91.3541 75.1191L91.2619 74.6189C90.9247 74.5894 90.5872 74.6058 90.2495 74.6681C90.0004 74.714 89.7989 74.8167 89.645 74.976C89.4952 75.1346 89.4383 75.311 89.4741 75.5051C89.5107 75.7036 89.6159 75.8479 89.7897 75.938C89.9669 76.0232 90.1737 76.044 90.4101 76.0004Z" fill="#88D8DD"/>
<path d="M93.0491 72.6176L93.5895 72.6398L94.5827 75.4454L95.7835 72.7301L96.3239 72.7523L94.791 76.0211L94.3278 76.0021L93.0491 72.6176Z" fill="#88D8DD"/>
<path d="M97.9416 73.0332L98.4153 73.1271L97.7682 76.3926L97.2944 76.2987L97.9416 73.0332ZM98.2993 72.487C98.2108 72.4695 98.1413 72.4229 98.0907 72.3472C98.0442 72.2723 98.0293 72.1928 98.046 72.1086C98.0627 72.0244 98.1064 71.9586 98.177 71.9114C98.2527 71.8607 98.3348 71.8442 98.4232 71.8617C98.5074 71.8784 98.5727 71.9241 98.6192 71.999C98.6706 72.0705 98.688 72.1483 98.6714 72.2325C98.6547 72.3167 98.6085 72.3842 98.5328 72.4348C98.4613 72.4863 98.3835 72.5037 98.2993 72.487Z" fill="#88D8DD"/>
<path d="M99.8443 77.0462C99.621 76.9694 99.4076 76.8507 99.2042 76.6899C99.0048 76.5305 98.8375 76.3437 98.7024 76.1292L99.0551 75.876C99.3256 76.2641 99.6355 76.5182 99.9846 76.6383C100.192 76.7094 100.373 76.722 100.53 76.676C100.691 76.6314 100.797 76.5339 100.848 76.3838C100.885 76.2782 100.88 76.1791 100.835 76.0863C100.791 75.9895 100.723 75.9027 100.632 75.8258C100.544 75.7503 100.418 75.6547 100.254 75.5391C99.9056 75.2969 99.6748 75.0836 99.5612 74.8993C99.449 74.7109 99.4312 74.505 99.508 74.2818C99.6043 74.0017 99.7846 73.814 100.049 73.7188C100.315 73.6195 100.608 73.6249 100.928 73.7352C101.119 73.8008 101.301 73.8996 101.473 74.0316C101.647 74.1595 101.801 74.3076 101.933 74.4758L101.593 74.7536C101.349 74.4472 101.08 74.2437 100.788 74.1432C100.601 74.079 100.433 74.0665 100.283 74.1058C100.134 74.1452 100.034 74.2379 99.9835 74.384C99.9528 74.4733 99.9541 74.5555 99.9873 74.6304C100.021 74.7054 100.082 74.7834 100.172 74.8643C100.263 74.9453 100.409 75.0614 100.611 75.2126C100.811 75.3584 100.968 75.4875 101.084 75.6C101.2 75.7124 101.284 75.8435 101.337 75.9933C101.391 76.1391 101.386 76.3054 101.322 76.4921C101.224 76.7763 101.036 76.9679 100.756 77.0671C100.481 77.1677 100.177 77.1607 99.8443 77.0462Z" fill="#88D8DD"/>
<path d="M106.23 78.4168C106.637 78.3987 106.963 78.3462 107.206 78.2591C107.455 78.1712 107.649 78.0396 107.787 77.8642C107.893 77.7292 107.952 77.5846 107.965 77.4303C107.979 77.2727 107.952 77.123 107.884 76.9814C107.815 76.8399 107.718 76.72 107.593 76.6217C107.401 76.4704 107.192 76.3823 106.965 76.3573C106.743 76.3349 106.5 76.3593 106.236 76.4305L106.137 75.9838C106.801 75.7854 107.384 75.8839 107.887 76.2795C108.089 76.4387 108.242 76.6269 108.344 76.844C108.446 77.0611 108.485 77.2857 108.461 77.5179C108.44 77.7527 108.35 77.9713 108.191 78.1737C108.008 78.4065 107.77 78.577 107.477 78.6853C107.19 78.7929 106.801 78.8577 106.308 78.8797L104.776 78.9524L106.542 80.3421L106.247 80.7166L103.849 78.8291L104.107 78.5002L106.23 78.4168Z" fill="#88D8DD"/>
<path d="M108.327 83.2057C108.115 82.9195 108.003 82.6068 107.992 82.2676C107.985 81.9259 108.073 81.5876 108.258 81.253C108.445 80.9217 108.716 80.6244 109.072 80.361C109.427 80.0977 109.788 79.9258 110.156 79.8454C110.53 79.7658 110.878 79.7806 111.199 79.8897C111.524 79.9962 111.793 80.1926 112.005 80.4788C112.214 80.7615 112.323 81.0738 112.331 81.4155C112.342 81.7547 112.254 82.0899 112.066 82.4212C111.885 82.7533 111.617 83.0511 111.262 83.3144C110.906 83.5778 110.542 83.7492 110.168 83.8288C109.797 83.9117 109.449 83.9 109.124 83.7935C108.805 83.6878 108.539 83.4919 108.327 83.2057ZM108.7 82.9296C108.853 83.1365 109.052 83.2749 109.296 83.3449C109.544 83.4124 109.811 83.4091 110.099 83.3351C110.389 83.2586 110.676 83.1155 110.959 82.9058C111.241 82.6961 111.46 82.4647 111.614 82.2114C111.772 81.9555 111.853 81.7005 111.857 81.4464C111.86 81.1923 111.786 80.9618 111.632 80.7549C111.479 80.548 111.28 80.4096 111.036 80.3395C110.791 80.2695 110.523 80.2711 110.23 80.3442C109.942 80.4182 109.657 80.56 109.375 80.7697C109.092 80.9793 108.872 81.2121 108.714 81.4679C108.562 81.7247 108.483 81.9814 108.475 82.2381C108.471 82.4922 108.546 82.7227 108.7 82.9296Z" fill="#88D8DD"/>
<path d="M112.419 86.7485C112.779 86.9411 113.086 87.0622 113.339 87.1116C113.598 87.1634 113.832 87.1492 114.04 87.0689C114.201 87.0071 114.325 86.913 114.415 86.7866C114.508 86.6586 114.561 86.5162 114.574 86.3593C114.587 86.2024 114.565 86.0499 114.508 85.9017C114.42 85.6734 114.285 85.4907 114.104 85.3537C113.924 85.2207 113.702 85.1175 113.439 85.0441L113.582 84.6094C114.254 84.778 114.706 85.1607 114.936 85.7575C115.028 85.9978 115.063 86.2374 115.04 86.4763C115.018 86.7152 114.936 86.9282 114.797 87.1154C114.659 87.3066 114.47 87.4486 114.23 87.5412C113.953 87.6478 113.661 87.6728 113.354 87.6164C113.053 87.5624 112.685 87.4191 112.25 87.1865L110.896 86.4664L111.704 88.5632L111.26 88.7346L110.162 85.8868L110.552 85.7363L112.419 86.7485Z" fill="#88D8DD"/>
<path d="M111.72 91.6215C111.679 91.2761 111.711 90.9569 111.815 90.6637C111.923 90.3744 112.081 90.1311 112.287 89.934L112.653 90.2411C112.475 90.4133 112.342 90.6126 112.257 90.8388C112.171 91.065 112.143 91.3081 112.174 91.5682C112.21 91.8751 112.316 92.1134 112.491 92.283C112.667 92.4525 112.88 92.5225 113.132 92.493C113.387 92.463 113.57 92.34 113.678 92.1241C113.787 91.9082 113.82 91.6233 113.779 91.2694L113.724 90.8026L114.185 90.7485L114.234 91.2225C114.265 91.5257 114.36 91.7652 114.519 91.941C114.682 92.1164 114.885 92.1898 115.128 92.1612C115.359 92.1342 115.537 92.0181 115.665 91.813C115.792 91.6121 115.84 91.3732 115.807 91.096C115.78 90.8658 115.703 90.6653 115.575 90.4945C115.446 90.3237 115.272 90.1669 115.053 90.0241L115.314 89.6563C115.876 89.9837 116.192 90.4543 116.264 91.0683C116.297 91.3454 116.275 91.5987 116.198 91.8282C116.126 92.0614 116.006 92.2506 115.837 92.3957C115.673 92.5447 115.476 92.6327 115.245 92.6597C114.981 92.6907 114.752 92.6355 114.558 92.494C114.365 92.3568 114.217 92.1688 114.116 91.9301C114.087 92.1971 113.993 92.4329 113.836 92.6372C113.679 92.8458 113.455 92.9672 113.165 93.0012C112.922 93.0298 112.697 92.9914 112.491 92.886C112.284 92.7806 112.111 92.6172 111.973 92.3957C111.839 92.178 111.755 91.9199 111.72 91.6215Z" fill="#88D8DD"/>
<mask id="mask1_311_2173" style="mask-type:alpha" maskUnits="userSpaceOnUse" x="52" y="52" width="84" height="84">
<circle cx="94.0141" cy="93.7732" r="41.2874" fill="#D9D9D9"/>
</mask>
<g mask="url(#mask1_311_2173)">
<path fill-rule="evenodd" clip-rule="evenodd" d="M78.6877 80.3105C81.8004 82.8551 84.8386 85.3388 87.9926 83.7928C90.8729 82.381 91.6974 79.5646 92.7292 76.0397C93.808 72.3543 95.1135 67.8945 99.2325 63.4558C105.808 56.37 115.835 59.8909 119.309 61.1317C132.479 71.3432 138.657 88.994 133.484 105.872C126.802 127.674 103.712 139.93 81.9101 133.248C64.377 127.875 53.0171 111.888 52.7167 94.4947C53.1172 94.4509 53.5313 94.4147 53.9539 94.3778C55.7693 94.2194 57.7406 94.0473 59.4515 93.1945C63.5501 91.1519 64.4727 86.9151 65.2843 83.1882C65.9354 80.1983 66.515 77.5365 68.6059 76.5992C72.185 74.9947 75.476 77.685 78.6877 80.3105Z" fill="#9EE7E5"/>
<path fill-rule="evenodd" clip-rule="evenodd" d="M78.6877 80.3105C81.8004 82.8551 84.8386 85.3388 87.9926 83.7928C90.8729 82.381 91.6974 79.5646 92.7292 76.0397C93.808 72.3543 95.1135 67.8945 99.2325 63.4558C105.808 56.37 115.835 59.8909 119.309 61.1317C132.479 71.3432 138.657 88.994 133.484 105.872C126.802 127.674 103.712 139.93 81.9101 133.248C64.377 127.875 53.0171 111.888 52.7167 94.4947C53.1172 94.4509 53.5313 94.4147 53.9539 94.3778C55.7693 94.2194 57.7406 94.0473 59.4515 93.1945C63.5501 91.1519 64.4727 86.9151 65.2843 83.1882C65.9354 80.1983 66.515 77.5365 68.6059 76.5992C72.185 74.9947 75.476 77.685 78.6877 80.3105Z" fill="#88D8DD"/>
</g>
<rect x="58.0939" y="109.979" width="78.3862" height="5.42991" rx="2.71496" transform="rotate(-28.2729 58.0939 109.979)" fill="white"/>
<circle cx="93.8693" cy="93.8375" r="5.66596" transform="rotate(-28.2729 93.8693 93.8375)" fill="#005271"/>
<circle cx="93.9273" cy="93.8112" r="3.82835" transform="rotate(-28.2729 93.9273 93.8112)" fill="white"/>
<circle cx="93.9555" cy="93.852" r="3.29446" transform="rotate(180 93.9555 93.852)" fill="#E5E5E5"/>
</g>
<defs>
<clipPath id="clip0_311_2173">
<rect width="187.335" height="187.185" fill="white" transform="translate(0.21106 0.259277)"/>
</clipPath>
</defs>
</svg>
