<svg width="411" height="309" viewBox="0 0 411 309" fill="none" xmlns="http://www.w3.org/2000/svg">
<g clip-path="url(#clip0_1_1115)">
<path d="M149.186 20.6067C163.315 28.9687 158.95 33.1376 155.3 39.3063C151.649 45.475 149.809 51.1379 135.966 42.9455C128.938 38.7867 126.201 30.4146 129.851 24.2459C133.502 18.0772 142.158 16.4479 149.186 20.6067Z" fill="white"/>
<path d="M169.9 22.0359C169.9 29.8243 167.183 29.8704 163.832 29.8704C160.481 29.8704 157.765 29.8243 157.765 22.0359C157.765 14.2474 161.484 7.93365 163.832 7.93365C166.181 7.93365 169.9 14.2474 169.9 22.0359Z" fill="#FFC145"/>
<path d="M243.177 22.0359C243.177 29.8243 240.461 29.8704 237.11 29.8704C233.759 29.8704 231.042 29.8243 231.042 22.0359C231.042 14.2474 234.761 7.93365 237.11 7.93365C239.459 7.93365 243.177 14.2474 243.177 22.0359Z" fill="#FFC145"/>
<path d="M253.086 20.6067C238.956 28.9687 243.321 33.1376 246.972 39.3063C250.623 45.475 252.463 51.1379 266.306 42.9455C273.334 38.7867 276.071 30.4146 272.42 24.2459C268.77 18.0772 260.113 16.4479 253.086 20.6067Z" fill="black"/>
<path d="M256.571 27.735C249.529 31.9027 251.352 33.3855 252.737 35.726C254.122 38.0665 254.688 40.2938 261.587 36.2107C265.09 34.1379 266.806 30.5602 265.421 28.2197C264.036 25.8792 260.074 25.6622 256.571 27.735Z" fill="#FFCACA"/>
<path d="M145.279 27.735C152.321 31.9027 150.498 33.3855 149.113 35.726C147.728 38.0665 147.162 40.2938 140.263 36.2107C136.76 34.1379 135.044 30.5602 136.429 28.2197C137.814 25.8792 141.776 25.6622 145.279 27.735Z" fill="#FFCACA"/>
<path d="M257.91 111.856C247.314 117.621 228.563 110.346 220.512 105.988C220.033 105.071 219.237 102.685 219.883 100.48C220.69 97.7236 249.101 92.5234 255.834 92.5112C262.566 92.499 271.155 104.65 257.91 111.856Z" fill="#EFEFEF"/>
<path d="M227.811 165.439C231.158 164.071 234.418 145.833 233.757 136.754L201.603 141.886C200.943 149.255 200.898 164.281 202.484 165.439C204.466 166.887 223.626 167.15 227.811 165.439Z" fill="#EFEFEF"/>
<path d="M230.324 145.239C240.331 138.584 226.803 97.0721 217.029 91.8435C207.254 86.6149 191.356 87.407 184.375 91.8435C177.393 96.2799 160.139 138.426 170.147 145.239C180.154 152.052 220.317 151.893 230.324 145.239Z" fill="white"/>
<path fill-rule="evenodd" clip-rule="evenodd" d="M203.578 150.244C203.656 147.788 203.576 142.776 201.867 139.787C199.132 135.003 190.199 131.853 190.199 131.853C186.62 131.308 178.903 128.726 176.663 122.751C175.71 120.209 173.511 118.506 170.97 117.395C166.977 129.418 165.103 141.808 170.143 145.239C175.592 148.949 189.983 150.591 203.578 150.244Z" fill="black"/>
<path d="M173.129 165.439C169.781 164.071 166.522 145.833 167.183 136.754L199.337 141.886C199.997 149.255 200.041 164.281 198.456 165.439C196.474 166.887 177.313 167.15 173.129 165.439Z" fill="black"/>
<path d="M153.099 125.185C152.892 113.124 168.018 99.8679 175.607 94.7476C176.642 94.7476 179.126 95.1459 180.781 96.7388C182.851 98.7301 174.314 126.323 171.209 132.296C168.104 138.27 153.358 140.261 153.099 125.185Z" fill="white"/>
<path d="M226.837 130.181C226.837 142.632 216.18 145.622 203.033 145.622C189.887 145.622 179.23 142.632 179.23 130.181C179.23 113.814 189.887 104.549 203.033 104.549C216.18 104.549 226.837 113.814 226.837 130.181Z" fill="#FFD2D2"/>
<path d="M202.834 141.422C202.93 141.422 203.025 141.404 203.114 141.368C203.203 141.332 203.283 141.279 203.351 141.212L206.594 137.95C206.713 137.812 206.775 137.633 206.768 137.451C206.761 137.269 206.685 137.096 206.555 136.967C206.426 136.838 206.252 136.762 206.068 136.755C205.885 136.748 205.706 136.81 205.566 136.929L202.317 140.153C202.249 140.221 202.194 140.301 202.157 140.389C202.12 140.478 202.101 140.572 202.101 140.668C202.101 140.764 202.12 140.858 202.157 140.947C202.194 141.035 202.249 141.115 202.317 141.183C202.382 141.255 202.462 141.314 202.551 141.355C202.64 141.396 202.736 141.419 202.834 141.422Z" fill="#FF8D8D"/>
<path d="M206.042 141.422C206.137 141.422 206.231 141.404 206.319 141.368C206.407 141.332 206.487 141.279 206.555 141.212C206.623 141.145 206.676 141.065 206.713 140.977C206.75 140.889 206.769 140.794 206.769 140.699C206.769 140.603 206.75 140.509 206.713 140.421C206.676 140.333 206.623 140.253 206.555 140.185L203.338 136.968C203.271 136.9 203.191 136.847 203.103 136.81C203.015 136.773 202.92 136.754 202.825 136.754C202.729 136.754 202.635 136.773 202.547 136.81C202.459 136.847 202.379 136.9 202.312 136.968C202.177 137.104 202.101 137.287 202.101 137.478C202.101 137.669 202.177 137.852 202.312 137.988L205.536 141.212C205.67 141.346 205.852 141.421 206.042 141.422Z" fill="#FF8D8D"/>
<path d="M259.512 68.8448C259.512 93.2043 232.8 101.282 200.335 101.282C167.869 101.282 140.96 93.2043 140.96 68.8448C140.96 27.3092 167.869 13.0684 200.335 13.0684C232.8 13.0684 259.512 25.3313 259.512 68.8448Z" fill="white"/>
<path fill-rule="evenodd" clip-rule="evenodd" d="M204.461 13.1369C204.734 20.9093 206.357 31.1029 211.45 35.2255C215.929 38.851 221.097 39.7743 225.716 40.5993C229.663 41.3045 233.208 41.9378 235.578 44.1251C236.837 45.2873 237.954 46.9 239.163 48.6469C242.808 53.9098 247.295 60.39 259.056 59.434C255.577 25.1935 232.6 14.0904 204.461 13.1369Z" fill="black"/>
<path d="M181.101 81.7722C181.101 72.1831 188.874 64.4095 198.463 64.4095H207.145C216.734 64.4095 224.507 72.1831 224.507 81.7722C224.507 88.165 219.325 93.3474 212.932 93.3474H192.676C186.283 93.3474 181.101 88.165 181.101 81.7722Z" fill="#FFCACA"/>
<path d="M193.702 77.478V82.6121" stroke="black" stroke-width="4.66739" stroke-linecap="round"/>
<path d="M212.37 77.478L212.37 82.6121" stroke="black" stroke-width="4.66739" stroke-linecap="round"/>
<path d="M157.765 82.6127H164.766" stroke="#FFD2D2" stroke-width="9.33479" stroke-linecap="round"/>
<path d="M241.312 82.6127H248.313" stroke="#FFD2D2" stroke-width="9.33479" stroke-linecap="round"/>
<path d="M176.366 72.4959C176.366 72.4959 175.013 70.9434 171.967 70.9434C168.922 70.9434 167.569 72.4959 167.569 72.4959" stroke="black" stroke-width="5.51775" stroke-linecap="round"/>
<path d="M238.905 72.4959C238.905 72.4959 237.552 70.9434 234.507 70.9434C231.461 70.9434 230.108 72.4959 230.108 72.4959" stroke="black" stroke-width="5.51775" stroke-linecap="round"/>
</g>
<g clip-path="url(#clip1_1_1115)">
<path d="M254.233 57.1677C254.652 55.3956 256.428 54.2989 258.2 54.7181L277.452 59.2723C279.224 59.6915 280.321 61.4678 279.901 63.2399L276.106 79.2828C274.43 86.371 267.324 90.7578 260.236 89.081C253.148 87.4042 248.761 80.2988 250.438 73.2106L254.233 57.1677Z" fill="#E6AD25"/>
<path d="M265.167 86.8592L256.504 84.8098C256.504 84.8098 257.483 87.8757 257.241 89.6524C256.923 91.996 254.075 95.0773 254.075 95.0773L262.738 97.1266C262.738 97.1266 261.572 93.0959 262.337 90.858C262.917 89.1613 265.167 86.8592 265.167 86.8592Z" fill="#E6AD25"/>
<path d="M249.407 99.055C250.246 95.5109 253.798 93.3175 257.343 94.1559L260.551 94.9149C264.095 95.7533 266.289 99.306 265.45 102.85L265.147 104.134C264.937 105.02 264.049 105.568 263.163 105.358L250.329 102.322C249.443 102.113 248.894 101.224 249.104 100.338L249.407 99.055Z" fill="#E6AD25"/>
<path fill-rule="evenodd" clip-rule="evenodd" d="M282.561 64.8848C279.017 64.0464 275.465 66.2398 274.626 69.7839L272.349 79.4096C271.93 81.1817 273.027 82.9581 274.799 83.3773C280.115 84.6348 285.444 81.3447 286.701 76.0286L287.46 72.82C288.299 69.2759 286.105 65.7232 282.561 64.8848ZM281.195 70.6597C279.778 70.3243 278.357 71.2017 278.021 72.6193L277.11 76.4696C276.943 77.1785 277.381 77.889 278.09 78.0567C280.217 78.5597 282.348 77.2437 282.851 75.1172L283.155 73.8338C283.49 72.4161 282.613 70.9951 281.195 70.6597Z" fill="#E6AD25"/>
<path fill-rule="evenodd" clip-rule="evenodd" d="M251.118 57.4474C254.662 58.2858 256.855 61.8386 256.017 65.3827L253.74 75.0084C253.32 76.7804 251.544 77.8772 249.772 77.458C244.456 76.2004 241.166 70.8713 242.423 65.5551L243.182 62.3466C244.021 58.8025 247.574 56.6091 251.118 57.4474ZM249.753 63.2233C251.171 63.5586 252.048 64.9797 251.713 66.3974L250.802 70.2477C250.634 70.9565 249.924 71.3952 249.215 71.2275C247.088 70.7244 245.772 68.5928 246.275 66.4663L246.579 65.1829C246.914 63.7653 248.335 62.8879 249.753 63.2233Z" fill="#E6AD25"/>
<path d="M246.856 99.808C246.939 99.4536 247.295 99.2343 247.649 99.3181L266.901 103.872C267.255 103.956 267.474 104.311 267.391 104.666L264.734 115.896L244.199 111.038L246.856 99.808Z" fill="black"/>
<rect x="248.89" y="102.66" width="15.8263" height="6.26456" rx="0.659427" transform="rotate(13.3093 248.89 102.66)" fill="#E6AD25"/>
<path d="M243.406 111.526C243.49 111.172 243.846 110.953 244.2 111.036L264.735 115.894C265.089 115.978 265.309 116.333 265.225 116.688L264.997 117.65L243.179 112.489L243.406 111.526Z" fill="black"/>
<path d="M242.063 112.904C242.147 112.549 242.502 112.33 242.856 112.414L265.316 117.727C265.671 117.811 265.89 118.166 265.806 118.52L265.578 119.483L241.835 113.866L242.063 112.904Z" fill="black"/>
<rect x="240.875" y="113.639" width="26.3771" height="1.64857" rx="0.659427" transform="rotate(13.3093 240.875 113.639)" fill="black"/>
</g>
<path d="M140.763 179.309C140.763 172.353 146.402 166.714 153.358 166.714H247.821C254.777 166.714 260.416 172.353 260.416 179.309V308.409H140.763V179.309Z" fill="#E6AD25"/>
<path d="M200.322 223.286L193.634 227.536L190.743 222.549L201.682 215.124H207.35V254.062H200.322V223.286Z" fill="#A66E1C"/>
<path d="M5.364 210.797C5.364 203.841 11.003 198.202 17.9591 198.202H112.422C119.378 198.202 125.017 203.841 125.017 210.797V308.408H5.364V210.797Z" fill="#B2B7BB"/>
<path d="M64.8639 252.575C67.2821 250.648 69.0014 248.891 70.0216 247.304C71.0418 245.717 71.5519 244.111 71.5519 242.486C71.5519 240.71 70.8906 239.275 69.5681 238.179C68.2834 237.083 66.7343 236.535 64.9206 236.535C62.9935 236.535 61.2365 237.008 59.6495 237.952C58.1003 238.859 56.57 240.219 55.0586 242.033L50.4677 237.782C54.3218 232.719 59.215 230.187 65.1473 230.187C67.7167 230.187 70.0216 230.697 72.062 231.718C74.1402 232.738 75.7649 234.174 76.9363 236.025C78.1454 237.877 78.7499 239.974 78.7499 242.316C78.7499 244.924 78.0509 247.361 76.6529 249.628C75.2926 251.857 72.9688 254.238 69.6815 256.769L61.5199 263.344H79.1467V269.805H50.5244V264.024L64.8639 252.575Z" fill="#78848E"/>
<path d="M276.156 242.285C276.156 235.329 281.795 229.69 288.751 229.69H383.214C390.17 229.69 395.809 235.329 395.809 242.285V308.409H276.156V242.285Z" fill="#D69E84"/>
<path d="M335.882 286.23C332.595 286.23 329.648 285.644 327.04 284.473C324.471 283.263 322.355 281.658 320.693 279.655L325 275.007C326.36 276.557 327.947 277.766 329.761 278.635C331.575 279.504 333.521 279.938 335.599 279.938C337.941 279.938 339.774 279.428 341.097 278.408C342.457 277.35 343.137 275.952 343.137 274.214C343.137 272.476 342.419 271.172 340.983 270.303C339.585 269.396 337.507 268.943 334.749 268.943L330.384 269V262.878H334.749C337.091 262.916 338.943 262.482 340.303 261.575C341.663 260.63 342.343 259.327 342.343 257.664C342.343 256.077 341.663 254.792 340.303 253.81C338.981 252.79 337.261 252.28 335.145 252.28C333.294 252.28 331.594 252.695 330.044 253.527C328.495 254.358 327.022 255.548 325.624 257.097L321.429 252.79C325.057 248.218 329.818 245.932 335.712 245.932C338.433 245.932 340.832 246.385 342.91 247.292C345.026 248.199 346.651 249.465 347.785 251.089C348.956 252.676 349.542 254.49 349.542 256.53C349.542 258.798 348.861 260.706 347.501 262.255C346.141 263.804 344.365 264.9 342.173 265.542C344.478 266.071 346.424 267.129 348.011 268.716C349.598 270.303 350.392 272.325 350.392 274.781C350.392 277.01 349.787 278.994 348.578 280.732C347.369 282.432 345.669 283.774 343.477 284.756C341.285 285.738 338.754 286.23 335.882 286.23Z" fill="#936651"/>
<g clip-path="url(#clip2_1_1115)">
<ellipse cx="24.1506" cy="65.7018" rx="18.6564" ry="20.1046" transform="rotate(-28.6896 24.1506 65.7018)" fill="#49B236"/>
<ellipse cx="18.6564" cy="20.1046" rx="18.6564" ry="20.1046" transform="matrix(-0.877234 -0.480064 -0.480064 0.877234 131.227 56.5021)" fill="#49B236"/>
<path d="M118.208 144.643C107.265 149.721 89.0166 141.265 81.2601 136.402C80.8406 135.456 80.1981 133.024 80.9833 130.865C81.9649 128.166 110.65 124.788 117.369 125.205C124.088 125.622 131.885 138.297 118.208 144.643Z" fill="#4B9B3A"/>
<path d="M91.5149 197.028C94.8624 195.66 98.1219 177.422 97.4612 168.343L65.3074 173.475C64.6467 180.843 64.6027 195.87 66.1883 197.028C68.1704 198.475 87.3305 198.739 91.5149 197.028Z" fill="#4B9B3A"/>
<path d="M94.028 176.827C104.035 170.173 90.5075 128.661 80.733 123.432C70.9585 118.203 55.0606 118.996 48.0787 123.432C41.0968 127.868 23.8435 170.014 33.8507 176.827C43.858 183.64 84.0207 183.482 94.028 176.827Z" fill="#49B236"/>
<path d="M36.8371 197.028C33.4896 195.66 30.2302 177.422 30.8909 168.343L63.0447 173.475C63.7053 180.843 63.7494 195.87 62.1637 197.028C60.1816 198.475 41.0215 198.739 36.8371 197.028Z" fill="#49B236"/>
<path d="M16.807 156.773C16.6001 144.712 31.7263 131.456 39.3152 126.336C40.3501 126.336 42.8338 126.734 44.4896 128.327C46.5593 130.319 38.0217 157.911 34.9171 163.885C31.8125 169.859 17.0657 171.85 16.807 156.773Z" fill="#49B236"/>
<path d="M89.6155 160.597C89.6155 174.745 78.9582 178.143 65.8118 178.143C52.6653 178.143 42.0081 174.745 42.0081 160.597C42.0081 141.997 52.6653 131.469 65.8118 131.469C78.9582 131.469 89.6155 141.997 89.6155 160.597Z" fill="#9CD43D"/>
<path d="M66.5423 170.675C66.6381 170.676 66.7332 170.657 66.822 170.621C66.9107 170.585 66.9915 170.532 67.0595 170.465L70.3017 167.204C70.421 167.065 70.4834 166.887 70.4763 166.705C70.4692 166.522 70.3932 166.349 70.2635 166.22C70.1337 166.091 69.9598 166.015 69.7764 166.008C69.5931 166.001 69.4138 166.063 69.2744 166.182L66.025 169.407C65.9567 169.474 65.9025 169.555 65.8655 169.643C65.8285 169.731 65.8095 169.826 65.8095 169.922C65.8095 170.017 65.8285 170.112 65.8655 170.2C65.9025 170.289 65.9567 170.369 66.025 170.436C66.0906 170.509 66.1702 170.567 66.2591 170.608C66.348 170.649 66.4443 170.672 66.5423 170.675Z" fill="#49B236"/>
<path d="M69.7498 170.675C69.8449 170.676 69.9392 170.658 70.0273 170.622C70.1154 170.586 70.1955 170.533 70.263 170.466C70.3308 170.398 70.3846 170.318 70.4213 170.23C70.458 170.142 70.4769 170.048 70.4769 169.952C70.4769 169.857 70.458 169.762 70.4213 169.674C70.3846 169.586 70.3308 169.506 70.263 169.439L67.0462 166.222C66.979 166.154 66.899 166.1 66.8109 166.063C66.7229 166.027 66.6284 166.008 66.5329 166.008C66.4375 166.008 66.343 166.027 66.2549 166.063C66.1669 166.1 66.0869 166.154 66.0197 166.222C65.8851 166.357 65.8095 166.54 65.8095 166.731C65.8095 166.922 65.8851 167.106 66.0197 167.241L69.2438 170.466C69.3784 170.599 69.5601 170.674 69.7498 170.675Z" fill="#49B236"/>
<path d="M125.087 97.9892C125.087 122.606 97.9544 130.77 64.9774 130.77C32.0004 130.77 4.66821 122.606 4.66821 97.9892C4.66821 62.6258 32.0004 47.4568 64.9774 47.4568C97.9544 47.4568 125.087 59.8254 125.087 97.9892Z" fill="#49B236"/>
<path d="M27.5354 65.66V73.1278" stroke="black" stroke-width="7.00109" stroke-linecap="round"/>
<path d="M106.883 65.1927V72.6606" stroke="black" stroke-width="7.00109" stroke-linecap="round"/>
<path d="M17.2659 89.4626H25.2004" stroke="#9CD43D" stroke-width="9.33479" stroke-linecap="round"/>
<path d="M103.617 89.4626H111.552" stroke="#9CD43D" stroke-width="9.33479" stroke-linecap="round"/>
<path d="M76.0777 82.0211C76.0777 76.4132 76.0777 73.5939 65.5761 73.5939C55.0745 73.5939 55.0745 75.9122 55.0745 82.0211C55.0745 92.0301 59.7762 97.8643 65.5761 97.8643C71.376 97.8643 76.0777 91.33 76.0777 82.0211Z" fill="#FFD2D2"/>
<path fill-rule="evenodd" clip-rule="evenodd" d="M55.0955 83.0568C55.4086 92.4319 59.983 97.8652 65.58 97.8652C69.6429 97.8652 73.1669 94.6587 74.9133 89.5381C72.882 87.1644 69.8758 85.1059 66.2457 83.8333C62.2875 82.4455 58.3252 82.2508 55.0955 83.0568Z" fill="#FF2D2D"/>
</g>
<g clip-path="url(#clip3_1_1115)">
<path d="M115.316 93.057C115.673 91.504 117.221 90.5339 118.774 90.8903L135.645 94.7613C137.198 95.1176 138.168 96.6654 137.812 98.2184L134.586 112.278C133.161 118.49 126.969 122.37 120.758 120.945C114.546 119.52 110.665 113.328 112.091 107.117L115.316 93.057Z" fill="#B2B7BB"/>
<path d="M125.058 118.97L117.466 117.228C117.466 117.228 118.341 119.905 118.14 121.461C117.875 123.513 115.401 126.226 115.401 126.226L122.993 127.968C122.993 127.968 121.949 124.448 122.606 122.486C123.103 120.998 125.058 118.97 125.058 118.97Z" fill="#B2B7BB"/>
<path d="M111.339 129.736C112.052 126.63 115.147 124.69 118.253 125.402L121.065 126.048C124.171 126.76 126.111 129.856 125.399 132.962L125.141 134.087C124.963 134.863 124.189 135.348 123.412 135.17L112.164 132.589C111.388 132.411 110.903 131.637 111.081 130.861L111.339 129.736Z" fill="#B2B7BB"/>
<path fill-rule="evenodd" clip-rule="evenodd" d="M140.148 99.6427C137.042 98.9301 133.946 100.87 133.234 103.976L131.298 112.412C130.942 113.965 131.912 115.513 133.465 115.869C138.124 116.938 142.767 114.028 143.836 109.369L144.481 106.557C145.194 103.451 143.254 100.355 140.148 99.6427ZM138.989 104.704C137.746 104.419 136.508 105.195 136.223 106.437L135.449 109.811C135.306 110.433 135.694 111.052 136.315 111.194C138.179 111.622 140.036 110.458 140.464 108.594L140.722 107.469C141.007 106.227 140.231 104.989 138.989 104.704Z" fill="#B2B7BB"/>
<path fill-rule="evenodd" clip-rule="evenodd" d="M112.592 93.3202C115.698 94.0328 117.638 97.1284 116.925 100.234L114.99 108.67C114.633 110.223 113.086 111.193 111.533 110.837C106.874 109.768 103.963 105.124 105.032 100.466L105.678 97.6536C106.39 94.5477 109.486 92.6075 112.592 93.3202ZM111.431 98.3821C112.673 98.6671 113.449 99.9054 113.164 101.148L112.39 104.522C112.248 105.143 111.628 105.531 111.007 105.389C109.144 104.961 107.98 103.104 108.407 101.24L108.665 100.115C108.95 98.8731 110.188 98.097 111.431 98.3821Z" fill="#B2B7BB"/>
<path d="M109.11 130.409C109.181 130.099 109.491 129.905 109.801 129.976L126.673 133.847C126.983 133.918 127.177 134.228 127.106 134.538L124.848 144.38L106.852 140.251L109.11 130.409Z" fill="black"/>
<rect x="110.915" y="132.894" width="13.8479" height="5.48146" rx="0.576996" transform="rotate(12.9224 110.915 132.894)" fill="#B2B7BB"/>
<path d="M106.164 140.684C106.236 140.373 106.545 140.179 106.856 140.251L124.852 144.38C125.163 144.451 125.357 144.761 125.285 145.071L125.092 145.915L105.971 141.528L106.164 140.684Z" fill="black"/>
<path d="M105.001 141.896C105.072 141.585 105.381 141.391 105.692 141.463L125.375 145.979C125.686 146.05 125.88 146.36 125.809 146.67L125.615 147.514L104.807 142.74L105.001 141.896Z" fill="black"/>
<rect x="103.962" y="142.547" width="23.0798" height="1.44249" rx="0.576996" transform="rotate(12.9224 103.962 142.547)" fill="black"/>
</g>
<g clip-path="url(#clip4_1_1115)">
<path d="M289.49 178.888C300.614 183.553 318.535 174.422 326.104 169.273C326.488 168.312 327.039 165.858 326.174 163.729C325.092 161.069 296.301 158.764 289.602 159.432C282.903 160.1 275.585 173.057 289.49 178.888Z" fill="#EFD565"/>
<path d="M314.183 229.903C310.835 228.534 307.576 210.297 308.236 201.218L340.39 206.35C341.051 213.718 341.095 228.745 339.509 229.903C337.527 231.35 318.367 231.613 314.183 229.903Z" fill="#EFD565"/>
<path d="M311.67 209.703C301.662 203.049 315.19 161.536 324.965 156.308C334.739 151.079 350.637 151.871 357.619 156.308C364.601 160.744 381.854 202.89 371.847 209.703C361.84 216.516 321.677 216.358 311.67 209.703Z" fill="#FFE36C"/>
<path d="M368.864 229.903C372.212 228.534 375.471 210.297 374.811 201.218L342.657 206.35C341.996 213.718 341.952 228.745 343.538 229.903C345.52 231.35 364.68 231.613 368.864 229.903Z" fill="#FFE36C"/>
<path d="M388.898 189.649C389.105 177.588 373.979 164.332 366.39 159.212C365.355 159.212 362.872 159.61 361.216 161.203C359.146 163.194 367.684 190.787 370.788 196.761C373.893 202.734 388.64 204.726 388.898 189.649Z" fill="#FFE36C"/>
<path d="M335.425 203.552C335.329 203.553 335.234 203.534 335.145 203.498C335.056 203.462 334.976 203.409 334.908 203.342L331.666 200.081C331.546 199.942 331.484 199.764 331.491 199.581C331.498 199.399 331.574 199.226 331.704 199.097C331.834 198.968 332.007 198.892 332.191 198.885C332.374 198.878 332.553 198.94 332.693 199.059L335.942 202.284C336.011 202.351 336.065 202.431 336.102 202.52C336.139 202.608 336.158 202.703 336.158 202.798C336.158 202.894 336.139 202.989 336.102 203.077C336.065 203.165 336.011 203.245 335.942 203.313C335.877 203.385 335.797 203.444 335.708 203.485C335.619 203.526 335.523 203.549 335.425 203.552Z" fill="#FFBB4D"/>
<path d="M332.217 203.552C332.122 203.553 332.028 203.534 331.94 203.498C331.852 203.462 331.772 203.409 331.704 203.342C331.636 203.275 331.583 203.195 331.546 203.107C331.509 203.019 331.49 202.924 331.49 202.829C331.49 202.734 331.509 202.639 331.546 202.551C331.583 202.463 331.636 202.383 331.704 202.316L334.921 199.098C334.988 199.031 335.068 198.977 335.156 198.94C335.244 198.903 335.339 198.885 335.434 198.885C335.53 198.885 335.624 198.903 335.712 198.94C335.8 198.977 335.88 199.031 335.948 199.098C336.082 199.234 336.158 199.417 336.158 199.608C336.158 199.799 336.082 199.982 335.948 200.118L332.723 203.342C332.589 203.476 332.407 203.551 332.217 203.552Z" fill="#FFBB4D"/>
<path d="M283.153 131.442C283.153 155.802 309.865 163.88 342.331 163.88C374.797 163.88 401.705 155.802 401.705 131.442C401.705 89.9067 374.797 75.6659 342.331 75.6659C309.865 75.6659 283.153 87.9288 283.153 131.442Z" fill="#FFE36C"/>
<path d="M380.701 143.342H373.7" stroke="#FFA052" stroke-width="9.33479" stroke-linecap="round"/>
<path d="M303.221 143.342H296.22" stroke="#FFA052" stroke-width="9.33479" stroke-linecap="round"/>
<path d="M326.562 137.276C326.562 141.529 331.89 143.344 338.464 143.344C345.037 143.344 350.365 141.529 350.365 137.276C350.365 133.023 345.037 127.941 338.464 127.941C331.89 127.941 326.562 133.023 326.562 137.276Z" fill="#FFBB4D"/>
<path d="M333.682 59.4332C340.763 65.7119 344.83 72.7534 346.034 79.1622L333.573 77.8336C328.443 77.2865 323.528 71.2388 323.755 63.8982C323.982 56.5576 330.082 56.2404 333.682 59.4332Z" fill="#FFE36C"/>
<path d="M346.685 69.3502C344.48 71.5027 343.923 76.1936 343.92 78.2699C348.19 77.8752 355.356 76.5624 356.641 73.8277C357.926 71.0931 357.125 67.6933 355.56 66.8829C353.996 66.0725 349.44 66.6596 346.685 69.3502Z" fill="#FFE36C"/>
<path d="M314.643 135.031C314.643 135.031 313.289 133.479 310.244 133.479C307.198 133.479 305.845 135.031 305.845 135.031" stroke="black" stroke-width="5.51775" stroke-linecap="round"/>
<path d="M371.006 135.031C371.006 135.031 369.652 133.479 366.607 133.479C363.562 133.479 362.208 135.031 362.208 135.031" stroke="black" stroke-width="5.51775" stroke-linecap="round"/>
</g>
<g clip-path="url(#clip5_1_1115)">
<path d="M272.465 135.272C272.223 133.928 273.116 132.643 274.46 132.401L289.063 129.772C290.407 129.53 291.692 130.424 291.934 131.768L294.125 143.937C295.092 149.313 291.518 154.456 286.142 155.424C280.766 156.391 275.623 152.818 274.655 147.441L272.465 135.272Z" fill="#D69E84"/>
<path d="M288.867 152.42L282.296 153.603C282.296 153.603 283.887 155.419 284.252 156.713C284.734 158.42 283.698 161.391 283.698 161.391L290.269 160.208C290.269 160.208 288.261 157.785 288.118 156.017C288.009 154.677 288.867 152.42 288.867 152.42Z" fill="#D69E84"/>
<path d="M281.679 165.524C281.196 162.836 282.983 160.264 285.671 159.78L288.105 159.342C290.793 158.858 293.364 160.645 293.848 163.334L294.023 164.307C294.144 164.979 293.698 165.622 293.026 165.743L283.291 167.495C282.619 167.616 281.976 167.17 281.855 166.497L281.679 165.524Z" fill="#D69E84"/>
<path fill-rule="evenodd" clip-rule="evenodd" d="M294.257 132.103C291.569 132.587 289.782 135.159 290.266 137.847L291.58 145.148C291.822 146.492 293.108 147.386 294.452 147.144C298.484 146.418 301.164 142.561 300.439 138.528L300.001 136.095C299.517 133.406 296.945 131.619 294.257 132.103ZM295.044 136.485C293.968 136.679 293.253 137.707 293.447 138.783L293.973 141.703C294.069 142.241 294.584 142.598 295.121 142.501C296.734 142.211 297.807 140.668 297.516 139.055L297.341 138.082C297.147 137.006 296.119 136.292 295.044 136.485Z" fill="#D69E84"/>
<path fill-rule="evenodd" clip-rule="evenodd" d="M270.405 136.397C273.093 135.914 275.665 137.701 276.148 140.389L277.463 147.69C277.705 149.034 276.811 150.32 275.467 150.562C271.435 151.288 267.577 148.607 266.852 144.575L266.414 142.141C265.93 139.453 267.717 136.881 270.405 136.397ZM271.193 140.779C272.268 140.585 273.296 141.3 273.49 142.375L274.016 145.296C274.112 145.833 273.755 146.348 273.217 146.444C271.604 146.735 270.062 145.662 269.771 144.05L269.596 143.076C269.402 142.001 270.117 140.972 271.193 140.779Z" fill="#D69E84"/>
<path d="M280.149 166.804C280.101 166.535 280.279 166.278 280.548 166.229L295.151 163.601C295.419 163.553 295.677 163.731 295.725 164L297.258 172.518L281.682 175.322L280.149 166.804Z" fill="black"/>
<rect x="282.405" y="168.156" width="11.8697" height="4.6984" rx="0.494569" transform="rotate(-10.2037 282.405 168.156)" fill="#D69E84"/>
<path d="M281.286 175.895C281.237 175.627 281.416 175.369 281.685 175.321L297.261 172.517C297.53 172.469 297.787 172.648 297.835 172.917L297.967 173.647L281.417 176.625L281.286 175.895Z" fill="black"/>
<path d="M280.774 177.245C280.726 176.977 280.904 176.719 281.173 176.671L298.209 173.605C298.478 173.556 298.735 173.735 298.784 174.004L298.915 174.734L280.905 177.976L280.774 177.245Z" fill="black"/>
<rect x="280.175" y="178.106" width="19.7827" height="1.23642" rx="0.494569" transform="rotate(-10.2037 280.175 178.106)" fill="black"/>
</g>
<defs>
<clipPath id="clip0_1_1115">
<rect width="147.023" height="166.626" fill="white" transform="translate(127.425)"/>
</clipPath>
<clipPath id="clip1_1_1115">
<rect width="47.2315" height="67.0687" fill="white" transform="translate(245.515 48.8051) rotate(13.3093)"/>
</clipPath>
<clipPath id="clip2_1_1115">
<rect width="131.154" height="162.892" fill="white" transform="translate(0.000244141 35.3219)"/>
</clipPath>
<clipPath id="clip3_1_1115">
<rect width="46.2868" height="62.6604" fill="white" transform="translate(106.27 83.4982) rotate(12.9224)"/>
</clipPath>
<clipPath id="clip4_1_1115">
<rect width="141.889" height="181.095" fill="white" transform="translate(268.947 48.7353)"/>
</clipPath>
<clipPath id="clip5_1_1115">
<rect width="41.2488" height="51.6397" fill="white" transform="translate(261.112 132.243) rotate(-10.2037)"/>
</clipPath>
</defs>
</svg>
