<svg width="448" height="423" viewBox="0 0 448 423" fill="none" xmlns="http://www.w3.org/2000/svg">
<path d="M61.4985 283.5V372C-146.674 372 223.588 422.5 458.497 422.5L449.498 87.5H444.998V77H440.498H437.998V58L422.498 34.5V1C422.498 1 422.498 0 421.498 0C420.498 0 420.498 1 420.498 1V34.5L403.998 58V77H397.498V87.5H392.498V209.5L364.998 224.5V246.5H330.998V61.5H295.998V116.5L268.998 145.5V199L240.998 227L239.998 297.5H208.498V272.5L160.998 262V246.5H132.998V210.5H103.498V283.5H61.4985Z" fill="#29B8D0"/>
</svg>
