<svg width="398" height="220" viewBox="0 0 398 220" fill="none" xmlns="http://www.w3.org/2000/svg">
<path fill-rule="evenodd" clip-rule="evenodd" d="M85.5 0C80.2533 0 76 4.25329 76 9.5V11.5C76 12.3104 76.0026 13.1327 76.0053 13.9589L76.0053 13.9638C76.0106 15.6152 76.016 17.2825 76.0005 18.9021C76.0002 18.9347 76 18.9673 76 19V19.1867C76 20.2271 75.0405 21 74 21H72C66.4771 21 62 25.4772 62 31V37C62 42.5228 66.4771 47 72 47H74C75.4009 47 76.7346 46.7119 77.9449 46.1918L89.8619 58.1087L88.3583 64.9731L81.9385 61.2666C80.7428 60.5762 79.2138 60.9859 78.5234 62.1817C77.8331 63.3774 78.2428 64.9064 79.4385 65.5967L87.2356 70.0984L84.4093 83.001H78.4689C73.6521 83.001 68.9971 84.7394 65.3594 87.8966L23.0926 124.581C19.7889 127.448 15.6362 129.154 11.2708 129.435L-15.865 131.186C-29.6145 132.073 -38.37 146.272 -32.9889 158.955L-20.5155 188.357C-17.7218 194.942 -11.6238 199.534 -4.52303 200.399L80.5808 210.769C86.1198 211.444 91.3532 209.796 95.3684 206.633C98.3381 204.294 102.127 202.751 105.675 201.306L105.675 201.306C105.984 201.18 106.29 201.055 106.594 200.931C108.918 199.979 110.956 198.278 112.309 195.934C114.218 192.628 113.085 188.399 109.779 186.49L108 185.463C104.906 183.677 103 180.376 103 176.803V163.802C103 160.967 103.603 158.164 104.768 155.58L131.136 97.1121C134.121 90.4939 129.28 83.001 122.02 83.001H100V62.451L105.244 57.2068C106.22 56.2305 106.22 54.6476 105.244 53.6713C104.268 52.695 102.685 52.695 101.709 53.6713L100 55.3799V52V49H102.6C108.344 49 113 44.3438 113 38.6C113 37.8997 113.473 37 114.173 37H118.5C122.642 37 126 33.6421 126 29.5C126 25.3579 122.642 22 118.5 22H114C112.343 22 111 20.6569 111 19C111 13.4772 106.523 9 101 9C97.6299 9 94.989 6.09281 92.8539 3.48538C91.1117 1.35779 88.4644 0 85.5 0ZM91.1325 52.3083L91.6771 49.8219L87.9524 42H86C84.6163 42 83.2145 42.4509 82.0641 43.2399L91.1325 52.3083ZM217.582 113.501C225.699 113.501 233.01 108.596 236.088 101.085L250.229 66.5829C253.639 58.2624 262.182 53.2407 271.111 54.309L347.95 63.5027C355.095 64.3575 360.473 70.4175 360.473 77.6129C360.473 83.3065 363.871 88.4505 369.108 90.6844L385.322 97.6002C394.573 101.546 399.455 111.749 396.723 121.429L384.952 163.14C384.296 165.461 384.801 167.954 385.307 170.451C385.691 172.348 386.076 174.248 385.953 176.076C385.94 176.26 385.921 176.445 385.893 176.63C385.074 182.173 380.51 186.236 375.147 186.634L375.064 186.641C374.589 186.676 374.113 186.711 373.643 186.787L353.94 189.975C350.218 190.578 347.088 187.187 347.985 183.525C348.398 181.838 347.855 180.095 347.124 178.518C346.384 176.924 346.086 175.103 346.362 173.234C346.599 171.63 347.231 170.183 348.144 168.975C348.644 168.314 349.185 167.668 349.728 167.02L349.729 167.018C351.347 165.087 352.978 163.139 353.565 160.74L361.878 126.798C363.192 121.433 359.908 116.02 354.544 114.706L347.594 113.004C342.699 111.805 337.734 114.698 336.364 119.547C333.811 128.582 324.417 133.837 315.382 131.284L314.849 131.133C309.401 129.594 303.763 132.879 302.417 138.377L295.326 167.33C295.186 167.901 295.568 168.469 296.15 168.555C300.769 169.237 303.96 173.535 303.277 178.155C302.545 183.109 299.367 187.096 295.149 189.074C292.105 190.501 289.121 192.663 288.322 195.928C287.6 198.873 285.187 201.101 282.194 201.586L174.125 219.074C158.41 221.617 146.167 205.673 152.681 191.148L182.201 125.318C185.425 118.128 192.571 113.501 200.45 113.501H217.582Z" fill="#29B8D0"/>
</svg>
