<svg width="255" height="279" viewBox="0 0 255 279" fill="none" xmlns="http://www.w3.org/2000/svg">
<g clip-path="url(#clip0_409_182)">
<path d="M38.3843 36.4518C62.8078 50.9057 55.2627 58.1117 48.9525 68.7744C42.6423 79.4371 39.4609 89.2255 15.533 75.0649C3.38607 67.8763 -1.3455 53.405 4.96471 42.7423C11.2749 32.0796 26.2374 29.2633 38.3843 36.4518Z" fill="white"/>
<path d="M74.1947 38.9232C74.1947 52.3857 69.4991 52.4654 63.7067 52.4654C57.9144 52.4654 53.2188 52.3857 53.2188 38.9232C53.2188 25.4608 59.6469 14.5474 63.7067 14.5474C67.7666 14.5474 74.1947 25.4608 74.1947 38.9232Z" fill="#6A5B3D"/>
<path d="M200.859 38.9232C200.859 52.3857 196.163 52.4654 190.371 52.4654C184.578 52.4654 179.883 52.3857 179.883 38.9232C179.883 25.4608 186.311 14.5474 190.371 14.5474C194.431 14.5474 200.859 25.4608 200.859 38.9232Z" fill="#6A5B3D"/>
<path d="M217.991 36.4518C193.567 50.9057 201.112 58.1117 207.422 68.7744C213.733 79.4371 216.914 89.2255 240.842 75.0649C252.989 67.8763 257.721 53.405 251.41 42.7423C245.1 32.0796 230.138 29.2633 217.991 36.4518Z" fill="#123041"/>
<path d="M224.008 48.7735C211.836 55.9774 214.987 58.5404 217.382 62.586C219.776 66.6316 220.753 70.4816 232.679 63.4239C238.733 59.841 241.7 53.6569 239.306 49.6113C236.911 45.5657 230.063 45.1906 224.008 48.7735Z" fill="#FFC0C1"/>
<path d="M31.6399 48.7735C43.8129 55.9774 40.6611 58.5404 38.2669 62.586C35.8727 66.6316 34.8957 70.4816 22.9698 63.4239C16.9157 59.841 13.9487 53.6569 16.3429 49.6113C18.7371 45.5657 25.5858 45.1906 31.6399 48.7735Z" fill="#FFC0C1"/>
<path d="M221.257 198.618C201.821 206.17 171.275 189.57 158.432 180.326C157.812 178.648 156.972 174.382 158.565 170.744C160.556 166.196 210.41 163.534 221.955 164.995C233.499 166.456 245.551 189.179 221.257 198.618Z" fill="#E7EAEE"/>
<path d="M200.093 263.56C196.076 265.935 151.335 265.696 142.296 259.742C131.297 252.498 127.269 242.755 129.92 234.34C135.61 216.275 148.414 216.643 162.532 217.853C176.65 219.064 216.852 221.088 219.812 228.745C223.244 237.619 210.535 257.385 200.093 263.56Z" fill="#E7EAEE"/>
<path d="M178.644 251.882C195.941 240.379 172.558 168.625 155.663 159.587C138.768 150.549 111.288 151.918 99.2196 159.587C87.1513 167.255 57.3286 240.105 74.6263 251.882C91.924 263.658 161.346 263.384 178.644 251.882Z" fill="white"/>
<path fill-rule="evenodd" clip-rule="evenodd" d="M132.405 260.533C132.54 256.287 132.4 247.626 129.447 242.46C124.72 234.191 109.278 228.745 109.278 228.745C103.093 227.804 89.7541 223.34 85.8816 213.013C84.2328 208.616 80.4291 205.672 76.0335 203.751C69.1306 224.534 65.8922 245.951 74.6028 251.882C84.0233 258.295 108.904 261.135 132.405 260.533Z" fill="#123041"/>
<path d="M172.611 225.854C172.611 247.375 154.189 252.544 131.465 252.544C108.742 252.544 90.3203 247.375 90.3203 225.854C90.3203 197.562 108.742 181.548 131.465 181.548C154.189 181.548 172.611 197.562 172.611 225.854Z" fill="#FFC0C1"/>
<path d="M131.121 245.283C131.287 245.284 131.451 245.252 131.604 245.19C131.758 245.128 131.897 245.036 132.015 244.92L137.619 239.283C137.825 239.043 137.933 238.735 137.921 238.42C137.909 238.104 137.777 237.805 137.553 237.582C137.329 237.359 137.028 237.228 136.711 237.216C136.394 237.204 136.084 237.311 135.843 237.517L130.227 243.091C130.109 243.207 130.015 243.346 129.951 243.498C129.887 243.651 129.854 243.815 129.854 243.98C129.854 244.146 129.887 244.309 129.951 244.462C130.015 244.615 130.109 244.753 130.227 244.87C130.34 244.995 130.478 245.096 130.631 245.167C130.785 245.238 130.952 245.277 131.121 245.283Z" fill="#FF8D8D"/>
<path d="M136.665 245.283C136.83 245.284 136.993 245.252 137.145 245.19C137.297 245.128 137.436 245.036 137.552 244.921C137.669 244.804 137.762 244.666 137.826 244.514C137.889 244.362 137.922 244.198 137.922 244.033C137.922 243.868 137.889 243.705 137.826 243.553C137.762 243.4 137.669 243.262 137.552 243.146L131.992 237.585C131.876 237.468 131.738 237.375 131.585 237.311C131.433 237.248 131.27 237.215 131.105 237.215C130.94 237.215 130.776 237.248 130.624 237.311C130.472 237.375 130.334 237.468 130.218 237.585C129.985 237.819 129.854 238.136 129.854 238.466C129.854 238.796 129.985 239.113 130.218 239.347L135.79 244.921C136.023 245.151 136.337 245.282 136.665 245.283Z" fill="#FF8D8D"/>
<path d="M141.195 265.98C137.178 268.355 92.4362 268.116 83.3971 262.162C72.3987 254.918 68.3703 245.175 71.0211 236.76C76.7119 218.695 89.5151 219.063 103.633 220.273C117.752 221.484 157.953 223.507 160.914 231.165C164.345 240.039 151.636 259.805 141.195 265.98Z" fill="#123041"/>
<path d="M45.1677 217.217C44.8099 196.369 70.9558 173.456 84.0735 164.605C85.8623 164.605 90.1554 165.294 93.0174 168.047C96.595 171.489 81.8376 219.183 76.4713 229.509C71.105 239.834 45.6149 243.276 45.1677 217.217Z" fill="white"/>
<path d="M229.098 119.831C229.098 161.937 182.927 175.9 126.809 175.9C70.6915 175.9 24.1797 161.937 24.1797 119.831C24.1797 48.0363 70.6915 23.4209 126.809 23.4209C182.927 23.4209 229.098 44.6175 229.098 119.831Z" fill="white"/>
<path fill-rule="evenodd" clip-rule="evenodd" d="M133.943 23.5402C134.414 36.9751 137.22 54.5962 146.023 61.7225C153.765 67.9893 162.699 69.5852 170.682 71.0113C177.505 72.2302 183.633 73.325 187.729 77.1057C189.905 79.1146 191.836 81.9022 193.927 84.9216C200.227 94.0197 207.984 105.222 228.318 103.567C222.304 44.3777 182.585 25.1866 133.943 23.5402Z" fill="#123041"/>
<path d="M84.9609 122.6C84.9609 122.6 82.7673 126.165 77.8317 126.165C72.8961 126.165 70.7025 122.6 70.7025 122.6" stroke="#123041" stroke-width="12.3575" stroke-linecap="round"/>
<path d="M193.086 122.6C193.086 122.6 190.892 126.165 185.957 126.165C181.021 126.165 178.827 122.6 178.827 122.6" stroke="#123041" stroke-width="12.3575" stroke-linecap="round"/>
<path d="M93.5623 142.178C93.5623 125.603 106.999 112.166 123.574 112.166H138.58C155.155 112.166 168.592 125.603 168.592 142.178C168.592 153.228 159.634 162.186 148.584 162.186H113.57C102.52 162.186 93.5623 153.228 93.5623 142.178Z" fill="#FFC0C1"/>
<path d="M115.344 134.755V143.63" stroke="#123041" stroke-width="8.06767" stroke-linecap="round"/>
<path d="M147.602 134.755L147.602 143.63" stroke="#123041" stroke-width="8.06767" stroke-linecap="round"/>
<path d="M53.2188 143.63H65.3203" stroke="#FFC0C1" stroke-width="16.1353" stroke-linecap="round"/>
<path d="M197.625 143.63H209.727" stroke="#FFC0C1" stroke-width="16.1353" stroke-linecap="round"/>
</g>
<defs>
<clipPath id="clip0_409_182">
<rect width="254.132" height="277.528" fill="white" transform="translate(0.78125 0.832031)"/>
</clipPath>
</defs>
</svg>
