<svg width="336" height="306" viewBox="0 0 336 306" fill="none" xmlns="http://www.w3.org/2000/svg">
<path d="M88.438 288.048C92.4549 290.423 137.197 290.184 146.236 284.23C157.234 276.986 161.262 267.242 158.612 258.828C152.921 240.763 140.118 241.131 125.999 242.341C111.881 243.551 71.6795 245.575 68.7189 253.233C65.2876 262.107 77.9963 281.873 88.438 288.048Z" fill="#FFC532"/>
<path d="M109.895 276.369C92.5977 264.867 115.981 193.112 132.876 184.075C149.771 175.037 177.251 176.406 189.319 184.075C201.388 191.743 231.21 264.593 213.913 276.369C196.615 288.146 127.193 287.872 109.895 276.369Z" fill="#FFDB40"/>
<path d="M157.41 265.737C157.245 265.738 157.08 265.706 156.927 265.644C156.773 265.582 156.634 265.49 156.516 265.374L150.912 259.737C150.706 259.497 150.598 259.189 150.61 258.874C150.623 258.558 150.754 258.259 150.978 258.036C151.203 257.813 151.503 257.683 151.82 257.67C152.137 257.658 152.447 257.765 152.688 257.971L158.305 263.545C158.423 263.661 158.516 263.8 158.58 263.953C158.644 264.105 158.677 264.269 158.677 264.434C158.677 264.6 158.644 264.763 158.58 264.916C158.516 265.069 158.423 265.207 158.305 265.324C158.191 265.449 158.053 265.55 157.9 265.621C157.746 265.692 157.58 265.732 157.41 265.737Z" fill="#F9A318"/>
<path d="M151.866 265.737C151.702 265.738 151.539 265.706 151.386 265.644C151.234 265.582 151.096 265.49 150.979 265.375C150.862 265.258 150.769 265.12 150.705 264.968C150.642 264.816 150.609 264.652 150.609 264.487C150.609 264.322 150.642 264.159 150.705 264.007C150.769 263.855 150.862 263.716 150.979 263.6L156.539 258.039C156.656 257.922 156.794 257.829 156.946 257.766C157.098 257.702 157.262 257.669 157.427 257.669C157.591 257.669 157.755 257.702 157.907 257.766C158.059 257.829 158.198 257.922 158.314 258.039C158.546 258.273 158.677 258.59 158.677 258.92C158.677 259.25 158.546 259.567 158.314 259.801L152.741 265.375C152.508 265.606 152.194 265.736 151.866 265.737Z" fill="#F9A318"/>
<path d="M147.336 290.468C151.353 292.843 196.095 292.604 205.134 286.65C216.133 279.405 220.161 269.662 217.51 261.248C211.819 243.183 199.016 243.551 184.898 244.761C170.779 245.971 130.578 247.995 127.617 255.653C124.186 264.527 136.895 284.293 147.336 290.468Z" fill="#FFC532"/>
<path d="M59.4562 141.093C59.4562 183.199 105.628 197.162 161.746 197.162C217.863 197.162 264.375 183.199 264.375 141.093C264.375 69.2981 217.863 44.6826 161.746 44.6826C105.628 44.6826 59.4562 65.8792 59.4562 141.093Z" fill="#FFDB40"/>
<path d="M228.055 161.664H215.953" stroke="#FCA18E" stroke-width="16.1353" stroke-linecap="round"/>
<path d="M94.1328 161.664H82.0313" stroke="#FCA18E" stroke-width="16.1353" stroke-linecap="round"/>
<path d="M203.852 132.62V145.528" stroke="#123041" stroke-width="12.1015" stroke-linecap="round"/>
<path d="M106.25 132.62V145.528" stroke="#123041" stroke-width="12.1015" stroke-linecap="round"/>
<path d="M134.488 151.175C134.488 158.527 143.698 161.663 155.06 161.663C166.422 161.663 175.633 158.527 175.633 151.175C175.633 143.824 166.422 135.04 155.06 135.04C143.698 135.04 134.488 143.824 134.488 151.175Z" fill="#FFB132"/>
<path d="M177.035 16.6244C164.797 27.4771 157.766 39.6485 155.686 50.7263L177.223 48.4297C186.092 47.484 194.587 37.0305 194.195 24.3422C193.803 11.6538 183.259 11.1054 177.035 16.6244Z" fill="#FFDB40"/>
<path d="M154.545 33.7676C158.356 37.4882 159.319 45.5964 159.324 49.1854C151.943 48.5031 139.557 46.2338 137.336 41.507C135.114 36.7802 136.5 30.9034 139.204 29.5027C141.908 28.1019 149.782 29.1168 154.545 33.7676Z" fill="#FFDB40"/>
<path d="M88.0676 226.205H288.549L212.31 236.693H11.8281L88.0676 226.205Z" fill="#D9D9D9"/>
<path d="M88.0676 226.205H288.549L212.31 236.693H11.8281L88.0676 226.205Z" fill="#FF4447"/>
<path d="M95.744 226.205H278.073L218.373 233.869H46.5312L95.744 226.205Z" fill="#D9D9D9"/>
<path d="M95.744 226.205H278.073L218.373 233.869H46.5312L95.744 226.205Z" fill="white"/>
<path d="M288.146 236.693L212.31 247.181H11.8281V236.693H212.31L288.549 226.205L288.146 236.693Z" fill="#D9D9D9"/>
<path d="M288.146 236.693L212.31 247.181H11.8281V236.693H212.31L288.549 226.205L288.146 236.693Z" fill="#FF686B"/>
<path d="M66.7109 233.869L91.7207 229.029H96.9647V229.836L77.6023 233.869H74.3752H66.7109Z" fill="#123041"/>
<path d="M85.25 233.869L110.26 229.029H115.504V229.836L96.1414 233.869H92.9143H85.25Z" fill="#123041"/>
<path d="M118.328 233.869L143.338 229.029H148.582V229.836L129.219 233.869H125.992H118.328Z" fill="#123041"/>
<path d="M136.094 233.869L161.104 229.029H166.348V229.836L146.985 233.869H143.758H136.094Z" fill="#123041"/>
<path d="M153.031 233.869L178.041 229.029H183.285V229.836L163.923 233.869H160.696H153.031Z" fill="#123041"/>
<path d="M190.93 233.869L215.939 229.029H221.183V229.836L201.821 233.869H198.594H190.93Z" fill="#123041"/>
<path d="M208.695 233.869L233.705 229.029H238.949V229.836L219.587 233.869H216.36H208.695Z" fill="#123041"/>
<path d="M85.2706 221.364C82.6889 208.779 101.675 197.968 109.474 193.127C115.525 191.111 121.979 192.993 123.593 195.144C127.223 199.985 126.885 220.439 124.802 224.188C120.769 231.449 88.4976 237.096 85.2706 221.364Z" fill="#FFC532"/>
<path d="M214.513 201.347C213.335 196.87 206.576 192.949 198.181 194.155C189.785 196.166 158.672 210.565 158.672 219.887C158.672 228.777 176.596 232.004 189.504 228.777C202.412 225.55 216.53 209.011 214.513 201.347Z" fill="#FFC532"/>
</svg>
