<svg width="228" height="305" viewBox="0 0 228 305" fill="none" xmlns="http://www.w3.org/2000/svg">
<g clip-path="url(#clip0_409_148)">
<path d="M43.6724 256.966C47.6893 259.341 92.431 259.102 101.47 253.148C112.468 245.903 116.497 236.16 113.846 227.746C108.155 209.681 95.3521 210.049 81.2337 211.259C67.1153 212.469 26.9139 214.493 23.9532 222.151C20.522 231.025 33.2307 250.791 43.6724 256.966Z" fill="#5C9A15"/>
<ellipse cx="32.2479" cy="34.7512" rx="32.2479" ry="34.7512" transform="matrix(-0.877234 -0.480064 -0.480064 0.877234 230.891 38.2002)" fill="#5BB42B"/>
<ellipse cx="45.8077" cy="52.3057" rx="32.2479" ry="34.7512" transform="rotate(-28.6896 45.8077 52.3057)" fill="#5BB42B"/>
<path d="M65.1298 245.286C47.8321 233.784 71.215 162.029 88.1104 152.992C105.006 143.954 132.486 145.323 144.554 152.992C156.622 160.66 186.445 233.51 169.147 245.286C151.849 257.063 82.4275 256.789 65.1298 245.286Z" fill="#5BB42B"/>
<path d="M72.7645 217.232C72.7645 241.688 91.1858 247.562 113.91 247.562C136.633 247.562 155.055 241.688 155.055 217.232C155.055 185.083 136.633 166.885 113.91 166.885C91.1858 166.885 72.7645 185.083 72.7645 217.232Z" fill="#A1DC3C"/>
<path d="M112.629 234.654C112.463 234.655 112.299 234.623 112.146 234.561C111.992 234.498 111.853 234.406 111.735 234.29L106.131 228.653C105.925 228.414 105.817 228.106 105.829 227.79C105.841 227.475 105.973 227.176 106.197 226.953C106.421 226.73 106.722 226.599 107.039 226.587C107.356 226.575 107.666 226.682 107.907 226.887L113.523 232.461C113.641 232.578 113.735 232.716 113.799 232.869C113.863 233.022 113.896 233.185 113.896 233.351C113.896 233.516 113.863 233.68 113.799 233.833C113.735 233.985 113.641 234.124 113.523 234.24C113.41 234.365 113.272 234.467 113.119 234.538C112.965 234.609 112.798 234.648 112.629 234.654Z" fill="#6BB41D"/>
<path d="M107.085 234.654C106.92 234.655 106.757 234.623 106.605 234.561C106.453 234.499 106.314 234.407 106.198 234.291C106.081 234.175 105.988 234.037 105.924 233.885C105.861 233.732 105.828 233.569 105.828 233.404C105.828 233.239 105.861 233.076 105.924 232.923C105.988 232.771 106.081 232.633 106.198 232.517L111.758 226.956C111.874 226.838 112.012 226.745 112.165 226.682C112.317 226.619 112.48 226.586 112.645 226.586C112.81 226.586 112.974 226.619 113.126 226.682C113.278 226.745 113.416 226.838 113.532 226.956C113.765 227.19 113.896 227.506 113.896 227.837C113.896 228.167 113.765 228.484 113.532 228.718L107.96 234.291C107.727 234.522 107.413 234.652 107.085 234.654Z" fill="#6BB41D"/>
<path d="M11.4479 109.014C11.4479 151.566 58.347 165.676 115.348 165.676C172.35 165.676 219.594 151.566 219.594 109.014C219.594 47.8879 172.35 21.668 115.348 21.668C58.347 21.668 11.4479 43.0473 11.4479 109.014Z" fill="#5BB42B"/>
<path d="M180.071 53.1311V66.0394" stroke="#123041" stroke-width="12.1015" stroke-linecap="round"/>
<path d="M42.9062 52.3247V65.233" stroke="#123041" stroke-width="12.1015" stroke-linecap="round"/>
<path d="M197.812 94.2769H184.097" stroke="#A1DC3C" stroke-width="16.1353" stroke-linecap="round"/>
<path d="M48.5703 94.2769H34.8553" stroke="#A1DC3C" stroke-width="16.1353" stroke-linecap="round"/>
<path d="M96.1642 81.4131C96.1642 71.7198 96.1642 66.8465 114.316 66.8465C132.469 66.8465 132.469 70.8538 132.469 81.4131C132.469 98.7138 124.342 108.798 114.316 108.798C104.291 108.798 96.1642 97.5036 96.1642 81.4131Z" fill="#D52C2F"/>
<path fill-rule="evenodd" clip-rule="evenodd" d="M132.447 83.205C131.905 99.4087 123.998 108.799 114.324 108.799C107.3 108.799 101.207 103.254 98.1891 94.3986C101.7 90.2987 106.894 86.7435 113.165 84.545C120.01 82.1451 126.863 81.8094 132.447 83.205Z" fill="#FF686B"/>
<g clip-path="url(#clip1_409_148)">
<path d="M60.5216 213.117C63.5211 207.683 70.145 205.4 75.8557 207.831L81.5885 210.271C87.2992 212.702 90.2452 219.059 88.4083 224.987L75.4472 266.818C73.325 273.668 65.7461 277.18 59.1483 274.371L45.2123 268.439C38.6145 265.631 35.892 257.734 39.3574 251.456L60.5216 213.117Z" fill="#9C5D41"/>
<path d="M52.3887 175.375L121.435 204.766L113.108 224.329C104.992 243.396 82.9562 252.273 63.8895 244.157C44.8229 236.041 35.9455 214.005 44.0614 194.939L52.3887 175.375Z" fill="#9C5D41" stroke="#563628" stroke-width="3.12672"/>
<path d="M122.044 203.328C121.336 204.99 119.838 206.362 117.483 207.34C115.119 208.322 111.99 208.858 108.265 208.878C100.82 208.918 91.3025 206.893 81.5202 202.729C71.738 198.566 63.6806 193.109 58.5486 187.716C55.9806 185.017 54.1987 182.391 53.2673 180.006C52.3394 177.631 52.2898 175.6 52.9975 173.937C53.7052 172.275 55.2034 170.903 57.5586 169.925C59.9229 168.943 63.0512 168.407 66.7763 168.387C74.221 168.347 83.739 170.372 93.5213 174.535C103.304 178.699 111.361 184.156 116.493 189.549C119.061 192.248 120.843 194.874 121.774 197.259C122.702 199.634 122.752 201.665 122.044 203.328Z" fill="#DDDDDD" stroke="#563628" stroke-width="3.12672"/>
<path d="M83.9922 204.12L63.726 243.748" stroke="#563628" stroke-width="3.12672"/>
<path d="M79.3984 202.159L64.8861 244.236" stroke="#563628" stroke-width="3.12672"/>
<path d="M67.1484 195.585C63.794 205.995 56.904 227.63 56.1798 230.887C55.4556 234.145 54.8592 237.764 54.6515 239.167" stroke="#563628" stroke-width="3.12672"/>
<path d="M71.0391 197.396C65.7693 206.784 56.1823 226.83 54.9577 229.707C53.6922 232.68 53.0532 234.827 52.2914 235.971" stroke="#563628" stroke-width="3.12672"/>
<path d="M99.4453 207.979C94.2679 217.613 83.4515 237.576 81.6056 240.356C79.7596 243.137 77.5647 246.075 76.698 247.197" stroke="#563628" stroke-width="3.12672"/>
<path d="M95.4453 206.428C92.3321 216.734 84.5299 237.54 83.3053 240.417C82.0398 243.39 80.9353 245.339 80.639 246.681" stroke="#563628" stroke-width="3.12672"/>
<path d="M57.2656 186.284C55.6737 190.024 52.2938 197.964 51.51 199.805C50.5303 202.107 43.5988 221.584 44.3453 224.621" stroke="#563628" stroke-width="3.12672"/>
<path d="M112.25 207.991C110.658 211.731 107.278 219.671 106.494 221.512C105.515 223.814 96.2816 242.312 93.5758 243.879" stroke="#563628" stroke-width="3.12672"/>
<path d="M60.2336 188.905C58.109 193.098 54.9619 198.895 53.3272 201.937C52.1067 204.208 45.6861 216.695 42.5759 220.808" stroke="#563628" stroke-width="3.12672"/>
<path d="M108.298 207.672C106.748 212.11 104.752 218.396 103.693 221.684C102.902 224.138 98.3533 237.421 97.5447 242.514" stroke="#563628" stroke-width="3.12672"/>
</g>
<path d="M102.579 259.386C106.596 261.761 151.337 261.522 160.376 255.568C171.375 248.323 175.403 238.58 172.752 230.166C167.062 212.101 154.258 212.469 140.14 213.679C126.022 214.889 85.8202 216.913 82.8596 224.57C79.4283 233.445 92.137 253.211 102.579 259.386Z" fill="#5C9A15"/>
<path d="M66.9436 184.576C59.7775 177.373 61.3922 167.809 65.8296 160.103C66.7221 158.553 69.4608 155.176 73.2751 154.069C78.043 152.686 86.946 157.082 93.2166 166.885C99.4873 176.688 85.5988 203.325 66.9436 184.576Z" fill="#4B890D"/>
<path d="M102.825 198.755C123.155 203.385 150.557 184.922 161.912 173.901C164.736 170.271 164.736 165.595 160.77 162.019C157.084 158.694 108.428 162.462 97.2209 165.594C86.0136 168.727 77.4119 192.967 102.825 198.755Z" fill="#4F9A15"/>
</g>
<defs>
<clipPath id="clip0_409_148">
<rect width="226.702" height="303.344" fill="white" transform="matrix(-1 0 0 1 227.672 0.691406)"/>
</clipPath>
<clipPath id="clip1_409_148">
<rect width="78.1681" height="125.069" fill="white" transform="translate(58.1719 157.79) rotate(23.0575)"/>
</clipPath>
</defs>
</svg>
