<svg width="1073" height="659" viewBox="0 0 1073 659" fill="none" xmlns="http://www.w3.org/2000/svg">
<ellipse opacity="0.9" cx="383" cy="466" rx="120" ry="30" fill="#DFAF67"/>
<ellipse opacity="0.9" cx="697" cy="466" rx="120" ry="30" fill="#DFAF67"/>
<ellipse opacity="0.9" cx="233" cy="576" rx="120" ry="30" fill="#DFAF67"/>
<ellipse opacity="0.9" cx="848" cy="576" rx="120" ry="30" fill="#DFAF67"/>
<g clip-path="url(#clip0_476_112)">
<path d="M453.437 459.476C449.42 461.852 404.678 461.613 395.639 455.659C384.641 448.414 380.613 438.671 383.263 430.256C388.954 412.192 401.757 412.56 415.876 413.77C429.994 414.98 470.196 417.004 473.156 424.661C476.587 433.536 463.879 453.301 453.437 459.476Z" fill="#E7EAEE"/>
<path d="M459.275 375.288C440.587 369.28 429.78 362.348 414.233 365.293C412.962 366.552 410.396 370.063 410.301 374.033C410.182 378.996 444.463 396.051 455.98 397.714C468.668 399.547 477.683 381.205 459.275 375.288Z" fill="#E7EAEE"/>
<path d="M433.605 451.127C450.902 439.624 427.519 367.87 410.624 358.832C393.729 349.794 366.249 351.163 354.181 358.832C342.112 366.5 312.29 439.35 329.587 451.127C346.885 462.903 416.307 462.629 433.605 451.127Z" fill="white"/>
<path d="M425.978 426.713C425.978 448.234 407.556 453.403 384.833 453.403C362.109 453.403 343.688 448.234 343.688 426.713C343.688 398.421 362.109 382.407 384.833 382.407C407.556 382.407 425.978 398.421 425.978 426.713Z" fill="white"/>
<path d="M318.19 197.628C324.644 218.549 352.279 259.508 358.125 276.636H413.388C419.234 259.508 444.739 218.549 452.92 197.628C463.066 171.681 452.513 137.957 424.012 137.958C400.48 137.958 389.456 176.817 386.362 197.628C383.267 176.817 371.436 137.958 348.711 137.958C320.21 137.958 309.977 171.006 318.19 197.628Z" fill="white"/>
<path d="M485.684 316.658C485.684 358.764 439.512 372.727 383.395 372.727C327.277 372.727 280.766 358.764 280.766 316.658C280.766 244.863 327.277 220.248 383.395 220.248C439.512 220.248 485.684 241.444 485.684 316.658Z" fill="white"/>
<path d="M345.289 304.151V317.059" stroke="#123041" stroke-width="12.1015" stroke-linecap="round"/>
<path d="M442.906 304.151V317.059" stroke="#123041" stroke-width="12.1015" stroke-linecap="round"/>
<path d="M321.086 335.615H333.187" stroke="#FFC0C1" stroke-width="16.1353" stroke-linecap="round"/>
<path d="M455.008 335.615H467.109" stroke="#FFC0C1" stroke-width="16.1353" stroke-linecap="round"/>
<path d="M407.428 337.599C407.428 344.869 407.428 348.524 394.116 348.524C380.805 348.524 380.805 345.518 380.805 337.599C380.805 329.679 386.765 317.06 394.116 317.06C401.468 317.06 407.428 330.329 407.428 337.599Z" fill="#FFC0C1"/>
<path fill-rule="evenodd" clip-rule="evenodd" d="M382.758 328.363C385.101 322.43 389.305 317.06 394.101 317.06C398.833 317.06 402.989 322.558 405.349 328.415C402.158 329.904 398.285 330.776 394.11 330.776C389.885 330.776 385.97 329.883 382.758 328.363Z" fill="#E7EAEE"/>
<path d="M390.799 305.765C392.382 305.765 393.108 306.425 394.098 307.085C395.087 306.425 395.813 305.765 397.397 305.765C399.376 305.765 400.526 307.839 400.036 309.065C399.376 310.715 396.957 312.365 394.098 313.026C391.239 312.365 388.819 310.715 388.16 309.065C387.669 307.839 388.819 305.765 390.799 305.765Z" fill="#FFC0C1"/>
<path d="M400.203 467.544C396.186 469.919 351.444 469.68 342.405 463.726C331.407 456.482 327.378 446.739 330.029 438.324C335.72 420.259 348.523 420.627 362.641 421.837C376.76 423.047 416.961 425.071 419.922 432.729C423.353 441.603 410.644 461.369 400.203 467.544Z" fill="#E7EAEE"/>
<g clip-path="url(#clip1_476_112)">
<path d="M407.836 446.519C423.596 441.202 435.213 422.923 424.606 391.483C413.999 360.044 393.682 352.539 377.922 357.856C367.554 361.354 365.04 371.02 348.866 376.477C332.691 381.934 319.798 365.626 294.706 374.092C269.615 382.557 269.112 415.981 277.583 441.087C286.053 466.193 306.702 492.481 331.793 484.016C356.885 475.55 357.263 454.764 373.438 449.307C389.612 443.85 397.467 450.017 407.836 446.519Z" fill="#AC6647"/>
<circle cx="375.842" cy="407.941" r="16.6767" transform="rotate(71.3563 375.842 407.941)" fill="#123041"/>
<circle cx="375.849" cy="407.941" r="19.577" transform="rotate(71.3563 375.849 407.941)" stroke="#123041" stroke-width="1.45015"/>
<path d="M527.687 342.174C528.987 341.736 530.423 342.067 531.342 343.085C533.328 345.285 536.676 349.343 537.874 352.894C539.072 356.445 538.867 361.701 538.619 364.655C538.505 366.022 537.563 367.156 536.264 367.594L504.925 378.167C503.923 378.506 502.822 378.389 501.912 377.848L499.034 376.135C498.124 375.593 497.024 375.477 496.021 375.815L495.196 376.093C493.299 376.733 491.242 375.714 490.602 373.817L487.589 364.886C486.949 362.989 487.968 360.932 489.865 360.292L490.943 359.928C491.997 359.572 492.83 358.752 493.202 357.704L494.18 354.941C494.552 353.893 495.385 353.073 496.439 352.717L527.687 342.174Z" fill="#563628"/>
<path d="M386.797 392.768L490.546 360.06L495.877 375.862L393.751 413.379L386.797 392.768Z" fill="#D07C57"/>
<path d="M321.461 398.738L337.918 447.517L327.613 450.993C327.613 450.993 326.473 447.176 325.527 444.81C322.669 437.667 317.779 435.265 315.262 427.995C312.655 420.463 315.197 415.375 313.01 407.711C312.388 405.533 311.156 402.215 311.156 402.215L321.461 398.738Z" fill="#563628"/>
<path d="M321.296 415.248L502.228 358.412" stroke="#DDDDDD" stroke-width="0.725074"/>
<path d="M328.236 435.858L505.695 369.864" stroke="#DDDDDD" stroke-width="0.725074"/>
<path d="M324.078 423.492L527.438 354.881" stroke="#DDDDDD" stroke-width="0.725074"/>
<path d="M528.375 357.629L325.479 427.614" stroke="#DDDDDD" stroke-width="0.725074"/>
<path d="M326.869 431.736L516.703 363.862" stroke="#DDDDDD" stroke-width="0.725074"/>
<path d="M514.383 356.993L322.695 419.37" stroke="#DDDDDD" stroke-width="0.725074"/>
<circle cx="321.294" cy="415.247" r="1.08761" transform="rotate(71.3563 321.294 415.247)" fill="#123041"/>
<circle cx="322.692" cy="419.37" r="1.08761" transform="rotate(71.3563 322.692 419.37)" fill="#123041"/>
<circle cx="324.067" cy="423.492" r="1.08761" transform="rotate(71.3563 324.067 423.492)" fill="#123041"/>
<circle cx="325.466" cy="427.614" r="1.08761" transform="rotate(71.3563 325.466 427.614)" fill="#123041"/>
<circle cx="326.864" cy="431.736" r="1.08761" transform="rotate(71.3563 326.864 431.736)" fill="#123041"/>
<circle cx="328.239" cy="435.859" r="1.08761" transform="rotate(71.3563 328.239 435.859)" fill="#123041"/>
<circle cx="501.997" cy="358.872" r="1.08761" transform="rotate(71.3563 501.997 358.872)" fill="white"/>
<circle cx="514.38" cy="356.992" r="1.08761" transform="rotate(71.3563 514.38 356.992)" fill="white"/>
<circle cx="527.45" cy="354.881" r="1.08761" transform="rotate(71.3563 527.45 354.881)" fill="white"/>
<circle cx="528.38" cy="357.629" r="1.08761" transform="rotate(71.3563 528.38 357.629)" fill="white"/>
<circle cx="516.708" cy="363.863" r="1.08761" transform="rotate(71.3563 516.708 363.863)" fill="white"/>
<circle cx="505.708" cy="369.865" r="1.08761" transform="rotate(71.3563 505.708 369.865)" fill="white"/>
<path d="M471.704 389.225C470.901 395.985 463.48 400.66 455.129 399.668C437.867 400.537 439.254 391.94 441.61 387.474C443.966 383.008 448.971 377.761 457.782 377.348C466.593 376.935 472.507 382.465 471.704 389.225Z" fill="#E7EAEE"/>
</g>
<path d="M367.803 413.746C356.59 411.851 340.598 391.588 334.306 377.068C333.407 374.994 332.407 370.153 339.332 368.908C344.218 368.03 378.776 379.866 385.634 385.232C394.799 392.402 393.502 418.091 367.803 413.746Z" fill="white"/>
</g>
<g clip-path="url(#clip2_476_112)">
<path d="M621.672 464.966C625.689 467.341 670.431 467.102 679.47 461.148C690.468 453.903 694.497 444.16 691.846 435.746C686.155 417.681 673.352 418.049 659.234 419.259C645.115 420.469 604.914 422.493 601.953 430.151C598.522 439.025 611.231 458.791 621.672 464.966Z" fill="#5C9A15"/>
<ellipse cx="32.2479" cy="34.7512" rx="32.2479" ry="34.7512" transform="matrix(-0.877234 -0.480064 -0.480064 0.877234 808.891 246.2)" fill="#5BB42B"/>
<ellipse cx="623.808" cy="260.306" rx="32.2479" ry="34.7512" transform="rotate(-28.6896 623.808 260.306)" fill="#5BB42B"/>
<path d="M643.13 453.286C625.832 441.784 649.215 370.029 666.11 360.992C683.006 351.954 710.486 353.323 722.554 360.992C734.622 368.66 764.445 441.51 747.147 453.286C729.849 465.063 660.428 464.789 643.13 453.286Z" fill="#5BB42B"/>
<path d="M650.764 425.232C650.764 449.688 669.186 455.562 691.91 455.562C714.633 455.562 733.055 449.688 733.055 425.232C733.055 393.083 714.633 374.885 691.91 374.885C669.186 374.885 650.764 393.083 650.764 425.232Z" fill="#A1DC3C"/>
<path d="M690.629 442.654C690.463 442.655 690.299 442.623 690.146 442.561C689.992 442.498 689.853 442.406 689.735 442.29L684.131 436.653C683.925 436.414 683.817 436.106 683.829 435.79C683.841 435.475 683.973 435.176 684.197 434.953C684.421 434.73 684.722 434.599 685.039 434.587C685.356 434.575 685.666 434.682 685.907 434.887L691.523 440.461C691.641 440.578 691.735 440.716 691.799 440.869C691.863 441.022 691.896 441.185 691.896 441.351C691.896 441.516 691.863 441.68 691.799 441.833C691.735 441.985 691.641 442.124 691.523 442.24C691.41 442.365 691.272 442.467 691.119 442.538C690.965 442.609 690.798 442.648 690.629 442.654Z" fill="#6BB41D"/>
<path d="M685.085 442.654C684.92 442.655 684.757 442.623 684.605 442.561C684.453 442.499 684.314 442.407 684.198 442.291C684.081 442.175 683.988 442.037 683.924 441.885C683.861 441.732 683.828 441.569 683.828 441.404C683.828 441.239 683.861 441.076 683.924 440.923C683.988 440.771 684.081 440.633 684.198 440.517L689.758 434.956C689.874 434.838 690.012 434.745 690.165 434.682C690.317 434.619 690.48 434.586 690.645 434.586C690.81 434.586 690.974 434.619 691.126 434.682C691.278 434.745 691.416 434.838 691.532 434.956C691.765 435.19 691.896 435.506 691.896 435.837C691.896 436.167 691.765 436.484 691.532 436.718L685.96 442.291C685.727 442.522 685.413 442.652 685.085 442.654Z" fill="#6BB41D"/>
<path d="M589.448 317.014C589.448 359.566 636.347 373.676 693.348 373.676C750.35 373.676 797.594 359.566 797.594 317.014C797.594 255.888 750.35 229.668 693.348 229.668C636.347 229.668 589.448 251.047 589.448 317.014Z" fill="#5BB42B"/>
<path d="M758.071 261.131V274.039" stroke="#123041" stroke-width="12.1015" stroke-linecap="round"/>
<path d="M620.906 260.325V273.233" stroke="#123041" stroke-width="12.1015" stroke-linecap="round"/>
<path d="M775.812 302.277H762.097" stroke="#A1DC3C" stroke-width="16.1353" stroke-linecap="round"/>
<path d="M626.57 302.277H612.855" stroke="#A1DC3C" stroke-width="16.1353" stroke-linecap="round"/>
<path d="M674.164 289.413C674.164 279.72 674.164 274.846 692.316 274.846C710.469 274.846 710.469 278.854 710.469 289.413C710.469 306.714 702.342 316.798 692.316 316.798C682.291 316.798 674.164 305.504 674.164 289.413Z" fill="#D52C2F"/>
<path fill-rule="evenodd" clip-rule="evenodd" d="M710.447 291.205C709.905 307.409 701.998 316.799 692.324 316.799C685.3 316.799 679.207 311.254 676.189 302.399C679.7 298.299 684.894 294.743 691.165 292.545C698.01 290.145 704.863 289.809 710.447 291.205Z" fill="#FF686B"/>
<g clip-path="url(#clip3_476_112)">
<path d="M638.522 421.117C641.521 415.683 648.145 413.4 653.856 415.831L659.589 418.271C665.299 420.702 668.245 427.059 666.408 432.987L653.447 474.818C651.325 481.668 643.746 485.18 637.148 482.371L623.212 476.439C616.614 473.631 613.892 465.734 617.357 459.456L638.522 421.117Z" fill="#9C5D41"/>
<path d="M630.389 383.375L699.435 412.766L691.108 432.329C682.992 451.396 660.956 460.273 641.89 452.157C622.823 444.041 613.946 422.005 622.061 402.939L630.389 383.375Z" fill="#9C5D41" stroke="#563628" stroke-width="3.12672"/>
<path d="M700.044 411.328C699.336 412.99 697.838 414.362 695.483 415.34C693.119 416.322 689.99 416.858 686.265 416.878C678.82 416.918 669.302 414.893 659.52 410.729C649.738 406.566 641.681 401.109 636.549 395.716C633.981 393.017 632.199 390.391 631.267 388.006C630.339 385.631 630.29 383.6 630.998 381.937C631.705 380.275 633.203 378.903 635.559 377.925C637.923 376.943 641.051 376.407 644.776 376.387C652.221 376.347 661.739 378.372 671.521 382.535C681.304 386.699 689.361 392.156 694.493 397.549C697.061 400.248 698.843 402.874 699.774 405.259C700.702 407.634 700.752 409.665 700.044 411.328Z" fill="#DDDDDD" stroke="#563628" stroke-width="3.12672"/>
<path d="M661.992 412.12L641.726 451.748" stroke="#563628" stroke-width="3.12672"/>
<path d="M657.398 410.159L642.886 452.236" stroke="#563628" stroke-width="3.12672"/>
<path d="M645.148 403.585C641.794 413.995 634.904 435.63 634.18 438.887C633.456 442.145 632.859 445.764 632.651 447.167" stroke="#563628" stroke-width="3.12672"/>
<path d="M649.039 405.396C643.769 414.784 634.182 434.83 632.958 437.707C631.692 440.68 631.053 442.827 630.291 443.971" stroke="#563628" stroke-width="3.12672"/>
<path d="M677.445 415.979C672.268 425.613 661.452 445.576 659.606 448.356C657.76 451.137 655.565 454.075 654.698 455.197" stroke="#563628" stroke-width="3.12672"/>
<path d="M673.445 414.428C670.332 424.734 662.53 445.54 661.305 448.417C660.04 451.39 658.935 453.339 658.639 454.681" stroke="#563628" stroke-width="3.12672"/>
<path d="M635.266 394.284C633.674 398.024 630.294 405.964 629.51 407.805C628.53 410.107 621.599 429.584 622.345 432.621" stroke="#563628" stroke-width="3.12672"/>
<path d="M690.25 415.991C688.658 419.731 685.278 427.671 684.494 429.512C683.515 431.814 674.282 450.312 671.576 451.879" stroke="#563628" stroke-width="3.12672"/>
<path d="M638.234 396.905C636.109 401.098 632.962 406.895 631.327 409.937C630.107 412.208 623.686 424.695 620.576 428.808" stroke="#563628" stroke-width="3.12672"/>
<path d="M686.298 415.672C684.748 420.11 682.752 426.396 681.693 429.684C680.902 432.138 676.353 445.421 675.545 450.514" stroke="#563628" stroke-width="3.12672"/>
</g>
<path d="M680.579 467.386C684.596 469.761 729.337 469.522 738.376 463.568C749.375 456.323 753.403 446.58 750.752 438.166C745.062 420.101 732.258 420.469 718.14 421.679C704.022 422.889 663.82 424.913 660.86 432.57C657.428 441.445 670.137 461.211 680.579 467.386Z" fill="#5C9A15"/>
<path d="M644.944 392.576C637.778 385.373 639.392 375.809 643.83 368.103C644.722 366.553 647.461 363.176 651.275 362.069C656.043 360.686 664.946 365.082 671.217 374.885C677.487 384.688 663.599 411.325 644.944 392.576Z" fill="#4B890D"/>
<path d="M680.825 406.755C701.155 411.385 728.557 392.922 739.912 381.901C742.736 378.271 742.736 373.595 738.77 370.019C735.084 366.694 686.428 370.462 675.221 373.594C664.014 376.727 655.412 400.967 680.825 406.755Z" fill="#4F9A15"/>
</g>
<g clip-path="url(#clip4_476_112)">
<path d="M120.384 349.452C144.808 363.906 137.263 371.112 130.953 381.774C124.642 392.437 121.461 402.225 97.533 388.065C85.3861 380.876 80.6545 366.405 86.9647 355.742C93.2749 345.08 108.237 342.263 120.384 349.452Z" fill="white"/>
<path d="M156.195 351.923C156.195 365.386 151.499 365.465 145.707 365.465C139.914 365.465 135.219 365.386 135.219 351.923C135.219 338.461 141.647 327.547 145.707 327.547C149.767 327.547 156.195 338.461 156.195 351.923Z" fill="#6A5B3D"/>
<path d="M282.859 351.923C282.859 365.386 278.163 365.465 272.371 365.465C266.578 365.465 261.883 365.386 261.883 351.923C261.883 338.461 268.311 327.547 272.371 327.547C276.431 327.547 282.859 338.461 282.859 351.923Z" fill="#6A5B3D"/>
<path d="M299.991 349.452C275.567 363.906 283.112 371.112 289.422 381.774C295.733 392.437 298.914 402.225 322.842 388.065C334.989 380.876 339.721 366.405 333.41 355.742C327.1 345.08 312.138 342.263 299.991 349.452Z" fill="#123041"/>
<path d="M306.008 361.773C293.836 368.977 296.987 371.54 299.382 375.586C301.776 379.632 302.753 383.482 314.679 376.424C320.733 372.841 323.7 366.657 321.306 362.611C318.911 358.566 312.063 358.191 306.008 361.773Z" fill="#FFC0C1"/>
<path d="M113.64 361.773C125.813 368.977 122.661 371.54 120.267 375.586C117.873 379.632 116.896 383.482 104.97 376.424C98.9157 372.841 95.9487 366.657 98.3429 362.611C100.737 358.566 107.586 358.191 113.64 361.773Z" fill="#FFC0C1"/>
<path d="M303.257 511.618C283.821 519.17 253.275 502.57 240.432 493.326C239.812 491.648 238.972 487.382 240.565 483.744C242.556 479.196 292.41 476.534 303.955 477.995C315.499 479.456 327.551 502.179 303.257 511.618Z" fill="#E7EAEE"/>
<path d="M282.093 576.56C278.076 578.935 233.335 578.696 224.296 572.742C213.297 565.498 209.269 555.755 211.92 547.34C217.61 529.275 230.414 529.643 244.532 530.853C258.65 532.064 298.852 534.088 301.812 541.745C305.244 550.619 292.535 570.385 282.093 576.56Z" fill="#E7EAEE"/>
<path d="M260.644 564.882C277.941 553.379 254.558 481.625 237.663 472.587C220.768 463.549 193.288 464.918 181.22 472.587C169.151 480.255 139.329 553.105 156.626 564.882C173.924 576.658 243.346 576.384 260.644 564.882Z" fill="white"/>
<path fill-rule="evenodd" clip-rule="evenodd" d="M214.405 573.533C214.54 569.287 214.4 560.626 211.447 555.46C206.72 547.191 191.278 541.745 191.278 541.745C185.093 540.804 171.754 536.34 167.882 526.013C166.233 521.616 162.429 518.672 158.034 516.751C151.131 537.534 147.892 558.951 156.603 564.882C166.023 571.295 190.904 574.135 214.405 573.533Z" fill="#123041"/>
<path d="M254.611 538.854C254.611 560.375 236.189 565.544 213.465 565.544C190.742 565.544 172.32 560.375 172.32 538.854C172.32 510.562 190.742 494.548 213.465 494.548C236.189 494.548 254.611 510.562 254.611 538.854Z" fill="#FFC0C1"/>
<path d="M213.121 558.283C213.287 558.284 213.451 558.252 213.604 558.19C213.758 558.128 213.897 558.036 214.015 557.92L219.619 552.283C219.825 552.043 219.933 551.735 219.921 551.42C219.909 551.104 219.777 550.805 219.553 550.582C219.329 550.359 219.028 550.228 218.711 550.216C218.394 550.204 218.084 550.311 217.843 550.517L212.227 556.091C212.109 556.207 212.015 556.346 211.951 556.498C211.887 556.651 211.854 556.815 211.854 556.98C211.854 557.146 211.887 557.309 211.951 557.462C212.015 557.615 212.109 557.753 212.227 557.87C212.34 557.995 212.478 558.096 212.631 558.167C212.785 558.238 212.952 558.277 213.121 558.283Z" fill="#FF8D8D"/>
<path d="M218.665 558.283C218.83 558.284 218.993 558.252 219.145 558.19C219.297 558.128 219.436 558.036 219.552 557.921C219.669 557.804 219.762 557.666 219.826 557.514C219.889 557.362 219.922 557.198 219.922 557.033C219.922 556.868 219.889 556.705 219.826 556.553C219.762 556.4 219.669 556.262 219.552 556.146L213.992 550.585C213.876 550.468 213.738 550.375 213.585 550.311C213.433 550.248 213.27 550.215 213.105 550.215C212.94 550.215 212.776 550.248 212.624 550.311C212.472 550.375 212.334 550.468 212.218 550.585C211.985 550.819 211.854 551.136 211.854 551.466C211.854 551.796 211.985 552.113 212.218 552.347L217.79 557.921C218.023 558.151 218.337 558.282 218.665 558.283Z" fill="#FF8D8D"/>
<path d="M223.195 578.98C219.178 581.355 174.436 581.116 165.397 575.162C154.399 567.918 150.37 558.175 153.021 549.76C158.712 531.695 171.515 532.063 185.633 533.273C199.752 534.484 239.953 536.507 242.914 544.165C246.345 553.039 233.636 572.805 223.195 578.98Z" fill="#123041"/>
<path d="M127.168 530.217C126.81 509.369 152.956 486.456 166.073 477.605C167.862 477.605 172.155 478.294 175.017 481.047C178.595 484.489 163.838 532.183 158.471 542.509C153.105 552.834 127.615 556.276 127.168 530.217Z" fill="white"/>
<path d="M311.098 432.831C311.098 474.937 264.927 488.9 208.809 488.9C152.691 488.9 106.18 474.937 106.18 432.831C106.18 361.036 152.691 336.421 208.809 336.421C264.927 336.421 311.098 357.618 311.098 432.831Z" fill="white"/>
<path fill-rule="evenodd" clip-rule="evenodd" d="M215.943 336.54C216.414 349.975 219.22 367.596 228.023 374.722C235.765 380.989 244.699 382.585 252.682 384.011C259.505 385.23 265.633 386.325 269.729 390.106C271.905 392.115 273.836 394.902 275.926 397.922C282.227 407.02 289.984 418.222 310.318 416.567C304.304 357.378 264.584 338.187 215.943 336.54Z" fill="#123041"/>
<path d="M166.961 435.6C166.961 435.6 164.767 439.165 159.832 439.165C154.896 439.165 152.702 435.6 152.702 435.6" stroke="#123041" stroke-width="12.3575" stroke-linecap="round"/>
<path d="M275.086 435.6C275.086 435.6 272.892 439.165 267.957 439.165C263.021 439.165 260.827 435.6 260.827 435.6" stroke="#123041" stroke-width="12.3575" stroke-linecap="round"/>
<path d="M175.562 455.178C175.562 438.603 188.999 425.166 205.574 425.166H220.58C237.155 425.166 250.592 438.603 250.592 455.178C250.592 466.228 241.634 475.186 230.584 475.186H195.57C184.52 475.186 175.562 466.228 175.562 455.178Z" fill="#FFC0C1"/>
<path d="M197.344 447.755V456.63" stroke="#123041" stroke-width="8.06767" stroke-linecap="round"/>
<path d="M229.602 447.755L229.602 456.63" stroke="#123041" stroke-width="8.06767" stroke-linecap="round"/>
<path d="M135.219 456.63H147.32" stroke="#FFC0C1" stroke-width="16.1353" stroke-linecap="round"/>
<path d="M279.625 456.63H291.727" stroke="#FFC0C1" stroke-width="16.1353" stroke-linecap="round"/>
</g>
<path d="M790.438 587.048C794.455 589.423 839.197 589.184 848.236 583.23C859.234 575.986 863.262 566.242 860.612 557.828C854.921 539.763 842.118 540.131 827.999 541.341C813.881 542.551 773.679 544.575 770.719 552.233C767.288 561.107 779.996 580.873 790.438 587.048Z" fill="#FFC532"/>
<path d="M811.895 575.369C794.598 563.867 817.981 492.112 834.876 483.075C851.771 474.037 879.251 475.406 891.319 483.075C903.388 490.743 933.21 563.593 915.913 575.369C898.615 587.146 829.193 586.872 811.895 575.369Z" fill="#FFDB40"/>
<path d="M859.41 564.737C859.245 564.738 859.08 564.706 858.927 564.644C858.773 564.582 858.634 564.49 858.516 564.374L852.912 558.737C852.706 558.497 852.598 558.189 852.61 557.874C852.623 557.558 852.754 557.259 852.978 557.036C853.203 556.813 853.503 556.683 853.82 556.67C854.137 556.658 854.447 556.765 854.688 556.971L860.305 562.545C860.423 562.661 860.516 562.8 860.58 562.953C860.644 563.105 860.677 563.269 860.677 563.434C860.677 563.6 860.644 563.763 860.58 563.916C860.516 564.069 860.423 564.207 860.305 564.324C860.191 564.449 860.053 564.55 859.9 564.621C859.746 564.692 859.58 564.732 859.41 564.737Z" fill="#F9A318"/>
<path d="M853.866 564.737C853.702 564.738 853.539 564.706 853.386 564.644C853.234 564.582 853.096 564.49 852.979 564.375C852.862 564.258 852.769 564.12 852.705 563.968C852.642 563.816 852.609 563.652 852.609 563.487C852.609 563.322 852.642 563.159 852.705 563.007C852.769 562.855 852.862 562.716 852.979 562.6L858.539 557.039C858.656 556.922 858.794 556.829 858.946 556.766C859.098 556.702 859.262 556.669 859.427 556.669C859.591 556.669 859.755 556.702 859.907 556.766C860.059 556.829 860.198 556.922 860.314 557.039C860.546 557.273 860.677 557.59 860.677 557.92C860.677 558.25 860.546 558.567 860.314 558.801L854.741 564.375C854.508 564.606 854.194 564.736 853.866 564.737Z" fill="#F9A318"/>
<path d="M849.336 589.468C853.353 591.843 898.095 591.604 907.134 585.65C918.133 578.405 922.161 568.662 919.51 560.248C913.819 542.183 901.016 542.551 886.898 543.761C872.779 544.971 832.578 546.995 829.617 554.653C826.186 563.527 838.895 583.293 849.336 589.468Z" fill="#FFC532"/>
<path d="M761.456 440.093C761.456 482.199 807.628 496.162 863.746 496.162C919.863 496.162 966.375 482.199 966.375 440.093C966.375 368.298 919.863 343.683 863.746 343.683C807.628 343.683 761.456 364.879 761.456 440.093Z" fill="#FFDB40"/>
<path d="M930.055 460.664H917.953" stroke="#FCA18E" stroke-width="16.1353" stroke-linecap="round"/>
<path d="M796.133 460.664H784.031" stroke="#FCA18E" stroke-width="16.1353" stroke-linecap="round"/>
<path d="M905.852 431.62V444.528" stroke="#123041" stroke-width="12.1015" stroke-linecap="round"/>
<path d="M808.25 431.62V444.528" stroke="#123041" stroke-width="12.1015" stroke-linecap="round"/>
<path d="M836.488 450.175C836.488 457.527 845.698 460.663 857.06 460.663C868.422 460.663 877.633 457.527 877.633 450.175C877.633 442.824 868.422 434.04 857.06 434.04C845.698 434.04 836.488 442.824 836.488 450.175Z" fill="#FFB132"/>
<path d="M879.035 315.624C866.797 326.477 859.766 338.649 857.686 349.726L879.223 347.43C888.092 346.484 896.587 336.031 896.195 323.342C895.803 310.654 885.259 310.105 879.035 315.624Z" fill="#FFDB40"/>
<path d="M856.545 332.768C860.356 336.488 861.319 344.596 861.324 348.185C853.943 347.503 841.557 345.234 839.336 340.507C837.114 335.78 838.5 329.903 841.204 328.503C843.908 327.102 851.782 328.117 856.545 332.768Z" fill="#FFDB40"/>
<path d="M790.068 525.205H990.549L914.31 535.693H713.828L790.068 525.205Z" fill="#D9D9D9"/>
<path d="M790.068 525.205H990.549L914.31 535.693H713.828L790.068 525.205Z" fill="#FF4447"/>
<path d="M797.744 525.205H980.073L920.373 532.869H748.531L797.744 525.205Z" fill="#D9D9D9"/>
<path d="M797.744 525.205H980.073L920.373 532.869H748.531L797.744 525.205Z" fill="white"/>
<path d="M990.146 535.693L914.31 546.181H713.828V535.693H914.31L990.549 525.205L990.146 535.693Z" fill="#D9D9D9"/>
<path d="M990.146 535.693L914.31 546.181H713.828V535.693H914.31L990.549 525.205L990.146 535.693Z" fill="#FF686B"/>
<path d="M768.711 532.869L793.721 528.029H798.965V528.836L779.602 532.869H776.375H768.711Z" fill="#123041"/>
<path d="M787.25 532.869L812.26 528.029H817.504V528.836L798.141 532.869H794.914H787.25Z" fill="#123041"/>
<path d="M820.328 532.869L845.338 528.029H850.582V528.836L831.219 532.869H827.992H820.328Z" fill="#123041"/>
<path d="M838.094 532.869L863.104 528.029H868.348V528.836L848.985 532.869H845.758H838.094Z" fill="#123041"/>
<path d="M855.031 532.869L880.041 528.029H885.285V528.836L865.923 532.869H862.696H855.031Z" fill="#123041"/>
<path d="M892.93 532.869L917.939 528.029H923.183V528.836L903.821 532.869H900.594H892.93Z" fill="#123041"/>
<path d="M910.695 532.869L935.705 528.029H940.949V528.836L921.587 532.869H918.36H910.695Z" fill="#123041"/>
<path d="M787.271 520.364C784.689 507.779 803.675 496.968 811.474 492.127C817.525 490.111 823.979 491.993 825.593 494.144C829.223 498.985 828.885 519.439 826.802 523.188C822.769 530.449 790.498 536.096 787.271 520.364Z" fill="#FFC532"/>
<path d="M916.513 500.347C915.335 495.87 908.576 491.949 900.181 493.155C891.785 495.166 860.672 509.565 860.672 518.887C860.672 527.777 878.596 531.004 891.504 527.777C904.412 524.55 918.53 508.011 916.513 500.347Z" fill="#FFC532"/>
<defs>
<clipPath id="clip0_476_112">
<rect width="332.388" height="367.886" fill="white" transform="translate(244.461 132.31)"/>
</clipPath>
<clipPath id="clip1_476_112">
<rect width="125.438" height="295.105" fill="white" transform="translate(531.336 290.437) rotate(71.3563)"/>
</clipPath>
<clipPath id="clip2_476_112">
<rect width="226.702" height="303.344" fill="white" transform="matrix(-1 0 0 1 805.672 208.691)"/>
</clipPath>
<clipPath id="clip3_476_112">
<rect width="78.1681" height="125.069" fill="white" transform="translate(636.172 365.79) rotate(23.0575)"/>
</clipPath>
<clipPath id="clip4_476_112">
<rect width="254.132" height="277.528" fill="white" transform="translate(82.7812 313.832)"/>
</clipPath>
</defs>
</svg>
