<svg width="333" height="369" viewBox="0 0 333 369" fill="none" xmlns="http://www.w3.org/2000/svg">
<g clip-path="url(#clip0_409_104)">
<path d="M209.437 327.476C205.42 329.852 160.678 329.613 151.639 323.659C140.641 316.414 136.613 306.671 139.263 298.256C144.954 280.192 157.757 280.56 171.876 281.77C185.994 282.98 226.196 285.004 229.156 292.661C232.587 301.536 219.879 321.301 209.437 327.476Z" fill="#E7EAEE"/>
<path d="M215.275 243.288C196.587 237.28 185.78 230.348 170.233 233.293C168.962 234.552 166.396 238.063 166.301 242.033C166.182 246.996 200.463 264.051 211.98 265.714C224.668 267.547 233.683 249.205 215.275 243.288Z" fill="#E7EAEE"/>
<path d="M189.605 319.127C206.902 307.624 183.519 235.87 166.624 226.832C149.729 217.794 122.249 219.163 110.181 226.832C98.1122 234.5 68.2895 307.35 85.5872 319.127C102.885 330.903 172.307 330.629 189.605 319.127Z" fill="white"/>
<path d="M181.978 294.713C181.978 316.234 163.556 321.403 140.833 321.403C118.109 321.403 99.6875 316.234 99.6875 294.713C99.6875 266.421 118.109 250.407 140.833 250.407C163.556 250.407 181.978 266.421 181.978 294.713Z" fill="white"/>
<path d="M74.1898 65.6278C80.6439 86.5485 108.279 127.508 114.125 144.636H169.388C175.234 127.508 200.739 86.5485 208.92 65.6278C219.066 39.6812 208.513 5.95746 180.012 5.95752C156.48 5.95757 145.456 44.8169 142.362 65.6278C139.267 44.8169 127.436 5.95752 104.711 5.95752C76.2098 5.95752 65.9769 39.0058 74.1898 65.6278Z" fill="white"/>
<path d="M241.684 184.658C241.684 226.764 195.512 240.727 139.395 240.727C83.2774 240.727 36.7656 226.764 36.7656 184.658C36.7656 112.863 83.2774 88.2476 139.395 88.2476C195.512 88.2476 241.684 109.444 241.684 184.658Z" fill="white"/>
<path d="M101.289 172.151V185.059" stroke="#123041" stroke-width="12.1015" stroke-linecap="round"/>
<path d="M198.906 172.151V185.059" stroke="#123041" stroke-width="12.1015" stroke-linecap="round"/>
<path d="M77.0859 203.615H89.1874" stroke="#FFC0C1" stroke-width="16.1353" stroke-linecap="round"/>
<path d="M211.008 203.615H223.109" stroke="#FFC0C1" stroke-width="16.1353" stroke-linecap="round"/>
<path d="M163.428 205.599C163.428 212.869 163.428 216.524 150.116 216.524C136.805 216.524 136.805 213.518 136.805 205.599C136.805 197.679 142.765 185.06 150.116 185.06C157.468 185.06 163.428 198.329 163.428 205.599Z" fill="#FFC0C1"/>
<path fill-rule="evenodd" clip-rule="evenodd" d="M138.758 196.363C141.101 190.43 145.305 185.06 150.101 185.06C154.833 185.06 158.989 190.558 161.349 196.415C158.158 197.904 154.285 198.776 150.11 198.776C145.885 198.776 141.97 197.883 138.758 196.363Z" fill="#E7EAEE"/>
<path d="M146.799 173.765C148.382 173.765 149.108 174.425 150.098 175.085C151.087 174.425 151.813 173.765 153.397 173.765C155.376 173.765 156.526 175.839 156.036 177.065C155.376 178.715 152.957 180.365 150.098 181.026C147.239 180.365 144.819 178.715 144.16 177.065C143.669 175.839 144.819 173.765 146.799 173.765Z" fill="#FFC0C1"/>
<path d="M156.203 335.544C152.186 337.919 107.444 337.68 98.4049 331.726C87.4065 324.482 83.3781 314.739 86.0289 306.324C91.7197 288.259 104.523 288.627 118.641 289.837C132.76 291.047 172.961 293.071 175.922 300.729C179.353 309.603 166.644 329.369 156.203 335.544Z" fill="#E7EAEE"/>
<g clip-path="url(#clip1_409_104)">
<path d="M163.836 314.519C179.596 309.202 191.213 290.923 180.606 259.483C169.999 228.044 149.682 220.539 133.922 225.856C123.554 229.354 121.04 239.02 104.866 244.477C88.6909 249.934 75.7977 233.626 50.7063 242.092C25.6148 250.557 25.1121 283.981 33.5826 309.087C42.053 334.193 62.7018 360.481 87.7932 352.016C112.885 343.55 113.263 322.764 129.438 317.307C145.612 311.85 153.467 318.017 163.836 314.519Z" fill="#AC6647"/>
<circle cx="131.842" cy="275.941" r="16.6767" transform="rotate(71.3563 131.842 275.941)" fill="#123041"/>
<circle cx="131.849" cy="275.941" r="19.577" transform="rotate(71.3563 131.849 275.941)" stroke="#123041" stroke-width="1.45015"/>
<path d="M283.687 210.174C284.987 209.736 286.423 210.067 287.342 211.085C289.328 213.285 292.676 217.343 293.874 220.894C295.072 224.445 294.867 229.701 294.619 232.655C294.505 234.022 293.563 235.156 292.264 235.594L260.925 246.167C259.923 246.506 258.822 246.389 257.912 245.848L255.034 244.135C254.124 243.593 253.024 243.477 252.021 243.815L251.196 244.093C249.299 244.733 247.242 243.714 246.602 241.817L243.589 232.886C242.949 230.989 243.968 228.932 245.865 228.292L246.943 227.928C247.997 227.572 248.83 226.752 249.202 225.704L250.18 222.941C250.552 221.893 251.385 221.073 252.439 220.717L283.687 210.174Z" fill="#563628"/>
<path d="M142.797 260.768L246.546 228.06L251.877 243.862L149.751 281.379L142.797 260.768Z" fill="#D07C57"/>
<path d="M77.4609 266.738L93.9183 315.517L83.6129 318.993C83.6129 318.993 82.4735 315.176 81.5267 312.81C78.6686 305.667 73.7787 303.265 71.2621 295.995C68.655 288.463 71.1972 283.375 69.0099 275.711C68.3882 273.533 67.1556 270.215 67.1556 270.215L77.4609 266.738Z" fill="#563628"/>
<path d="M77.296 283.248L258.228 226.412" stroke="#DDDDDD" stroke-width="0.725074"/>
<path d="M84.2361 303.858L261.695 237.864" stroke="#DDDDDD" stroke-width="0.725074"/>
<path d="M80.0781 291.492L283.437 222.881" stroke="#DDDDDD" stroke-width="0.725074"/>
<path d="M284.375 225.629L81.4791 295.614" stroke="#DDDDDD" stroke-width="0.725074"/>
<path d="M82.8691 299.736L272.703 231.862" stroke="#DDDDDD" stroke-width="0.725074"/>
<path d="M270.383 224.993L78.6945 287.37" stroke="#DDDDDD" stroke-width="0.725074"/>
<circle cx="77.2937" cy="283.247" r="1.08761" transform="rotate(71.3563 77.2937 283.247)" fill="#123041"/>
<circle cx="78.6922" cy="287.37" r="1.08761" transform="rotate(71.3563 78.6922 287.37)" fill="#123041"/>
<circle cx="80.0672" cy="291.492" r="1.08761" transform="rotate(71.3563 80.0672 291.492)" fill="#123041"/>
<circle cx="81.4656" cy="295.614" r="1.08761" transform="rotate(71.3563 81.4656 295.614)" fill="#123041"/>
<circle cx="82.864" cy="299.736" r="1.08761" transform="rotate(71.3563 82.864 299.736)" fill="#123041"/>
<circle cx="84.239" cy="303.859" r="1.08761" transform="rotate(71.3563 84.239 303.859)" fill="#123041"/>
<circle cx="257.997" cy="226.872" r="1.08761" transform="rotate(71.3563 257.997 226.872)" fill="white"/>
<circle cx="270.38" cy="224.992" r="1.08761" transform="rotate(71.3563 270.38 224.992)" fill="white"/>
<circle cx="283.45" cy="222.881" r="1.08761" transform="rotate(71.3563 283.45 222.881)" fill="white"/>
<circle cx="284.38" cy="225.629" r="1.08761" transform="rotate(71.3563 284.38 225.629)" fill="white"/>
<circle cx="272.708" cy="231.863" r="1.08761" transform="rotate(71.3563 272.708 231.863)" fill="white"/>
<circle cx="261.708" cy="237.865" r="1.08761" transform="rotate(71.3563 261.708 237.865)" fill="white"/>
<path d="M227.704 257.225C226.901 263.985 219.48 268.66 211.129 267.668C193.867 268.537 195.254 259.94 197.61 255.474C199.966 251.008 204.971 245.761 213.782 245.348C222.593 244.935 228.507 250.465 227.704 257.225Z" fill="#E7EAEE"/>
</g>
<path d="M123.803 281.746C112.59 279.851 96.5979 259.588 90.3062 245.068C89.4073 242.994 88.4067 238.153 95.3316 236.908C100.218 236.03 134.776 247.866 141.634 253.232C150.799 260.402 149.502 286.091 123.803 281.746Z" fill="white"/>
</g>
<defs>
<clipPath id="clip0_409_104">
<rect width="332.388" height="367.886" fill="white" transform="translate(0.460938 0.30957)"/>
</clipPath>
<clipPath id="clip1_409_104">
<rect width="125.438" height="295.105" fill="white" transform="translate(287.336 158.437) rotate(71.3563)"/>
</clipPath>
</defs>
</svg>
