<svg width="279" height="209" viewBox="0 0 279 209" fill="none" xmlns="http://www.w3.org/2000/svg">
<rect y="70" width="396" height="139" rx="40" fill="#AFD157"/>
<ellipse cx="146.5" cy="96.5" rx="115.5" ry="18.5" fill="#8EC442"/>
<path fill-rule="evenodd" clip-rule="evenodd" d="M168.559 138C164.937 138 162 140.937 162 144.559C162 148.181 164.937 151.118 168.559 151.118H226.398C230.02 151.118 232.957 148.181 232.957 144.559C232.957 140.937 230.02 138 226.398 138H168.559ZM206.72 160.062C203.098 160.062 200.161 162.999 200.161 166.621C200.161 170.244 203.098 173.18 206.72 173.18H251.441C255.063 173.18 258 170.244 258 166.621C258 162.999 255.063 160.062 251.441 160.062H206.72Z" fill="#8EC442"/>
<g clip-path="url(#clip0_1071_1677)">
<path d="M219.535 79.4602C216.768 82.2277 192.628 81.7665 179.867 81.3053C172.025 76.462 170.872 53.6296 176.176 50.4008C181.481 47.172 205.4 58.2606 208.926 60.7792C212.155 63.0855 222.764 76.2313 219.535 79.4602Z" fill="#123041"/>
<path d="M234.272 90.407C231.504 93.1745 207.365 92.7133 194.603 92.252C186.762 87.4088 185.609 64.5764 190.913 61.3476C196.218 58.1187 220.137 69.2074 223.663 71.726C226.892 74.0323 237.501 87.1781 234.272 90.407Z" fill="white"/>
<path d="M189.53 48.4324C192.799 48.1029 200.081 46.192 203.057 41.184C206.032 36.176 205.875 31.6293 205.424 29.9819" stroke="#123041" stroke-width="3.69009"/>
<path d="M199.758 91.5125C196.272 93.7286 138.565 93.7286 134.499 91.5125C130.432 89.2964 123.073 72.0112 125.397 66.6926C127.721 61.3741 147.473 42.0943 180.199 43.4239C212.926 44.7536 203.244 89.2965 199.758 91.5125Z" fill="white"/>
<path d="M69.8221 75.1579C81.045 71.1375 98.2509 81.0891 105.451 86.5675C105.779 87.5361 106.195 89.987 105.229 92.0422C104.022 94.6111 75.488 95.3747 68.912 94.3643C62.336 93.3538 55.7935 80.1834 69.8221 75.1579Z" fill="#E7EAEE"/>
<path d="M69.4108 13.4462C83.3747 21.7101 79.0609 25.83 75.4531 31.9263C71.8453 38.0226 70.0263 43.619 56.3458 35.5228C49.4009 31.4129 46.6957 23.139 50.3035 17.0427C53.9113 10.9465 62.4659 9.33624 69.4108 13.4462Z" fill="white"/>
<path d="M89.879 14.859C89.879 22.556 87.1943 22.6016 83.8826 22.6016C80.5709 22.6016 77.8862 22.556 77.8862 14.859C77.8862 7.16202 81.5614 0.922363 83.8826 0.922363C86.2038 0.922363 89.879 7.16202 89.879 14.859Z" fill="#6A5B3D"/>
<path d="M162.297 14.859C162.297 22.556 159.612 22.6016 156.301 22.6016C152.989 22.6016 150.304 22.556 150.304 14.859C150.304 7.16202 153.979 0.922363 156.301 0.922363C158.622 0.922363 162.297 7.16202 162.297 14.859Z" fill="#6A5B3D"/>
<path d="M172.091 13.4462C158.127 21.7101 162.441 25.83 166.048 31.9263C169.656 38.0226 171.475 43.619 185.156 35.5228C192.101 31.4129 194.806 23.139 191.198 17.0427C187.59 10.9465 179.036 9.33624 172.091 13.4462Z" fill="#123041"/>
<path d="M175.537 20.4915C168.577 24.6103 170.379 26.0757 171.748 28.3887C173.117 30.7017 173.675 32.903 180.494 28.8678C183.955 26.8193 185.652 23.2836 184.283 20.9706C182.914 18.6576 178.998 18.4431 175.537 20.4915Z" fill="#FFC0C1"/>
<path d="M65.5506 20.4915C72.5104 24.6103 70.7084 26.0757 69.3395 28.3887C67.9707 30.7017 67.4121 32.903 60.5936 28.8678C57.1322 26.8193 55.4358 23.2836 56.8047 20.9706C58.1736 18.6576 62.0893 18.4431 65.5506 20.4915Z" fill="#FFC0C1"/>
<path d="M61.2812 61.1183C61.2812 85.1919 87.6795 93.1749 119.764 93.1749C151.849 93.1749 178.441 85.1919 178.441 61.1183C178.441 20.0702 151.849 5.99658 119.764 5.99658C87.6795 5.99658 61.2812 18.1155 61.2812 61.1183Z" fill="white"/>
<path fill-rule="evenodd" clip-rule="evenodd" d="M124.035 6.06396C124.305 13.7452 125.909 23.8198 130.942 27.8942C135.368 31.4772 140.476 32.3896 145.04 33.205C148.941 33.9018 152.445 34.5278 154.787 36.6894C156.031 37.8379 157.135 39.4317 158.33 41.158C161.932 46.3594 166.367 52.7639 177.991 51.8185C174.552 17.9786 151.844 7.0059 124.035 6.06396Z" fill="#123041"/>
<path d="M138.773 73.8938C138.773 64.4172 131.091 56.7349 121.614 56.7349H113.035C103.558 56.7349 95.8757 64.4172 95.8757 73.8938C95.8757 80.2115 100.997 85.333 107.315 85.333H127.334C133.651 85.333 138.773 80.2115 138.773 73.8938Z" fill="#FFC0C1"/>
<path d="M126.319 69.6504V74.7243" stroke="#123041" stroke-width="4.61261" stroke-linecap="round"/>
<path d="M107.868 69.6504L107.868 74.7243" stroke="#123041" stroke-width="4.61261" stroke-linecap="round"/>
<path d="M161.836 74.7241H154.917" stroke="#FFC0C1" stroke-width="9.22521" stroke-linecap="round"/>
<path d="M79.27 74.7241H72.3511" stroke="#FFC0C1" stroke-width="9.22521" stroke-linecap="round"/>
<path d="M89.8975 63.1929L86.2077 64.1155" stroke="#123041" stroke-width="6.91891" stroke-linecap="round"/>
<path d="M144.326 63.1929L148.016 64.1155" stroke="#123041" stroke-width="6.91891" stroke-linecap="round"/>
<path d="M139.933 75.1579C151.156 71.1375 168.362 81.0891 175.562 86.5675C175.891 87.5361 176.306 89.987 175.34 92.0422C174.133 94.6111 145.599 95.3747 139.023 94.3643C132.447 93.3538 125.905 80.1834 139.933 75.1579Z" fill="#E7EAEE"/>
<path d="M202.448 31.4759C205.873 33.8494 210.748 32.2882 210.748 27.6092C210.748 21.9663 208.225 19.3945 207.384 19.3949C206.719 19.3951 207.122 21.3042 206.823 21.4486C206.524 21.5931 206.123 16.7549 204.02 17.6349C201.087 18.8626 198.294 28.5981 202.448 31.4759Z" fill="#A8A8A8"/>
</g>
<defs>
<clipPath id="clip0_1071_1677">
<rect width="200.648" height="97.326" fill="white" transform="translate(47)"/>
</clipPath>
</defs>
</svg>
