<svg width="245" height="271" viewBox="0 0 245 271" fill="none" xmlns="http://www.w3.org/2000/svg">
<g clip-path="url(#clip0_583_1059)">
<path d="M157.963 178.67C144.221 174.252 136.275 169.155 124.842 171.32C123.907 172.246 122.021 174.828 121.951 177.747C121.863 181.397 147.071 193.938 155.54 195.161C164.87 196.509 171.499 183.021 157.963 178.67Z" fill="#E7EAEE"/>
<path d="M135.899 260.114C140.154 258.374 144.297 235.194 143.457 223.654L102.588 230.176C101.748 239.542 101.693 258.642 103.708 260.114C106.227 261.953 130.581 262.288 135.899 260.114Z" fill="#E7EAEE"/>
<path d="M139.093 234.438C151.813 225.98 134.619 173.216 122.195 166.571C109.771 159.925 89.5641 160.932 80.6899 166.571C71.8156 172.209 49.8858 225.779 62.6055 234.438C75.3252 243.098 126.374 242.897 139.093 234.438Z" fill="white"/>
<path d="M66.3996 260.114C62.1447 258.374 58.0018 235.194 58.8416 223.654L99.7104 230.176C100.55 239.542 100.606 258.642 98.5908 260.114C96.0714 261.953 71.7181 262.288 66.3996 260.114Z" fill="white"/>
<path d="M133.481 216.485C133.481 232.31 119.935 236.111 103.225 236.111C86.5155 236.111 72.9696 232.31 72.9696 216.485C72.9696 195.681 86.5155 183.906 103.225 183.906C119.935 183.906 133.481 195.681 133.481 216.485Z" fill="#E7EAEE"/>
<path d="M53.46 48.0301C58.2059 63.4139 78.5274 93.533 82.8257 106.128H123.463C127.761 93.533 146.516 63.4139 152.532 48.0301C159.993 28.9506 152.233 4.1523 131.275 4.15234C113.971 4.15238 105.865 32.7271 103.589 48.0301C101.314 32.7271 92.6142 4.15234 75.9033 4.15234C54.9454 4.15234 47.4208 28.454 53.46 48.0301Z" fill="white"/>
<path d="M176.617 135.558C176.617 166.52 142.665 176.787 101.4 176.787C60.1346 176.787 25.9327 166.52 25.9327 135.558C25.9327 82.7642 60.1346 64.6636 101.4 64.6636C142.665 64.6636 176.617 80.2502 176.617 135.558Z" fill="white"/>
<path d="M73.3932 126.361V135.853" stroke="#123041" stroke-width="8.89869" stroke-linecap="round"/>
<path d="M145.175 126.361V135.853" stroke="#123041" stroke-width="8.89869" stroke-linecap="round"/>
<path d="M55.5952 149.498H64.4938" stroke="#FFC0C1" stroke-width="11.8649" stroke-linecap="round"/>
<path d="M154.074 149.498H162.973" stroke="#FFC0C1" stroke-width="11.8649" stroke-linecap="round"/>
<path d="M119.072 150.956C119.072 156.302 119.072 158.99 109.283 158.99C99.4948 158.99 99.4948 156.78 99.4948 150.956C99.4948 145.133 103.877 135.853 109.283 135.853C114.689 135.853 119.072 145.61 119.072 150.956Z" fill="#FFC0C1"/>
<path fill-rule="evenodd" clip-rule="evenodd" d="M100.945 144.166C102.668 139.803 105.759 135.853 109.286 135.853C112.765 135.853 115.821 139.894 117.557 144.199C115.209 145.295 112.359 145.937 109.287 145.937C106.183 145.937 103.306 145.282 100.945 144.166Z" fill="#E7EAEE"/>
<path d="M106.86 127.548C108.024 127.548 108.558 128.033 109.285 128.519C110.013 128.033 110.547 127.548 111.711 127.548C113.167 127.548 114.012 129.073 113.652 129.975C113.167 131.188 111.388 132.402 109.285 132.887C107.183 132.402 105.404 131.188 104.919 129.975C104.559 129.073 105.404 127.548 106.86 127.548Z" fill="#FFC0C1"/>
<g clip-path="url(#clip1_583_1059)">
<path d="M120.153 231.049C131.742 227.139 140.285 213.698 132.485 190.579C124.685 167.461 109.745 161.942 98.1565 165.852C90.5323 168.424 88.6842 175.532 76.7904 179.544C64.8965 183.557 55.4157 171.565 36.965 177.79C18.5143 184.015 18.1447 208.593 24.3733 227.055C30.602 245.516 45.7857 264.847 64.2364 258.622C82.6871 252.396 82.9652 237.112 94.8591 233.099C106.753 229.086 112.529 233.621 120.153 231.049Z" fill="#AC6647"/>
<circle cx="96.6182" cy="202.681" r="12.263" transform="rotate(71.3563 96.6182 202.681)" fill="#123041"/>
<circle cx="96.6176" cy="202.681" r="14.3957" transform="rotate(71.3563 96.6176 202.681)" stroke="#123041" stroke-width="1.06635"/>
<path d="M208.266 154.321C209.222 153.998 210.278 154.242 210.954 154.991C212.414 156.609 214.876 159.593 215.757 162.204C216.638 164.815 216.487 168.68 216.305 170.852C216.221 171.857 215.529 172.691 214.573 173.013L191.529 180.788C190.791 181.037 189.982 180.951 189.313 180.553L187.196 179.293C186.527 178.895 185.718 178.809 184.981 179.058L184.374 179.263C182.979 179.733 181.467 178.984 180.996 177.589L178.78 171.021C178.31 169.626 179.059 168.114 180.454 167.643L181.247 167.376C182.022 167.114 182.634 166.511 182.908 165.74L183.628 163.709C183.901 162.938 184.513 162.335 185.288 162.073L208.266 154.321Z" fill="#563628"/>
<path d="M104.67 191.524L180.961 167.473L184.881 179.092L109.784 206.68L104.67 191.524Z" fill="#D07C57"/>
<path d="M56.6329 195.914L68.7346 231.782L61.1566 234.339C61.1566 234.339 60.3188 231.532 59.6226 229.792C57.5209 224.54 53.9252 222.774 52.0746 217.427C50.1576 211.889 52.0269 208.147 50.4185 202.512C49.9614 200.91 49.055 198.47 49.055 198.47L56.6329 195.914Z" fill="#563628"/>
<path d="M56.5088 208.054L189.555 166.261" stroke="#DDDDDD" stroke-width="0.533174"/>
<path d="M61.6213 223.21L192.114 174.682" stroke="#DDDDDD" stroke-width="0.533174"/>
<path d="M58.5536 214.116L208.091 163.664" stroke="#DDDDDD" stroke-width="0.533174"/>
<path d="M208.773 165.686L59.576 217.148" stroke="#DDDDDD" stroke-width="0.533174"/>
<path d="M60.6011 220.179L200.193 170.269" stroke="#DDDDDD" stroke-width="0.533174"/>
<path d="M198.485 165.217L57.5294 211.085" stroke="#DDDDDD" stroke-width="0.533174"/>
<circle cx="56.5083" cy="208.054" r="0.79976" transform="rotate(71.3563 56.5083 208.054)" fill="#123041"/>
<circle cx="57.5305" cy="211.085" r="0.79976" transform="rotate(71.3563 57.5305 211.085)" fill="#123041"/>
<circle cx="58.5527" cy="214.116" r="0.79976" transform="rotate(71.3563 58.5527 214.116)" fill="#123041"/>
<circle cx="59.578" cy="217.148" r="0.79976" transform="rotate(71.3563 59.578 217.148)" fill="#123041"/>
<circle cx="60.6002" cy="220.178" r="0.79976" transform="rotate(71.3563 60.6002 220.178)" fill="#123041"/>
<circle cx="61.6224" cy="223.21" r="0.79976" transform="rotate(71.3563 61.6224 223.21)" fill="#123041"/>
<circle cx="189.386" cy="166.598" r="0.79976" transform="rotate(71.3563 189.386 166.598)" fill="white"/>
<circle cx="198.488" cy="165.217" r="0.79976" transform="rotate(71.3563 198.488 165.217)" fill="white"/>
<circle cx="208.093" cy="163.665" r="0.79976" transform="rotate(71.3563 208.093 163.665)" fill="white"/>
<circle cx="208.774" cy="165.685" r="0.79976" transform="rotate(71.3563 208.774 165.685)" fill="white"/>
<circle cx="200.191" cy="170.268" r="0.79976" transform="rotate(71.3563 200.191 170.268)" fill="white"/>
<circle cx="192.115" cy="174.682" r="0.79976" transform="rotate(71.3563 192.115 174.682)" fill="white"/>
<path d="M167.102 188.919C166.512 193.89 161.055 197.328 154.914 196.598C142.221 197.237 143.24 190.915 144.973 187.631C146.706 184.347 150.385 180.489 156.865 180.185C163.344 179.881 167.693 183.948 167.102 188.919Z" fill="#E7EAEE"/>
</g>
<path d="M90.7062 206.95C82.4608 205.556 70.7011 190.656 66.0745 179.98C65.4136 178.454 64.6778 174.895 69.7699 173.979C73.3628 173.333 98.7751 182.037 103.818 185.982C110.557 191.255 109.604 210.145 90.7062 206.95Z" fill="white"/>
</g>
<defs>
<clipPath id="clip0_583_1059">
<rect width="244.417" height="270.52" fill="white"/>
</clipPath>
<clipPath id="clip1_583_1059">
<rect width="92.239" height="217.002" fill="white" transform="translate(210.955 116.276) rotate(71.3563)"/>
</clipPath>
</defs>
</svg>
