<svg width="187" height="222" viewBox="0 0 187 222" fill="none" xmlns="http://www.w3.org/2000/svg">
<g clip-path="url(#clip0_583_1166)">
<path d="M154.262 157.282C138.963 158.284 121.206 139.893 114.24 130.573C114.177 129.259 114.53 126.081 116.451 123.881C118.852 121.132 154.406 130.279 162.181 133.854C169.955 137.43 173.387 156.03 154.262 157.282Z" fill="#E7EAEE"/>
<path d="M129.374 210.281C133.628 208.541 137.771 185.361 136.932 173.821L96.0627 180.343C95.2229 189.709 95.167 208.809 97.1824 210.281C99.7017 212.12 124.055 212.455 129.374 210.281Z" fill="#E7EAEE"/>
<path d="M132.568 184.606C145.287 176.147 128.093 123.384 115.669 116.738C103.245 110.092 83.0386 111.099 74.1643 116.738C65.29 122.377 43.3603 175.946 56.08 184.606C68.7996 193.265 119.848 193.064 132.568 184.606Z" fill="white"/>
<path fill-rule="evenodd" clip-rule="evenodd" d="M98.5777 190.967C98.6769 187.845 98.5744 181.476 96.4027 177.677C92.9267 171.596 81.5716 167.591 81.5716 167.591C77.0234 166.899 67.2151 163.617 64.3675 156.023C63.1557 152.792 60.3612 150.627 57.1314 149.215C52.0557 164.496 49.6747 180.245 56.0798 184.605C63.0062 189.321 81.2982 191.409 98.5777 190.967Z" fill="#123041"/>
<path d="M59.874 210.281C55.6192 208.541 51.4763 185.361 52.3161 173.821L93.1849 180.343C94.0247 189.709 94.0807 208.809 92.0652 210.281C89.5459 212.12 65.1926 212.455 59.874 210.281Z" fill="#123041"/>
<path d="M34.4114 159.115C34.1484 143.785 53.3744 126.936 63.0203 120.428C64.3357 120.428 67.4926 120.934 69.5971 122.959C72.2278 125.49 61.3762 160.561 57.4301 168.154C53.4841 175.747 34.7403 178.278 34.4114 159.115Z" fill="white"/>
<path d="M128.143 165.466C128.143 181.291 114.597 185.092 97.8876 185.092C81.1779 185.092 67.632 181.291 67.632 165.466C67.632 144.662 81.1779 132.887 97.8876 132.887C114.597 132.887 128.143 144.662 128.143 165.466Z" fill="#FFC0C1"/>
<path d="M97.6316 179.753C97.7535 179.754 97.8743 179.731 97.9871 179.685C98.0999 179.639 98.2025 179.571 98.2891 179.486L102.41 175.341C102.562 175.165 102.641 174.938 102.632 174.706C102.623 174.475 102.526 174.255 102.361 174.091C102.196 173.927 101.975 173.83 101.742 173.821C101.509 173.813 101.281 173.891 101.104 174.042L96.9741 178.141C96.8873 178.227 96.8184 178.329 96.7714 178.441C96.7244 178.553 96.7002 178.674 96.7002 178.795C96.7002 178.917 96.7244 179.037 96.7714 179.15C96.8184 179.262 96.8873 179.364 96.9741 179.449C97.0575 179.541 97.1587 179.616 97.2717 179.668C97.3847 179.72 97.5071 179.749 97.6316 179.753Z" fill="#FF8D8D"/>
<path d="M101.708 179.753C101.829 179.754 101.949 179.731 102.061 179.685C102.173 179.639 102.275 179.572 102.361 179.487C102.447 179.401 102.515 179.3 102.562 179.188C102.609 179.076 102.633 178.956 102.633 178.834C102.633 178.713 102.609 178.593 102.562 178.481C102.515 178.369 102.447 178.267 102.361 178.182L98.2721 174.093C98.1867 174.006 98.0851 173.938 97.9731 173.891C97.8611 173.845 97.741 173.821 97.6197 173.821C97.4984 173.821 97.3784 173.845 97.2664 173.891C97.1544 173.938 97.0528 174.006 96.9674 174.093C96.7962 174.265 96.7002 174.498 96.7002 174.74C96.7002 174.983 96.7962 175.216 96.9674 175.388L101.065 179.487C101.236 179.657 101.467 179.752 101.708 179.753Z" fill="#FF8D8D"/>
<path d="M29.0477 26.1922C47.0073 36.8207 41.4591 42.1195 36.819 49.9602C32.1788 57.8009 29.8394 64.9986 12.2443 54.5858C3.31228 49.2998 -0.167019 38.6585 4.47311 30.8178C9.11324 22.9772 20.1157 20.9062 29.0477 26.1922Z" fill="white"/>
<path d="M55.3739 28.009C55.3739 37.9084 51.9211 37.967 47.6618 37.967C43.4024 37.967 39.9496 37.9084 39.9496 28.009C39.9496 18.1095 44.6764 10.0845 47.6618 10.0845C50.6471 10.0845 55.3739 18.1095 55.3739 28.009Z" fill="#6A5B3D"/>
<path d="M148.514 28.009C148.514 37.9084 145.062 37.967 140.802 37.967C136.543 37.967 133.09 37.9084 133.09 28.009C133.09 18.1095 137.817 10.0845 140.802 10.0845C143.788 10.0845 148.514 18.1095 148.514 28.009Z" fill="#6A5B3D"/>
<path d="M161.109 26.1922C143.149 36.8207 148.697 42.1195 153.337 49.9602C157.977 57.8009 160.317 64.9986 177.912 54.5858C186.844 49.2998 190.323 38.6585 185.683 30.8178C181.043 22.9772 170.041 20.9062 161.109 26.1922Z" fill="#123041"/>
<path d="M165.543 35.2533C156.592 40.5506 158.91 42.4352 160.67 45.4101C162.431 48.385 163.149 51.2161 171.919 46.0262C176.371 43.3916 178.552 38.8442 176.792 35.8694C175.031 32.8945 169.995 32.6186 165.543 35.2533Z" fill="#FFC0C1"/>
<path d="M24.0849 35.2533C33.0361 40.5506 30.7184 42.4352 28.9579 45.4101C27.1974 48.385 26.479 51.2161 17.7094 46.0262C13.2576 43.3916 11.0758 38.8442 12.8364 35.8694C14.5969 32.8945 19.633 32.6186 24.0849 35.2533Z" fill="#FFC0C1"/>
<path d="M169.278 87.505C169.278 118.467 135.326 128.734 94.0609 128.734C52.7956 128.734 18.5937 118.467 18.5937 87.505C18.5937 34.7115 52.7956 16.6108 94.0609 16.6108C135.326 16.6108 169.278 32.1975 169.278 87.505Z" fill="white"/>
<path fill-rule="evenodd" clip-rule="evenodd" d="M99.3017 16.6973C99.6483 26.5766 101.712 39.5347 108.185 44.7751C113.878 49.3833 120.447 50.5569 126.317 51.6055C131.334 52.5018 135.841 53.3069 138.853 56.087C140.453 57.5642 141.872 59.614 143.41 61.8343C148.042 68.5238 153.746 76.7606 168.695 75.5452C164.273 32.0219 135.068 17.909 99.3017 16.6973Z" fill="#123041"/>
<path d="M57.7476 81.8677V91.3596" stroke="#123041" stroke-width="8.89869" stroke-linecap="round"/>
<path d="M137.24 81.8677V91.3596" stroke="#123041" stroke-width="8.89869" stroke-linecap="round"/>
<path d="M69.612 103.936C69.612 91.7482 79.4925 81.8677 91.6807 81.8677H102.715C114.903 81.8677 124.784 91.7482 124.784 103.936C124.784 112.062 118.197 118.649 110.071 118.649H84.3245C76.199 118.649 69.612 112.062 69.612 103.936Z" fill="#FFC0C1"/>
<path d="M85.6296 98.4785V105.004" stroke="#123041" stroke-width="5.93246" stroke-linecap="round"/>
<path d="M109.358 98.4785L109.358 105.004" stroke="#123041" stroke-width="5.93246" stroke-linecap="round"/>
<path d="M39.9496 105.004H48.8482" stroke="#FFC0C1" stroke-width="11.8649" stroke-linecap="round"/>
<path d="M146.139 105.004H155.038" stroke="#FFC0C1" stroke-width="11.8649" stroke-linecap="round"/>
<g clip-path="url(#clip1_583_1166)">
<path d="M137.407 109.601C139.716 120.088 144.208 122.27 151.478 121.455C158.748 120.639 162.645 117.515 162.573 106.778C162.517 98.4267 156.478 92.836 148.369 93.7458C140.261 94.6556 135.611 101.445 137.407 109.601Z" fill="#9EE7E5"/>
<path d="M137.444 108.105L162.205 105.327" stroke="#005071" stroke-width="2.96623" stroke-linecap="round"/>
<rect x="150.244" y="160.993" width="10.6784" height="7.11895" rx="1.18649" transform="rotate(-6.40172 150.244 160.993)" fill="#005071"/>
<path d="M142.192 120.75C142.092 120.085 142.564 119.47 143.233 119.395L158.471 117.685C159.139 117.61 159.736 118.105 159.786 118.776L163.133 163.77C163.181 164.407 162.716 164.966 162.082 165.037L150.205 166.37C149.571 166.441 148.994 165.998 148.899 165.367L142.192 120.75Z" fill="#005071"/>
</g>
</g>
<defs>
<clipPath id="clip0_583_1166">
<rect width="186.872" height="221.874" fill="white"/>
</clipPath>
<clipPath id="clip1_583_1166">
<rect width="33.815" height="81.2747" fill="white" transform="translate(130.515 91.5703) rotate(-6.40172)"/>
</clipPath>
</defs>
</svg>
