<svg width="227" height="240" viewBox="0 0 227 240" fill="none" xmlns="http://www.w3.org/2000/svg">
<g clip-path="url(#clip0_583_1138)">
<path d="M68.3785 159.827C83.0951 164.129 104.423 150.034 113.247 142.449C113.594 141.181 113.939 138.002 112.542 135.438C110.796 132.232 74.1038 133.438 65.7386 135.239C57.3733 137.04 49.9828 154.45 68.3785 159.827Z" fill="#FFC532"/>
<path d="M97.2461 228.671C92.9912 226.932 88.8483 203.751 89.6881 192.211L130.557 198.734C131.397 208.1 131.453 227.2 129.437 228.671C126.918 230.511 102.565 230.846 97.2461 228.671Z" fill="#FFC532"/>
<path d="M94.0518 202.996C81.3322 194.538 98.5265 141.774 110.95 135.128C123.374 128.482 143.581 129.489 152.455 135.128C161.33 140.767 183.259 194.336 170.54 202.996C157.82 211.656 106.772 211.454 94.0518 202.996Z" fill="#FFDB40"/>
<path d="M166.746 228.671C171 226.932 175.143 203.751 174.304 192.211L133.435 198.734C132.595 208.1 132.539 227.2 134.554 228.671C137.074 230.511 161.427 230.846 166.746 228.671Z" fill="#FFDB40"/>
<path d="M128.988 195.177C128.866 195.178 128.745 195.155 128.633 195.109C128.52 195.063 128.417 194.995 128.331 194.91L124.21 190.765C124.058 190.589 123.979 190.362 123.988 190.13C123.997 189.898 124.093 189.678 124.258 189.514C124.423 189.35 124.644 189.254 124.877 189.245C125.11 189.236 125.338 189.315 125.515 189.466L129.646 193.565C129.732 193.651 129.801 193.753 129.848 193.865C129.895 193.977 129.92 194.098 129.92 194.219C129.92 194.341 129.895 194.461 129.848 194.573C129.801 194.686 129.732 194.787 129.646 194.873C129.562 194.965 129.461 195.04 129.348 195.092C129.235 195.144 129.113 195.173 128.988 195.177Z" fill="#FFB132"/>
<path d="M124.911 195.177C124.79 195.178 124.67 195.155 124.558 195.109C124.447 195.063 124.345 194.996 124.259 194.911C124.173 194.825 124.104 194.724 124.058 194.612C124.011 194.5 123.987 194.379 123.987 194.258C123.987 194.137 124.011 194.017 124.058 193.905C124.104 193.793 124.173 193.691 124.259 193.606L128.348 189.516C128.433 189.43 128.535 189.362 128.647 189.315C128.759 189.269 128.879 189.245 129 189.245C129.121 189.245 129.241 189.269 129.353 189.315C129.465 189.362 129.567 189.43 129.652 189.516C129.823 189.689 129.92 189.922 129.92 190.164C129.92 190.407 129.823 190.64 129.652 190.812L125.554 194.911C125.383 195.08 125.152 195.176 124.911 195.177Z" fill="#FFB132"/>
<path d="M56.482 103.523C56.482 134.485 90.4339 144.752 131.699 144.752C172.965 144.752 207.166 134.485 207.166 103.523C207.166 50.7291 172.965 32.6284 131.699 32.6284C90.4339 32.6284 56.482 48.2151 56.482 103.523Z" fill="#FFDB40"/>
<path d="M180.472 118.649H171.574" stroke="#FCA18E" stroke-width="11.8649" stroke-linecap="round"/>
<path d="M81.9937 118.649H73.095" stroke="#FCA18E" stroke-width="11.8649" stroke-linecap="round"/>
<path d="M162.674 97.292V106.784" stroke="#123041" stroke-width="8.89869" stroke-linecap="round"/>
<path d="M90.8927 97.292V106.784" stroke="#123041" stroke-width="8.89869" stroke-linecap="round"/>
<path d="M111.655 110.937C111.655 116.343 118.428 118.649 126.783 118.649C135.138 118.649 141.911 116.343 141.911 110.937C141.911 105.531 135.138 99.0718 126.783 99.0718C118.428 99.0718 111.655 105.531 111.655 110.937Z" fill="#FFB132"/>
<path d="M142.944 11.9954C133.944 19.9758 128.774 28.9259 127.245 37.0718L143.082 35.383C149.603 34.6876 155.85 27.0008 155.562 17.6706C155.273 8.34036 147.52 7.93709 142.944 11.9954Z" fill="#FFDB40"/>
<path d="M126.416 24.6018C129.218 27.3377 129.926 33.3 129.93 35.9391C124.502 35.4374 115.394 33.7687 113.761 30.2929C112.128 26.8171 113.147 22.4957 115.135 21.4657C117.124 20.4356 122.914 21.1819 126.416 24.6018Z" fill="#FFDB40"/>
<path d="M125.243 160.054C138.913 166.996 162.474 157.076 172.546 151.248C173.121 150.066 172.63 146.532 171.448 143.862C168.266 136.675 135.736 135.173 127.182 135.401C118.628 135.628 108.154 151.377 125.243 160.054Z" fill="#FFC532"/>
<g clip-path="url(#clip1_583_1138)">
<rect width="225.433" height="16.8737" rx="3.37475" transform="matrix(-1 0 0 1 225.435 147.672)" fill="#FF686B"/>
<rect width="62.7704" height="14.1739" rx="3.37475" transform="matrix(-1 0 0 1 141.74 118.649)" fill="#FF686B"/>
<rect width="3.37475" height="72.3832" rx="1.3499" transform="matrix(-0.810295 -0.586022 -0.586022 0.810295 132.966 168.548)" fill="#123041"/>
<rect x="87.7438" y="168.548" width="3.37475" height="72.3832" rx="1.3499" transform="rotate(-35.8752 87.7438 168.548)" fill="#123041"/>
<rect x="117.738" y="129.084" width="3.37475" height="41.0881" rx="1.3499" transform="rotate(-16.9822 117.738 129.084)" fill="#123041"/>
<rect width="3.37475" height="41.0881" rx="1.3499" transform="matrix(-0.956396 -0.292074 -0.292074 0.956396 102.973 129.084)" fill="#123041"/>
<ellipse cx="4.0497" cy="4.0497" rx="4.0497" ry="4.0497" transform="matrix(-1 0 0 1 135.665 164.546)" fill="#FF686B"/>
<ellipse cx="89.0922" cy="168.596" rx="4.0497" ry="4.0497" fill="#FF686B"/>
<ellipse cx="5.3996" cy="5.3996" rx="5.3996" ry="5.3996" transform="matrix(-1 0 0 1 115.417 191.544)" fill="#FF686B"/>
<ellipse cx="4.0497" cy="4.0497" rx="4.0497" ry="4.0497" transform="matrix(-1 0 0 1 93.1433 221.917)" fill="#FF686B"/>
<ellipse cx="131.617" cy="225.967" rx="4.0497" ry="4.0497" fill="#FF686B"/>
</g>
</g>
<defs>
<clipPath id="clip0_583_1138">
<rect width="226.027" height="239.078" fill="white" transform="matrix(-1 0 0 1 226.027 0)"/>
</clipPath>
<clipPath id="clip1_583_1138">
<rect width="262.215" height="135.26" fill="white" transform="matrix(-1 0 0 1 241.452 94.9194)"/>
</clipPath>
</defs>
</svg>
