<svg width="256" height="123" viewBox="0 0 256 123" fill="none" xmlns="http://www.w3.org/2000/svg">
<g clip-path="url(#clip0_583_1201)">
<path d="M216.059 98.3044C212.356 102.008 180.055 101.39 162.978 100.773C152.485 94.2924 150.942 63.7398 158.04 59.4192C165.138 55.0986 197.145 69.9366 201.863 73.3068C206.184 76.393 220.38 93.9837 216.059 98.3044Z" fill="#5C9A15"/>
<path d="M235.777 112.954C232.074 116.657 199.772 116.04 182.696 115.423C172.203 108.942 170.66 78.3892 177.758 74.0686C184.856 69.748 216.863 84.5861 221.581 87.9563C225.901 91.0424 240.098 108.633 235.777 112.954Z" fill="#5BB42B"/>
<path d="M189.592 114.431C184.928 117.397 107.708 117.397 102.267 114.431C96.8251 111.466 86.9783 88.3361 90.0878 81.2192C93.1973 74.1024 119.628 48.3036 163.42 50.0828C207.212 51.8621 194.256 111.466 189.592 114.431Z" fill="#5BB42B"/>
<path d="M15.7262 92.5498C30.7438 87.17 53.7675 100.487 63.4021 107.817C63.8415 109.113 64.3972 112.393 63.1051 115.143C61.4899 118.581 23.3079 119.602 14.5083 118.25C5.70878 116.898 -3.04584 99.2745 15.7262 92.5498Z" fill="#5C9A15"/>
<ellipse cx="24.6716" cy="26.5868" rx="24.6716" ry="26.5868" transform="matrix(-0.877234 -0.480064 -0.480064 0.877234 171.68 18.8218)" fill="#5BB42B"/>
<ellipse cx="30.0793" cy="29.6161" rx="24.6716" ry="26.5868" transform="rotate(-28.6896 30.0793 29.6161)" fill="#5BB42B"/>
<path d="M3.7897 72.9974C3.7897 105.552 39.6703 116.347 83.2797 116.347C126.889 116.347 163.034 105.552 163.034 72.9974C163.034 26.2322 126.889 6.17236 83.2797 6.17236C39.6703 6.17236 3.7897 22.5288 3.7897 72.9974Z" fill="#5BB42B"/>
<path d="M146.373 61.7246H135.88" stroke="#A1DC3C" stroke-width="12.3445" stroke-linecap="round"/>
<path d="M32.1809 61.7246H21.6881" stroke="#A1DC3C" stroke-width="12.3445" stroke-linecap="round"/>
<path d="M32.7133 38.2695L27.7759 39.5041" stroke="#123041" stroke-width="9.25838" stroke-linecap="round"/>
<path d="M127.766 38.8892L132.703 40.1238" stroke="#123041" stroke-width="9.25838" stroke-linecap="round"/>
<path d="M109.547 92.5498C124.564 87.17 147.588 100.487 157.223 107.817C157.662 109.113 158.218 112.393 156.926 115.143C155.31 118.581 117.128 119.602 108.329 118.25C99.5292 116.898 90.7746 99.2745 109.547 92.5498Z" fill="#5C9A15"/>
<path d="M56.7805 41.0445C58.1178 41.9704 61.78 43.822 65.7303 43.822C70.6681 43.822 72.5198 39.5015 77.7662 39.5015C83.0126 39.5015 84.8643 43.822 89.8021 43.822C93.7523 43.822 97.4145 41.9704 98.7518 41.0445" stroke="#4B890D" stroke-width="3.08613" stroke-linecap="round"/>
</g>
<defs>
<clipPath id="clip0_583_1201">
<rect width="255.531" height="122.828" fill="white"/>
</clipPath>
</defs>
</svg>
