<svg width="617" height="186" viewBox="0 0 617 186" fill="none" xmlns="http://www.w3.org/2000/svg">
<path fill-rule="evenodd" clip-rule="evenodd" d="M209 20.9785C209 9.3924 199.608 0 188.021 0H40C17.9086 0 0 17.9087 0 40V74.317C0 96.4084 17.9086 114.317 40 114.317H120.165C138.299 114.317 153 129.018 153 147.153V167.488C153 174.392 158.596 179.988 165.5 179.988C172.404 179.988 178 174.392 178 167.488V153.537C178 138.929 189.842 127.087 204.451 127.087H296.661C306.789 127.087 315 135.298 315 145.426C315 155.555 323.211 163.765 333.339 163.765H451.617C457.904 163.765 463 158.669 463 152.383C463 146.096 468.096 141 474.383 141H490.987C503.145 141 513 150.855 513 163.013V172.525C513 179.429 518.596 185.025 525.5 185.025C532.404 185.025 538 179.429 538 172.525V163.013C538 150.855 547.855 141 560.013 141H579.5C600.211 141 617 124.211 617 103.5C617 82.7893 600.211 66 579.5 66H488.453C474.396 66 463 54.6042 463 40.5469C463 26.4895 451.604 15.0938 437.547 15.0938H328.432C321.014 15.0938 315 21.1073 315 28.5254C315 35.9435 308.986 41.957 301.568 41.957H229.979C218.392 41.957 209 32.5646 209 20.9785Z" fill="#AFD157"/>
</svg>
