<svg width="79" height="79" viewBox="0 0 79 79" fill="none" xmlns="http://www.w3.org/2000/svg">
<path fill-rule="evenodd" clip-rule="evenodd" d="M47.9452 8.4458C43.2807 3.78131 35.7181 3.78131 31.0536 8.44579L27.8028 11.6966C24.1456 15.3538 23.3558 20.7926 25.4335 25.2193C25.4952 25.3509 25.3518 25.4943 25.2202 25.4326C20.7939 23.356 15.3562 24.1461 11.6996 27.8028L8.44871 31.0536C3.78423 35.7181 3.78422 43.2807 8.44871 47.9452L11.6995 51.196C15.6202 55.1167 21.5884 55.7419 26.1621 53.0717C26.2912 52.9963 26.4507 53.1361 26.3922 53.2737C24.1841 58.4627 25.1961 64.6955 29.4282 68.9276C34.9904 74.4898 44.0085 74.4898 49.5706 68.9276C53.8027 64.6955 54.8148 58.4627 52.6067 53.2737C52.5481 53.1361 52.7076 52.9963 52.8367 53.0717C57.4104 55.7419 63.3786 55.1167 67.2993 51.196L70.5501 47.9452C75.2146 43.2807 75.2146 35.7181 70.5501 31.0536L67.2993 27.8028C63.6426 24.1461 58.2049 23.356 53.7786 25.4326C53.647 25.4943 53.5036 25.3509 53.5653 25.2193C55.643 20.7926 54.8532 15.3538 51.1961 11.6966L47.9452 8.4458Z" fill="#FF686B"/>
<circle cx="39.4994" cy="39.763" r="5.91911" transform="rotate(45 39.4994 39.763)" fill="#E23636"/>
</svg>
