<svg width="562" height="197" viewBox="0 0 562 197" fill="none" xmlns="http://www.w3.org/2000/svg">
<path fill-rule="evenodd" clip-rule="evenodd" d="M395 1C395 0.447715 395.448 0 396 0H522C544.091 0 562 17.9086 562 40V76.7493C562 98.8407 544.091 116.749 522 116.749H464C441.909 116.749 424 134.658 424 156.749V183.499C424 190.954 417.956 196.999 410.5 196.999C403.044 196.999 397 190.954 397 183.499V178.499C397 168.282 388.718 160 378.501 160H280C271.163 160 264 152.837 264 144C264 135.163 256.837 128 248 128H193.468C176.089 128 162 142.089 162 159.468V178.436C162 185.339 156.404 190.936 149.5 190.936C142.596 190.936 137 185.339 137 178.436V165.968C137 152.178 125.822 141 112.032 141H40C17.9086 141 0 123.091 0 101V87C0 64.9086 17.9086 47 40 47H148C153.523 47 158 51.4772 158 57C158 62.5228 162.477 67 168 67H231.5C249.449 67 264 52.4493 264 34.5C264 16.5507 278.551 2 296.5 2H394C394.552 2 395 1.55228 395 1Z" fill="#AFD157"/>
</svg>
