<svg width="1280" height="120" viewBox="0 0 1280 120" fill="none" xmlns="http://www.w3.org/2000/svg">
<path fill-rule="evenodd" clip-rule="evenodd" d="M1 0C0.447715 0 0 0.447716 0 1V42C0 42.5523 0.4477 43 0.999985 43H64C76.1503 43 86 52.8497 86 65V71.5C86 80.0604 92.9396 87 101.5 87V87C110.06 87 117 80.0604 117 71.5V65C117 52.8497 126.85 43 139 43H142.5C156.583 43 168 54.4167 168 68.5V75C168 92.6731 182.327 107 200 107H377C394.673 107 409 92.6731 409 75V75C409 57.3269 423.327 43 441 43H475.5C495.106 43 511 58.8939 511 78.5V98.4207C511 107.025 517.975 114 526.579 114V114C535.184 114 542.159 107.025 542.159 98.4207V78.5C542.159 58.8939 558.053 43 577.659 43H780.5C790.165 43 798 50.835 798 60.5V60.5C798 70.165 805.835 78 815.5 78H927C938.598 78 948 87.402 948 99V104.5C948 113.06 954.94 120 963.5 120V120C972.06 120 979 113.06 979 104.5V99C979 87.402 988.402 78 1000 78H1206.5C1216.16 78 1224 70.165 1224 60.5V60.5C1224 50.835 1231.84 43 1241.5 43H1279C1279.55 43 1280 42.5523 1280 42V1C1280 0.447715 1279.55 0 1279 0H1Z" fill="#AFD157"/>
<path fill-rule="evenodd" clip-rule="evenodd" d="M843.678 61.9625C843.85 62.046 844.046 61.8509 843.962 61.6783C841.754 57.112 842.544 51.4597 846.333 47.6706C851.121 42.8829 858.883 42.8829 863.671 47.6706C867.46 51.4597 868.25 57.112 866.042 61.6783C865.958 61.8509 866.153 62.046 866.326 61.9625C870.893 59.7534 876.546 60.5436 880.335 64.333C885.123 69.1207 885.123 76.883 880.335 81.6707C876.546 85.4601 870.893 86.2502 866.326 84.0413C866.154 83.9578 865.959 84.1529 866.042 84.3255C868.25 88.8918 867.46 94.5437 863.671 98.3326C858.883 103.12 851.121 103.12 846.333 98.3326C842.544 94.5437 841.754 88.8918 843.962 84.3255C844.045 84.1529 843.85 83.9578 843.678 84.0413C839.111 86.2502 833.458 85.4601 829.669 81.6707C824.881 76.883 824.881 69.1207 829.669 64.333C833.458 60.5436 839.111 59.7534 843.678 61.9625Z" fill="#FFC53D"/>
<circle cx="855.002" cy="73.2268" r="5.09493" transform="rotate(45 855.002 73.2268)" fill="#E98B2D"/>
<path fill-rule="evenodd" clip-rule="evenodd" d="M351.179 12.1788C346.11 7.1095 337.89 7.1095 332.821 12.1788C328.81 16.1897 327.973 22.1724 330.309 27.0066C330.397 27.1893 330.191 27.3957 330.008 27.3075C325.174 24.9725 319.192 25.8102 315.182 29.8206C310.113 34.89 310.113 43.109 315.182 48.1783C319.193 52.1888 325.174 53.0265 330.008 50.6913C330.191 50.603 330.398 50.8094 330.309 50.9921C327.973 55.8265 328.81 61.8096 332.821 65.8208C337.89 70.8901 346.11 70.8901 351.179 65.8208C355.19 61.8096 356.027 55.8265 353.691 50.9921C353.602 50.8094 353.809 50.603 353.992 50.6913C358.826 53.0265 364.807 52.1888 368.818 48.1783C373.887 43.109 373.887 34.89 368.818 29.8206C364.808 25.8102 358.826 24.9725 353.992 27.3075C353.809 27.3957 353.603 27.1893 353.691 27.0066C356.027 22.1724 355.19 16.1897 351.179 12.1788Z" fill="#FF686B"/>
<circle cx="342" cy="39.2385" r="5.39463" transform="rotate(45 342 39.2385)" fill="#E23636"/>
</svg>
