<svg width="68" height="68" viewBox="0 0 68 68" fill="none" xmlns="http://www.w3.org/2000/svg">
<path fill-rule="evenodd" clip-rule="evenodd" d="M22.6777 22.9625C22.8503 23.046 23.0455 22.8509 22.962 22.6783C20.7535 18.112 21.5439 12.4597 25.333 8.6706C30.1207 3.8829 37.883 3.8829 42.6707 8.6706C46.4598 12.4597 47.2501 18.112 45.0417 22.6783C44.9582 22.8509 45.1534 23.046 45.326 22.9625C49.8925 20.7534 55.5454 21.5436 59.3348 25.333C64.1225 30.1207 64.1225 37.883 59.3348 42.6707C55.5455 46.4601 49.8927 47.2503 45.3263 45.0413C45.1537 44.9578 44.9585 45.1529 45.042 45.3255C47.2501 49.8918 46.4597 55.5437 42.6707 59.3326C37.883 64.1203 30.1207 64.1203 25.333 59.3326C21.544 55.5437 20.7536 49.8918 22.9617 45.3255C23.0452 45.1529 22.85 44.9578 22.6774 45.0413C18.1109 47.2502 12.4582 46.4601 8.66889 42.6707C3.88119 37.883 3.88119 30.1207 8.66889 25.333C12.4583 21.5436 18.1112 20.7534 22.6777 22.9625Z" fill="#FFC53D"/>
<circle cx="34.0018" cy="34.2268" r="5.09493" transform="rotate(45 34.0018 34.2268)" fill="#E98B2D"/>
</svg>
