<svg width="843" height="249" viewBox="0 0 843 249" fill="none" xmlns="http://www.w3.org/2000/svg">
<path fill-rule="evenodd" clip-rule="evenodd" d="M42.0407 220.316C42.0394 220.063 42.0387 219.809 42.0387 219.556C42.0387 151.932 91.186 97.1118 151.812 97.1118C173.762 97.1118 194.206 104.297 211.359 116.675C221.131 65.7734 263.954 27.4438 315.302 27.4438C345.423 27.4438 372.611 40.634 391.915 61.8146C421.046 24.2145 466.706 0 518.036 0C588.12 0 647.633 45.1403 668.938 107.859C673.031 105.706 677.618 104.5 682.462 104.5C698.609 104.5 711.9 117.903 713.58 135.113C757.09 135.5 792.237 169.377 792.237 211.11C792.237 214.226 792.041 217.298 791.66 220.316H828.674C836.413 220.316 842.687 226.59 842.687 234.33C842.687 242.069 836.413 248.343 828.674 248.343H14.0136C6.27412 248.343 0 242.069 0 234.33C0 226.59 6.27412 220.316 14.0136 220.316H42.0407Z" fill="#E9F8F9"/>
</svg>
