<svg width="843" height="235" viewBox="0 0 843 235" fill="none" xmlns="http://www.w3.org/2000/svg">
<path fill-rule="evenodd" clip-rule="evenodd" d="M792.371 206.466C791.514 174.35 761.316 148.545 724.19 148.545C714.409 148.545 705.109 150.336 696.699 153.562C680.169 126.818 652.618 109.307 621.423 109.307C615.073 109.307 608.874 110.032 602.888 111.414C599.919 100.556 588.847 92.4902 575.643 92.4902C572.81 92.4902 570.075 92.8616 567.497 93.5521C548.295 39.0009 497.286 0 437.378 0C380.695 0 331.979 34.9144 310.633 84.8802C306.227 82.5827 301.189 81.2793 295.837 81.2793C279.277 81.2793 265.72 93.7572 264.613 109.55C262.124 109.389 259.608 109.307 257.069 109.307C238.426 109.307 221.034 113.742 206.345 121.408C190.4 93.5967 159.475 74.7388 123.939 74.7388C72.0841 74.7388 30.0475 114.893 30.0475 164.426C30.0475 179.618 34.0015 193.927 40.98 206.466H14.164C6.42451 206.466 0.150391 212.74 0.150391 220.48C0.150391 228.219 6.42451 234.493 14.164 234.493H828.824C836.564 234.493 842.838 228.219 842.838 220.48C842.838 212.74 836.564 206.466 828.824 206.466H792.371Z" fill="white" fill-opacity="0.5"/>
</svg>