<svg width="1070" height="329" viewBox="0 0 1070 329" fill="none" xmlns="http://www.w3.org/2000/svg">
<path fill-rule="evenodd" clip-rule="evenodd" d="M1018.5 293.319C1018.68 290.493 1018.77 287.64 1018.77 284.762C1018.77 219.307 971.258 166.245 912.65 166.245C885.816 166.245 861.308 177.369 842.621 195.714C838.129 193.703 833.135 192.583 827.874 192.583C818.007 192.583 809.078 196.525 802.634 202.891C781.708 185.757 756.436 174.704 728.97 172.105C717.102 75.0429 643.812 0.322266 555.171 0.322266C477.863 0.322266 412.232 57.1583 388.84 136.082C370.599 123.467 349.208 116.206 326.334 116.206C267.241 116.206 218.047 164.662 207.49 228.716C192.563 221.576 176.001 217.603 158.564 217.603C109.75 217.603 67.791 248.742 49.3744 293.319H18.0546C8.23218 293.319 0.269531 301.282 0.269531 311.104C0.269531 320.927 8.23218 328.889 18.0546 328.889L1051.96 328.889C1061.78 328.889 1069.75 320.927 1069.75 311.104C1069.75 301.282 1061.78 293.319 1051.96 293.319L1018.5 293.319Z" fill="white" fill-opacity="0.6"/>
</svg>
