<svg width="843" height="235" viewBox="0 0 843 235" fill="none" xmlns="http://www.w3.org/2000/svg">
<path fill-rule="evenodd" clip-rule="evenodd" d="M792.222 206.963C791.366 174.847 761.168 149.041 724.041 149.041C714.26 149.041 704.96 150.832 696.551 154.058C680.021 127.314 652.469 109.803 621.274 109.803C614.924 109.803 608.725 110.528 602.739 111.91C599.77 101.052 588.699 92.9863 575.495 92.9863C572.661 92.9863 569.927 93.3577 567.349 94.0482C548.147 39.497 497.137 0.496094 437.23 0.496094C380.547 0.496094 331.831 35.4105 310.485 85.3763C306.079 83.0788 301.041 81.7754 295.688 81.7754C279.128 81.7754 265.572 94.2533 264.464 110.046C261.975 109.885 259.459 109.803 256.92 109.803C238.278 109.803 220.885 114.238 206.197 121.904C190.252 94.0928 159.327 75.2349 123.79 75.2349C71.9357 75.2349 29.899 115.389 29.899 164.922C29.899 180.114 33.8532 194.424 40.8321 206.963H14.0136C6.27412 206.963 0 213.237 0 220.977C0 228.716 6.27412 234.99 14.0136 234.99H828.674C836.413 234.99 842.687 228.716 842.687 220.977C842.687 213.237 836.413 206.963 828.674 206.963H792.222Z" fill="white"/>
</svg>
