<svg width="946" height="941" viewBox="0 0 946 941" fill="none" xmlns="http://www.w3.org/2000/svg">
<g clip-path="url(#clip0_781_1378)">
<circle cx="473.097" cy="470.342" r="470.345" fill="#1E1E1E"/>
<circle cx="473.096" cy="470.344" r="442.876" stroke="#454545" stroke-width="3.76276"/>
<circle cx="473.098" cy="470.343" r="267.155" stroke="#454545" stroke-width="3.76276"/>
<circle cx="473.096" cy="470.341" r="314.566" stroke="#454545" stroke-width="3.76276"/>
<circle cx="473.103" cy="470.343" r="358.591" stroke="#454545" stroke-width="3.76276"/>
<circle cx="473.1" cy="470.343" r="222.755" fill="#55B7D7"/>
<circle cx="473.096" cy="470.341" r="193.029" fill="#C4E2CE"/>
<circle cx="473.1" cy="470.342" r="160.669" fill="#FADCA3"/>
<circle cx="473.097" cy="470.342" r="120.784" fill="#F4AD74"/>
<circle cx="473.101" cy="470.341" r="82.4042" fill="#FDA064"/>
<path d="M98.677 436.279C98.2962 443.255 95.4649 448.614 91.0341 452.651L87.4331 449.426C91.2095 446.035 93.9801 441.787 94.3036 435.86C94.6608 429.316 91.2619 425.792 87.4341 425.589C82.9271 425.349 80.9176 429.267 78.7845 436.583C76.3437 444.998 73.3957 450.227 66.0487 449.837C59.2574 449.476 54.2781 443.144 54.7229 434.995C55.0667 428.698 57.7924 424.137 61.5856 420.438L65.1899 423.602C61.6022 426.94 59.3356 431.03 59.0929 435.475C58.8065 440.722 62.0549 444.733 65.9445 444.94C70.328 445.173 72.1007 441.057 74.2237 433.926C76.5791 425.941 79.7977 420.292 87.2681 420.689C93.9978 421.047 99.2162 426.401 98.677 436.279Z" fill="#454545"/>
<path d="M63.1431 374.806L63.9772 370.057L105.844 377.216L105.01 381.966L85.9354 378.704L81.6042 403.366L100.679 406.628L99.8448 411.378L57.9777 404.219L58.8119 399.469L77.0945 402.595L81.4257 377.933L63.1431 374.806Z" fill="#454545"/>
<path d="M119.019 332.851L108.514 334.075L101.365 356.65L109.294 363.559L107.707 368.569L72.774 338.194L74.3606 333.184L120.605 327.841L119.019 332.851ZM97.5903 353.416L103.545 334.613L79.2484 337.408L97.5903 353.416Z" fill="#454545"/>
<path d="M124.208 319.748L85.4673 302.333L92.6973 286.672C96.3771 278.701 104.385 274.777 111.66 278.047C118.934 281.317 121.189 289.855 117.509 297.826L112.301 309.109L126.229 315.37L124.208 319.748ZM108.128 307.233L112.974 296.736C115.876 290.449 114.8 284.814 109.612 282.482C104.424 280.149 99.4098 283.047 96.5074 289.334L91.6615 299.831L108.128 307.233Z" fill="#454545"/>
<path d="M125.494 236.961L112.209 258.84L124.237 265.952L136.206 246.239L140.144 248.568L128.176 268.28L140.895 275.8L154.18 253.921L158.118 256.25L142.299 282.304L105.736 260.687L121.556 234.633L125.494 236.961Z" fill="#454545"/>
<path d="M183.121 223.71L153.993 199.462L144.713 210.317L141.196 207.39L162.892 182.013L166.408 184.941L157.127 195.796L186.254 220.045L183.121 223.71Z" fill="#454545"/>
<path d="M194.941 151.149L198.483 147.876L227.723 178.684L224.182 181.957L210.86 167.921L192.471 184.916L205.793 198.953L202.251 202.226L173.011 171.418L176.552 168.145L189.321 181.598L207.71 164.603L194.941 151.149Z" fill="#454545"/>
<path d="M238.389 122.197L217.7 137.268L226.07 148.456L244.71 134.878L247.451 138.541L228.811 152.12L237.663 163.952L258.351 148.88L261.092 152.544L236.455 170.491L211.011 136.481L235.648 118.533L238.389 122.197Z" fill="#454545"/>
<path d="M299.543 131.293C293.323 134.473 287.245 134.734 281.492 132.954L282.436 128.235C287.296 129.778 292.383 130.024 297.668 127.322C303.503 124.339 304.809 119.644 303.027 116.25C300.928 112.254 296.517 112.496 289.106 114.341C280.59 116.473 274.565 116.568 271.144 110.054C267.983 104.032 270.906 96.5663 278.172 92.8512C283.787 89.9804 289.121 90.031 294.256 91.4328L293.367 96.1229C288.648 94.7165 283.956 94.8239 279.993 96.8503C275.314 99.2426 273.51 104.053 275.321 107.502C277.361 111.388 281.823 110.843 289.069 109.083C297.171 107.093 303.697 107.02 307.174 113.643C310.307 119.61 308.351 126.79 299.543 131.293Z" fill="#454545"/>
<path d="M341.234 113.229C330.201 117.261 317.252 111.264 313.06 100.093C308.867 88.921 314.755 76.1057 325.788 72.0734C336.879 68.02 349.69 74.0016 353.883 85.1733C358.076 96.3449 352.326 109.176 341.234 113.229ZM339.67 109.061C348.264 105.921 352.641 95.764 349.295 86.8498C345.972 77.9936 335.947 73.1002 327.352 76.2411C318.758 79.382 314.323 89.5598 317.647 98.4161C320.993 107.33 331.076 112.202 339.67 109.061Z" fill="#454545"/>
<path d="M389.765 99.0768C379.622 101.313 370.758 95.4796 368.383 84.9872L362.895 60.7463L367.604 59.7082L373.092 83.9491C374.894 91.9088 381.43 96.4192 388.796 94.7954C396.162 93.1717 400.132 86.3455 398.33 78.3858L392.842 54.1448L397.552 53.1067L403.039 77.3476C405.414 87.84 399.909 96.8408 389.765 99.0768Z" fill="#454545"/>
<path d="M420.557 92.3996L416.728 50.0976L421.532 49.6742L450.884 81.7822L447.768 47.3618L452.572 46.9384L456.401 89.2404L451.597 89.6638L422.245 57.5558L425.361 91.9762L420.557 92.3996Z" fill="#454545"/>
<path d="M470.88 88.8658L472.652 46.4279L486.984 47.0106C500.451 47.5581 509.598 56.7166 509.08 69.133C508.561 81.5493 498.679 89.996 485.212 89.4485L470.88 88.8658ZM475.882 84.6758L485.395 85.0626C496.02 85.4946 503.787 78.8182 504.199 68.9345C504.61 59.1127 497.426 51.8284 486.801 51.3964L477.287 51.0096L475.882 84.6758Z" fill="#454545"/>
<path d="M557.908 99.3787C546.451 96.7821 538.967 84.7529 541.672 73.131C544.377 61.5091 556.416 53.9678 567.873 56.5643C579.389 59.1745 586.767 71.1163 584.061 82.7382C581.356 94.3601 569.424 101.989 557.908 99.3787ZM558.917 95.043C567.841 97.0656 577.14 90.932 579.298 81.6585C581.442 72.4453 575.788 62.9225 566.864 60.8999C557.94 58.8774 548.58 64.9974 546.436 74.2106C544.278 83.484 549.993 93.0205 558.917 95.043Z" fill="#454545"/>
<path d="M631.225 81.5501L607.132 72.9053L602.301 86.0163L624.007 93.805L622.425 98.098L600.719 90.3093L594.028 108.467L589.431 106.818L604.117 66.9627L632.807 77.2571L631.225 81.5501Z" fill="#454545"/>
<path d="M654.47 134.541L672.925 101.438L660.374 94.6243L662.601 90.6282L691.943 106.557L689.715 110.553L677.163 103.739L658.708 136.842L654.47 134.541Z" fill="#454545"/>
<path d="M693.546 159.571C683.969 152.768 681.743 138.826 688.775 129.186C695.807 119.546 709.876 117.255 719.453 124.058C729.08 130.896 731.242 144.717 724.209 154.357C717.177 163.997 703.173 166.41 693.546 159.571ZM696.169 155.975C703.629 161.274 714.616 159.22 720.227 151.528C725.802 143.886 724.289 132.953 716.829 127.654C709.369 122.355 698.332 124.373 692.757 132.015C687.146 139.707 688.709 150.676 696.169 155.975Z" fill="#454545"/>
<path d="M720.146 179.73L749.855 149.373L753.346 152.7L744.045 184.742L776.172 174.454L779.663 177.781L749.955 208.137L746.463 204.81L768.907 181.877L736.78 192.166L746.081 160.124L723.637 183.056L720.146 179.73Z" fill="#454545"/>
<path d="M770.777 234.179C763.532 224.933 765.367 210.936 774.853 203.697C784.34 196.459 798.48 198.268 805.726 207.515C813.009 216.81 811.147 230.672 801.66 237.91C792.174 245.148 778.061 243.475 770.777 234.179ZM774.316 231.479C779.96 238.682 791.078 239.841 798.648 234.066C806.168 228.328 807.83 217.418 802.186 210.215C796.543 203.012 785.386 201.804 777.866 207.542C770.296 213.318 768.673 224.276 774.316 231.479Z" fill="#454545"/>
<path d="M832.136 273.337C826.357 276.68 819.505 275.073 814.832 269.992L806.861 287.317L804.05 282.587L811.773 265.691L806.025 256.017L792.807 263.665L790.344 259.519L827.109 238.248L835.92 253.077C840.404 260.625 839.04 269.342 832.136 273.337ZM825.612 244.685L809.986 253.726L815.891 263.665C819.428 269.618 824.718 271.986 829.642 269.138C834.565 266.289 835.055 260.577 831.518 254.624L825.612 244.685Z" fill="#454545"/>
<path d="M851.208 314.479C845.085 317.143 838.469 314.763 834.416 309.177L824.506 325.491L822.261 320.467L831.875 304.552L827.285 294.278L813.282 300.371L811.314 295.968L850.262 279.022L857.299 294.771C860.881 302.787 858.522 311.297 851.208 314.479ZM848.034 285.25L831.48 292.453L836.197 303.009C839.022 309.331 844 312.289 849.216 310.02C854.431 307.751 855.576 302.128 852.751 295.806L848.034 285.25Z" fill="#454545"/>
<path d="M833.198 354.09C829.823 342.838 836.619 330.419 848.073 327.074C859.527 323.728 872.019 330.514 875.394 341.766C878.786 353.077 872.014 365.36 860.56 368.705C849.106 372.051 836.591 365.401 833.198 354.09ZM837.471 352.842C840.1 361.607 850.018 366.697 859.157 364.027C868.237 361.375 873.75 351.778 871.121 343.014C868.492 334.249 858.556 329.1 849.476 331.752C840.337 334.422 834.842 344.078 837.471 352.842Z" fill="#454545"/>
<path d="M844.06 395.331L884.438 375.815L885.108 381.215L852.428 396.998L887.942 404.039L888.604 409.377L855.863 424.669L891.438 432.201L892.108 437.601L848.15 428.279L847.564 423.555L882.016 407.495L844.646 400.056L844.06 395.331Z" fill="#454545"/>
<path d="M848.144 454.969C848.135 453.052 849.674 451.561 851.529 451.553C853.26 451.545 854.812 453.022 854.821 454.938C854.83 456.731 853.291 458.222 851.56 458.23C849.705 458.238 848.152 456.762 848.144 454.969Z" fill="#454545"/>
<path d="M848.233 504.576C848.614 497.6 851.445 492.241 855.876 488.204L859.477 491.429C855.7 494.819 852.93 499.068 852.606 504.995C852.249 511.539 855.648 515.063 859.476 515.266C863.983 515.506 865.992 511.588 868.125 504.272C870.566 495.857 873.514 490.628 880.861 491.018C887.652 491.379 892.632 497.711 892.187 505.86C891.843 512.157 889.117 516.718 885.324 520.417L881.72 517.253C885.307 513.915 887.574 509.825 887.817 505.38C888.103 500.133 884.855 496.122 880.965 495.915C876.582 495.682 874.809 499.798 872.686 506.929C870.331 514.914 867.112 520.563 859.642 520.166C852.912 519.808 847.693 514.454 848.233 504.576Z" fill="#454545"/>
<path d="M883.767 566.049L882.933 570.798L841.065 563.639L841.9 558.889L860.974 562.151L865.306 537.489L846.231 534.226L847.065 529.477L888.932 536.636L888.098 541.386L869.815 538.26L865.484 562.922L883.767 566.049Z" fill="#454545"/>
<path d="M827.891 608.004L838.396 606.78L845.545 584.205L837.616 577.296L839.202 572.286L874.136 602.661L872.549 607.671L826.305 613.014L827.891 608.004ZM849.319 587.439L843.365 606.242L867.661 603.447L849.319 587.439Z" fill="#454545"/>
<path d="M822.702 621.107L861.442 638.522L854.212 654.183C850.533 662.154 842.525 666.078 835.25 662.808C827.976 659.538 825.721 651 829.4 643.029L834.609 631.746L820.68 625.485L822.702 621.107ZM838.782 633.622L833.936 644.119C831.034 650.406 832.109 656.041 837.297 658.373C842.485 660.705 847.5 657.808 850.402 651.521L855.248 641.024L838.782 633.622Z" fill="#454545"/>
<path d="M821.416 703.894L834.7 682.015L822.672 674.903L810.704 694.616L806.765 692.287L818.734 672.575L806.014 665.055L792.73 686.934L788.792 684.605L804.611 658.551L841.173 680.168L825.354 706.222L821.416 703.894Z" fill="#454545"/>
<path d="M763.789 717.145L792.916 741.393L802.197 730.538L805.713 733.465L784.018 758.842L780.502 755.914L789.783 745.059L760.655 720.81L763.789 717.145Z" fill="#454545"/>
<path d="M751.968 789.706L748.427 792.979L719.187 762.171L722.728 758.898L736.05 772.934L754.439 755.939L741.117 741.902L744.659 738.629L773.899 769.437L770.357 772.71L757.589 759.257L739.2 776.252L751.968 789.706Z" fill="#454545"/>
<path d="M708.521 818.658L729.21 803.587L720.84 792.399L702.2 805.977L699.459 802.314L718.099 788.735L709.247 776.903L688.558 791.975L685.818 788.311L710.454 770.364L735.898 804.374L711.262 822.322L708.521 818.658Z" fill="#454545"/>
<path d="M647.367 809.562C653.587 806.382 659.665 806.121 665.418 807.901L664.473 812.62C659.614 811.077 654.527 810.831 649.242 813.533C643.407 816.516 642.101 821.211 643.883 824.605C645.981 828.601 650.393 828.359 657.804 826.514C666.32 824.382 672.345 824.287 675.765 830.801C678.927 836.823 676.004 844.289 668.737 848.004C663.122 850.875 657.789 850.824 652.654 849.422L653.543 844.732C658.261 846.139 662.953 846.031 666.917 844.005C671.596 841.612 673.4 836.802 671.589 833.353C669.548 829.467 665.086 830.012 657.841 831.772C649.738 833.762 643.213 833.835 639.735 827.212C636.603 821.245 638.559 814.065 647.367 809.562Z" fill="#454545"/>
<path d="M605.675 827.626C616.709 823.594 629.657 829.591 633.85 840.762C638.043 851.934 632.155 864.749 621.122 868.782C610.03 872.835 597.22 866.853 593.027 855.682C588.834 844.51 594.584 831.679 605.675 827.626ZM607.24 831.794C598.645 834.934 594.269 845.091 597.614 854.005C600.938 862.861 610.963 867.755 619.557 864.614C628.152 861.473 632.586 851.295 629.263 842.439C625.917 833.525 615.834 828.653 607.24 831.794Z" fill="#454545"/>
<path d="M557.144 841.778C567.288 839.542 576.152 845.375 578.527 855.868L584.015 880.109L579.305 881.147L573.818 856.906C572.016 848.946 565.48 844.436 558.114 846.06C550.748 847.683 546.778 854.509 548.58 862.469L554.068 886.71L549.358 887.748L543.871 863.507C541.495 853.015 547.001 844.014 557.144 841.778Z" fill="#454545"/>
<path d="M526.353 848.455L530.182 890.757L525.378 891.18L496.026 859.072L499.142 893.493L494.338 893.916L490.509 851.614L495.313 851.191L524.665 883.299L521.549 848.878L526.353 848.455Z" fill="#454545"/>
<path d="M476.03 851.989L474.258 894.427L459.926 893.844C446.459 893.297 437.312 884.138 437.83 871.722C438.348 859.306 448.231 850.859 461.698 851.406L476.03 851.989ZM471.028 856.179L461.515 855.792C450.889 855.36 443.123 862.037 442.71 871.92C442.3 881.742 449.484 889.027 460.109 889.459L469.622 889.845L471.028 856.179Z" fill="#454545"/>
<path d="M389.002 841.476C400.459 844.073 407.942 856.102 405.237 867.724C402.532 879.346 390.494 886.887 379.037 884.291C367.52 881.68 360.143 869.739 362.848 858.117C365.553 846.495 377.485 838.866 389.002 841.476ZM387.993 845.812C379.069 843.789 369.77 849.923 367.612 859.196C365.467 868.41 371.122 877.932 380.046 879.955C388.97 881.978 398.329 875.858 400.474 866.644C402.632 857.371 396.917 847.835 387.993 845.812Z" fill="#454545"/>
<path d="M315.685 859.304L339.778 867.949L344.609 854.838L322.903 847.05L324.484 842.757L346.191 850.545L352.882 832.387L357.479 834.037L342.793 873.892L314.103 863.597L315.685 859.304Z" fill="#454545"/>
<path d="M292.44 806.314L273.985 839.417L286.536 846.231L284.308 850.227L254.967 834.298L257.195 830.302L269.746 837.116L288.202 804.013L292.44 806.314Z" fill="#454545"/>
<path d="M253.364 781.284C262.941 788.087 265.167 802.029 258.135 811.669C251.102 821.309 237.034 823.6 227.457 816.797C217.83 809.959 215.668 796.138 222.701 786.498C229.733 776.858 243.737 774.445 253.364 781.284ZM250.741 784.88C243.281 779.581 232.294 781.635 226.683 789.327C221.108 796.969 222.621 807.902 230.081 813.201C237.541 818.5 248.578 816.482 254.153 808.84C259.764 801.148 258.2 790.179 250.741 784.88Z" fill="#454545"/>
<path d="M226.763 761.125L197.055 791.482L193.563 788.155L202.864 756.113L170.737 766.401L167.246 763.074L196.955 732.718L200.446 736.045L178.002 758.978L210.13 748.689L200.829 780.731L223.272 757.799L226.763 761.125Z" fill="#454545"/>
<path d="M176.132 706.676C183.377 715.922 181.543 729.919 172.056 737.157C162.57 744.396 148.429 742.587 141.184 733.34C133.901 724.045 135.763 710.183 145.249 702.945C154.736 695.707 168.849 697.38 176.132 706.676ZM172.593 709.376C166.95 702.173 155.831 701.014 148.262 706.789C140.741 712.527 139.08 723.437 144.723 730.64C150.367 737.843 161.523 739.051 169.044 733.313C176.613 727.537 178.237 716.579 172.593 709.376Z" fill="#454545"/>
<path d="M114.773 667.518C120.553 664.175 127.404 665.782 132.078 670.863L140.049 653.538L142.86 658.268L135.137 675.164L140.884 684.838L154.103 677.19L156.566 681.336L119.801 702.607L110.99 687.778C106.505 680.23 107.87 671.513 114.773 667.518ZM121.298 696.17L136.924 687.129L131.018 677.19C127.481 671.237 122.191 668.869 117.268 671.717C112.345 674.566 111.855 680.278 115.392 686.231L121.298 696.17Z" fill="#454545"/>
<path d="M95.7015 626.376C101.824 623.712 108.441 626.092 112.494 631.678L122.404 615.364L124.649 620.388L115.034 636.303L119.625 646.576L133.628 640.484L135.595 644.887L96.6472 661.833L89.6103 646.084C86.0287 638.068 88.3882 629.558 95.7015 626.376ZM98.8752 655.604L115.43 648.402L110.713 637.846C107.888 631.524 102.91 628.566 97.6941 630.835C92.4783 633.104 91.3338 638.727 94.1587 645.049L98.8752 655.604Z" fill="#454545"/>
<path d="M113.712 586.765C117.087 598.017 110.291 610.436 98.8368 613.781C87.3828 617.127 74.891 610.341 71.516 599.089C68.1232 587.778 74.8953 575.495 86.3493 572.15C97.8033 568.804 110.319 575.454 113.712 586.765ZM109.439 588.013C106.81 579.248 96.892 574.158 87.7526 576.828C78.6725 579.48 73.16 589.077 75.7889 597.841C78.4179 606.606 88.3534 611.755 97.4335 609.103C106.573 606.433 112.068 596.777 109.439 588.013Z" fill="#454545"/>
<path d="M102.85 545.524L62.4718 565.04L61.8015 559.64L94.4815 543.857L58.968 536.816L58.3054 531.478L91.0463 516.186L55.4719 508.654L54.8016 503.254L98.7595 512.576L99.346 517.3L64.8936 533.36L102.263 540.799L102.85 545.524Z" fill="#454545"/>
<path d="M98.7658 485.886C98.7747 487.803 97.2359 489.294 95.3812 489.302C93.65 489.31 92.0975 487.833 92.0886 485.917C92.0802 484.124 93.619 482.633 95.3501 482.625C97.2049 482.617 98.7574 484.093 98.7658 485.886Z" fill="#454545"/>
<circle cx="473.096" cy="470.343" r="16.5561" transform="rotate(180 473.096 470.343)" fill="#123041"/>
<path d="M622.758 485.496L622.326 489.058L605.684 486.987L606.116 483.425L612.996 484.281L613.915 476.696L607.036 475.84L607.468 472.278L624.109 474.349L623.678 477.911L617.137 477.097L616.218 484.682L622.758 485.496Z" fill="#FDA064"/>
<path d="M613.046 514.084C611.912 517.178 609.197 518.555 606.112 517.394L599.053 514.737L600.238 511.506L601.426 511.953C600.777 510.744 600.77 509.202 601.241 507.919C602.165 505.398 604.388 504.017 606.649 504.869C608.98 505.746 609.78 508.525 608.772 511.275C608.419 512.238 607.827 513.215 607.069 514.077L607.297 514.163C608.554 514.636 609.936 514.269 610.65 512.321C611.054 511.221 611.066 510.052 610.931 508.932L613.559 508.643C613.791 510.634 613.651 512.434 613.046 514.084ZM603.271 509.544C602.801 510.827 602.949 512.266 603.962 512.907L605.058 513.32C605.61 512.667 606.089 511.856 606.425 510.94C606.871 509.725 606.515 508.496 605.556 508.135C604.596 507.773 603.691 508.398 603.271 509.544Z" fill="#FDA064"/>
<path d="M589.039 536.071C591.038 532.916 595.261 531.906 598.269 533.862C601.277 535.818 602.096 540.135 600.098 543.29C599.001 545.023 597.403 545.993 595.645 546.306L595.214 543.201C596.147 543.051 597.071 542.458 597.594 541.633C598.586 540.066 598.051 537.855 596.435 536.803C594.777 535.725 592.549 536.14 591.544 537.728C591.021 538.553 590.882 539.685 591.143 540.641L588.198 541.55C587.718 539.754 587.916 537.844 589.039 536.071Z" fill="#FDA064"/>
<path d="M577.666 572.071L577.145 564.603L568.785 563.103L571.65 560.168L577.178 561.284L577.079 559.043L574.89 556.849L577.379 554.299L589.432 566.376L586.943 568.927L579.959 561.929L580.531 569.136L577.666 572.071Z" fill="#FDA064"/>
<path d="M557.446 574.415L566.303 588.655L561.242 591.887C556.49 594.922 551.285 594.133 548.693 589.967C546.101 585.8 547.632 580.682 552.384 577.647L557.446 574.415ZM556.149 579.124L553.721 580.674C551.026 582.395 550.234 585.42 551.82 587.97C553.393 590.499 556.428 591.08 559.124 589.359L561.551 587.809L556.149 579.124Z" fill="#FDA064"/>
<path d="M528.14 605.58C525.028 606.663 522.241 605.435 521.183 602.314L518.763 595.17L522.013 594.04L522.421 595.242C522.945 593.974 524.133 592.992 525.424 592.543C527.96 591.661 530.437 592.505 531.212 594.794C532.011 597.152 530.37 599.532 527.603 600.495C526.635 600.832 525.503 600.992 524.356 600.952L524.434 601.183C524.865 602.455 526.025 603.292 527.985 602.61C529.091 602.225 530.004 601.495 530.784 600.68L532.674 602.53C531.281 603.971 529.8 605.003 528.14 605.58ZM525.454 595.143C524.163 595.592 523.145 596.618 523.29 597.808L523.666 598.918C524.521 598.931 525.452 598.788 526.374 598.467C527.596 598.042 528.322 596.988 527.993 596.017C527.664 595.046 526.607 594.742 525.454 595.143Z" fill="#FDA064"/>
<path d="M498.128 600.906L505.029 612.785L501.321 613.232L496.958 605.177L494.656 614.036L490.972 614.48L494.856 601.3L498.128 600.906Z" fill="#FDA064"/>
<path d="M471.873 617.241C472.97 617.306 473.772 618.233 473.711 619.306C473.654 620.305 472.749 621.157 471.652 621.092C470.605 621.03 469.803 620.079 469.861 619.079C469.922 618.007 470.825 617.18 471.873 617.241ZM474.497 603.017L473.775 615.617L470.218 615.408L470.939 602.808L474.497 603.017Z" fill="#FDA064"/>
<path d="M450.199 600.4C452.171 600.868 454.107 602.029 455.305 603.568L453.254 605.615C452.343 604.571 451.102 603.65 449.463 603.262C448.537 603.042 447.784 603.265 447.658 603.812C447.482 604.573 448.33 605.025 449.512 605.656C451.887 606.871 453.675 608.023 453.138 610.455C452.624 612.791 450.316 614 447.418 613.313C445.66 612.896 444.069 611.867 442.924 610.642L444.896 608.501C445.853 609.455 447.043 610.164 448.088 610.411C448.943 610.614 449.608 610.446 449.707 610.017C449.861 609.351 449.406 609.043 447.848 608.197C445.86 607.149 443.673 605.878 444.294 603.19C444.854 600.764 447.183 599.685 450.199 600.4Z" fill="#FDA064"/>
<path d="M409.947 586.569L409.061 587.885L401.104 588.741C398.025 589.077 396.322 589.86 395.396 591.237C394.252 592.939 394.991 594.902 396.458 595.914C398.065 597.024 399.796 596.943 401.612 596.298L402.104 597.972C399.856 598.823 397.614 598.788 395.444 597.291C393.054 595.641 392.12 592.654 393.795 590.162C395.062 588.278 396.994 587.417 400.687 586.999L406.427 586.335L399.416 581.496L400.424 579.997L409.947 586.569Z" fill="#FDA064"/>
<path d="M381.604 564.279C384.37 567.307 383.695 571.888 379.974 575.378C376.27 578.851 371.709 579.178 368.944 576.15C366.194 573.14 366.869 568.559 370.573 565.086C374.295 561.597 378.855 561.269 381.604 564.279ZM380.322 565.481C378.33 563.3 374.83 563.738 371.874 566.51C368.918 569.282 368.234 572.767 370.226 574.948C372.218 577.129 375.717 576.726 378.673 573.954C381.629 571.182 382.314 567.662 380.322 565.481Z" fill="#FDA064"/>
<path d="M365.476 546.159L364.102 546.953L356.573 544.229C353.657 543.18 351.783 543.136 350.346 543.967C348.571 544.993 348.374 547.08 349.248 548.633C350.206 550.335 351.798 551.022 353.713 551.239L353.421 552.959C351.027 552.736 349.026 551.722 347.733 549.424C346.307 546.893 346.779 543.801 349.378 542.298C351.344 541.162 353.459 541.237 356.962 542.482L362.414 544.405L358.234 536.982L359.798 536.077L365.476 546.159Z" fill="#FDA064"/>
<path d="M350.1 514.701C350.845 517.178 350.358 519.373 349.259 521.143L347.571 520.361C348.551 518.704 348.98 516.911 348.446 515.135C347.778 512.914 345.768 511.823 343.738 512.45C341.686 513.083 340.765 515.105 341.44 517.349C341.854 518.728 342.703 519.769 343.752 520.544L343.499 522.078L335.196 524.387L332.341 514.896L334.067 514.363L336.387 522.077L341.824 520.577C340.981 519.892 340.161 518.945 339.718 517.472C338.846 514.574 339.941 511.604 343.113 510.625C346.285 509.645 349.108 511.405 350.1 514.701Z" fill="#FDA064"/>
<path d="M325.764 457.815L326.196 454.253L342.838 456.324L342.406 459.886L335.526 459.03L334.607 466.615L341.486 467.471L341.054 471.033L324.413 468.962L324.844 465.4L331.385 466.214L332.304 458.629L325.764 457.815Z" fill="#FDA064"/>
<path d="M335.476 429.227C336.61 426.133 339.325 424.756 342.41 425.917L349.469 428.574L348.284 431.805L347.096 431.358C347.745 432.567 347.752 434.109 347.281 435.392C346.357 437.913 344.134 439.294 341.873 438.442C339.542 437.565 338.741 434.786 339.75 432.036C340.103 431.073 340.695 430.096 341.453 429.234L341.225 429.148C339.968 428.675 338.586 429.042 337.872 430.99C337.468 432.09 337.456 433.259 337.591 434.379L334.963 434.668C334.731 432.677 334.871 430.877 335.476 429.227ZM345.251 433.767C345.721 432.484 345.573 431.046 344.56 430.404L343.464 429.991C342.912 430.644 342.433 431.455 342.097 432.371C341.651 433.586 342.007 434.815 342.966 435.176C343.926 435.538 344.831 434.913 345.251 433.767Z" fill="#FDA064"/>
<path d="M359.483 407.24C357.484 410.395 353.261 411.405 350.253 409.449C347.245 407.493 346.426 403.176 348.424 400.021C349.521 398.288 351.118 397.318 352.877 397.005L353.308 400.11C352.375 400.26 351.451 400.853 350.928 401.678C349.936 403.245 350.471 405.457 352.087 406.508C353.745 407.586 355.973 407.171 356.978 405.583C357.501 404.758 357.64 403.626 357.379 402.67L360.324 401.761C360.804 403.557 360.606 405.467 359.483 407.24Z" fill="#FDA064"/>
<path d="M370.856 371.241L371.377 378.708L379.737 380.208L376.872 383.143L371.344 382.027L371.443 384.268L373.632 386.462L371.143 389.012L359.09 376.935L361.579 374.384L368.563 381.382L367.991 374.175L370.856 371.241Z" fill="#FDA064"/>
<path d="M391.076 368.896L382.219 354.656L387.28 351.424C392.032 348.389 397.237 349.178 399.829 353.344C402.421 357.511 400.89 362.629 396.137 365.664L391.076 368.896ZM392.373 364.187L394.801 362.637C397.496 360.916 398.288 357.891 396.702 355.341C395.129 352.812 392.094 352.231 389.398 353.952L386.971 355.502L392.373 364.187Z" fill="#FDA064"/>
<path d="M420.382 337.731C423.494 336.648 426.281 337.876 427.339 340.997L429.759 348.141L426.509 349.272L426.101 348.069C425.577 349.337 424.389 350.319 423.098 350.768C420.562 351.65 418.085 350.806 417.31 348.517C416.511 346.159 418.152 343.779 420.919 342.816C421.887 342.479 423.019 342.319 424.166 342.359L424.088 342.128C423.657 340.856 422.497 340.019 420.537 340.701C419.431 341.086 418.518 341.816 417.738 342.631L415.848 340.781C417.241 339.34 418.722 338.308 420.382 337.731ZM423.068 348.168C424.359 347.719 425.377 346.693 425.232 345.503L424.856 344.393C424.001 344.381 423.07 344.523 422.148 344.844C420.926 345.269 420.2 346.323 420.529 347.294C420.858 348.265 421.915 348.569 423.068 348.168Z" fill="#FDA064"/>
<path d="M450.394 342.405L443.493 330.526L447.201 330.079L451.564 338.134L453.866 329.275L457.55 328.831L453.666 342.011L450.394 342.405Z" fill="#FDA064"/>
<path d="M476.649 326.07C475.552 326.005 474.75 325.078 474.811 324.005C474.868 323.006 475.773 322.154 476.87 322.219C477.917 322.281 478.719 323.232 478.661 324.232C478.6 325.304 477.697 326.131 476.649 326.07ZM474.025 340.294L474.747 327.694L478.304 327.903L477.583 340.503L474.025 340.294Z" fill="#FDA064"/>
<path d="M498.323 342.911C496.351 342.443 494.415 341.282 493.217 339.743L495.268 337.696C496.179 338.74 497.42 339.661 499.059 340.05C499.985 340.269 500.738 340.046 500.864 339.499C501.04 338.738 500.192 338.286 499.01 337.655C496.635 336.44 494.847 335.288 495.383 332.856C495.898 330.52 498.206 329.311 501.104 329.998C502.862 330.415 504.453 331.444 505.598 332.669L503.626 334.81C502.669 333.856 501.479 333.147 500.434 332.9C499.579 332.697 498.914 332.865 498.815 333.294C498.661 333.96 499.116 334.268 500.674 335.114C502.662 336.162 504.849 337.433 504.228 340.121C503.668 342.547 501.339 343.626 498.323 342.911Z" fill="#FDA064"/>
<path d="M538.575 356.742L539.461 355.426L547.418 354.57C550.497 354.234 552.2 353.451 553.126 352.074C554.27 350.372 553.531 348.409 552.064 347.397C550.457 346.288 548.726 346.368 546.91 347.013L546.418 345.339C548.666 344.488 550.908 344.523 553.078 346.02C555.468 347.67 556.402 350.657 554.726 353.149C553.46 355.033 551.528 355.894 547.835 356.312L542.094 356.976L549.106 361.815L548.098 363.314L538.575 356.742Z" fill="#FDA064"/>
<path d="M566.918 379.032C564.152 376.004 564.827 371.423 568.548 367.933C572.252 364.46 576.813 364.133 579.578 367.161C582.328 370.171 581.653 374.752 577.949 378.225C574.227 381.714 569.667 382.042 566.918 379.032ZM568.2 377.83C570.192 380.011 573.692 379.573 576.648 376.801C579.604 374.029 580.288 370.544 578.296 368.363C576.304 366.182 572.805 366.586 569.849 369.357C566.893 372.129 566.208 375.649 568.2 377.83Z" fill="#FDA064"/>
<path d="M583.047 397.152L584.42 396.358L591.949 399.082C594.865 400.131 596.739 400.175 598.176 399.345C599.952 398.318 600.149 396.231 599.274 394.678C598.316 392.976 596.724 392.289 594.809 392.072L595.101 390.352C597.496 390.575 599.496 391.589 600.789 393.887C602.215 396.418 601.743 399.51 599.144 401.013C597.178 402.149 595.064 402.075 591.561 400.829L586.108 398.906L590.288 406.329L588.724 407.234L583.047 397.152Z" fill="#FDA064"/>
<path d="M598.422 428.61C597.677 426.133 598.164 423.938 599.263 422.168L600.951 422.95C599.971 424.607 599.542 426.4 600.076 428.176C600.744 430.397 602.754 431.488 604.784 430.861C606.836 430.228 607.757 428.206 607.082 425.962C606.668 424.583 605.819 423.542 604.77 422.767L605.023 421.233L613.326 418.924L616.181 428.415L614.455 428.948L612.135 421.234L606.698 422.734C607.541 423.419 608.361 424.366 608.804 425.839C609.676 428.738 608.581 431.707 605.409 432.687C602.237 433.666 599.414 431.907 598.422 428.61Z" fill="#FDA064"/>
</g>
<defs>
<clipPath id="clip0_781_1378">
<rect width="946" height="941" fill="white"/>
</clipPath>
</defs>
</svg>
