<svg width="946" height="941" viewBox="0 0 946 941" fill="none" xmlns="http://www.w3.org/2000/svg">
<g clip-path="url(#clip0_781_1378)">
<circle cx="473.097" cy="470.342" r="470.345" fill="#1E1E1E"/>
<circle cx="473.096" cy="470.344" r="442.876" stroke="#454545" stroke-width="3.76276"/>
<circle cx="473.102" cy="470.342" r="401.11" stroke="#454545" stroke-width="3.76276"/>
<circle cx="473.098" cy="470.343" r="267.155" stroke="#454545" stroke-width="3.76276"/>
<circle cx="473.096" cy="470.341" r="314.566" stroke="#454545" stroke-width="3.76276"/>
<circle cx="473.103" cy="470.343" r="358.591" stroke="#454545" stroke-width="3.76276"/>
<circle cx="473.1" cy="470.343" r="222.755" fill="#55B7D7"/>
<circle cx="473.096" cy="470.341" r="193.029" fill="#C4E2CE"/>
<circle cx="473.1" cy="470.342" r="160.669" fill="#FADCA3"/>
<circle cx="473.097" cy="470.342" r="120.784" fill="#F4AD74"/>
<circle cx="473.101" cy="470.341" r="82.4042" fill="#FDA064"/>
<path d="M365.069 447.283L365.454 444.788L387.425 448.18L387.04 450.674L377.03 449.129L375.031 462.081L385.041 463.627L384.655 466.121L362.685 462.729L363.07 460.235L372.664 461.716L374.663 448.764L365.069 447.283Z" fill="white" fill-opacity="0.7"/>
<path d="M377.17 427.168C379.039 423.005 382.581 422.148 386.271 423.806L395.569 427.982L394.575 430.196L392.184 429.122C393.494 431.023 393.418 433.72 392.517 435.727C391.072 438.945 388.151 440.471 385.14 439.119C382.1 437.753 381.283 434.123 382.754 430.846C383.497 429.193 384.633 427.611 385.837 426.271L385.277 426.02C383.21 425.092 380.477 424.858 378.993 428.164C378.303 429.699 378.293 431.539 378.378 433.244L376.18 433.321C376.069 430.646 376.507 428.644 377.17 427.168ZM390.741 434.468C391.642 432.461 391.683 429.606 389.793 428.048L387.461 427.001C386.454 428.216 385.515 429.674 384.773 431.327C383.752 433.6 384.189 436.102 386.02 436.924C387.909 437.773 389.773 436.623 390.741 434.468Z" fill="white" fill-opacity="0.7"/>
<path d="M403.732 416.785C400.908 420.532 395.308 421.295 391.509 418.431C387.711 415.568 386.928 409.994 389.753 406.247C391.116 404.438 393.132 403.323 395.301 402.973L395.606 405.31C393.987 405.468 392.478 406.234 391.484 407.552C389.478 410.213 390.206 414.247 393.048 416.39C395.916 418.552 399.995 418.141 402.001 415.48C403.014 414.136 403.329 412.428 403.003 410.764L405.334 410.414C405.645 412.635 405.135 414.924 403.732 416.785Z" fill="white" fill-opacity="0.7"/>
<path d="M411.339 385.493L410.527 396.218L421.813 398.546L419.489 400.509L410.282 398.585L409.904 402.801L412.765 406.188L410.911 407.754L396.315 390.474L398.169 388.908L407.941 400.477L408.966 387.498L411.339 385.493Z" fill="white" fill-opacity="0.7"/>
<path d="M427.41 394.717L417.958 374.595L424.753 371.403C431.138 368.404 437.602 370.444 440.368 376.331C443.133 382.219 440.59 388.526 434.205 391.525L427.41 394.717ZM428.717 391.564L433.228 389.445C438.266 387.079 440.255 382.105 438.054 377.418C435.866 372.761 430.768 371.116 425.73 373.483L421.219 375.601L428.717 391.564Z" fill="white" fill-opacity="0.7"/>
<path d="M454.447 367.057C458.934 366.23 461.652 368.657 462.386 372.635L464.234 382.659L461.847 383.1L461.372 380.522C460.553 382.68 458.29 384.15 456.126 384.55C452.657 385.189 449.742 383.654 449.143 380.408C448.539 377.13 451.061 374.394 454.594 373.743C456.376 373.414 458.324 373.45 460.11 373.68L459.999 373.075C459.588 370.848 458.227 368.466 454.663 369.123C453.008 369.429 451.489 370.466 450.134 371.505L448.821 369.74C450.959 368.128 452.856 367.351 454.447 367.057ZM456.152 382.373C458.316 381.974 460.689 380.385 460.897 377.944L460.433 375.43C458.861 375.292 457.128 375.349 455.345 375.677C452.895 376.129 451.085 377.911 451.449 379.884C451.824 381.921 453.829 382.801 456.152 382.373Z" fill="white" fill-opacity="0.7"/>
<path d="M474.873 382.508L468.448 365.499L471.164 365.611L476.154 379.71L482.189 366.064L484.905 366.176L477.201 382.603L474.873 382.508Z" fill="white" fill-opacity="0.7"/>
<path d="M495.154 364.922C494.265 364.746 493.712 363.878 493.881 363.021C494.045 362.195 494.888 361.604 495.777 361.78C496.634 361.95 497.187 362.818 497.024 363.643C496.854 364.5 496.011 365.092 495.154 364.922ZM490.104 384.078L493.356 367.667L495.737 368.139L492.485 384.55L490.104 384.078Z" fill="white" fill-opacity="0.7"/>
<path d="M502.567 387.824C500.364 387.066 498.2 385.398 496.829 383.216L498.601 381.943C499.954 383.88 501.528 385.174 503.272 385.774C505.353 386.489 507.097 385.994 507.613 384.495C508.202 382.781 506.556 381.599 504.624 380.25C501.178 377.833 500.099 376.196 500.877 373.931C501.866 371.055 504.864 370.101 508.016 371.185C509.974 371.858 511.762 373.226 513.066 374.906L511.354 376.302C510.11 374.745 508.718 373.719 507.311 373.235C505.536 372.625 503.793 372.915 503.267 374.445C502.793 375.822 503.809 376.65 506.42 378.609C508.687 380.278 511.024 382.04 509.992 385.039C508.993 387.946 505.841 388.95 502.567 387.824Z" fill="white" fill-opacity="0.7"/>
<path d="M521.638 396.298L522.938 394.645L533.604 394.225C537.732 394.056 540.07 393.178 541.43 391.448C543.111 389.312 542.312 386.665 540.455 385.205C538.421 383.604 536.111 383.557 533.635 384.244L533.137 381.999C536.207 381.079 539.186 381.323 541.932 383.484C544.959 385.866 545.921 389.876 543.459 393.004C541.598 395.369 538.948 396.33 533.997 396.552L526.297 396.917L535.173 403.901L533.692 405.783L521.638 396.298Z" fill="white" fill-opacity="0.7"/>
<path d="M543.862 418.032C540.624 413.665 542.171 407.765 547.603 403.736C553.01 399.727 559.105 399.961 562.343 404.328C565.562 408.669 564.016 414.569 558.609 418.578C553.177 422.607 547.081 422.373 543.862 418.032ZM545.734 416.644C548.066 419.789 552.772 419.724 557.086 416.525C561.401 413.325 562.804 408.861 560.472 405.716C558.14 402.57 553.441 402.59 549.126 405.79C544.811 408.989 543.402 413.499 545.734 416.644Z" fill="white" fill-opacity="0.7"/>
<path d="M552.769 430.958L554.732 430.202L564.115 435.289C567.751 437.251 570.209 437.69 572.262 436.899C574.798 435.921 575.463 433.237 574.613 431.033C573.682 428.617 571.72 427.397 569.24 426.723L569.959 424.538C573.068 425.316 575.504 427.048 576.762 430.308C578.147 433.901 576.926 437.84 573.212 439.272C570.404 440.355 567.634 439.828 563.265 437.49L556.459 433.871L560.522 444.408L558.288 445.27L552.769 430.958Z" fill="white" fill-opacity="0.7"/>
<path d="M560.519 459.383C560.119 455.976 561.263 453.235 563.108 451.194L565.133 452.618C563.469 454.54 562.493 456.772 562.78 459.215C563.138 462.268 565.512 464.172 568.308 463.844C571.137 463.512 572.808 461.1 572.446 458.015C572.223 456.118 571.356 454.559 570.165 453.297L570.85 451.36L582.233 450.349L583.765 463.397L581.387 463.677L580.141 453.071L572.691 453.718C573.634 454.812 574.486 456.244 574.724 458.268C575.192 462.254 573.074 465.858 568.703 466.372C564.332 466.885 561.051 463.914 560.519 459.383Z" fill="white" fill-opacity="0.7"/>
<circle cx="473.096" cy="470.343" r="16.5561" transform="rotate(180 473.096 470.343)" fill="#90DEE2"/>
</g>
<defs>
<clipPath id="clip0_781_1378">
<rect width="946" height="941" fill="white"/>
</clipPath>
</defs>
</svg>
