<svg width="946" height="941" viewBox="0 0 946 941" fill="none" xmlns="http://www.w3.org/2000/svg">
<g clip-path="url(#clip0_1086_8244)">
<circle cx="473.097" cy="470.342" r="470.345" fill="#1E1E1E"/>
<circle cx="473.096" cy="470.344" r="442.876" stroke="#454545" stroke-width="3.76276"/>
<circle cx="473.098" cy="470.343" r="267.155" stroke="#454545" stroke-width="3.76276"/>
<circle cx="473.096" cy="470.341" r="314.566" stroke="#454545" stroke-width="3.76276"/>
<circle cx="473.103" cy="470.343" r="358.591" stroke="#454545" stroke-width="3.76276"/>
<circle cx="473.1" cy="470.343" r="222.755" fill="#55B7D7"/>
<circle cx="473.096" cy="470.341" r="193.029" fill="#C4E2CE"/>
<circle cx="473.1" cy="470.342" r="160.669" fill="#FADCA3"/>
<circle cx="473.097" cy="470.342" r="120.784" fill="#F4AD74"/>
<circle cx="473.101" cy="470.341" r="82.4042" fill="#FDA064"/>
<path d="M97.6895 434.305C97.3047 441.281 94.4703 446.642 90.0369 450.68L86.4375 447.457C90.216 444.065 92.9892 439.815 93.316 433.889C93.677 427.345 90.2798 423.823 86.4519 423.622C81.9448 423.385 79.933 427.303 77.7956 434.62C75.35 443.035 72.3989 448.267 65.0517 447.88C58.2602 447.523 53.2841 441.193 53.7335 433.045C54.0808 426.748 56.8093 422.186 60.6048 418.485L64.2076 421.647C60.6177 424.987 58.3487 429.078 58.1036 433.522C57.8141 438.77 61.0605 442.779 64.9502 442.984C69.3339 443.214 71.1089 439.098 73.2361 431.966C75.5961 423.98 78.818 418.329 86.2887 418.722C93.0185 419.076 98.2343 424.428 97.6895 434.305Z" fill="#55B7D7"/>
<path d="M62.1879 373.108L63.0276 368.359L104.903 375.472L104.063 380.221L84.9846 376.98L80.6247 401.638L99.7032 404.878L98.8635 409.627L56.9883 402.514L57.828 397.766L76.1141 400.871L80.474 376.214L62.1879 373.108Z" fill="#55B7D7"/>
<path d="M118.137 331.372L107.619 332.612L100.425 355.172L108.352 362.061L106.755 367.068L71.8332 336.782L73.4296 331.775L119.733 326.365L118.137 331.372ZM96.6519 351.948L102.643 333.157L78.316 335.987L96.6519 351.948Z" fill="#55B7D7"/>
<path d="M123.31 318.513L84.5253 301.197L91.796 285.554C95.4964 277.593 103.527 273.663 110.809 276.915C118.092 280.166 120.337 288.683 116.636 296.645L111.398 307.914L125.343 314.14L123.31 318.513ZM107.221 306.049L112.094 295.565C115.012 289.285 113.944 283.663 108.751 281.344C103.557 279.025 98.5275 281.925 95.6088 288.204L90.7356 298.689L107.221 306.049Z" fill="#55B7D7"/>
<path d="M124.669 236.096L111.318 257.935L123.367 265.01L135.396 245.334L139.341 247.651L127.312 267.327L140.055 274.809L153.405 252.971L157.35 255.288L141.452 281.293L104.825 259.785L120.724 233.779L124.669 236.096Z" fill="#55B7D7"/>
<path d="M182.385 223.038L153.176 198.888L143.859 209.712L140.333 206.796L162.114 181.493L165.64 184.409L156.323 195.233L185.531 219.383L182.385 223.038Z" fill="#55B7D7"/>
<path d="M193.502 150.11L197.055 146.849L226.4 177.557L222.847 180.819L209.478 166.828L191.031 183.76L204.401 197.751L200.848 201.012L171.503 170.304L175.056 167.043L187.87 180.453L206.317 163.52L193.502 150.11Z" fill="#55B7D7"/>
<path d="M237.689 122.076L216.952 137.08L225.359 148.241L244.042 134.723L246.795 138.377L228.111 151.895L237.002 163.698L257.739 148.694L260.492 152.348L235.797 170.216L210.242 136.289L234.937 118.421L237.689 122.076Z" fill="#55B7D7"/>
<path d="M298.969 131.293C292.739 134.456 286.648 134.706 280.88 132.921L281.818 128.215C286.692 129.762 291.79 130.015 297.082 127.328C302.926 124.361 304.227 119.679 302.435 116.29C300.326 112.3 295.905 112.534 288.481 114.363C279.949 116.477 273.91 116.562 270.472 110.057C267.293 104.045 270.211 96.6009 277.487 92.9059C283.11 90.0506 288.456 90.1095 293.604 91.5162L292.721 96.1941C287.99 94.7834 283.287 94.8832 279.318 96.8986C274.633 99.278 272.833 104.074 274.653 107.518C276.705 111.399 281.176 110.862 288.435 109.117C296.552 107.144 303.092 107.082 306.588 113.696C309.738 119.654 307.789 126.814 298.969 131.293Z" fill="#55B7D7"/>
<path d="M340.689 113.373C329.647 117.381 316.67 111.371 312.452 100.209C308.234 89.0469 314.108 76.2602 325.15 72.2522C336.251 68.223 349.09 74.2171 353.308 85.3793C357.526 96.5415 351.789 109.344 340.689 113.373ZM339.115 109.209C347.717 106.087 352.082 95.9524 348.716 87.0458C345.373 78.1971 335.325 73.2943 326.724 76.4163C318.123 79.5384 313.699 89.6938 317.043 98.5426C320.409 107.449 330.514 112.331 339.115 109.209Z" fill="#55B7D7"/>
<path d="M389.248 99.333C379.102 101.554 370.225 95.7135 367.834 85.2247L362.311 60.9918L367.022 59.9604L372.545 84.1933C374.358 92.1503 380.904 96.6663 388.273 95.0531C395.641 93.4399 399.604 86.6231 397.79 78.666L392.267 54.4332L396.978 53.4018L402.501 77.6346C404.892 88.1235 399.395 97.1115 389.248 99.333Z" fill="#55B7D7"/>
<path d="M420.062 92.7036L416.207 50.4039L421.011 49.9834L450.386 82.1051L447.249 47.6866L452.053 47.266L455.908 89.5657L451.104 89.9862L421.73 57.8646L424.866 92.283L420.062 92.7036Z" fill="#55B7D7"/>
<path d="M470.416 89.1913L472.2 46.7538L486.532 47.3326C499.999 47.8764 509.144 57.0322 508.622 69.4484C508.1 81.8646 498.215 90.3138 484.748 89.77L470.416 89.1913ZM475.419 85L484.932 85.3842C495.558 85.8132 503.326 79.1348 503.742 69.2513C504.154 59.4295 496.973 52.1474 486.347 51.7184L476.834 51.3342L475.419 85Z" fill="#55B7D7"/>
<path d="M557.494 99.6218C546.033 97.042 538.561 85.0305 541.284 73.4127C544.006 61.7949 556.063 54.2428 567.523 56.8225C579.044 59.4158 586.409 71.34 583.687 82.9578C580.964 94.5756 569.014 102.215 557.494 99.6218ZM558.509 95.2877C567.436 97.2971 576.749 91.1553 578.922 81.8851C581.08 72.6752 575.435 63.1661 566.508 61.1566C557.581 59.1471 548.207 65.2754 546.049 74.4854C543.876 83.7555 549.582 93.2782 558.509 95.2877Z" fill="#55B7D7"/>
<path d="M630.953 81.6898L606.842 73.0971L601.982 86.1973L623.705 93.939L622.113 98.2285L600.39 90.4868L593.659 108.63L589.058 106.99L603.833 67.1679L632.544 77.4003L630.953 81.6898Z" fill="#55B7D7"/>
<path d="M654.174 134.515L672.726 101.466L660.155 94.6875L662.395 90.6979L691.781 106.543L689.542 110.533L676.971 103.755L658.419 136.803L654.174 134.515Z" fill="#55B7D7"/>
<path d="M693.319 159.379C683.72 152.607 681.502 138.71 688.566 129.093C695.629 119.476 709.743 117.178 719.341 123.95C728.99 130.757 731.144 144.532 724.081 154.15C717.017 163.767 702.968 166.186 693.319 159.379ZM695.954 155.791C703.431 161.066 714.453 159.008 720.09 151.334C725.689 143.71 724.183 132.812 716.706 127.537C709.229 122.262 698.156 124.285 692.557 131.909C686.92 139.583 688.477 150.516 695.954 155.791Z" fill="#55B7D7"/>
<path d="M720.661 178.659L750.473 148.405L753.975 151.72L744.639 183.652L776.876 173.395L780.378 176.71L750.566 206.965L747.063 203.65L769.585 180.794L737.349 191.05L746.685 159.118L724.163 181.974L720.661 178.659Z" fill="#55B7D7"/>
<path d="M770.721 233.53C763.445 224.308 765.274 210.358 774.784 203.151C784.294 195.944 798.481 197.758 805.756 206.981C813.07 216.252 811.215 230.068 801.704 237.275C792.194 244.482 778.035 242.802 770.721 233.53ZM774.269 230.842C779.936 238.026 791.09 239.191 798.679 233.44C806.218 227.727 807.876 216.854 802.208 209.67C796.541 202.486 785.348 201.272 777.809 206.986C770.221 212.736 768.601 223.658 774.269 230.842Z" fill="#55B7D7"/>
<path d="M832.228 272.504C826.439 275.831 819.567 274.218 814.875 269.143L806.908 286.412L804.084 281.69L811.802 264.849L806.025 255.193L792.784 262.801L790.308 258.663L827.136 237.5L835.991 252.303C840.499 259.838 839.144 268.53 832.228 272.504ZM825.645 243.918L809.992 252.913L815.927 262.835C819.482 268.777 824.789 271.146 829.721 268.312C834.653 265.478 835.135 259.782 831.58 253.84L825.645 243.918Z" fill="#55B7D7"/>
<path d="M851.332 313.444C845.203 316.093 838.57 313.706 834.5 308.124L824.6 324.39L822.342 319.372L831.947 303.503L827.33 293.241L813.312 299.299L811.333 294.901L850.323 278.052L857.401 293.783C861.002 301.79 858.653 310.28 851.332 313.444ZM848.102 284.265L831.53 291.426L836.273 301.97C839.114 308.285 844.107 311.246 849.328 308.99C854.55 306.733 855.687 301.124 852.846 294.809L848.102 284.265Z" fill="#55B7D7"/>
<path d="M833.3 352.796C829.904 341.55 836.687 329.154 848.147 325.83C859.607 322.505 872.122 329.303 875.518 340.548C878.932 351.853 872.173 364.113 860.713 367.438C849.253 370.762 836.714 364.1 833.3 352.796ZM837.575 351.555C840.221 360.315 850.156 365.415 859.301 362.762C868.385 360.126 873.888 350.548 871.243 341.788C868.597 333.029 858.644 327.87 849.559 330.505C840.415 333.158 834.93 342.796 837.575 351.555Z" fill="#55B7D7"/>
<path d="M844.174 393.786L884.544 374.305L885.219 379.704L852.545 395.458L888.071 402.526L888.739 407.863L856.004 423.127L891.591 430.685L892.266 436.084L848.292 426.73L847.701 422.006L882.147 405.977L844.764 398.509L844.174 393.786Z" fill="#55B7D7"/>
<path d="M848.259 453.055C848.25 451.139 849.788 449.648 851.643 449.64C853.374 449.632 854.927 451.109 854.936 453.025C854.944 454.818 853.405 456.309 851.674 456.317C849.819 456.325 848.267 454.848 848.259 453.055Z" fill="#55B7D7"/>
<path d="M848.336 497.551C848.721 490.575 851.555 485.214 855.988 481.175L859.588 484.398C855.809 487.79 853.036 492.04 852.709 497.966C852.348 504.51 855.746 508.032 859.573 508.233C864.081 508.471 866.092 504.552 868.23 497.235C870.675 488.82 873.626 483.589 880.974 483.975C887.765 484.333 892.741 490.662 892.292 498.811C891.945 505.107 889.216 509.669 885.421 513.37L881.818 510.209C885.408 506.869 887.677 502.778 887.922 498.333C888.211 493.086 884.965 489.077 881.075 488.872C876.692 488.641 874.916 492.758 872.789 499.89C870.429 507.876 867.207 513.526 859.737 513.133C853.007 512.779 847.791 507.428 848.336 497.551Z" fill="#FDA064"/>
<path d="M883.837 558.747L882.998 563.496L841.123 556.384L841.962 551.635L861.041 554.875L865.401 530.218L846.322 526.977L847.162 522.229L889.037 529.341L888.197 534.09L869.911 530.984L865.551 555.641L883.837 558.747Z" fill="#FDA064"/>
<path d="M827.889 600.484L838.407 599.244L845.6 576.683L837.674 569.794L839.27 564.787L874.192 595.074L872.596 600.081L826.292 605.49L827.889 600.484ZM849.374 579.908L843.382 598.698L867.709 595.869L849.374 579.908Z" fill="#FDA064"/>
<path d="M822.715 613.342L861.5 630.659L854.229 646.301C850.529 654.263 842.499 658.192 835.216 654.941C827.933 651.689 825.689 643.172 829.389 635.211L834.627 623.941L820.683 617.716L822.715 613.342ZM838.805 625.807L833.932 636.291C831.013 642.57 832.081 648.193 837.275 650.511C842.469 652.83 847.498 649.93 850.417 643.651L855.29 633.167L838.805 625.807Z" fill="#FDA064"/>
<path d="M821.356 695.759L834.707 673.921L822.658 666.845L810.63 686.521L806.684 684.204L818.713 664.528L805.971 657.046L792.62 678.885L788.675 676.568L804.573 650.562L841.2 672.07L825.302 698.076L821.356 695.759Z" fill="#FDA064"/>
<path d="M763.641 708.817L792.849 732.968L802.166 722.144L805.692 725.059L783.912 750.362L780.386 747.447L789.703 736.623L760.495 712.472L763.641 708.817Z" fill="#FDA064"/>
<path d="M752.523 781.745L748.97 785.006L719.625 754.298L723.178 751.037L736.548 765.028L754.994 748.095L741.625 734.104L745.177 730.843L774.522 761.551L770.97 764.812L758.155 751.403L739.709 768.335L752.523 781.745Z" fill="#FDA064"/>
<path d="M708.336 809.78L729.073 794.775L720.667 783.615L701.983 797.133L699.23 793.478L717.914 779.96L709.023 768.157L688.286 783.162L685.533 779.507L710.228 761.64L735.783 795.567L711.089 813.434L708.336 809.78Z" fill="#FDA064"/>
<path d="M647.057 800.563C653.286 797.4 659.377 797.149 665.146 798.935L664.207 803.64C659.334 802.094 654.235 801.84 648.943 804.528C643.1 807.495 641.799 812.177 643.59 815.565C645.7 819.556 650.121 819.321 657.545 817.493C666.077 815.379 672.116 815.294 675.554 821.798C678.733 827.811 675.815 835.255 668.538 838.95C662.915 841.805 657.57 841.746 652.421 840.339L653.305 835.661C658.036 837.072 662.738 836.972 666.707 834.957C671.393 832.577 673.193 827.781 671.372 824.337C669.321 820.457 664.85 820.994 657.591 822.738C649.474 824.711 642.934 824.773 639.438 818.16C636.288 812.202 638.237 805.042 647.057 800.563Z" fill="#FDA064"/>
<path d="M605.336 818.482C616.379 814.474 629.356 820.484 633.574 831.646C637.792 842.809 631.917 855.595 620.875 859.603C609.775 863.632 596.936 857.638 592.718 846.476C588.5 835.314 594.236 822.512 605.336 818.482ZM606.91 822.647C598.309 825.769 593.943 835.903 597.309 844.81C600.653 853.658 610.7 858.561 619.302 855.439C627.903 852.317 632.326 842.162 628.982 833.313C625.617 824.406 615.511 819.525 606.91 822.647Z" fill="#FDA064"/>
<path d="M556.777 832.522C566.924 830.301 575.801 836.141 578.191 846.63L583.715 870.863L579.004 871.895L573.481 847.662C571.667 839.705 565.121 835.189 557.753 836.802C550.384 838.415 546.421 845.232 548.235 853.189L553.758 877.422L549.047 878.453L543.524 854.22C541.133 843.732 546.631 834.743 556.777 832.522Z" fill="#FDA064"/>
<path d="M525.963 839.151L529.818 881.451L525.014 881.872L495.64 849.75L498.776 884.168L493.972 884.589L490.117 842.289L494.921 841.869L524.296 873.99L521.159 839.572L525.963 839.151Z" fill="#FDA064"/>
<path d="M475.61 842.664L473.826 885.102L459.494 884.523C446.026 883.979 436.882 874.823 437.404 862.407C437.925 849.991 447.81 841.542 461.278 842.085L475.61 842.664ZM470.607 846.855L461.093 846.471C450.468 846.042 442.699 852.721 442.284 862.604C441.871 872.426 449.052 879.708 459.678 880.137L469.192 880.521L470.607 846.855Z" fill="#FDA064"/>
<path d="M388.532 832.233C399.992 834.813 407.464 846.824 404.742 858.442C402.019 870.06 389.962 877.612 378.502 875.032C366.981 872.439 359.616 860.515 362.338 848.897C365.061 837.279 377.011 829.64 388.532 832.233ZM387.516 836.567C378.589 834.558 369.276 840.7 367.104 849.97C364.945 859.18 370.591 868.689 379.518 870.698C388.445 872.708 397.818 866.58 399.977 857.37C402.149 848.099 396.443 838.577 387.516 836.567Z" fill="#FDA064"/>
<path d="M315.073 850.165L339.183 858.758L344.044 845.658L322.321 837.916L323.912 833.626L345.635 841.368L352.367 823.225L356.968 824.865L342.193 864.687L313.481 854.455L315.073 850.165Z" fill="#FDA064"/>
<path d="M291.851 797.341L273.299 830.39L285.87 837.168L283.631 841.158L254.244 825.312L256.484 821.323L269.055 828.101L287.606 795.052L291.851 797.341Z" fill="#FDA064"/>
<path d="M252.706 772.477C262.305 779.249 264.523 793.145 257.46 802.762C250.396 812.379 236.283 814.678 226.684 807.906C217.035 801.098 214.881 787.323 221.945 777.706C229.008 768.089 243.057 765.669 252.706 772.477ZM250.071 776.065C242.594 770.79 231.572 772.848 225.936 780.522C220.336 788.146 221.842 799.043 229.319 804.318C236.796 809.593 247.869 807.571 253.469 799.947C259.105 792.273 257.548 781.34 250.071 776.065Z" fill="#FDA064"/>
<path d="M225.365 753.196L195.553 783.451L192.05 780.136L201.386 748.204L169.15 758.46L165.648 755.145L195.46 724.891L198.962 728.206L176.44 751.062L208.677 740.805L199.341 772.737L221.863 749.881L225.365 753.196Z" fill="#FDA064"/>
<path d="M175.305 698.325C182.58 707.548 180.752 721.498 171.241 728.705C161.731 735.911 147.545 734.097 140.269 724.874C132.955 715.603 134.811 701.788 144.321 694.581C153.832 687.374 167.991 689.054 175.305 698.325ZM171.757 701.014C166.089 693.83 154.935 692.665 147.346 698.415C139.807 704.129 138.15 715.002 143.817 722.186C149.484 729.37 160.677 730.583 168.216 724.87C175.805 719.119 177.424 708.198 171.757 701.014Z" fill="#FDA064"/>
<path d="M113.797 659.352C119.587 656.025 126.458 657.637 131.151 662.712L139.117 645.444L141.942 650.166L134.224 667.006L140.001 676.663L153.241 669.054L155.717 673.193L118.889 694.355L110.034 679.552C105.527 672.018 106.882 663.325 113.797 659.352ZM120.381 687.937L136.034 678.942L130.098 669.021C126.543 663.078 121.236 660.709 116.305 663.543C111.373 666.377 110.89 672.073 114.445 678.015L120.381 687.937Z" fill="#FDA064"/>
<path d="M94.6933 618.412C100.823 615.763 107.455 618.15 111.525 623.731L121.426 607.466L123.683 612.484L114.079 628.352L118.695 638.614L132.714 632.556L134.692 636.954L95.7019 653.803L88.6249 638.072C85.0229 630.066 87.372 621.575 94.6933 618.412ZM97.9232 647.591L114.495 640.429L109.752 629.885C106.911 623.57 101.919 620.61 96.6972 622.866C91.4758 625.122 90.3388 630.732 93.1798 637.047L97.9232 647.591Z" fill="#FDA064"/>
<path d="M112.726 579.06C116.122 590.305 109.339 602.701 97.8786 606.026C86.4186 609.35 73.9035 602.553 70.5074 591.307C67.0933 580.003 73.8527 567.742 85.3128 564.418C96.7729 561.093 109.312 567.755 112.726 579.06ZM108.45 580.3C105.805 571.541 95.8692 566.441 86.7249 569.093C77.64 571.729 72.1372 581.307 74.7826 590.067C77.4281 598.827 87.3816 603.986 96.4665 601.35C105.611 598.697 111.096 589.06 108.45 580.3Z" fill="#FDA064"/>
<path d="M101.851 538.07L61.4814 557.55L60.8066 552.152L93.4801 536.397L57.954 529.33L57.2869 523.992L90.0217 508.729L54.4343 501.17L53.7595 495.772L97.7335 505.125L98.324 509.849L63.8779 525.879L101.261 533.346L101.851 538.07Z" fill="#FDA064"/>
<path d="M97.7669 478.8C97.7758 480.717 96.2371 482.207 94.3824 482.216C92.6512 482.224 91.0986 480.747 91.0897 478.83C91.0813 477.037 92.62 475.546 94.3511 475.539C96.2059 475.53 97.7585 477.007 97.7669 478.8Z" fill="#FDA064"/>
<path d="M365.069 443.283L365.454 440.788L387.425 444.18L387.04 446.674L377.03 445.129L375.031 458.081L385.041 459.627L384.655 462.121L362.685 458.729L363.07 456.235L372.664 457.716L374.663 444.764L365.069 443.283Z" fill="white" fill-opacity="0.75"/>
<path d="M377.17 423.168C379.039 419.005 382.581 418.148 386.271 419.806L395.569 423.982L394.575 426.196L392.184 425.122C393.494 427.023 393.418 429.72 392.517 431.727C391.072 434.945 388.151 436.471 385.14 435.119C382.1 433.753 381.283 430.123 382.754 426.846C383.497 425.193 384.633 423.611 385.837 422.271L385.277 422.02C383.21 421.092 380.477 420.858 378.993 424.164C378.303 425.699 378.293 427.539 378.378 429.244L376.18 429.321C376.069 426.646 376.507 424.644 377.17 423.168ZM390.741 430.468C391.642 428.461 391.683 425.606 389.793 424.048L387.461 423.001C386.454 424.216 385.515 425.674 384.773 427.327C383.752 429.6 384.189 432.102 386.02 432.924C387.909 433.773 389.773 432.623 390.741 430.468Z" fill="white" fill-opacity="0.75"/>
<path d="M403.732 412.785C400.908 416.532 395.308 417.295 391.509 414.431C387.711 411.568 386.928 405.994 389.753 402.247C391.116 400.438 393.132 399.323 395.301 398.973L395.606 401.31C393.987 401.468 392.478 402.234 391.484 403.552C389.478 406.213 390.206 410.247 393.048 412.39C395.916 414.552 399.995 414.141 402.001 411.48C403.014 410.136 403.329 408.428 403.003 406.764L405.334 406.414C405.645 408.635 405.135 410.924 403.732 412.785Z" fill="white" fill-opacity="0.75"/>
<path d="M411.339 381.493L410.527 392.218L421.813 394.546L419.489 396.509L410.282 394.585L409.904 398.801L412.765 402.188L410.911 403.754L396.315 386.474L398.169 384.908L407.941 396.477L408.966 383.498L411.339 381.493Z" fill="white" fill-opacity="0.75"/>
<path d="M427.41 390.717L417.958 370.595L424.753 367.403C431.138 364.404 437.602 366.444 440.368 372.331C443.133 378.219 440.59 384.526 434.205 387.525L427.41 390.717ZM428.717 387.564L433.228 385.445C438.266 383.079 440.255 378.105 438.054 373.418C435.866 368.761 430.768 367.116 425.73 369.483L421.219 371.601L428.717 387.564Z" fill="white" fill-opacity="0.75"/>
<path d="M454.447 363.057C458.934 362.23 461.652 364.657 462.386 368.635L464.234 378.659L461.847 379.1L461.372 376.522C460.553 378.68 458.29 380.15 456.126 380.55C452.657 381.189 449.742 379.654 449.143 376.408C448.539 373.13 451.061 370.394 454.594 369.743C456.376 369.414 458.324 369.45 460.11 369.68L459.999 369.075C459.588 366.848 458.227 364.466 454.663 365.123C453.008 365.429 451.489 366.466 450.134 367.505L448.821 365.74C450.959 364.128 452.856 363.351 454.447 363.057ZM456.152 378.373C458.316 377.974 460.689 376.385 460.897 373.944L460.433 371.43C458.861 371.292 457.128 371.349 455.345 371.677C452.895 372.129 451.085 373.911 451.449 375.884C451.824 377.921 453.829 378.801 456.152 378.373Z" fill="white" fill-opacity="0.75"/>
<path d="M474.873 378.508L468.448 361.499L471.164 361.611L476.154 375.71L482.189 362.064L484.905 362.176L477.201 378.603L474.873 378.508Z" fill="white" fill-opacity="0.75"/>
<path d="M495.154 360.922C494.265 360.746 493.712 359.878 493.881 359.021C494.045 358.195 494.888 357.604 495.777 357.78C496.634 357.95 497.187 358.818 497.024 359.643C496.854 360.5 496.011 361.092 495.154 360.922ZM490.104 380.078L493.356 363.667L495.737 364.139L492.485 380.55L490.104 380.078Z" fill="white" fill-opacity="0.75"/>
<path d="M502.567 383.824C500.364 383.066 498.2 381.398 496.829 379.216L498.601 377.943C499.954 379.88 501.528 381.174 503.272 381.774C505.353 382.489 507.097 381.994 507.613 380.495C508.202 378.781 506.556 377.599 504.624 376.25C501.178 373.833 500.099 372.196 500.877 369.931C501.866 367.055 504.864 366.101 508.016 367.185C509.974 367.858 511.762 369.226 513.066 370.906L511.354 372.302C510.11 370.745 508.718 369.719 507.311 369.235C505.536 368.625 503.793 368.915 503.267 370.445C502.793 371.822 503.809 372.65 506.42 374.609C508.687 376.278 511.024 378.04 509.992 381.039C508.993 383.946 505.841 384.95 502.567 383.824Z" fill="white" fill-opacity="0.75"/>
<path d="M521.638 392.298L522.938 390.645L533.604 390.225C537.732 390.056 540.07 389.178 541.43 387.448C543.111 385.312 542.312 382.665 540.455 381.205C538.421 379.604 536.111 379.557 533.635 380.244L533.137 377.999C536.207 377.079 539.186 377.323 541.932 379.484C544.959 381.866 545.921 385.876 543.459 389.004C541.598 391.369 538.948 392.33 533.997 392.552L526.297 392.917L535.173 399.901L533.692 401.783L521.638 392.298Z" fill="white" fill-opacity="0.75"/>
<path d="M543.862 414.032C540.624 409.665 542.171 403.765 547.603 399.736C553.01 395.727 559.105 395.961 562.343 400.328C565.562 404.669 564.016 410.569 558.609 414.578C553.177 418.607 547.081 418.373 543.862 414.032ZM545.734 412.644C548.066 415.789 552.772 415.724 557.086 412.525C561.401 409.325 562.804 404.861 560.472 401.716C558.14 398.57 553.441 398.59 549.126 401.79C544.811 404.989 543.402 409.499 545.734 412.644Z" fill="white" fill-opacity="0.75"/>
<path d="M552.769 426.958L554.732 426.202L564.115 431.289C567.751 433.251 570.209 433.69 572.262 432.899C574.798 431.921 575.463 429.237 574.613 427.033C573.682 424.617 571.72 423.397 569.24 422.723L569.959 420.538C573.068 421.316 575.504 423.048 576.762 426.308C578.147 429.901 576.926 433.84 573.212 435.272C570.404 436.355 567.634 435.828 563.265 433.49L556.459 429.871L560.522 440.408L558.288 441.27L552.769 426.958Z" fill="white" fill-opacity="0.75"/>
<path d="M560.519 455.383C560.119 451.976 561.263 449.235 563.108 447.194L565.133 448.618C563.469 450.54 562.493 452.772 562.78 455.215C563.138 458.268 565.512 460.172 568.308 459.844C571.137 459.512 572.808 457.1 572.446 454.015C572.223 452.118 571.356 450.559 570.165 449.297L570.85 447.36L582.233 446.349L583.765 459.397L581.387 459.677L580.141 449.071L572.691 449.718C573.634 450.812 574.486 452.244 574.724 454.268C575.192 458.254 573.074 461.858 568.703 462.372C564.332 462.885 561.051 459.914 560.519 455.383Z" fill="white" fill-opacity="0.75"/>
<path d="M581.433 500.11L581.048 502.605L559.077 499.213L559.462 496.719L569.472 498.264L571.472 485.312L561.462 483.766L561.847 481.272L583.818 484.664L583.432 487.158L573.838 485.677L571.839 498.629L581.433 500.11Z" fill="white" fill-opacity="0.75"/>
<path d="M569.333 520.225C567.463 524.388 563.921 525.245 560.231 523.587L550.933 519.411L551.927 517.198L554.318 518.271C553.008 516.37 553.084 513.673 553.986 511.666C555.431 508.448 558.351 506.922 561.362 508.274C564.402 509.64 565.22 513.27 563.748 516.547C563.006 518.2 561.869 519.782 560.665 521.122L561.226 521.373C563.292 522.301 566.025 522.535 567.51 519.229C568.199 517.694 568.209 515.854 568.124 514.149L570.322 514.072C570.434 516.747 569.995 518.749 569.333 520.225ZM555.761 512.925C554.86 514.932 554.819 517.787 556.709 519.345L559.041 520.392C560.048 519.177 560.987 517.719 561.729 516.066C562.75 513.793 562.313 511.291 560.483 510.469C558.593 509.62 556.729 510.77 555.761 512.925Z" fill="white" fill-opacity="0.75"/>
<path d="M542.77 530.608C545.594 526.861 551.194 526.098 554.993 528.962C558.791 531.825 559.574 537.4 556.749 541.146C555.386 542.955 553.37 544.07 551.201 544.42L550.896 542.083C552.515 541.926 554.025 541.159 555.018 539.841C557.024 537.18 556.297 533.146 553.454 531.003C550.586 528.841 546.508 529.252 544.501 531.913C543.488 533.257 543.173 534.965 543.499 536.629L541.169 536.979C540.857 534.758 541.367 532.469 542.77 530.608Z" fill="white" fill-opacity="0.75"/>
<path d="M535.163 561.9L535.975 551.175L524.689 548.847L527.013 546.884L536.22 548.808L536.598 544.592L533.738 541.205L535.592 539.639L550.187 556.919L548.333 558.485L538.561 546.916L537.537 559.895L535.163 561.9Z" fill="white" fill-opacity="0.75"/>
<path d="M519.093 552.676L528.544 572.798L521.749 575.99C515.364 578.989 508.9 576.949 506.134 571.062C503.369 565.175 505.912 558.867 512.297 555.868L519.093 552.676ZM517.785 555.829L513.274 557.948C508.236 560.314 506.247 565.288 508.448 569.975C510.636 574.632 515.734 576.277 520.772 573.91L525.283 571.792L517.785 555.829Z" fill="white" fill-opacity="0.75"/>
<path d="M492.055 580.336C487.568 581.163 484.85 578.736 484.117 574.758L482.268 564.734L484.655 564.293L485.13 566.871C485.95 564.713 488.212 563.243 490.376 562.844C493.845 562.204 496.76 563.739 497.359 566.985C497.964 570.263 495.441 572.999 491.908 573.65C490.126 573.979 488.178 573.943 486.392 573.713L486.503 574.318C486.914 576.545 488.275 578.927 491.839 578.27C493.494 577.964 495.014 576.927 496.368 575.888L497.681 577.653C495.543 579.265 493.647 580.042 492.055 580.336ZM490.35 565.02C488.186 565.419 485.814 567.008 485.605 569.449L486.069 571.963C487.641 572.101 489.375 572.044 491.157 571.716C493.607 571.264 495.417 569.482 495.054 567.509C494.678 565.472 492.673 564.592 490.35 565.02Z" fill="white" fill-opacity="0.75"/>
<path d="M471.629 564.885L478.055 581.894L475.339 581.782L470.348 567.683L464.313 581.329L461.597 581.217L469.301 564.79L471.629 564.885Z" fill="white" fill-opacity="0.75"/>
<path d="M451.348 582.471C452.237 582.647 452.791 583.515 452.621 584.372C452.457 585.198 451.614 585.789 450.725 585.613C449.868 585.443 449.315 584.575 449.478 583.75C449.648 582.893 450.491 582.301 451.348 582.471ZM456.398 563.315L453.146 579.726L450.765 579.254L454.017 562.843L456.398 563.315Z" fill="white" fill-opacity="0.75"/>
<path d="M443.935 559.569C446.138 560.327 448.302 561.995 449.673 564.177L447.901 565.45C446.548 563.513 444.974 562.219 443.23 561.619C441.149 560.904 439.405 561.399 438.889 562.898C438.3 564.612 439.946 565.794 441.878 567.143C445.324 569.56 446.404 571.197 445.625 573.462C444.636 576.338 441.639 577.292 438.487 576.208C436.528 575.535 434.74 574.167 433.436 572.487L435.148 571.091C436.392 572.648 437.784 573.674 439.192 574.158C440.967 574.768 442.709 574.478 443.235 572.948C443.709 571.571 442.693 570.743 440.082 568.784C437.816 567.115 435.479 565.353 436.51 562.354C437.51 559.447 440.661 558.443 443.935 559.569Z" fill="white" fill-opacity="0.75"/>
<path d="M424.864 551.095L423.564 552.748L412.898 553.168C408.771 553.337 406.433 554.215 405.072 555.945C403.391 558.081 404.191 560.728 406.047 562.188C408.081 563.789 410.391 563.837 412.867 563.149L413.366 565.394C410.295 566.314 407.316 566.07 404.57 563.909C401.544 561.527 400.582 557.517 403.043 554.389C404.904 552.024 407.555 551.063 412.506 550.841L420.205 550.476L411.33 543.492L412.81 541.61L424.864 551.095Z" fill="white" fill-opacity="0.75"/>
<path d="M402.64 529.361C405.878 533.728 404.331 539.628 398.899 543.657C393.492 547.666 387.397 547.432 384.159 543.065C380.94 538.724 382.487 532.824 387.893 528.815C393.326 524.786 399.421 525.02 402.64 529.361ZM400.768 530.749C398.436 527.604 393.731 527.669 389.416 530.868C385.101 534.068 383.698 538.532 386.03 541.677C388.363 544.823 393.061 544.803 397.376 541.603C401.691 538.404 403.101 533.894 400.768 530.749Z" fill="white" fill-opacity="0.75"/>
<path d="M393.733 516.435L391.77 517.192L382.387 512.104C378.752 510.142 376.293 509.703 374.24 510.494C371.704 511.472 371.039 514.156 371.889 516.36C372.82 518.776 374.782 519.996 377.262 520.67L376.543 522.855C373.434 522.077 370.998 520.345 369.741 517.085C368.355 513.492 369.576 509.553 373.29 508.121C376.098 507.038 378.868 507.565 383.238 509.904L390.043 513.522L385.98 502.985L388.214 502.123L393.733 516.435Z" fill="white" fill-opacity="0.75"/>
<path d="M385.984 488.01C386.384 491.417 385.239 494.158 383.394 496.199L381.369 494.775C383.033 492.853 384.009 490.621 383.723 488.178C383.364 485.125 380.99 483.221 378.194 483.549C375.366 483.881 373.694 486.293 374.056 489.378C374.279 491.275 375.146 492.834 376.337 494.096L375.652 496.033L364.27 497.044L362.737 483.996L365.115 483.717L366.361 494.322L373.812 493.675C372.868 492.581 372.016 491.149 371.778 489.125C371.31 485.139 373.428 481.535 377.799 481.021C382.17 480.508 385.451 483.479 385.984 488.01Z" fill="white" fill-opacity="0.75"/>
<rect x="352" y="469" width="39" height="4" fill="#FADCA3"/>
<rect x="555" y="469" width="39" height="4" fill="#FADCA3"/>
<circle cx="473.096" cy="470.343" r="16.5561" transform="rotate(180 473.096 470.343)" fill="#90DEE2"/>
</g>
<defs>
<clipPath id="clip0_1086_8244">
<rect width="946" height="941" fill="white"/>
</clipPath>
</defs>
</svg>
