<svg xmlns="http://www.w3.org/2000/svg" width="1440" height="321" viewBox="0 0 1440 321" fill="none">
  <path fill-rule="evenodd" clip-rule="evenodd" d="M1249 26.5C1249 11.8645 1260.86 0 1275.5 0H1354.5C1369.69 0 1382 12.3122 1382 27.5C1382 42.6878 1394.31 55 1409.5 55H1504C1526.09 55 1544 72.9086 1544 95V159C1544 181.091 1526.09 199 1504 199H1424C1401.91 199 1384 216.909 1384 239V287.5C1384 294.956 1377.96 301 1370.5 301C1363.04 301 1357 294.956 1357 287.5V277C1357 263.745 1346.25 253 1333 253H1266.5C1256.83 253 1249 245.165 1249 235.5C1249 225.835 1241.17 218 1231.5 218H1192C1169.91 218 1152 235.909 1152 258V308.5C1152 315.404 1146.4 321 1139.5 321C1132.6 321 1127 315.404 1127 308.5V279C1127 256.909 1109.09 239 1087 239H970.5C961.94 239 955 245.94 955 254.5C955 263.06 948.06 270 939.5 270H680C670.059 270 662 278.059 662 288V293.5C662 300.404 656.404 306 649.5 306C642.596 306 637 300.404 637 293.5V279.5C637 264.864 625.136 253 610.5 253H530C511.775 253 497 267.775 497 286V306.5C497 313.404 491.404 319 484.5 319C477.596 319 472 313.404 472 306.5V272.5C472 252.894 456.106 237 436.5 237H420C409.507 237 401 245.507 401 256C401 266.493 392.493 275 382 275H248.5C237.178 275 228 265.822 228 254.5C228 243.178 218.822 234 207.5 234H120C97.9086 234 80 251.909 80 274V308.5C80 315.404 74.4036 321 67.5 321C60.5964 321 55 315.404 55 308.5V253C55 230.909 37.0914 213 15 213H1C-21.0914 213 -39 195.091 -39 173V65C-39 42.9086 -21.0914 25 1 25H97.5C116.554 25 132 40.4462 132 59.5C132 78.5538 147.446 94 166.5 94H206C218.15 94 228 84.1503 228 72C228 59.8497 237.85 50 250 50H365C384.882 50 401 66.1178 401 86C401 105.882 417.118 122 437 122H478C491.807 122 503 133.193 503 147C503 160.807 514.193 172 528 172H643H653H886C908.091 172 926 154.091 926 132C926 109.909 943.909 92 966 92H1000.5C1011.27 92 1020 83.2696 1020 72.5C1020 61.7304 1028.73 53 1039.5 53H1222.5C1237.14 53 1249 41.1355 1249 26.5Z" fill="#93CA45"/>
</svg>