<svg xmlns="http://www.w3.org/2000/svg" width="1440" height="412" viewBox="0 0 1440 412" fill="none">
  <path fill-rule="evenodd" clip-rule="evenodd" d="M-5 0C-27.0914 0 -45 17.9086 -45 40V212.5C-45 219.404 -39.4036 225 -32.5 225C-25.5964 225 -20 230.596 -20 237.5V361C-20 383.091 -2.09139 401 20 401H396.5C396.776 401 397 401.224 397 401.5C397 401.776 397.224 402 397.5 402H471C473.761 402 476 404.239 476 407C476 409.761 478.239 412 481 412H971C978.229 412 985.009 410.083 990.861 406.728C1005.34 398.429 1019.55 386 1036.24 386H1277C1299.09 386 1317 368.091 1317 346V338C1317 315.909 1334.91 298 1357 298H1597C1619.09 298 1637 280.091 1637 258V129C1637 106.909 1619.09 89 1597 89H1538C1515.91 89 1498 71.0914 1498 49V40C1498 17.9086 1480.09 0 1458 0H1344C1321.91 0 1304 17.9086 1304 40V49C1304 71.0914 1286.09 89 1264 89H1028C1005.91 89 988 106.909 988 129V132C988 154.091 970.091 172 948 172H906C883.909 172 866 189.909 866 212V265C866 287.091 848.091 305 826 305H606C583.909 305 566 287.091 566 265V261C566 238.909 548.091 221 526 221H461.5C449.074 221 439 210.926 439 198.5C439 186.074 428.926 176 416.5 176H216.5C199.103 176 185 161.897 185 144.5C185 127.103 170.897 113 153.5 113H136C113.909 113 96 95.0914 96 73V40C96 17.9086 78.0914 0 56 0H-5Z" fill="#B38F5A"/>
</svg>