<svg width="379" height="292" viewBox="0 0 379 292" fill="none" xmlns="http://www.w3.org/2000/svg">
<path fill-rule="evenodd" clip-rule="evenodd" d="M71.5116 0C79.4107 0 86.5699 4.64931 89.7826 11.8656L116.372 71.5895C116.784 72.5144 116.952 73.5294 116.86 74.5375C116.543 78.0074 119.274 81 122.759 81H190.187C200.612 81 204.995 94.3044 196.61 100.5C188.225 106.696 192.607 120 203.033 120H287C298.046 120 307 128.954 307 140C307 149.941 315.059 158 325 158H349.473C355.548 158 360.473 162.925 360.473 169V170.986C360.473 175.964 364.508 180 369.486 180C374.464 180 378.5 184.036 378.5 189.014V275C378.5 277.209 376.709 279 374.5 279H334V225.5C334 210.312 321.688 198 306.5 198C291.312 198 279 210.312 279 225.5V279H185.142C183.718 279 182.298 279.152 180.907 279.454L123.249 291.946C123.236 291.949 123.227 291.96 123.227 291.973C123.227 291.988 123.215 292 123.2 292H123H97H40H4C-7.04569 292 -16 283.046 -16 272V20C-16 8.9543 -7.04569 0 4 0H71.5116Z" fill="#4CA3BC"/>
</svg>
