<svg width="368" height="253" viewBox="0 0 368 253" fill="none" xmlns="http://www.w3.org/2000/svg">
<g clip-path="url(#clip0_856_67)">
<path d="M104.56 22.3116C119.858 31.3653 115.132 35.879 111.179 42.558C107.227 49.237 105.234 55.3683 90.2459 46.4983C82.6372 41.9955 79.6734 32.9308 83.626 26.2519C87.5787 19.5729 96.9509 17.8088 104.56 22.3116Z" fill="white"/>
<path d="M126.98 23.8595C126.98 32.2922 124.039 32.3422 120.411 32.3422C116.782 32.3422 113.841 32.2922 113.841 23.8595C113.841 15.4269 117.868 8.59082 120.411 8.59082C122.954 8.59082 126.98 15.4269 126.98 23.8595Z" fill="#6A5B3D"/>
<path d="M206.32 23.8595C206.32 32.2922 203.379 32.3422 199.75 32.3422C196.122 32.3422 193.181 32.2922 193.181 23.8595C193.181 15.4269 197.207 8.59082 199.75 8.59082C202.293 8.59082 206.32 15.4269 206.32 23.8595Z" fill="#6A5B3D"/>
<path d="M217.054 22.3116C201.756 31.3653 206.482 35.879 210.434 42.558C214.387 49.237 216.38 55.3683 231.368 46.4983C238.977 41.9955 241.94 32.9308 237.988 26.2519C234.035 19.5729 224.663 17.8088 217.054 22.3116Z" fill="#123041"/>
<path d="M220.83 30.0303C213.205 34.5428 215.179 36.1482 216.679 38.6823C218.178 41.2164 218.79 43.628 226.26 39.2071C230.053 36.9629 231.911 33.0893 230.411 30.5552C228.912 28.021 224.622 27.7861 220.83 30.0303Z" fill="#FFCACA"/>
<path d="M100.326 30.0303C107.951 34.5428 105.977 36.1482 104.477 38.6823C102.978 41.2164 102.366 43.628 94.8954 39.2071C91.1032 36.9629 89.2447 33.0893 90.7444 30.5552C92.2441 28.021 96.5341 27.7861 100.326 30.0303Z" fill="#FFCACA"/>
<path d="M102.358 104.944C109.846 115.645 131.53 117.644 141.437 117.305C142.344 116.647 144.267 114.719 144.705 112.27C145.253 109.209 120.226 90.4575 113.707 87.1966C107.188 83.9358 92.9986 91.5676 102.358 104.944Z" fill="#E7EAEE"/>
<path d="M190.187 179.125C193.811 177.643 197.341 157.897 196.625 148.067L161.812 153.623C161.096 161.601 161.049 177.871 162.765 179.125C164.911 180.692 185.656 180.977 190.187 179.125Z" fill="white"/>
<path d="M192.908 157.254C203.743 150.049 189.096 105.103 178.513 99.4415C167.93 93.7804 150.717 94.6381 143.158 99.4415C135.598 104.245 116.918 149.877 127.753 157.254C138.588 164.63 182.073 164.459 192.908 157.254Z" fill="white"/>
<path fill-rule="evenodd" clip-rule="evenodd" d="M163.963 162.672C164.048 160.013 163.96 154.587 162.11 151.35C159.149 146.17 149.477 142.759 149.477 142.759C145.602 142.17 137.247 139.373 134.821 132.905C133.789 130.152 131.409 128.309 128.657 127.105C124.333 140.123 122.305 153.538 127.761 157.253C133.661 161.27 149.244 163.048 163.963 162.672Z" fill="#123041"/>
<path d="M130.993 179.125C127.368 177.643 123.839 157.897 124.555 148.067L159.368 153.623C160.083 161.601 160.131 177.871 158.414 179.125C156.268 180.692 135.523 180.977 130.993 179.125Z" fill="#123041"/>
<path d="M132.042 140.95C132.042 154.431 143.58 157.668 157.814 157.668C172.048 157.668 183.587 154.431 183.587 140.95C183.587 123.229 172.048 113.198 157.814 113.198C143.58 113.198 132.042 123.229 132.042 140.95Z" fill="#FFC0C1"/>
<path d="M158.032 153.12C157.928 153.121 157.825 153.101 157.729 153.062C157.633 153.023 157.545 152.966 157.472 152.893L153.961 149.362C153.832 149.212 153.764 149.019 153.772 148.821C153.78 148.624 153.862 148.436 154.003 148.297C154.143 148.157 154.331 148.075 154.53 148.067C154.728 148.06 154.923 148.127 155.073 148.256L158.592 151.747C158.666 151.82 158.724 151.907 158.764 152.003C158.804 152.098 158.825 152.201 158.825 152.304C158.825 152.408 158.804 152.51 158.764 152.606C158.724 152.702 158.666 152.788 158.592 152.861C158.521 152.94 158.434 153.003 158.338 153.048C158.242 153.092 158.138 153.117 158.032 153.12Z" fill="#FF8D8D"/>
<path d="M154.559 153.12C154.456 153.121 154.354 153.101 154.258 153.062C154.163 153.023 154.076 152.966 154.003 152.893C153.93 152.821 153.871 152.734 153.832 152.639C153.792 152.543 153.772 152.441 153.772 152.338C153.772 152.234 153.792 152.132 153.832 152.037C153.871 151.941 153.93 151.855 154.003 151.782L157.486 148.298C157.559 148.225 157.645 148.167 157.741 148.127C157.836 148.087 157.938 148.067 158.042 148.067C158.145 148.067 158.247 148.087 158.343 148.127C158.438 148.167 158.525 148.225 158.597 148.298C158.743 148.445 158.825 148.643 158.825 148.85C158.825 149.057 158.743 149.256 158.597 149.402L155.107 152.893C154.961 153.038 154.764 153.119 154.559 153.12Z" fill="#FF8D8D"/>
<path d="M95.6487 74.5401C95.6487 100.915 124.57 109.661 159.721 109.661C194.873 109.661 224.007 100.915 224.007 74.5401C224.007 29.5687 194.873 14.1499 159.721 14.1499C124.57 14.1499 95.6487 27.4272 95.6487 74.5401Z" fill="white"/>
<path fill-rule="evenodd" clip-rule="evenodd" d="M164.409 14.2222C164.704 22.6377 166.462 33.6759 171.976 38.1399C176.825 42.0653 182.421 43.065 187.422 43.9583C191.695 44.7218 195.534 45.4075 198.1 47.7758C199.463 49.0341 200.672 50.7802 201.982 52.6715C205.928 58.3702 210.787 65.3871 223.523 64.3508C219.756 27.2754 194.877 15.2539 164.409 14.2222Z" fill="#123041"/>
<path d="M180.555 88.5367C180.555 78.1544 172.138 69.7378 161.756 69.7378H152.357C141.974 69.7378 133.558 78.1544 133.558 88.5367C133.558 95.4583 139.169 101.069 146.09 101.069H168.022C174.944 101.069 180.555 95.4583 180.555 88.5367Z" fill="#FFC0C1"/>
<path d="M166.911 83.8877V89.4465" stroke="#123041" stroke-width="5.05348" stroke-linecap="round"/>
<path d="M146.689 83.8877L146.689 89.4465" stroke="#123041" stroke-width="5.05348" stroke-linecap="round"/>
<path d="M205.814 89.4463H198.234" stroke="#FFC0C1" stroke-width="10.107" stroke-linecap="round"/>
<path d="M115.365 89.4463H107.785" stroke="#FFC0C1" stroke-width="10.107" stroke-linecap="round"/>
<path d="M219.629 104.761C210.942 114.514 189.172 113.965 179.373 112.471C178.55 111.711 176.865 109.572 176.716 107.088C176.53 103.984 203.576 88.2854 210.431 85.8087C217.287 83.3319 230.487 92.5695 219.629 104.761Z" fill="white"/>
<path d="M128.023 79.875C128.023 79.875 126.481 78.1059 123.011 78.1059C119.541 78.1059 117.999 79.875 117.999 79.875" stroke="#123041" stroke-width="5.41941" stroke-linecap="round"/>
<path d="M197.117 79.875C197.117 79.875 195.575 78.1059 192.105 78.1059C188.635 78.1059 187.092 79.875 187.092 79.875" stroke="#123041" stroke-width="5.41941" stroke-linecap="round"/>
</g>
<path fill-rule="evenodd" clip-rule="evenodd" d="M189 172C189 168.134 192.134 165 196 165H313C316.866 165 320 168.134 320 172C320 175.866 323.134 179 327 179H352.95C361.262 179 368 185.738 368 194.05V201.95C368 210.262 361.262 217 352.95 217H291.672C283.388 217 276.672 223.716 276.672 232V245.124C276.672 249.328 273.264 252.737 269.059 252.737C264.855 252.737 261.446 249.328 261.446 245.124V232C261.446 223.716 254.731 217 246.446 217H117C113.134 217 110 220.134 110 224C110 227.866 106.866 231 103 231H66C62.134 231 59 227.866 59 224C59 220.134 55.866 217 52 217H15.0497C6.73798 217 0 210.262 0 201.95V194.05C0 185.738 6.73798 179 15.0497 179H182C185.866 179 189 175.866 189 172Z" fill="#549645"/>
<path fill-rule="evenodd" clip-rule="evenodd" d="M329.213 210.88C329.315 210.929 329.43 210.814 329.381 210.711C328.074 208.007 328.542 204.66 330.786 202.416C333.622 199.58 338.22 199.58 341.056 202.416C343.3 204.66 343.768 208.007 342.461 210.711C342.412 210.814 342.527 210.929 342.629 210.88C345.334 209.572 348.682 210.04 350.926 212.284C353.762 215.12 353.762 219.718 350.926 222.554C348.681 224.798 345.333 225.266 342.628 223.958C342.526 223.908 342.41 224.024 342.46 224.126C343.768 226.831 343.3 230.179 341.056 232.424C338.22 235.26 333.622 235.26 330.786 232.424C328.542 230.179 328.074 226.831 329.382 224.126C329.432 224.024 329.316 223.908 329.214 223.958C326.509 225.266 323.161 224.798 320.916 222.554C318.08 219.718 318.08 215.12 320.916 212.284C323.16 210.04 326.508 209.572 329.213 210.88Z" fill="#FFC53D"/>
<circle cx="335.922" cy="217.552" r="3.01784" transform="rotate(45 335.922 217.552)" fill="#E98B2D"/>
<defs>
<clipPath id="clip0_856_67">
<rect width="159.184" height="189" fill="white" transform="translate(81)"/>
</clipPath>
</defs>
</svg>
