<svg width="375" height="537" viewBox="0 0 375 537" fill="none" xmlns="http://www.w3.org/2000/svg">
<g clip-path="url(#clip0_965_115)">
<path fill-rule="evenodd" clip-rule="evenodd" d="M817.999 133.547C817.999 109.497 798.503 90.001 774.453 90.001H-125.455C-149.505 90.001 -169.001 109.497 -169.001 133.547V401.455C-169.001 425.505 -149.505 445.001 -125.455 445.001H266.141C290.191 445.001 309.687 464.497 309.687 488.547V493.157C309.687 517.206 329.183 536.703 353.233 536.703H581.849C605.899 536.703 625.396 517.206 625.396 493.157V488.547C625.396 464.497 644.892 445.001 668.941 445.001H686.233C706.746 445.001 723.375 461.63 723.375 482.143V501.322C723.375 511.242 731.417 519.285 741.338 519.285C751.258 519.285 759.301 511.242 759.301 501.322V474.35C759.301 458.141 772.441 445.001 788.65 445.001C804.859 445.001 817.999 431.861 817.999 415.652V133.547Z" fill="#397A39"/>
<path fill-rule="evenodd" clip-rule="evenodd" d="M747.227 32.0005C759.252 32.0005 769 41.7486 769 53.7735V105.703C769 117.596 759.457 127.289 747.566 127.474L452.605 132.069H378.996C366.971 132.069 357.223 141.818 357.223 153.842V180.62C357.223 185.881 352.958 190.146 347.698 190.146C342.437 190.146 338.172 185.881 338.172 180.62V142.962C338.172 136.946 333.295 132.069 327.279 132.069C321.263 132.069 316.387 136.946 316.387 142.962V391.227C316.387 403.252 306.639 413 294.614 413H91.773C79.7481 413 70 403.252 70 391.227V184.684C70 177.08 63.8358 170.916 56.232 170.916C48.6281 170.916 42.464 177.08 42.464 184.684V250.939C42.464 256.2 38.1992 260.464 32.9383 260.464C27.6774 260.464 23.4126 256.2 23.4126 250.939V192.689C23.4126 180.664 13.6645 170.916 1.63959 170.916H-168.227C-180.252 170.916 -190 161.168 -190 149.143V103.42C-190 91.3947 -180.252 81.6466 -168.227 81.6466H48.227C60.2519 81.6466 70 71.8985 70 59.8736V53.7735C70 41.7486 79.7481 32.0005 91.773 32.0005H747.227ZM32.411 40.1667L26.9678 40.1667V45.61C26.9678 57.6349 36.7159 67.383 48.7408 67.383H54.184V61.9398C54.184 49.9149 44.4359 40.1668 32.411 40.1667ZM41.3772 278.43C41.3772 283.54 37.2342 287.683 32.1236 287.683C27.0131 287.683 22.8701 283.54 22.8701 278.43C22.8701 273.319 27.0131 269.176 32.1236 269.176C37.2342 269.176 41.3772 273.319 41.3772 278.43ZM347.425 215.507C352.536 215.507 356.679 211.364 356.679 206.254C356.679 201.143 352.536 197 347.425 197C342.315 197 338.172 201.143 338.172 206.254C338.172 211.364 342.315 215.507 347.425 215.507Z" fill="#2F633C"/>
<path fill-rule="evenodd" clip-rule="evenodd" d="M307.485 263.599C307.592 263.651 307.714 263.53 307.662 263.422C306.287 260.578 306.779 257.059 309.139 254.699C312.121 251.718 316.955 251.718 319.936 254.699C322.296 257.059 322.788 260.578 321.413 263.422C321.361 263.53 321.483 263.651 321.59 263.599C324.434 262.223 327.954 262.716 330.314 265.075C333.296 268.057 333.296 272.891 330.314 275.873C327.954 278.233 324.434 278.725 321.59 277.349C321.483 277.297 321.361 277.419 321.413 277.526C322.788 280.37 322.296 283.889 319.936 286.249C316.955 289.23 312.121 289.23 309.139 286.249C306.779 283.889 306.287 280.37 307.662 277.526C307.714 277.419 307.592 277.297 307.485 277.349C304.641 278.725 301.121 278.233 298.761 275.873C295.779 272.891 295.779 268.057 298.761 265.075C301.121 262.716 304.641 262.223 307.485 263.599Z" fill="#FF686B"/>
<circle cx="314.528" cy="270.615" r="3.17295" transform="rotate(45 314.528 270.615)" fill="#E23636"/>
</g>
<defs>
<clipPath id="clip0_965_115">
<rect width="375" height="537" fill="white"/>
</clipPath>
</defs>
</svg>
