<svg width="328" height="283" viewBox="0 0 328 283" fill="none" xmlns="http://www.w3.org/2000/svg">
<path d="M0 0.000328043C0 0.000328043 271 -0.000488281 262 0.000387237C259.78 0.000387237 256.376 1.87365 253.278 3.95648C248.454 7.19954 246 12.8412 246 18.6538V263C246 274.046 237.046 283 226 283H20C8.9543 283 0 274.046 0 263V0.000328043Z" fill="#2F633C"/>
<path fill-rule="evenodd" clip-rule="evenodd" d="M237.485 133.51C237.592 133.562 237.714 133.441 237.662 133.333C236.287 130.49 236.779 126.97 239.139 124.611C242.121 121.629 246.955 121.629 249.936 124.611C252.296 126.97 252.788 130.49 251.413 133.333C251.361 133.441 251.483 133.562 251.59 133.51C254.434 132.135 257.954 132.627 260.314 134.987C263.296 137.968 263.296 142.802 260.314 145.784C257.954 148.144 254.434 148.636 251.59 147.26C251.483 147.208 251.361 147.33 251.413 147.437C252.788 150.281 252.296 153.8 249.936 156.16C246.955 159.141 242.121 159.141 239.139 156.16C236.779 153.8 236.287 150.281 237.662 147.437C237.714 147.33 237.592 147.208 237.485 147.26C234.641 148.636 231.121 148.144 228.761 145.784C225.779 142.802 225.779 137.968 228.761 134.987C231.121 132.627 234.641 132.135 237.485 133.51Z" fill="#FF686B"/>
<circle cx="244.529" cy="140.526" r="3.17295" transform="rotate(45 244.529 140.526)" fill="#E23636"/>
<circle cx="308.754" cy="80.253" r="9.25353" fill="#2F633C"/>
<path d="M290 0.000266322C304 -0.000533453 322.5 2.89737e-05 328 0.000156192C326.613 0.000124121 324.479 1.92253 322.585 3.99041C319.745 7.09035 318.5 11.2631 318.5 15.4674V52.4978C318.5 57.7445 314.247 61.9978 309 61.9978C303.753 61.9978 299.5 57.7445 299.5 52.4978V15.467C299.5 11.263 298.255 7.09043 295.415 3.9906C293.521 1.92268 291.387 0.00018711 290 0.000266322Z" fill="#2F633C"/>
</svg>
