<svg width="699" height="129" viewBox="0 0 699 129" fill="none" xmlns="http://www.w3.org/2000/svg">
<path d="M598.946 1L604.389 1C616.414 1 626.162 10.7481 626.162 22.773L626.162 28.2163L620.719 28.2163C608.694 28.2163 598.946 18.4681 598.946 6.44324L598.946 1Z" fill="#2F633C"/>
<path d="M653.377 1L653.377 6.44324C653.377 18.4681 643.629 28.2163 631.604 28.2163L626.161 28.2163L626.161 22.773C626.161 10.7481 635.909 0.999999 647.934 1L653.377 1Z" fill="#2F633C"/>
<path d="M0 51C0 39.9543 8.9543 31 20 31H679C690.046 31 699 39.9543 699 51V109C699 120.046 690.046 129 679 129H20C8.95431 129 0 120.046 0 109V51Z" fill="#2F633C"/>
<rect y="100" width="34" height="29" fill="#2F633C"/>
<path d="M109.216 0L109.216 5.44324C109.216 17.4681 99.4682 27.2163 87.4433 27.2163L82.0001 27.2163L82.0001 21.773C82.0001 9.74811 91.7482 -7.63557e-07 103.773 -2.37932e-07L109.216 0Z" fill="#2F633C"/>
</svg>
