<svg width="260" height="277" viewBox="0 0 260 277" fill="none" xmlns="http://www.w3.org/2000/svg">
<path fill-rule="evenodd" clip-rule="evenodd" d="M189.968 0.166992H195.411C207.436 0.166995 217.184 9.91511 217.184 21.94V27.3833L211.741 27.3833C199.716 27.3832 189.968 17.6351 189.968 5.61024V0.166992ZM0 51.0005V51.0004C0 39.9547 8.95431 31.0004 20 31.0004H249.626C253.27 31.0004 256.647 29.0884 258.522 25.9638C259.489 24.3516 260 22.4145 260 20.5344V51.0005V100V133C260 132.025 259.881 131.023 259.682 130.03C258.345 123.357 251.386 120 244.581 120H240.079C240.053 120 240.026 120 240 120H234.464C223.418 120 214.464 128.955 214.464 140V239.939C214.464 245.2 210.199 249.465 204.938 249.465C199.677 249.465 195.413 245.2 195.413 239.939V140C195.413 128.955 186.458 120 175.413 120H20C8.95431 120 0 111.046 0 100V100V51.0005ZM244.403 5.61023V0.166992H238.96C226.935 0.166992 217.187 9.9151 217.187 21.94V27.3832H222.63C234.655 27.3832 244.403 17.6351 244.403 5.61023ZM213.377 267.43C213.377 272.54 209.234 276.683 204.124 276.683C199.013 276.683 194.87 272.54 194.87 267.43C194.87 262.319 199.013 258.176 204.124 258.176C209.234 258.176 213.377 262.319 213.377 267.43Z" fill="#2F633C"/>
</svg>
