<svg width="1008" height="537" viewBox="0 0 1008 537" fill="none" xmlns="http://www.w3.org/2000/svg">
<path fill-rule="evenodd" clip-rule="evenodd" d="M1008 133.547C1008 109.497 988.503 90.001 964.453 90.001H64.5448C40.495 90.001 20.9988 109.497 20.9988 133.547V401.455C20.9988 425.505 40.495 445.001 64.5448 445.001H456.141C480.191 445.001 499.687 464.497 499.687 488.547V493.156C499.687 517.206 519.183 536.702 543.233 536.702H771.849C795.899 536.702 815.396 517.206 815.396 493.156V488.547C815.396 464.497 834.892 445.001 858.942 445.001H876.233C896.746 445.001 913.375 461.63 913.375 482.143V501.322C913.375 511.242 921.417 519.285 931.338 519.285V519.285C941.258 519.285 949.3 511.242 949.3 501.322V474.35C949.3 458.141 962.44 445.001 978.65 445.001V445.001C994.859 445.001 1008 431.861 1008 415.652V133.547Z" fill="#397A39"/>
<path fill-rule="evenodd" clip-rule="evenodd" d="M959 53.7735C959 41.7486 949.252 32.0005 937.227 32.0005H281.773C269.748 32.0005 260 41.7486 260 53.7735V59.8736C260 71.8985 250.252 81.6466 238.227 81.6466H21.773C9.74811 81.6466 0 91.3947 0 103.42V149.143C0 161.168 9.74811 170.916 21.773 170.916H173.64C185.665 170.916 195.413 180.664 195.413 192.689V290.939C195.413 296.2 199.677 300.465 204.938 300.465V300.465C210.199 300.465 214.464 296.2 214.464 290.939V192.689C214.464 180.664 224.212 170.916 236.237 170.916H238.227C250.252 170.916 260 180.664 260 192.689V391.227C260 403.252 269.748 413 281.773 413H484.614C496.639 413 506.387 403.252 506.387 391.227V143.962C506.387 137.394 511.711 132.069 518.279 132.069V132.069C524.847 132.069 530.172 137.394 530.172 143.962V184.62C530.172 189.881 534.437 194.146 539.698 194.146V194.146C544.958 194.146 549.223 189.881 549.223 184.62V153.842C549.223 141.817 558.971 132.069 570.996 132.069H642.605L937.566 127.474C949.457 127.289 959 117.596 959 105.703V53.7735Z" fill="#2F633C"/>
<path d="M189.968 51.1665L195.411 51.1665C207.436 51.1665 217.184 60.9146 217.184 72.9395L217.184 78.3828L211.741 78.3828C199.716 78.3828 189.968 68.6346 189.968 56.6097L189.968 51.1665Z" fill="#2F633C"/>
<path d="M858.946 0L864.389 9.51727e-07C876.414 3.05423e-06 886.162 9.74812 886.162 21.773L886.162 27.2163L880.719 27.2163C868.694 27.2163 858.946 17.4681 858.946 5.44324L858.946 0Z" fill="#2F633C"/>
<path d="M244.403 51.1665L244.403 56.6097C244.403 68.6346 234.655 78.3828 222.63 78.3828L217.187 78.3828L217.187 72.9395C217.187 60.9146 226.935 51.1665 238.96 51.1665L244.403 51.1665Z" fill="#2F633C"/>
<path d="M913.378 0L913.378 5.44324C913.378 17.4681 903.629 27.2163 891.605 27.2163L886.161 27.2163L886.161 21.773C886.161 9.74811 895.909 -7.63557e-07 907.934 -2.37932e-07L913.378 0Z" fill="#2F633C"/>
<path d="M334.758 1.08887L334.758 6.53211C334.758 18.557 325.01 28.3051 312.985 28.3051L307.542 28.3051L307.542 22.8619C307.542 10.837 317.29 1.08887 329.315 1.08887L334.758 1.08887Z" fill="#2F633C"/>
<path fill-rule="evenodd" clip-rule="evenodd" d="M497.485 263.599C497.592 263.651 497.714 263.53 497.662 263.422C496.287 260.578 496.779 257.059 499.139 254.699C502.121 251.718 506.955 251.718 509.936 254.699C512.296 257.059 512.788 260.578 511.413 263.422C511.361 263.53 511.483 263.651 511.59 263.599C514.434 262.223 517.954 262.716 520.314 265.075C523.296 268.057 523.296 272.891 520.314 275.873C517.954 278.233 514.434 278.725 511.59 277.349C511.483 277.297 511.361 277.419 511.413 277.526C512.788 280.37 512.296 283.889 509.936 286.249C506.955 289.23 502.121 289.23 499.139 286.249C496.779 283.889 496.287 280.37 497.662 277.526C497.714 277.419 497.592 277.297 497.485 277.349C494.641 278.725 491.121 278.233 488.761 275.873C485.779 272.891 485.779 268.057 488.761 265.075C491.121 262.716 494.641 262.223 497.485 263.599Z" fill="#FF686B"/>
<circle cx="504.529" cy="270.615" r="3.17295" transform="rotate(45 504.529 270.615)" fill="#E23636"/>
<rect width="69" height="14" rx="7" transform="matrix(-1 0 0 1 959 220)" fill="#549645"/>
<rect width="74" height="14" rx="7" transform="matrix(-1 0 0 1 668 448)" fill="#549645"/>
<rect width="94" height="14" rx="7" transform="matrix(-1 0 0 1 711 475)" fill="#549645"/>
<circle cx="204.124" cy="318.429" r="9.25353" fill="#2F633C"/>
<circle cx="539.425" cy="210.254" r="9.25353" fill="#2F633C"/>
<g clip-path="url(#clip0_962_140)">
<path d="M643.56 172.312C658.858 181.365 654.132 185.879 650.179 192.558C646.227 199.237 644.234 205.368 629.246 196.498C621.637 191.995 618.673 182.931 622.626 176.252C626.579 169.573 635.951 167.809 643.56 172.312Z" fill="white"/>
<path d="M665.98 173.86C665.98 182.292 663.039 182.342 659.411 182.342C655.783 182.342 652.841 182.292 652.841 173.86C652.841 165.427 656.868 158.591 659.411 158.591C661.954 158.591 665.98 165.427 665.98 173.86Z" fill="#6A5B3D"/>
<path d="M745.32 173.86C745.32 182.292 742.378 182.342 738.75 182.342C735.122 182.342 732.181 182.292 732.181 173.86C732.181 165.427 736.207 158.591 738.75 158.591C741.293 158.591 745.32 165.427 745.32 173.86Z" fill="#6A5B3D"/>
<path d="M756.054 172.312C740.756 181.365 745.482 185.879 749.435 192.558C753.387 199.237 755.38 205.368 770.368 196.498C777.977 191.995 780.941 182.931 776.988 176.252C773.035 169.573 763.663 167.809 756.054 172.312Z" fill="#123041"/>
<path d="M759.83 180.03C752.205 184.543 754.179 186.148 755.679 188.682C757.178 191.216 757.79 193.628 765.261 189.207C769.053 186.963 770.911 183.089 769.412 180.555C767.912 178.021 763.622 177.786 759.83 180.03Z" fill="#FFCACA"/>
<path d="M639.326 180.03C646.951 184.543 644.977 186.148 643.477 188.682C641.978 191.216 641.366 193.628 633.895 189.207C630.103 186.963 628.245 183.089 629.744 180.555C631.244 178.021 635.534 177.786 639.326 180.03Z" fill="#FFCACA"/>
<path d="M641.358 254.944C648.846 265.645 670.531 267.644 680.437 267.305C681.344 266.647 683.267 264.719 683.705 262.27C684.253 259.209 659.226 240.457 652.707 237.197C646.188 233.936 631.999 241.568 641.358 254.944Z" fill="#E7EAEE"/>
<path d="M729.187 329.125C732.811 327.643 736.341 307.897 735.625 298.067L700.812 303.623C700.096 311.601 700.049 327.871 701.765 329.125C703.912 330.692 724.657 330.977 729.187 329.125Z" fill="white"/>
<path d="M731.908 307.254C742.743 300.049 728.096 255.103 717.513 249.442C706.93 243.78 689.717 244.638 682.158 249.442C674.598 254.245 655.918 299.877 666.753 307.254C677.588 314.63 721.073 314.459 731.908 307.254Z" fill="white"/>
<path fill-rule="evenodd" clip-rule="evenodd" d="M702.963 312.672C703.048 310.013 702.96 304.586 701.11 301.35C698.149 296.17 688.477 292.759 688.477 292.759C684.602 292.17 676.247 289.373 673.822 282.905C672.789 280.152 670.409 278.309 667.657 277.105C663.333 290.123 661.305 303.538 666.761 307.253C672.662 311.27 688.244 313.048 702.963 312.672Z" fill="#123041"/>
<path d="M669.993 329.125C666.368 327.643 662.839 307.897 663.555 298.067L698.368 303.623C699.083 311.601 699.131 327.871 697.414 329.125C695.268 330.692 674.523 330.977 669.993 329.125Z" fill="#123041"/>
<path d="M671.042 290.95C671.042 304.431 682.581 307.668 696.814 307.668C711.048 307.668 722.587 304.431 722.587 290.95C722.587 273.229 711.048 263.198 696.814 263.198C682.581 263.198 671.042 273.229 671.042 290.95Z" fill="#FFC0C1"/>
<path d="M697.032 303.12C696.928 303.121 696.825 303.101 696.729 303.062C696.633 303.023 696.545 302.966 696.471 302.893L692.961 299.362C692.832 299.212 692.764 299.019 692.772 298.821C692.78 298.624 692.862 298.436 693.003 298.297C693.143 298.157 693.331 298.075 693.53 298.067C693.728 298.06 693.923 298.127 694.073 298.256L697.592 301.747C697.666 301.82 697.724 301.907 697.764 302.003C697.804 302.098 697.825 302.201 697.825 302.304C697.825 302.408 697.804 302.51 697.764 302.606C697.724 302.702 697.666 302.788 697.592 302.861C697.521 302.94 697.434 303.003 697.338 303.048C697.242 303.092 697.138 303.117 697.032 303.12Z" fill="#FF8D8D"/>
<path d="M693.559 303.12C693.456 303.121 693.354 303.101 693.258 303.062C693.163 303.023 693.076 302.966 693.003 302.893C692.93 302.821 692.871 302.734 692.832 302.639C692.792 302.543 692.771 302.441 692.771 302.338C692.771 302.234 692.792 302.132 692.832 302.037C692.871 301.941 692.93 301.855 693.003 301.782L696.486 298.298C696.559 298.225 696.645 298.167 696.741 298.127C696.836 298.087 696.938 298.067 697.042 298.067C697.145 298.067 697.247 298.087 697.343 298.127C697.438 298.167 697.525 298.225 697.597 298.298C697.743 298.445 697.825 298.643 697.825 298.85C697.825 299.057 697.743 299.256 697.597 299.402L694.107 302.893C693.961 303.038 693.764 303.119 693.559 303.12V303.12Z" fill="#FF8D8D"/>
<path d="M634.649 224.54C634.649 250.915 663.57 259.661 698.722 259.661C733.873 259.661 763.007 250.915 763.007 224.54C763.007 179.569 733.873 164.15 698.722 164.15C663.57 164.15 634.649 177.427 634.649 224.54Z" fill="white"/>
<path fill-rule="evenodd" clip-rule="evenodd" d="M703.409 164.222C703.704 172.638 705.462 183.676 710.976 188.14C715.825 192.065 721.421 193.065 726.422 193.958C730.696 194.722 734.534 195.408 737.1 197.776C738.463 199.034 739.672 200.78 740.982 202.672C744.928 208.37 749.787 215.387 762.523 214.351C758.756 177.275 733.877 165.254 703.409 164.222Z" fill="#123041"/>
<path d="M719.555 238.537C719.555 228.154 711.138 219.738 700.756 219.738H691.357C680.974 219.738 672.558 228.154 672.558 238.537V238.537C672.558 245.458 678.169 251.069 685.09 251.069H707.022C713.944 251.069 719.555 245.458 719.555 238.537V238.537Z" fill="#FFC0C1"/>
<path d="M705.911 233.888V239.447" stroke="#123041" stroke-width="5.05348" stroke-linecap="round"/>
<path d="M685.689 233.888L685.689 239.447" stroke="#123041" stroke-width="5.05348" stroke-linecap="round"/>
<path d="M744.814 239.446H737.234" stroke="#FFC0C1" stroke-width="10.107" stroke-linecap="round"/>
<path d="M654.365 239.446H646.785" stroke="#FFC0C1" stroke-width="10.107" stroke-linecap="round"/>
<path d="M758.629 254.761C749.942 264.514 728.172 263.965 718.374 262.471C717.55 261.711 715.865 259.572 715.716 257.088C715.53 253.984 742.576 238.285 749.432 235.809C756.287 233.332 769.487 242.569 758.629 254.761Z" fill="white"/>
<path d="M667.023 229.875C667.023 229.875 665.481 228.106 662.011 228.106C658.541 228.106 656.999 229.875 656.999 229.875" stroke="#123041" stroke-width="5.41941" stroke-linecap="round"/>
<path d="M736.117 229.875C736.117 229.875 734.575 228.106 731.105 228.106C727.635 228.106 726.092 229.875 726.092 229.875" stroke="#123041" stroke-width="5.41941" stroke-linecap="round"/>
</g>
<path fill-rule="evenodd" clip-rule="evenodd" d="M728 322C728 318.134 731.134 315 735 315H852C855.866 315 859 318.134 859 322V322C859 325.866 862.134 329 866 329H891.95C900.262 329 907 335.738 907 344.05V351.95C907 360.262 900.262 367 891.95 367H830.672C822.388 367 815.672 373.716 815.672 382V395.124C815.672 399.328 812.264 402.737 808.059 402.737V402.737C803.855 402.737 800.446 399.328 800.446 395.124V382C800.446 373.716 793.731 367 785.446 367H656C652.134 367 649 370.134 649 374V374C649 377.866 645.866 381 642 381H605C601.134 381 598 377.866 598 374V374C598 370.134 594.866 367 591 367H554.05C545.738 367 539 360.262 539 351.95V344.05C539 335.738 545.738 329 554.05 329H721C724.866 329 728 325.866 728 322V322Z" fill="#549645"/>
<path fill-rule="evenodd" clip-rule="evenodd" d="M868.213 360.88C868.315 360.929 868.431 360.814 868.381 360.711C867.074 358.007 867.542 354.66 869.786 352.416C872.622 349.58 877.22 349.58 880.056 352.416C882.3 354.66 882.768 358.007 881.461 360.711C881.412 360.814 881.527 360.929 881.629 360.88C884.334 359.572 887.682 360.04 889.926 362.284C892.762 365.12 892.762 369.718 889.926 372.554C887.682 374.798 884.333 375.266 881.628 373.958C881.526 373.908 881.41 374.024 881.46 374.126C882.768 376.831 882.3 380.179 880.056 382.424C877.22 385.26 872.622 385.26 869.786 382.424C867.542 380.179 867.074 376.831 868.382 374.126C868.432 374.024 868.316 373.908 868.214 373.958C865.509 375.266 862.161 374.798 859.916 372.554C857.08 369.718 857.08 365.12 859.916 362.284C862.16 360.04 865.508 359.572 868.213 360.88Z" fill="#FFC53D"/>
<circle cx="874.922" cy="367.552" r="3.01784" transform="rotate(45 874.922 367.552)" fill="#E98B2D"/>
<defs>
<clipPath id="clip0_962_140">
<rect width="159.184" height="189" fill="white" transform="translate(620 150)"/>
</clipPath>
</defs>
</svg>
