<svg width="1008" height="537" viewBox="0 0 1008 537" fill="none" xmlns="http://www.w3.org/2000/svg">
<path fill-rule="evenodd" clip-rule="evenodd" d="M1008 133.547C1008 109.497 988.503 90.001 964.453 90.001H64.5448C40.495 90.001 20.9988 109.497 20.9988 133.547V401.455C20.9988 425.505 40.495 445.001 64.5448 445.001H456.141C480.191 445.001 499.687 464.497 499.687 488.547V493.156C499.687 517.206 519.183 536.702 543.233 536.702H771.849C795.899 536.702 815.396 517.206 815.396 493.156V488.547C815.396 464.497 834.892 445.001 858.942 445.001H876.233C896.746 445.001 913.375 461.63 913.375 482.143V501.322C913.375 511.242 921.417 519.285 931.338 519.285V519.285C941.258 519.285 949.3 511.242 949.3 501.322V474.35C949.3 458.141 962.44 445.001 978.65 445.001V445.001C994.859 445.001 1008 431.861 1008 415.652V133.547Z" fill="#397A39"/>
<rect width="69" height="14" rx="7" transform="matrix(-1 0 0 1 959 220)" fill="#549645"/>
<path fill-rule="evenodd" clip-rule="evenodd" d="M661 448C664.866 448 668 451.134 668 455C668 458.866 664.866 462 661 462H601C597.134 462 594 458.866 594 455C594 451.134 597.134 448 601 448H661ZM704 475C707.866 475 711 478.134 711 482C711 485.866 707.866 489 704 489H624C620.134 489 617 485.866 617 482C617 478.134 620.134 475 624 475H704Z" fill="#549645"/>
<path fill-rule="evenodd" clip-rule="evenodd" d="M858.946 0H864.389C876.367 3.04214e-06 886.085 9.67112 886.162 21.6304C886.239 9.67112 895.957 0 907.934 0H913.378V5.44324C913.378 17.4681 903.629 27.2163 891.605 27.2163L886.162 27.2163H880.719C868.694 27.2163 858.946 17.4681 858.946 5.44324V0ZM937.227 32.0005C949.252 32.0005 959 41.7486 959 53.7735V105.703C959 117.596 949.457 127.289 937.566 127.474L642.605 132.069H570.996C558.971 132.069 549.223 141.818 549.223 153.842V184.62C549.223 189.881 544.958 194.146 539.698 194.146C534.437 194.146 530.172 189.881 530.172 184.62V143.962C530.172 137.394 524.847 132.069 518.279 132.069C511.711 132.069 506.387 137.394 506.387 143.962V391.227C506.387 403.252 496.639 413 484.614 413H281.773C269.748 413 260 403.252 260 391.227V192.689C260 180.664 250.252 170.916 238.227 170.916H236.237C224.212 170.916 214.464 180.664 214.464 192.689V290.939C214.464 296.2 210.199 300.465 204.938 300.465C199.677 300.465 195.413 296.2 195.413 290.939V192.689C195.413 180.664 185.665 170.916 173.64 170.916H21.773C9.74811 170.916 0 161.168 0 149.143V103.42C0 91.3947 9.74811 81.6466 21.773 81.6466H238.227C250.252 81.6466 260 71.8985 260 59.8736V53.7735C260 41.7486 269.748 32.0005 281.773 32.0005H937.227ZM195.411 51.1665H189.968V56.6097C189.968 68.6346 199.716 78.3828 211.741 78.3828L217.184 78.3828V72.9395C217.184 60.9146 207.436 51.1665 195.411 51.1665ZM244.403 56.6097V51.1665H238.96C226.935 51.1665 217.187 60.9146 217.187 72.9395V78.3828H222.63C234.655 78.3828 244.403 68.6346 244.403 56.6097ZM334.758 6.53211V1.08887L329.315 1.08887C317.29 1.08887 307.542 10.837 307.542 22.8619V28.3051L312.985 28.3051C325.01 28.3051 334.758 18.557 334.758 6.53211ZM213.377 318.429C213.377 323.54 209.234 327.683 204.124 327.683C199.013 327.683 194.87 323.54 194.87 318.429C194.87 313.319 199.013 309.176 204.124 309.176C209.234 309.176 213.377 313.319 213.377 318.429ZM539.425 219.507C544.536 219.507 548.679 215.364 548.679 210.254C548.679 205.143 544.536 201 539.425 201C534.315 201 530.172 205.143 530.172 210.254C530.172 215.364 534.315 219.507 539.425 219.507Z" fill="#2F633C"/>
<path fill-rule="evenodd" clip-rule="evenodd" d="M497.485 263.599C497.592 263.651 497.714 263.53 497.662 263.422C496.287 260.578 496.779 257.059 499.139 254.699C502.12 251.718 506.955 251.718 509.936 254.699C512.296 257.059 512.788 260.578 511.413 263.422C511.361 263.53 511.483 263.651 511.59 263.599C514.434 262.223 517.954 262.716 520.314 265.075C523.296 268.057 523.296 272.891 520.314 275.873C517.954 278.233 514.434 278.725 511.59 277.349C511.483 277.297 511.361 277.419 511.413 277.526C512.788 280.37 512.296 283.889 509.936 286.249C506.955 289.23 502.12 289.23 499.139 286.249C496.779 283.889 496.287 280.37 497.662 277.526C497.714 277.419 497.592 277.297 497.485 277.349C494.641 278.725 491.121 278.233 488.761 275.873C485.779 272.891 485.779 268.057 488.761 265.075C491.121 262.716 494.641 262.223 497.485 263.599Z" fill="#FF686B"/>
<circle cx="504.529" cy="270.615" r="3.17295" transform="rotate(45 504.529 270.615)" fill="#E23636"/>
</svg>
