<svg width="24" height="21" viewBox="0 0 24 21" fill="none" xmlns="http://www.w3.org/2000/svg">
<path d="M21.3309 2.17366C20.7749 1.61736 20.1147 1.17607 19.3881 0.874991C18.6615 0.573912 17.8826 0.418945 17.0961 0.418945C16.3096 0.418945 15.5307 0.573912 14.8041 0.874991C14.0775 1.17607 13.4173 1.61736 12.8612 2.17366L11.7073 3.32763L10.5533 2.17366C9.43015 1.05051 7.90683 0.419527 6.31845 0.419527C4.73007 0.419528 3.20675 1.05051 2.0836 2.17366C0.960448 3.29681 0.329468 4.82013 0.329468 6.40851C0.329468 7.99689 0.960448 9.52021 2.0836 10.6434L3.23757 11.7973L11.7073 20.267L20.177 11.7973L21.3309 10.6434C21.8872 10.0873 22.3285 9.42713 22.6296 8.70051C22.9307 7.97388 23.0857 7.19505 23.0857 6.40851C23.0857 5.62197 22.9307 4.84314 22.6296 4.11651C22.3285 3.38988 21.8872 2.72969 21.3309 2.17366Z" fill="#173A52"/>
</svg>
