<svg width="987" height="447" viewBox="0 0 987 447" fill="none" xmlns="http://www.w3.org/2000/svg">
<path fill-rule="evenodd" clip-rule="evenodd" d="M986.999 43.547C986.999 19.4972 967.503 0.000976562 943.453 0.000976562H43.5448C19.495 0.000976562 -0.0012207 19.4972 -0.0012207 43.547V311.455C-0.0012207 335.505 19.495 355.001 43.5448 355.001H435.141C459.191 355.001 478.687 374.497 478.687 398.547V403.156C478.687 427.206 498.183 446.702 522.233 446.702H750.849C774.899 446.702 794.396 427.206 794.396 403.156V398.547C794.396 374.497 813.892 355.001 837.942 355.001H855.233C875.746 355.001 892.375 371.63 892.375 392.143V411.322C892.375 421.242 900.417 429.285 910.338 429.285C920.258 429.285 928.3 421.242 928.3 411.322V384.35C928.3 368.141 941.44 355.001 957.65 355.001C973.859 355.001 986.999 341.861 986.999 325.652V43.547Z" fill="#397A39"/>
<rect width="69" height="14" rx="7" transform="matrix(-1 0 0 1 938 130)" fill="#549645"/>
<rect width="74" height="14" rx="7" transform="matrix(-1 0 0 1 647 358)" fill="#549645"/>
<rect width="94" height="14" rx="7" transform="matrix(-1 0 0 1 690 385)" fill="#549645"/>
</svg>
