
<svg width="1281" height="207" viewBox="0 0 1281 207" fill="none" xmlns="http://www.w3.org/2000/svg">
<g filter="url(#filter0_d_464_216)">
<path d="M249.077 78.5759C232.172 83.1056 216.458 79.2795 213.98 70.0302C211.502 60.7809 223.197 49.6108 240.102 45.0812C257.007 40.5515 272.72 44.3775 275.198 53.6269C277.677 62.8762 265.982 74.0462 249.077 78.5759Z" fill="#F26668"/>
<path d="M196.239 64.4181C208.614 76.7934 224.135 81.3365 230.906 74.5656C237.677 67.7946 233.134 52.2735 220.759 39.8982C208.384 27.523 192.863 22.9798 186.092 29.7507C179.321 36.5217 183.864 52.0428 196.239 64.4181Z" fill="#F26668"/>
<path d="M251.308 64.2325C238.932 76.6078 225.271 79.8966 218.5 73.1256C211.729 66.3546 214.413 52.088 226.788 39.7127C239.163 27.3374 254.684 22.7942 261.455 29.5652C268.226 36.3362 263.683 51.8573 251.308 64.2325Z" fill="#FF7E7E"/>
<path d="M201.48 50.881C206.01 67.7859 216.251 77.9167 225.5 75.4383C234.749 72.96 239.505 58.811 234.975 41.9061C230.445 25.0011 219.275 13.3061 210.026 15.7844C200.777 18.2628 196.951 33.976 201.48 50.881Z" fill="#FF7E7E"/>
<path d="M245.965 51.4762C241.435 68.3811 230.844 77.9167 221.594 75.4383C212.345 72.96 207.94 59.4062 212.47 42.5013C217 25.5964 228.17 13.9013 237.419 16.3796C246.668 18.858 250.495 34.5712 245.965 51.4762Z" fill="#FF9494"/>
<path d="M201.942 72.7612C202.371 71.1608 204.016 70.211 205.616 70.6398L238.458 79.4397C240.058 79.8685 241.008 81.5135 240.579 83.1139C240.15 84.7143 238.505 85.6641 236.905 85.2352L204.064 76.4354C202.463 76.0066 201.513 74.3615 201.942 72.7612Z" fill="#F26668"/>
<path d="M405.476 130.747C411.245 124.11 421.942 130.286 419.078 138.6L415.841 147.999C414.472 151.974 416.414 156.332 420.286 157.971L429.194 161.742C437.329 165.186 434.7 177.335 425.868 177.106L416.488 176.864C412.237 176.754 408.643 179.988 408.306 184.227L407.549 193.746C406.851 202.528 394.545 203.896 391.934 195.483L388.965 185.915C387.727 181.926 383.63 179.561 379.557 180.483L369.787 182.696C361.195 184.642 356.227 173.3 363.483 168.304L371.348 162.889C374.85 160.478 375.855 155.749 373.634 152.122L368.734 144.12C364.12 136.585 373.326 128.234 380.377 133.558L388.097 139.386C391.452 141.92 396.197 141.423 398.955 138.25L405.476 130.747Z" fill="#FFD6B2"/>
<path d="M10.5499 53.4521C8.71224 48.1167 15.5766 44.1536 19.2783 48.4127L23.4626 53.227C25.2327 55.2636 28.2773 55.5823 30.4307 53.9564L35.3843 50.2161C39.9088 46.7999 45.8163 52.159 42.8557 56.9939L39.7113 62.1291C38.2864 64.456 38.9308 67.491 41.1782 69.0383L46.2251 72.513C50.8814 75.7188 47.6936 82.9969 42.1801 81.7482L35.9104 80.3284C33.2969 79.7365 30.6678 81.2544 29.8736 83.8137L27.9684 89.9534C26.293 95.3525 18.3961 94.4742 17.948 88.8389L17.4622 82.7307C17.2459 80.0108 14.9398 77.9352 12.2122 78.0057L6.1927 78.1613C0.525273 78.3078 -1.16203 70.5122 4.05871 68.302L9.77465 65.8821C12.2595 64.8302 13.5058 62.0342 12.6271 59.483L10.5499 53.4521Z" fill="#FF7E7E"/>
<path d="M897.511 77.3171C904.807 72.3678 913.572 81.1324 908.622 88.4286L899.641 101.668C897.274 105.159 898.023 109.888 901.353 112.476L913.986 122.292C920.947 127.702 915.32 138.746 906.852 136.293L891.485 131.843C887.434 130.67 883.167 132.844 881.735 136.811L876.303 151.859C873.309 160.151 861.067 158.212 860.782 149.4L860.266 133.411C860.13 129.195 856.744 125.809 852.529 125.673L836.539 125.157C827.727 124.872 825.788 112.63 834.081 109.636L849.128 104.204C853.096 102.772 855.269 98.5057 854.096 94.4542L849.646 79.0877C847.194 70.6191 858.238 64.9919 863.647 71.9537L873.463 84.5861C876.051 87.9167 880.781 88.6657 884.271 86.2979L897.511 77.3171Z" fill="#E1546B"/>
<path d="M579.91 90.4838C581.295 91.0046 582.336 92.3499 582.336 93.8297C582.336 96.8184 583.155 99.6157 584.582 102.009C588.35 108.332 594.333 114.469 594.333 121.83C594.333 132.875 603.288 141.83 614.333 141.83H641C652.046 141.83 661 132.875 661 121.83V108.496C661 97.4507 652.046 88.4964 641 88.4964C629.269 88.4964 618.067 77.8297 606.336 77.8297C604.565 77.8297 603.081 76.5838 602.177 75.0612C600.319 71.9292 596.903 69.8297 592.997 69.8297H583.664C577.773 69.8297 572.997 74.6053 572.997 80.4964C572.997 85.0663 575.871 88.965 579.91 90.4838Z" fill="#F26668"/>
<path d="M591.895 91.1073C591.743 91.9921 591.664 92.9016 591.664 93.8297C591.664 101.284 596.762 107.548 603.661 109.325V121.83C603.661 132.875 612.616 141.83 623.661 141.83H650.328C661.374 141.83 670.328 132.875 670.328 121.83V108.496C670.328 97.4507 661.374 88.4964 650.328 88.4964H630.754C628.557 82.282 622.63 77.8297 615.664 77.8297H608.656C607.472 73.2291 603.296 69.8297 598.325 69.8297H592.992C587.101 69.8297 582.325 74.6053 582.325 80.4964C582.325 86.0169 586.519 90.5579 591.895 91.1073Z" fill="#FF9494"/>
<path d="M627.164 114.273C625.759 113.124 624.001 112.496 622.186 112.496C617.845 112.496 614.325 116.016 614.325 120.357V123.163C614.325 129.054 619.101 133.83 624.992 133.83H646.325C649.119 133.83 650.06 130.097 647.6 128.772L640.069 124.717C639.796 124.57 639.538 124.397 639.298 124.201L627.164 114.273Z" fill="#E1546B"/>
<path d="M1086 14.1644C1085.24 15.0951 1085.06 16.4659 1085.66 17.5082C1088.19 21.8959 1087.87 27.1467 1085.28 31.1186C1084.35 32.5559 1084.19 34.4635 1085.05 35.9496L1086.72 38.8311C1092.24 48.397 1088.96 60.6288 1079.4 66.1516L1067.13 73.2312C1057.57 78.7541 1045.34 75.4766 1039.81 65.9107L1038.15 63.0291C1032.63 53.4633 1035.9 41.2315 1045.47 35.7086C1051.77 32.0686 1054.3 23.7117 1059.26 18.3894C1060.12 17.4704 1061.13 16.6612 1062.27 16.0001C1063.52 15.2822 1064.05 13.8051 1064.07 12.3694C1064.1 9.40873 1065.65 6.54127 1068.4 4.95354L1074.97 1.1624C1079.11 -1.2305 1084.41 0.18955 1086.81 4.33418C1088.66 7.54762 1088.23 11.4554 1086 14.1644Z" fill="#D9A476"/>
<path d="M1077.83 19.4765C1078.29 20.0371 1078.72 20.6447 1079.09 21.2972C1082.16 26.6118 1081.05 33.1925 1076.78 37.2331C1077.4 38.0125 1077.98 38.8483 1078.49 39.7386L1080.15 42.6202C1085.68 52.186 1082.4 64.4178 1072.83 69.9407L1060.57 77.0202C1051 82.5431 1038.77 79.2656 1033.25 69.6997L1031.59 66.8182C1026.06 57.2523 1029.34 45.0205 1038.91 39.4977L1049.43 33.4239C1048.45 28.1593 1050.81 22.619 1055.71 19.7891L1060.64 16.9416C1059.61 13.2241 1061.16 9.13674 1064.66 7.11806L1068.41 4.95168C1072.56 2.55878 1077.86 3.97884 1080.25 8.12347C1082.49 12.0078 1081.39 16.9067 1077.83 19.4765Z" fill="#FFD6B2"/>
<path d="M1062.42 50.1C1062.94 48.7211 1063.92 47.565 1065.2 46.8279C1068.25 45.0645 1072.16 46.111 1073.92 49.1654L1075.06 51.1395C1077.45 55.2841 1076.03 60.5839 1071.89 62.9768L1056.88 71.6422C1054.92 72.7771 1052.74 70.5333 1053.93 68.6022L1057.58 62.69C1057.71 62.4757 1057.82 62.2492 1057.91 62.0136L1062.42 50.1Z" fill="#B38F5A"/>
<path d="M1278.85 60.3948C1275.74 72.023 1268.05 80.0676 1261.69 78.3628C1255.33 76.6581 1252.7 65.8495 1255.81 54.2213C1258.93 42.5931 1266.61 34.5486 1272.97 36.2533C1279.34 37.9581 1281.97 48.7666 1278.85 60.3948Z" fill="#F26668"/>
<path d="M1252.24 87.0012C1263.87 83.8854 1271.92 76.202 1270.21 69.8398C1268.51 63.4775 1257.7 60.8458 1246.07 63.9615C1234.44 67.0773 1226.4 74.7607 1228.1 81.1229C1229.81 87.4852 1240.62 90.1169 1252.24 87.0012Z" fill="#F26668"/>
<path d="M1271.07 54.1329C1274.19 65.7611 1272.03 75.3635 1265.66 77.0683C1259.3 78.773 1251.15 71.9345 1248.03 60.3063C1244.92 48.6781 1247.55 37.8696 1253.91 36.1648C1260.27 34.4601 1267.96 42.5047 1271.07 54.1329Z" fill="#FF7E7E"/>
<path d="M1245.98 79.2233C1257.61 82.3391 1266.9 80.4878 1268.61 74.1256C1270.31 67.7634 1263.78 59.2995 1252.16 56.1837C1240.53 53.0679 1229.72 55.6997 1228.01 62.0619C1226.31 68.4241 1234.35 76.1076 1245.98 79.2233Z" fill="#FF7E7E"/>
<path d="M1261.64 52.9284C1270.15 61.4409 1272.19 71.0298 1267.53 75.6872C1262.87 80.3447 1253.28 78.307 1244.77 69.7946C1236.26 61.2822 1233.13 50.6058 1237.79 45.9484C1242.45 41.2909 1253.13 44.416 1261.64 52.9284Z" fill="#FF9494"/>
<path d="M1259.18 86.4734C1258.37 85.6676 1258.37 84.361 1259.18 83.5551L1275.72 67.0179C1276.52 66.212 1277.83 66.212 1278.63 67.0179C1279.44 67.8237 1279.44 69.1303 1278.63 69.9362L1262.1 86.4734C1261.29 87.2793 1259.98 87.2793 1259.18 86.4734Z" fill="#F26668"/>
</g>
<defs>
<filter id="filter0_d_464_216" x="0.918823" y="0" width="1279.24" height="206.115" filterUnits="userSpaceOnUse" color-interpolation-filters="sRGB">
<feFlood flood-opacity="0" result="BackgroundImageFix"/>
<feColorMatrix in="SourceAlpha" type="matrix" values="0 0 0 0 0 0 0 0 0 0 0 0 0 0 0 0 0 0 127 0" result="hardAlpha"/>
<feOffset dy="5"/>
<feComposite in2="hardAlpha" operator="out"/>
<feColorMatrix type="matrix" values="0 0 0 0 0.87451 0 0 0 0 0.694118 0 0 0 0 0.419608 0 0 0 1 0"/>
<feBlend mode="normal" in2="BackgroundImageFix" result="effect1_dropShadow_464_216"/>
<feBlend mode="normal" in="SourceGraphic" in2="effect1_dropShadow_464_216" result="shape"/>
</filter>
</defs>
</svg>
