<svg width="561" height="603" viewBox="0 0 561 603" fill="none" xmlns="http://www.w3.org/2000/svg">
<g clip-path="url(#clip0_742_1293)">
<path d="M376.538 496.324C356.612 487.879 345.894 453.424 343.026 437.253C343.78 435.556 346.241 431.774 350.059 430.219C354.831 428.276 393.854 462.369 401.387 471.81C408.92 481.251 401.445 506.88 376.538 496.324Z" fill="#E7EAEE"/>
<path d="M315.356 549.641C321.79 548.802 335.804 518.664 338.82 502.613L280.697 496.773C276.173 509.252 269.208 535.295 271.427 538.031C274.202 541.45 307.314 550.69 315.356 549.641Z" fill="#E7EAEE"/>
<path d="M324.863 517.644C346.381 516.282 362.6 439.649 352.104 422.758C341.607 405.866 316.196 392.836 301.369 393.466C286.541 394.096 221.929 444.101 231.366 463.663C240.802 483.226 303.345 519.007 324.863 517.644Z" fill="white"/>
<path d="M205.647 483.277C204.086 476.979 227.055 452.955 240.907 444.303L272.385 492.073C262.41 500.829 235.808 521.036 232.453 519.965C228.258 518.626 207.598 491.149 205.647 483.277Z" fill="white"/>
<path d="M221.105 388.049C239.621 376.845 273.824 388.34 288.612 395.487C289.545 397.092 291.169 401.303 290.193 405.307C288.973 410.314 238.483 421.972 226.419 422.548C214.354 423.124 197.961 402.054 221.105 388.049Z" fill="white"/>
<path d="M330.673 491.738C319.504 511.083 300.264 506.169 279.838 494.376C259.412 482.584 245.537 468.377 256.705 449.033C271.387 423.603 296.256 418.768 316.682 430.561C337.107 442.354 345.355 466.308 330.673 491.738Z" fill="#E7EAEE"/>
<path d="M287.675 483.431C287.824 483.518 287.988 483.575 288.158 483.598C288.328 483.622 288.502 483.612 288.668 483.568L296.63 481.41C296.94 481.302 297.197 481.08 297.35 480.791C297.502 480.501 297.539 480.164 297.453 479.847C297.368 479.53 297.165 479.257 296.887 479.081C296.608 478.906 296.274 478.841 295.951 478.901L288.009 480.997C287.843 481.04 287.687 481.116 287.55 481.22C287.413 481.324 287.299 481.454 287.213 481.603C287.127 481.751 287.072 481.916 287.05 482.086C287.028 482.256 287.041 482.429 287.086 482.595C287.123 482.767 287.194 482.929 287.296 483.073C287.397 483.216 287.526 483.338 287.675 483.431Z" fill="#FFC0C1"/>
<path d="M292.659 486.308C292.806 486.394 292.969 486.451 293.138 486.474C293.307 486.497 293.479 486.486 293.644 486.443C293.81 486.399 293.965 486.323 294.101 486.219C294.237 486.115 294.351 485.985 294.437 485.837C294.523 485.689 294.578 485.525 294.6 485.355C294.622 485.186 294.61 485.013 294.565 484.848L292.453 476.964C292.41 476.798 292.334 476.643 292.23 476.507C292.126 476.371 291.996 476.257 291.848 476.171C291.699 476.085 291.536 476.03 291.366 476.008C291.196 475.986 291.024 475.998 290.858 476.043C290.528 476.132 290.246 476.349 290.075 476.646C289.903 476.943 289.856 477.295 289.944 477.627L292.061 485.529C292.15 485.857 292.365 486.137 292.659 486.308Z" fill="#FFC0C1"/>
<path d="M346.008 234.738C340.953 256.893 344.537 308.052 340.903 326.48L390.577 355.16C404.72 342.798 448.902 319.217 467.113 304.658C489.698 286.601 497.714 250.811 472.095 236.02C450.943 223.808 420.867 253.016 407.286 270.117C415.304 249.805 424.836 208.736 404.409 196.942C378.791 182.151 352.442 206.547 346.008 234.738Z" fill="white"/>
<path d="M438.549 422.121C416.698 459.969 367.95 448.558 317.508 419.435C267.066 390.312 232.504 353.624 254.355 315.776C291.614 251.242 346.196 253.254 396.638 282.377C447.08 311.5 477.582 354.514 438.549 422.121Z" fill="white"/>
<path d="M311.08 343.444L304.381 355.047" stroke="#123041" stroke-width="12.5604" stroke-linecap="round"/>
<path d="M398.826 394.104L392.127 405.707" stroke="#123041" stroke-width="12.5604" stroke-linecap="round"/>
<path d="M272.996 359.166L283.874 365.446" stroke="#FFC0C1" stroke-width="16.7472" stroke-linecap="round"/>
<path d="M393.375 428.667L404.252 434.947" stroke="#FFC0C1" stroke-width="16.7472" stroke-linecap="round"/>
<path d="M351.15 368.513C352.573 369.335 352.883 370.305 353.43 371.411C354.663 371.332 355.657 371.115 357.081 371.937C358.86 372.964 358.817 375.426 357.74 376.273C356.291 377.414 353.26 377.642 350.347 376.751C348.12 374.674 346.802 371.936 347.065 370.11C347.261 368.754 349.371 367.486 351.15 368.513Z" fill="#FFC0C1"/>
<path d="M274.688 288.317C275.078 290.426 283.399 297.335 285.104 298.882L268.354 327.894L263.852 300.56C267.302 295.601 274.298 286.208 274.688 288.317Z" fill="#005271"/>
<ellipse cx="391.567" cy="494.062" rx="10.4076" ry="19.022" transform="rotate(114.887 391.567 494.062)" fill="#F26668"/>
<ellipse cx="10.4076" cy="19.022" rx="10.4076" ry="19.022" transform="matrix(-0.99602 0.0891257 0.0891255 0.99602 387.335 455.843)" fill="#F26668"/>
<ellipse cx="392.806" cy="487.39" rx="10.4076" ry="19.022" transform="rotate(84.8867 392.806 487.39)" fill="#FF7E7E"/>
<ellipse cx="10.4076" cy="19.022" rx="10.4076" ry="19.022" transform="matrix(-0.907142 -0.420825 -0.420825 0.907142 402.815 463.931)" fill="#FF7E7E"/>
<path d="M396.185 489.825C387.591 495.868 379.042 496.183 375.736 491.481C372.43 486.779 375.619 478.841 384.212 472.798C392.806 466.755 402.453 465.668 405.759 470.37C409.065 475.072 404.779 483.783 396.185 489.825Z" fill="#FF9494"/>
<rect x="369.187" y="481.648" width="24.011" height="3.60165" rx="1.80082" transform="rotate(54.8867 369.187 481.648)" fill="#F26668"/>
<path fill-rule="evenodd" clip-rule="evenodd" d="M276.707 304.428C286.372 287.687 307.778 281.952 324.518 291.617L437.101 356.617C453.842 366.282 459.577 387.687 449.912 404.428L434.912 430.408C425.247 447.149 403.842 452.884 387.101 443.219L364.39 430.106C355.186 424.793 350.064 415.417 353.572 405.386L355.118 400.964C357.729 393.498 354.66 385.229 347.81 381.274C340.959 377.319 332.264 378.796 327.104 384.791L324.048 388.34C317.115 396.394 306.433 396.645 297.23 391.332L274.518 378.219C257.778 368.554 252.042 347.149 261.707 330.408L276.707 304.428ZM282.466 320.454C292.131 303.714 313.536 297.978 330.276 307.643L422.075 360.643C438.815 370.308 444.551 391.714 434.886 408.454L428.386 419.712C418.721 436.452 398.315 440.456 381.575 430.791L373.121 425.91C365.447 421.479 359.963 415.714 362.796 407.317L363.832 404.248C363.984 403.797 364.147 403.34 364.312 402.876C366.26 397.413 368.547 390.999 358.075 380.888C354.338 377.279 349.736 374.641 344.753 373.172C329.172 368.579 323.936 374.304 319.903 378.886L317.763 381.317C311.908 387.969 305.905 387.103 298.23 382.672L289.776 377.791C273.036 368.126 266.301 348.452 275.966 331.712L282.466 320.454Z" fill="#98E0F7"/>
<rect x="329.15" y="393.595" width="20" height="20" rx="5" transform="rotate(30 329.15 393.595)" fill="#106B95"/>
<path d="M292.797 256.559C293.487 255.364 295.016 254.954 296.212 255.644C297.408 256.335 298.937 255.925 299.627 254.729L305.377 244.77C307.862 240.465 306.388 234.961 302.083 232.476C297.778 229.991 292.274 231.465 289.789 235.77L246.289 311.114C234.289 331.899 246.836 369.166 269.786 382.416L322.181 412.666C325.29 414.46 329.265 413.395 331.06 410.286C332.855 407.177 331.79 403.202 328.681 401.407L286.678 377.157C260.372 361.969 251.359 328.332 266.547 302.026L292.797 256.559Z" fill="#106B95"/>
</g>
<path fill-rule="evenodd" clip-rule="evenodd" d="M239.316 61.0169C238.663 60.7574 237.927 60.8058 237.313 61.1487C236.699 61.4916 236.272 62.0926 236.15 62.7852L231.086 91.5743C229.02 89.5833 226.128 88.0895 222.78 87.5006C215.402 86.2029 208.606 89.7909 207.599 95.5147C206.592 101.239 211.756 106.931 219.134 108.228C226.511 109.526 233.308 105.938 234.315 100.214C234.359 99.9619 234.391 99.7098 234.412 99.458C234.458 99.3317 234.493 99.1998 234.518 99.0629L240.259 66.4231L269.111 77.8774L264.66 103.179C262.594 101.188 259.702 99.6942 256.354 99.1054C248.976 97.8076 242.18 101.396 241.173 107.12C240.166 112.843 245.33 118.535 252.708 119.833C259.658 121.056 266.092 117.942 267.656 112.792C267.725 112.631 267.776 112.459 267.808 112.279L274.047 76.8119C274.239 75.7196 273.637 74.6426 272.607 74.2333L239.316 61.0169Z" fill="#C0EBFF"/>
<path d="M244.284 107.612C245.053 103.237 250.237 100.493 255.862 101.482" stroke="white" stroke-width="1.14903" stroke-linecap="round"/>
<path d="M210.542 96.0376C211.256 91.9752 216.48 89.4989 222.209 90.5066" stroke="white" stroke-width="1.14903" stroke-linecap="round"/>
<path fill-rule="evenodd" clip-rule="evenodd" d="M333.393 150.54C332.599 149.894 331.476 149.84 330.624 150.407C329.771 150.974 329.387 152.03 329.675 153.013L337.904 181.062C335.169 180.194 331.915 180.138 328.653 181.095C321.465 183.203 316.965 189.434 318.601 195.01C320.237 200.587 327.39 203.398 334.578 201.289C341.766 199.18 346.266 192.95 344.63 187.373C344.558 187.128 344.475 186.887 344.382 186.652C344.367 186.519 344.34 186.385 344.301 186.252L336.094 158.281C337.486 159.194 338.972 160.1 340.475 160.913C342.428 161.972 344.476 162.912 346.426 163.501C348.323 164.075 350.405 164.403 352.285 163.924C353.537 163.605 354.292 162.332 353.973 161.08C353.654 159.829 352.381 159.073 351.13 159.392C350.47 159.56 349.369 159.505 347.78 159.024C346.243 158.56 344.501 157.775 342.702 156.801C339.108 154.854 335.551 152.293 333.393 150.54Z" fill="#C0EBFF"/>
<path d="M321.855 194.528C320.604 190.266 324.033 185.507 329.513 183.899" stroke="white" stroke-width="1.14903" stroke-linecap="round"/>
<path fill-rule="evenodd" clip-rule="evenodd" d="M133.078 104.08C133.078 102.788 132.031 101.741 130.74 101.741C129.448 101.741 128.401 102.788 128.401 104.08V133.311C126.021 131.708 122.914 130.738 119.515 130.738C112.024 130.738 105.952 135.449 105.952 141.261C105.952 147.073 112.024 151.784 119.515 151.784C127.005 151.784 133.078 147.073 133.078 141.261C133.078 141.005 133.066 140.751 133.043 140.499C133.066 140.367 133.078 140.231 133.078 140.092V104.08Z" fill="#C0EBFF"/>
<path d="M109.57 142.054C109.57 137.612 114.2 134.01 119.911 134.01" stroke="white" stroke-width="1.14903" stroke-linecap="round"/>
<path fill-rule="evenodd" clip-rule="evenodd" d="M35.6193 15.182C35.3374 13.9216 34.0872 13.1284 32.8269 13.4103C31.5665 13.6921 30.7733 14.9423 31.0551 16.2027L37.4346 44.7293C34.762 43.6844 31.5181 43.4157 28.2008 44.1576C20.8908 45.7924 15.993 51.7153 17.2613 57.3869C18.5297 63.0586 25.4839 66.331 32.794 64.6963C40.104 63.0615 45.0018 57.1385 43.7334 51.4669C43.6775 51.2169 43.6106 50.9717 43.5331 50.7312C43.5269 50.5971 43.509 50.4616 43.4787 50.326L35.6193 15.182ZM39.1693 52.4876C39.6481 54.6285 37.708 58.8049 31.7733 60.1321C25.8385 61.4593 22.3043 58.5072 21.8255 56.3662C21.3467 54.2253 23.2867 50.0489 29.2215 48.7217C35.1563 47.3945 38.6905 50.3466 39.1693 52.4876Z" fill="#C0EBFF"/>
<path d="M19.3018 56.7392C18.3323 52.4042 22.0647 47.8794 27.6384 46.633" stroke="white" stroke-width="1.14903" stroke-linecap="round"/>
<defs>
<clipPath id="clip0_742_1293">
<rect width="272.979" height="381.836" fill="white" transform="translate(323.918 135) rotate(30)"/>
</clipPath>
</defs>
</svg>
