<svg width="304" height="375" viewBox="0 0 304 375" fill="none" xmlns="http://www.w3.org/2000/svg">
<path d="M178.993 316.646C159.067 308.201 148.35 273.746 145.482 257.574C146.235 255.877 148.697 252.095 152.515 250.541C157.287 248.597 196.309 282.691 203.843 292.132C211.376 301.573 203.901 327.201 178.993 316.646Z" fill="#E7EAEE"/>
<path d="M117.812 369.963C124.246 369.124 138.26 338.985 141.276 322.934L83.1529 317.095C78.6288 329.573 71.6637 355.617 73.8832 358.352C76.6575 361.771 109.77 371.011 117.812 369.963Z" fill="#E7EAEE"/>
<path d="M127.319 337.966C148.837 336.603 165.056 259.971 154.56 243.079C144.063 226.187 118.652 213.157 103.825 213.787C88.9974 214.417 24.3847 264.423 33.8215 283.985C43.2583 303.547 105.801 339.328 127.319 337.966Z" fill="white"/>
<path d="M8.10284 303.598C6.54221 297.3 29.5112 273.276 43.3627 264.624L74.8412 312.395C64.8662 321.151 38.264 341.358 34.9083 340.286C30.7138 338.947 10.0536 311.47 8.10284 303.598Z" fill="white"/>
<path d="M23.5609 208.371C42.0765 197.167 76.2801 208.661 91.0675 215.809C92.0013 217.414 93.6248 221.624 92.6487 225.629C91.4286 230.635 40.9388 242.294 28.8745 242.87C16.8102 243.446 0.416317 222.375 23.5609 208.371Z" fill="white"/>
<path d="M133.129 312.06C121.96 331.404 102.719 326.491 82.2936 314.698C61.868 302.905 47.9922 288.699 59.1608 269.355C73.8429 243.924 98.7118 239.09 119.137 250.883C139.563 262.675 147.811 286.63 133.129 312.06Z" fill="#E7EAEE"/>
<path d="M90.1312 303.752C90.2796 303.839 90.4437 303.896 90.614 303.92C90.7843 303.943 90.9574 303.933 91.1234 303.89L99.086 301.731C99.3958 301.623 99.6527 301.402 99.8053 301.112C99.9579 300.822 99.995 300.485 99.9092 300.169C99.8234 299.852 99.6209 299.578 99.3424 299.403C99.0638 299.227 98.7296 299.163 98.4065 299.222L90.4651 301.318C90.2986 301.361 90.1425 301.437 90.0058 301.541C89.8691 301.645 89.7545 301.775 89.6687 301.924C89.5829 302.073 89.5275 302.237 89.5057 302.407C89.484 302.578 89.4963 302.751 89.542 302.917C89.579 303.088 89.6502 303.251 89.7514 303.394C89.8527 303.538 89.9818 303.66 90.1312 303.752Z" fill="#FFC0C1"/>
<path d="M95.1147 306.63C95.262 306.716 95.4249 306.772 95.594 306.795C95.7632 306.818 95.9352 306.808 96.1002 306.764C96.2658 306.721 96.4211 306.645 96.5571 306.541C96.6932 306.437 96.8073 306.307 96.8929 306.159C96.9785 306.01 97.0339 305.847 97.0559 305.677C97.0779 305.507 97.0661 305.334 97.0211 305.169L94.9091 297.285C94.8654 297.119 94.7895 296.964 94.6855 296.828C94.5816 296.692 94.4517 296.578 94.3034 296.492C94.1552 296.407 93.9915 296.351 93.8217 296.329C93.6519 296.307 93.4794 296.319 93.3142 296.364C92.9835 296.454 92.7017 296.671 92.5304 296.968C92.359 297.264 92.3121 297.617 92.3998 297.948L94.5166 305.85C94.6059 306.178 94.8208 306.458 95.1147 306.63Z" fill="#FFC0C1"/>
<path d="M148.464 55.0599C143.408 77.2141 146.993 128.373 143.358 146.802L193.033 175.481C207.175 163.12 251.357 139.539 269.568 124.979C292.154 106.922 300.169 71.1328 274.551 56.3419C253.398 44.1297 223.323 73.338 209.741 90.4383C217.76 70.1261 227.292 29.0572 206.865 17.2635C181.246 2.47259 154.898 26.8681 148.464 55.0599Z" fill="white"/>
<path d="M241.005 242.443C219.154 280.29 170.406 268.879 119.963 239.756C69.5213 210.634 34.9595 173.945 56.8108 136.098C94.0696 71.5639 148.652 73.5757 199.094 102.698C249.536 131.821 280.038 174.836 241.005 242.443Z" fill="white"/>
<path d="M113.535 163.766L106.837 175.369" stroke="#123041" stroke-width="12.5604" stroke-linecap="round"/>
<path d="M201.282 214.426L194.583 226.029" stroke="#123041" stroke-width="12.5604" stroke-linecap="round"/>
<path d="M75.4517 179.487L86.3293 185.768" stroke="#FFC0C1" stroke-width="16.7472" stroke-linecap="round"/>
<path d="M195.831 248.988L206.708 255.268" stroke="#FFC0C1" stroke-width="16.7472" stroke-linecap="round"/>
<path d="M153.606 188.834C155.029 189.656 155.339 190.626 155.886 191.733C157.118 191.653 158.113 191.437 159.536 192.258C161.316 193.286 161.272 195.747 160.196 196.595C158.746 197.735 155.716 197.963 152.803 197.073C150.576 194.996 149.258 192.257 149.521 190.431C149.716 189.075 151.827 187.807 153.606 188.834Z" fill="#FFC0C1"/>
<path d="M77.1441 108.638C77.534 110.747 85.8552 117.657 87.5597 119.204L70.8097 148.215L66.3081 120.882C69.7576 115.922 76.7542 106.529 77.1441 108.638Z" fill="#005271"/>
<ellipse cx="194.023" cy="314.384" rx="10.4076" ry="19.022" transform="rotate(114.887 194.023 314.384)" fill="#F26668"/>
<ellipse cx="10.4076" cy="19.022" rx="10.4076" ry="19.022" transform="matrix(-0.99602 0.0891257 0.0891255 0.99602 189.791 276.164)" fill="#F26668"/>
<ellipse cx="195.262" cy="307.711" rx="10.4076" ry="19.022" transform="rotate(84.8867 195.262 307.711)" fill="#FF7E7E"/>
<ellipse cx="10.4076" cy="19.022" rx="10.4076" ry="19.022" transform="matrix(-0.907142 -0.420825 -0.420825 0.907142 205.271 284.252)" fill="#FF7E7E"/>
<path d="M198.641 310.147C190.047 316.189 181.498 316.505 178.192 311.803C174.886 307.101 178.074 299.162 186.668 293.119C195.262 287.077 204.909 285.99 208.215 290.692C211.521 295.394 207.235 304.104 198.641 310.147Z" fill="#FF9494"/>
<rect x="171.643" y="301.969" width="24.011" height="3.60165" rx="1.80082" transform="rotate(54.8867 171.643 301.969)" fill="#F26668"/>
<path fill-rule="evenodd" clip-rule="evenodd" d="M79.1631 124.749C88.8281 108.009 110.234 102.273 126.974 111.938L239.557 176.938C256.298 186.603 262.033 208.009 252.368 224.749L237.368 250.73C227.703 267.47 206.297 273.206 189.557 263.541L166.845 250.428C157.642 245.115 152.519 235.738 156.027 225.707L157.574 221.286C160.185 213.819 157.116 205.551 150.266 201.596C143.415 197.641 134.72 199.117 129.56 205.112L126.504 208.662C119.571 216.715 108.889 216.967 99.6859 211.654L76.974 198.541C60.2338 188.876 54.4981 167.47 64.1631 150.73L79.1631 124.749ZM84.9214 140.775C94.5864 124.035 115.992 118.3 132.732 127.965L224.531 180.965C241.271 190.629 247.007 212.035 237.342 228.775L230.842 240.034C221.177 256.774 200.771 260.778 184.031 251.113L175.577 246.232C167.902 241.801 162.419 236.035 165.252 227.638L166.288 224.57C166.44 224.118 166.603 223.662 166.768 223.198C168.716 217.735 171.002 211.32 160.531 201.209C156.793 197.6 152.192 194.963 147.209 193.494C131.628 188.9 126.391 194.626 122.358 199.208L120.219 201.638C114.364 208.29 108.361 207.424 100.686 202.993L92.2323 198.113C75.4921 188.448 68.7564 168.774 78.4214 152.034L84.9214 140.775Z" fill="#98E0F7"/>
<rect x="131.605" y="213.917" width="20" height="20" rx="5" transform="rotate(30 131.605 213.917)" fill="#106B95"/>
<path d="M95.2527 76.8809C95.9431 75.6852 97.472 75.2755 98.6678 75.9658C99.8635 76.6562 101.392 76.2465 102.083 75.0508L107.833 65.0915C110.318 60.7868 108.843 55.2825 104.539 52.7972C100.234 50.312 94.7297 51.7868 92.2444 56.0915L48.7444 131.436C36.7444 152.22 49.2921 189.487 72.2418 202.737L124.636 232.987C127.745 234.782 131.721 233.717 133.516 230.608C135.31 227.499 134.245 223.524 131.136 221.729L89.1341 197.479C62.828 182.291 53.8149 148.653 69.0027 122.347L95.2527 76.8809Z" fill="#106B95"/>
</svg>
