<svg width="1456" height="138" viewBox="0 0 1456 138" fill="none" xmlns="http://www.w3.org/2000/svg">
<path fill-rule="evenodd" clip-rule="evenodd" d="M473.5 46.0003C473.5 41.8581 476.858 38.5003 481 38.5003L523.981 38.5003L524 38.5002L524.019 38.5003L773 38.5002C777.142 38.5002 780.5 41.8581 780.5 46.0002C780.5 50.1424 777.142 53.5002 773 53.5002L545 53.5003C537.544 53.5003 531.5 59.5444 531.5 67.0003V67.0003C531.5 74.4561 537.544 80.5003 545 80.5003L861 80.5003C865.142 80.5003 868.5 83.8582 868.5 88.0003C868.5 92.1425 865.142 95.5003 861 95.5003L379 95.5003C371.544 95.5003 365.5 101.544 365.5 109V109C365.5 116.456 371.544 122.5 379 122.5L461 122.5C465.142 122.5 468.5 125.858 468.5 130C468.5 134.142 465.142 137.5 461 137.5L358.008 137.5L358 137.5L357.992 137.5L314 137.5C309.858 137.5 306.5 134.142 306.5 130C306.5 125.858 309.858 122.5 314 122.5H337C344.456 122.5 350.5 116.456 350.5 109V109C350.5 101.544 344.456 95.5003 337 95.5003L241 95.5003C236.858 95.5003 233.5 92.1424 233.5 88.0003C233.5 83.8581 236.858 80.5003 241 80.5003L503 80.5003C510.456 80.5003 516.5 74.4561 516.5 67.0003V67.0003C516.5 59.5444 510.456 53.5003 503 53.5003L481 53.5003C476.858 53.5003 473.5 50.1424 473.5 46.0003ZM21.5 46.0003C21.5 41.8581 24.8579 38.5003 29 38.5003L212.974 38.5003L213 38.5002L213.026 38.5003L453 38.5003C457.142 38.5003 460.5 41.8582 460.5 46.0003C460.5 50.1424 457.142 53.5003 453 53.5003L240.5 53.5003C229.454 53.5003 220.5 62.4546 220.5 73.5003V87.0002C220.5 89.2566 219.504 91.2803 217.927 92.6552C216.415 93.9733 214.52 94.9234 212.558 95.3379C212.055 95.4441 211.534 95.5 211 95.5L8 95.5C3.85787 95.5 0.5 92.1421 0.5 88C0.5 83.8579 3.85786 80.5 8 80.5L192 80.5C199.456 80.5 205.5 74.4559 205.5 67.0001V67.0001C205.5 59.5444 199.456 53.5003 192 53.5003L29 53.5003C24.8579 53.5003 21.5 50.1424 21.5 46.0003ZM1171.44 95.3379C1169.48 94.9233 1167.58 93.9732 1166.07 92.6552C1164.5 91.2803 1163.5 89.2566 1163.5 87.0002V73.5003C1163.5 62.4546 1154.55 53.5003 1143.5 53.5003L1015 53.5003C1007.54 53.5003 1001.5 59.5444 1001.5 67.0003V67.0003C1001.5 74.4561 1007.54 80.5003 1015 80.5003L1143 80.5003C1147.14 80.5003 1150.5 83.8582 1150.5 88.0003C1150.5 92.1424 1147.14 95.5003 1143 95.5003L1068 95.5003C1060.54 95.5003 1054.5 101.544 1054.5 109V109C1054.5 116.456 1060.54 122.5 1068 122.5L1198 122.5C1202.14 122.5 1205.5 125.858 1205.5 130C1205.5 134.142 1202.14 137.5 1198 137.5L1051 137.5V137.5C1049.68 137.5 1048.32 137.5 1047 137.5V137.5C1042.86 137.5 1039.5 134.142 1039.5 130V115.5C1039.5 104.455 1030.55 95.5003 1019.5 95.5003L891 95.5003C886.858 95.5003 883.5 92.1424 883.5 88.0003C883.5 83.8581 886.858 80.5003 891 80.5003L973 80.5003C980.456 80.5003 986.5 74.4561 986.5 67.0003V67.0003C986.5 59.5444 980.456 53.5003 973 53.5003L801 53.5003C796.858 53.5003 793.5 50.1424 793.5 46.0003C793.5 41.8581 796.858 38.5003 801 38.5003L993.974 38.5003L994 38.5002L994.026 38.5003L1170.97 38.5003L1171 38.5002L1171.03 38.5003L1427 38.5003C1431.14 38.5003 1434.5 41.8582 1434.5 46.0003C1434.5 50.1425 1431.14 53.5003 1427 53.5003L1192 53.5003C1184.54 53.5003 1178.5 59.5444 1178.5 67.0002V67.0002C1178.5 74.4559 1184.54 80.5 1192 80.5H1448C1452.14 80.5 1455.5 83.8579 1455.5 88C1455.5 92.1421 1452.14 95.5 1448 95.5H1428C1420.54 95.5 1414.5 101.544 1414.5 109V111C1414.5 117.352 1419.65 122.5 1426 122.5V122.5C1430.14 122.5 1433.5 125.858 1433.5 130C1433.5 134.142 1430.14 137.5 1426 137.5L1407 137.5H1348C1343.86 137.5 1340.5 134.142 1340.5 130C1340.5 125.858 1343.86 122.5 1348 122.5L1386 122.5C1393.46 122.5 1399.5 116.456 1399.5 109V109C1399.5 101.544 1393.46 95.5 1386 95.5H1173C1172.47 95.5 1171.94 95.4441 1171.44 95.3379ZM601.5 130C601.5 125.858 604.858 122.5 609 122.5L912 122.5C916.142 122.5 919.5 125.858 919.5 130C919.5 134.142 916.142 137.5 912 137.5L609 137.5C604.858 137.5 601.5 134.142 601.5 130ZM8 122.5C3.85786 122.5 0.5 125.858 0.5 130C0.5 134.142 3.85787 137.5 8 137.5L77 137.5C81.1421 137.5 84.5 134.142 84.5 130C84.5 125.858 81.1421 122.5 77 122.5L8 122.5Z" fill="url(#paint0_linear_745_1298)"/>
<path d="M8 8.00024L1448 8.00012" stroke="#4C92AD" stroke-width="15"/>
<defs>
<linearGradient id="paint0_linear_745_1298" x1="683" y1="137.5" x2="683" y2="38.5002" gradientUnits="userSpaceOnUse">
<stop stop-color="#12425D"/>
<stop offset="1" stop-color="#3D7187"/>
</linearGradient>
</defs>
</svg>
