<svg width="1546" height="138" viewBox="0 0 1546 138" fill="none" xmlns="http://www.w3.org/2000/svg">
<path fill-rule="evenodd" clip-rule="evenodd" d="M563.5 46C563.5 41.8579 566.858 38.5 571 38.5L613.981 38.5L614 38.5L614.019 38.5L863 38.5C867.142 38.5 870.5 41.8579 870.5 46C870.5 50.1421 867.142 53.5 863 53.5L635 53.5C627.544 53.5 621.5 59.5442 621.5 67C621.5 74.4559 627.544 80.5001 635 80.5001L951 80.5001C955.142 80.5001 958.5 83.8579 958.5 88.0001C958.5 92.1422 955.142 95.5001 951 95.5001L469 95.5C461.544 95.5 455.5 101.544 455.5 109C455.5 116.456 461.544 122.5 469 122.5L551 122.5C555.142 122.5 558.5 125.858 558.5 130C558.5 134.142 555.142 137.5 551 137.5L448.008 137.5L448 137.5L447.992 137.5L404 137.5C399.858 137.5 396.5 134.142 396.5 130C396.5 125.858 399.858 122.5 404 122.5H427C434.456 122.5 440.5 116.456 440.5 109C440.5 101.544 434.456 95.5 427 95.5L331 95.5C326.858 95.5 323.5 92.1422 323.5 88C323.5 83.8579 326.858 80.5 331 80.5L593 80.5C600.456 80.5 606.5 74.4559 606.5 67C606.5 59.5442 600.456 53.5 593 53.5L571 53.5C566.858 53.5 563.5 50.1422 563.5 46ZM111.5 46C111.5 41.8579 114.858 38.5 119 38.5L302.974 38.5L303 38.5L303.026 38.5L543 38.5001C547.142 38.5001 550.5 41.8579 550.5 46.0001C550.5 50.1422 547.142 53.5001 543 53.5001L330.5 53.5C319.454 53.5 310.5 62.4544 310.5 73.5V87C310.5 89.2561 309.504 91.2795 307.927 92.6544C306.416 93.9727 304.521 94.923 302.559 95.3378C302.056 95.4441 301.534 95.5 301 95.5L98 95.5C93.8579 95.5 90.5 92.1422 90.5 88C90.5 83.8579 93.8579 80.5 98 80.5L282 80.5C289.456 80.5 295.5 74.4559 295.5 67C295.5 59.5442 289.456 53.5 282 53.5L119 53.5C114.858 53.5 111.5 50.1422 111.5 46ZM1261.44 95.3378C1259.48 94.923 1257.58 93.9727 1256.07 92.6544C1254.5 91.2795 1253.5 89.2561 1253.5 87V73.5001C1253.5 62.4544 1244.55 53.5001 1233.5 53.5001L1105 53.5C1097.54 53.5 1091.5 59.5442 1091.5 67C1091.5 74.4559 1097.54 80.5 1105 80.5L1233 80.5C1237.14 80.5 1240.5 83.8579 1240.5 88C1240.5 92.1422 1237.14 95.5 1233 95.5L1158 95.5C1150.54 95.5 1144.5 101.544 1144.5 109C1144.5 116.456 1150.54 122.5 1158 122.5L1288 122.5C1292.14 122.5 1295.5 125.858 1295.5 130C1295.5 134.142 1292.14 137.5 1288 137.5L1141 137.5C1139.68 137.5 1138.32 137.5 1137 137.5C1132.86 137.5 1129.5 134.142 1129.5 130V115.5C1129.5 104.454 1120.55 95.5 1109.5 95.5L981 95.5C976.858 95.5 973.5 92.1422 973.5 88C973.5 83.8579 976.858 80.5 981 80.5L1063 80.5C1070.46 80.5 1076.5 74.4559 1076.5 67C1076.5 59.5442 1070.46 53.5 1063 53.5L891 53.5C886.858 53.5 883.5 50.1422 883.5 46C883.5 41.8579 886.858 38.5 891 38.5L1083.97 38.5L1084 38.5L1084.03 38.5L1260.97 38.5001L1261 38.5L1261.03 38.5001L1517 38.5001C1521.14 38.5001 1524.5 41.8579 1524.5 46.0001C1524.5 50.1422 1521.14 53.5001 1517 53.5001L1282 53.5001C1274.54 53.5001 1268.5 59.5442 1268.5 67C1268.5 74.4559 1274.54 80.5 1282 80.5L1538 80.5C1542.14 80.5 1545.5 83.8579 1545.5 88C1545.5 92.1422 1542.14 95.5 1538 95.5L1518 95.5C1510.54 95.5 1504.5 101.544 1504.5 109V111C1504.5 117.351 1509.65 122.5 1516 122.5C1520.14 122.5 1523.5 125.858 1523.5 130C1523.5 134.142 1520.14 137.5 1516 137.5L1497 137.5H1438C1433.86 137.5 1430.5 134.142 1430.5 130C1430.5 125.858 1433.86 122.5 1438 122.5L1476 122.5C1483.46 122.5 1489.5 116.456 1489.5 109C1489.5 101.544 1483.46 95.5 1476 95.5L1263 95.5C1262.47 95.5 1261.94 95.4441 1261.44 95.3378ZM691.5 130C691.5 125.858 694.858 122.5 699 122.5L1002 122.5C1006.14 122.5 1009.5 125.858 1009.5 130C1009.5 134.142 1006.14 137.5 1002 137.5L699 137.5C694.858 137.5 691.5 134.142 691.5 130ZM8 122.5C3.85786 122.5 0.5 125.858 0.5 130C0.5 134.142 3.85787 137.5 8 137.5L167 137.5C171.142 137.5 174.5 134.142 174.5 130C174.5 125.858 171.142 122.5 167 122.5L8 122.5Z" fill="url(#paint0_linear_742_1294)"/>
<path d="M98 8L1538 7.99987" stroke="#4C92AD" stroke-width="15"/>
<defs>
<linearGradient id="paint0_linear_742_1294" x1="773" y1="137.5" x2="773" y2="38.5" gradientUnits="userSpaceOnUse">
<stop stop-color="#12425D"/>
<stop offset="1" stop-color="#3D7187"/>
</linearGradient>
</defs>
</svg>
