<svg width="1440" height="585" viewBox="0 0 1440 585" fill="none" xmlns="http://www.w3.org/2000/svg">
<path fill-rule="evenodd" clip-rule="evenodd" d="M473 38.5001C468.858 38.5001 465.5 41.858 465.5 46.0001C465.5 50.1423 468.858 53.5001 473 53.5001L495 53.5001C502.456 53.5001 508.5 59.5443 508.5 67.0002V67.0002C508.5 74.456 502.456 80.5002 495 80.5002L233 80.5001C228.858 80.5001 225.5 83.858 225.5 88.0001C225.5 92.1423 228.858 95.5001 233 95.5001L329 95.5002C336.456 95.5002 342.5 101.544 342.5 109V109C342.5 116.456 336.456 122.5 329 122.5H306C301.858 122.5 298.5 125.858 298.5 130C298.5 134.142 301.858 137.5 306 137.5L349.992 137.5L350 137.5L350.008 137.5L453 137.5C457.142 137.5 460.5 134.142 460.5 130C460.5 125.858 457.142 122.5 453 122.5L371 122.5C363.544 122.5 357.5 116.456 357.5 109V109C357.5 101.544 363.544 95.5002 371 95.5002L853 95.5002C857.142 95.5002 860.5 92.1423 860.5 88.0002C860.5 83.8581 857.142 80.5002 853 80.5002L537 80.5002C529.544 80.5002 523.5 74.456 523.5 67.0002V67.0002C523.5 59.5443 529.544 53.5001 537 53.5001L765 53.5001C769.142 53.5001 772.5 50.1423 772.5 46.0001C772.5 41.858 769.142 38.5001 765 38.5001L516.019 38.5001L516 38.5001L515.981 38.5001L473 38.5001ZM21 38.5001C16.8579 38.5001 13.5 41.858 13.5 46.0001C13.5 50.1423 16.8579 53.5001 21 53.5001L184 53.5002C191.456 53.5002 197.5 59.5443 197.5 67V67C197.5 74.4558 191.456 80.4999 184 80.4999L21.9901 80.4999C21.9901 80.4999 21.99 80.4999 21.99 80.4999H14H0.01C0.00447715 80.4999 0 80.5044 0 80.5099V95.4899C0 95.4954 0.00447714 95.4999 0.00999999 95.4999H14H21.99L203 95.4999C203.534 95.4999 204.055 95.444 204.558 95.3378C206.52 94.9232 208.415 93.9731 209.927 92.655C211.504 91.2801 212.5 89.2565 212.5 87.0001V73.5002C212.5 62.4545 221.454 53.5002 232.5 53.5002L445 53.5002C449.142 53.5002 452.5 50.1423 452.5 46.0002C452.5 41.8581 449.142 38.5002 445 38.5002L205.026 38.5002L205 38.5001L204.974 38.5002L21 38.5001ZM1155.5 87.0001C1155.5 89.2565 1156.5 91.2802 1158.07 92.6551C1159.58 93.9731 1161.48 94.9232 1163.44 95.3378C1163.94 95.444 1164.47 95.4999 1165 95.4999H1378C1385.46 95.4999 1391.5 101.544 1391.5 109V109C1391.5 116.456 1385.46 122.5 1378 122.5L1340 122.5C1335.86 122.5 1332.5 125.858 1332.5 130C1332.5 134.142 1335.86 137.5 1340 137.5H1399L1418 137.5C1422.14 137.5 1425.5 134.142 1425.5 130C1425.5 125.858 1422.14 122.5 1418 122.5V122.5C1411.65 122.5 1406.5 117.351 1406.5 111V107C1406.5 100.649 1411.65 95.4999 1418 95.4999V95.4999H1427H1439.99C1439.99 95.4999 1440 95.4987 1440 95.4969C1440 95.4951 1440 95.4926 1440 95.4899V80.5099C1440 80.5044 1440 80.4999 1439.99 80.4999H1427H1418H1184C1176.54 80.4999 1170.5 74.4558 1170.5 67V67C1170.5 59.5443 1176.54 53.5002 1184 53.5002L1419 53.5002C1423.14 53.5002 1426.5 50.1423 1426.5 46.0002C1426.5 41.8581 1423.14 38.5002 1419 38.5002L1163.03 38.5002L1163 38.5001L1162.97 38.5002L986.026 38.5002L986 38.5001L985.974 38.5002L793 38.5001C788.858 38.5001 785.5 41.858 785.5 46.0001C785.5 50.1423 788.858 53.5001 793 53.5001L965 53.5002C972.456 53.5002 978.5 59.5443 978.5 67.0002V67.0002C978.5 74.456 972.456 80.5002 965 80.5002L883 80.5001C878.858 80.5001 875.5 83.858 875.5 88.0001C875.5 92.1423 878.858 95.5001 883 95.5001L1011.5 95.5002C1022.55 95.5002 1031.5 104.454 1031.5 115.5V130C1031.5 134.142 1034.86 137.5 1039 137.5V137.5C1040.32 137.5 1041.68 137.5 1043 137.5V137.5L1190 137.5C1194.14 137.5 1197.5 134.142 1197.5 130C1197.5 125.858 1194.14 122.5 1190 122.5L1060 122.5C1052.54 122.5 1046.5 116.456 1046.5 109V109C1046.5 101.544 1052.54 95.5002 1060 95.5002L1135 95.5002C1139.14 95.5002 1142.5 92.1423 1142.5 88.0002C1142.5 83.858 1139.14 80.5002 1135 80.5002L1007 80.5002C999.544 80.5002 993.5 74.456 993.5 67.0002V67.0002C993.5 59.5443 999.544 53.5002 1007 53.5002L1135.5 53.5002C1146.55 53.5002 1155.5 62.4545 1155.5 73.5002V87.0001ZM601 122.5C596.858 122.5 593.5 125.858 593.5 130C593.5 134.142 596.858 137.5 601 137.5L904 137.5C908.142 137.5 911.5 134.142 911.5 130C911.5 125.858 908.142 122.5 904 122.5L601 122.5ZM0.00999999 137.5H15H21.99L69 137.5C73.1421 137.5 76.5 134.142 76.5 130C76.5 125.858 73.1421 122.5 69 122.5L21.9901 122.5H21.99H15H0.01C0.00447715 122.5 0 122.504 0 122.51V137.49C0 137.495 0.00447714 137.5 0.00999999 137.5Z" fill="url(#paint0_linear_746_1327)"/>
<path d="M0 8.00012L1440 8" stroke="#4C92AD" stroke-width="15"/>
<path fill-rule="evenodd" clip-rule="evenodd" d="M310.001 14.9999L264.102 15.0008L7.06177e-05 212L0 376L310.001 14.9999ZM408.999 15.4995L330.998 15.4995L65.4616 543.774L308.464 533.275L408.999 15.4995ZM467.501 15.4984L568.038 15.4986L690.405 585L424.905 585L467.501 15.4984ZM687.745 15.4983L658.245 15.4974L893.245 496.999L1042.75 496.999L687.745 15.4983Z" fill="url(#paint1_linear_746_1327)"/>
<defs>
<linearGradient id="paint0_linear_746_1327" x1="675" y1="137.5" x2="675" y2="38.5001" gradientUnits="userSpaceOnUse">
<stop stop-color="#12425D"/>
<stop offset="1" stop-color="#3D7187"/>
</linearGradient>
<linearGradient id="paint1_linear_746_1327" x1="688.445" y1="17" x2="688.445" y2="431.5" gradientUnits="userSpaceOnUse">
<stop stop-color="#98E0F7"/>
<stop offset="1" stop-color="#123041" stop-opacity="0"/>
</linearGradient>
</defs>
</svg>
