<svg width="61" height="76" viewBox="0 0 61 76" fill="none" xmlns="http://www.w3.org/2000/svg">
<path fill-rule="evenodd" clip-rule="evenodd" d="M35.6193 15.182C35.3374 13.9216 34.0872 13.1284 32.8269 13.4103C31.5665 13.6921 30.7733 14.9423 31.0551 16.2027L37.4346 44.7293C34.762 43.6844 31.5181 43.4157 28.2008 44.1576C20.8908 45.7924 15.993 51.7153 17.2613 57.3869C18.5297 63.0586 25.4839 66.331 32.794 64.6963C40.104 63.0615 45.0018 57.1385 43.7334 51.4669C43.6775 51.2169 43.6106 50.9717 43.5331 50.7312C43.5269 50.5971 43.509 50.4616 43.4787 50.326L35.6193 15.182ZM39.1693 52.4876C39.6481 54.6285 37.708 58.8049 31.7733 60.1321C25.8385 61.4593 22.3043 58.5072 21.8255 56.3662C21.3467 54.2253 23.2867 50.0489 29.2215 48.7217C35.1563 47.3945 38.6905 50.3466 39.1693 52.4876Z" fill="#C0EBFF"/>
<path d="M19.3018 56.7391C18.3323 52.4041 22.0647 47.8794 27.6384 46.6329" stroke="white" stroke-width="1.14903" stroke-linecap="round"/>
</svg>
