<svg width="73" height="77" viewBox="0 0 73 77" fill="none" xmlns="http://www.w3.org/2000/svg">
<path fill-rule="evenodd" clip-rule="evenodd" d="M37.3936 15.5398C36.5989 14.894 35.4765 14.8403 34.6238 15.4074C33.7712 15.9745 33.3866 17.0303 33.6749 18.0129L41.9044 46.0617C39.1693 45.1937 35.9147 45.1375 32.653 46.0945C25.4653 48.2034 20.965 54.4337 22.6012 60.0103C24.2373 65.5869 31.3905 68.3981 38.5781 66.2893C45.7658 64.1804 50.2661 57.9501 48.6299 52.3735C48.5578 52.1277 48.475 51.8873 48.3819 51.6525C48.367 51.519 48.3403 51.385 48.3012 51.2517L40.0945 23.2805C41.4865 24.1941 42.9724 25.0996 44.4748 25.9134C46.4285 26.9718 48.4765 27.9117 50.4262 28.5012C52.3235 29.0748 54.4051 29.4035 56.2854 28.924C57.5368 28.6048 58.2926 27.3316 57.9735 26.0802C57.6543 24.8288 56.3811 24.073 55.1297 24.3921C54.4706 24.5602 53.3688 24.5049 51.7796 24.0244C50.2427 23.5597 48.501 22.7755 46.7024 21.8012C43.1077 19.8539 39.5511 17.2931 37.3936 15.5398Z" fill="#C0EBFF"/>
<path d="M25.8545 59.5283C24.6039 55.2658 28.0328 50.5069 33.5131 48.899" stroke="white" stroke-width="1.14903" stroke-linecap="round"/>
</svg>
