<svg width="93" height="86" viewBox="0 0 93 86" fill="none" xmlns="http://www.w3.org/2000/svg">
<path fill-rule="evenodd" clip-rule="evenodd" d="M44.3164 17.0169C43.6628 16.7574 42.9271 16.8059 42.3132 17.1488C41.6993 17.4917 41.2722 18.0927 41.1504 18.7852L36.0862 47.5744C34.0198 45.5834 31.1277 44.0895 27.7799 43.5006C20.4026 42.2029 13.6058 45.791 12.599 51.5148C11.5921 57.2386 16.7564 62.9307 24.1338 64.2284C31.5111 65.5261 38.3079 61.9381 39.3147 56.2143C39.3591 55.962 39.3915 55.7098 39.4122 55.4581C39.458 55.3318 39.4936 55.1998 39.5176 55.063L45.2592 22.4232L74.1108 33.8775L69.6601 59.1791C67.5937 57.1881 64.7017 55.6943 61.3539 55.1054C53.9766 53.8077 47.1798 57.3958 46.173 63.1196C45.1661 68.8434 50.3304 74.5355 57.7078 75.8332C64.6578 77.0557 71.0925 73.9422 72.6565 68.7917C72.725 68.6306 72.7764 68.4593 72.808 68.2795L79.047 32.8119C79.2391 31.7196 78.6376 30.6426 77.6068 30.2334L44.3164 17.0169Z" fill="#C0EBFF"/>
<path d="M49.2835 63.612C50.0531 59.237 55.2369 56.4925 60.8619 57.482" stroke="white" stroke-width="1.14903" stroke-linecap="round"/>
<path d="M15.5418 52.0376C16.2564 47.9752 21.4801 45.4989 27.2092 46.5066" stroke="white" stroke-width="1.14903" stroke-linecap="round"/>
</svg>
