<svg width="45" height="60" viewBox="0 0 45 60" fill="none" xmlns="http://www.w3.org/2000/svg">
<path fill-rule="evenodd" clip-rule="evenodd" d="M35.078 6.08002C35.078 4.78854 34.0311 3.74158 32.7396 3.74158C31.4481 3.74158 30.4011 4.78854 30.4011 6.08002V35.3112C28.021 33.7083 24.9138 32.7381 21.5146 32.7381C14.024 32.7381 7.95166 37.4494 7.95166 43.2611C7.95166 49.0728 14.024 53.7841 21.5146 53.7841C29.0053 53.7841 35.0776 49.0728 35.0776 43.2611C35.0776 43.005 35.0658 42.751 35.0427 42.4995C35.0659 42.3672 35.078 42.231 35.078 42.0921V6.08002Z" fill="#C0EBFF"/>
<path d="M11.5701 44.0536C11.5701 39.6114 16.2 36.0104 21.9113 36.0104" stroke="white" stroke-width="1.14903" stroke-linecap="round"/>
</svg>
