<svg width="98" height="79" viewBox="0 0 98 79" fill="none" xmlns="http://www.w3.org/2000/svg">
<ellipse cx="63.3461" cy="39.3209" rx="12.9846" ry="23.7318" transform="rotate(45 63.3461 39.3209)" fill="#F26668"/>
<ellipse cx="12.9846" cy="23.7318" rx="12.9846" ry="23.7318" transform="matrix(-0.258819 0.965926 0.965926 0.258819 16.7567 27.8774)" fill="#F26668"/>
<ellipse cx="56.0619" cy="35.0041" rx="12.9846" ry="23.7318" transform="rotate(15 56.0619 35.0041)" fill="#FF7E7E"/>
<ellipse cx="12.9846" cy="23.7318" rx="12.9846" ry="23.7318" transform="matrix(-0.707107 0.707107 0.707107 0.707107 32.8713 13.219)" fill="#FF7E7E"/>
<path d="M60.3617 32.0931C63.754 44.7533 60.4553 54.9037 53.5285 56.7597C46.6017 58.6158 38.6698 51.4746 35.2775 38.8144C31.8852 26.1543 34.7505 14.3866 41.6774 12.5306C48.6042 10.6746 56.9695 19.433 60.3617 32.0931Z" fill="#FF9494"/>
<rect x="39.1978" y="60.2103" width="29.956" height="4.49341" rx="2.2467" transform="rotate(-15 39.1978 60.2103)" fill="#F26668"/>
</svg>
