<svg width="330" height="336" viewBox="0 0 330 336" fill="none" xmlns="http://www.w3.org/2000/svg">
<g clip-path="url(#clip0_735_2634)">
<ellipse cx="204" cy="312" rx="111" ry="20" fill="#DFAF67"/>
<ellipse cx="121.586" cy="59.1745" rx="36.338" ry="39.1588" transform="rotate(-28.6896 121.586 59.1745)" fill="#5BB42B"/>
<ellipse cx="36.338" cy="39.1588" rx="36.338" ry="39.1588" transform="matrix(-0.877234 -0.480064 -0.480064 0.877234 330.133 41.2539)" fill="#5BB42B"/>
<path d="M112.521 230.742C135.985 231.955 162.804 203.4 173.28 188.971C173.35 186.956 172.741 182.095 169.752 178.765C166.014 174.602 111.73 189.37 99.8932 195.012C88.0566 200.654 83.1908 229.227 112.521 230.742Z" fill="#5C9A15"/>
<path d="M149.023 314.963C142.503 312.298 136.154 276.776 137.441 259.092L200.068 269.087C201.355 283.439 201.441 312.708 198.352 314.963C194.492 317.782 157.173 318.295 149.023 314.963Z" fill="#5C9A15"/>
<path d="M144.128 275.619C124.636 262.657 150.985 181.802 170.023 171.618C189.061 161.434 220.026 162.977 233.625 171.618C247.224 180.259 280.83 262.349 261.338 275.619C241.846 288.889 163.619 288.58 144.128 275.619Z" fill="#5BB42B"/>
<path d="M255.524 314.963C262.044 312.298 268.393 276.776 267.106 259.092L204.479 269.087C203.192 283.439 203.106 312.708 206.194 314.963C210.055 317.782 247.374 318.295 255.524 314.963Z" fill="#5BB42B"/>
<path d="M294.543 236.555C294.946 213.063 265.484 187.244 250.702 177.271C248.687 177.271 243.849 178.047 240.624 181.15C236.593 185.028 253.222 238.772 259.269 250.407C265.316 262.042 294.039 265.92 294.543 236.555Z" fill="#5BB42B"/>
<path d="M152.726 244.006C152.726 271.564 173.484 278.183 199.089 278.183C224.695 278.183 245.453 271.564 245.453 244.006C245.453 207.779 224.695 187.273 199.089 187.273C173.484 187.273 152.726 207.779 152.726 244.006Z" fill="#A1DC3C"/>
<path d="M197.664 263.638C197.477 263.639 197.292 263.603 197.119 263.533C196.946 263.463 196.789 263.359 196.656 263.228L190.341 256.877C190.109 256.607 189.987 256.259 190.001 255.904C190.015 255.549 190.163 255.212 190.416 254.96C190.668 254.709 191.007 254.562 191.364 254.548C191.721 254.534 192.071 254.655 192.342 254.886L198.671 261.168C198.804 261.299 198.91 261.455 198.982 261.627C199.054 261.799 199.091 261.983 199.091 262.17C199.091 262.356 199.054 262.541 198.982 262.713C198.91 262.885 198.804 263.041 198.671 263.172C198.543 263.313 198.388 263.427 198.215 263.507C198.042 263.587 197.854 263.632 197.664 263.638Z" fill="#5BB42B"/>
<path d="M191.416 263.638C191.231 263.639 191.047 263.603 190.876 263.533C190.704 263.463 190.548 263.36 190.416 263.229C190.285 263.098 190.18 262.943 190.108 262.771C190.037 262.6 190 262.415 190 262.23C190 262.044 190.037 261.86 190.108 261.688C190.18 261.516 190.285 261.361 190.416 261.23L196.682 254.963C196.813 254.831 196.969 254.727 197.14 254.655C197.312 254.584 197.496 254.547 197.682 254.547C197.868 254.547 198.052 254.584 198.223 254.655C198.395 254.727 198.551 254.831 198.681 254.963C198.944 255.227 199.091 255.584 199.091 255.956C199.091 256.328 198.944 256.685 198.681 256.949L192.402 263.229C192.14 263.49 191.786 263.636 191.416 263.638Z" fill="#5BB42B"/>
<path d="M83.6382 122.061C83.6382 170.009 136.486 185.909 200.716 185.909C264.947 185.909 318.184 170.009 318.184 122.061C318.184 53.1822 264.947 23.6367 200.716 23.6367C136.486 23.6367 83.6382 47.7276 83.6382 122.061Z" fill="#5BB42B"/>
<path d="M273.637 59.0898V73.6353" stroke="#123041" stroke-width="13.6364" stroke-linecap="round"/>
<path d="M119.09 58.1816V72.7271" stroke="#123041" stroke-width="13.6364" stroke-linecap="round"/>
<path d="M293.633 105.455H278.178" stroke="#A1DC3C" stroke-width="18.1818" stroke-linecap="round"/>
<path d="M125.457 105.455H110.002" stroke="#A1DC3C" stroke-width="18.1818" stroke-linecap="round"/>
<path d="M179.087 90.9598C179.087 80.037 179.087 74.5456 199.542 74.5456C219.996 74.5456 219.996 79.0612 219.996 90.9598C219.996 110.455 210.838 121.818 199.542 121.818C188.245 121.818 179.087 109.091 179.087 90.9598Z" fill="#D52C2F"/>
<path fill-rule="evenodd" clip-rule="evenodd" d="M219.963 92.9766C219.352 111.236 210.443 121.818 199.542 121.818C191.628 121.818 184.764 115.572 181.362 105.598C185.318 100.975 191.173 96.9668 198.242 94.4884C205.953 91.7852 213.672 91.4062 219.963 92.9766Z" fill="#FF686B"/>
<path fill-rule="evenodd" clip-rule="evenodd" d="M49.2003 174.93C43.3554 164.806 46.824 151.861 56.9477 146.017L62.4468 142.842C72.5705 136.997 85.5156 140.465 91.3604 150.589L103.002 170.753C105.34 174.802 103.952 179.98 99.9029 182.318L90.7381 187.609L98.9399 201.815L109.787 220.604L115.287 217.428C117.818 215.967 121.054 216.834 122.516 219.365L131.511 234.946C132.973 237.477 132.105 240.713 129.575 242.174L109.411 253.816C106.88 255.277 103.644 254.41 102.183 251.879L93.1869 236.298C91.7257 233.767 92.5928 230.531 95.1238 229.07L100.622 225.895L89.7747 207.107L81.5728 192.901L72.4072 198.193C68.3577 200.531 63.1797 199.143 60.8417 195.094L49.2003 174.93ZM104.998 235.589L108.702 242.005L119.7 235.655L115.996 229.239L104.998 235.589Z" fill="#FF686B"/>
</g>
<defs>
<clipPath id="clip0_735_2634">
<rect width="330" height="335.455" fill="white"/>
</clipPath>
</defs>
</svg>
