<svg width="301" height="245" viewBox="0 0 301 245" fill="none" xmlns="http://www.w3.org/2000/svg">
<ellipse cx="150.5" cy="225" rx="150.5" ry="20" fill="#DFAF67"/>
<path d="M225.034 25.0984C227.043 25.6783 227.043 28.5244 225.034 29.1043L153.332 49.8031C151.999 50.1879 150.669 49.1876 150.669 47.8002L150.669 6.40255C150.669 5.01513 151.999 4.01481 153.332 4.39961L225.034 25.0984Z" fill="#FF686B"/>
<path d="M150.668 4.86328L150.668 96.591" stroke="#123041" stroke-width="6.94907" stroke-linecap="round"/>
<path fill-rule="evenodd" clip-rule="evenodd" d="M53.0346 74.667C53.2301 72.9074 54.7174 71.5762 56.4879 71.5762H77.6997C79.6187 71.5762 81.1743 73.1318 81.1743 75.0507V84.5255C81.1743 86.4444 82.7299 88 84.6488 88H105.498C107.417 88 108.973 86.4444 108.973 84.5255V75.0507C108.973 73.1318 110.528 71.5762 112.447 71.5762H133.295C135.214 71.5762 136.769 73.1318 136.769 75.0507V84.0841C136.769 86.003 138.325 87.5586 140.244 87.5586H161.088C163.007 87.5586 164.562 89.1142 164.562 91.0331V205.693C164.562 207.612 163.007 209.167 161.088 209.167H136.769C136.769 209.167 136.769 209.167 136.769 209.168C136.769 209.168 136.769 209.168 136.769 209.168H109.057C109.01 209.168 108.973 209.13 108.973 209.084C108.973 209.038 108.935 209 108.889 209H81.2581C81.2118 209 81.1743 209.038 81.1743 209.084C81.1743 209.13 81.1367 209.168 81.0904 209.168H41.972C39.9012 209.168 38.29 207.368 38.5187 205.31L53.0346 74.667ZM192.359 75.0507C192.359 73.1318 190.803 71.5762 188.884 71.5762H168.037C166.118 71.5762 164.563 73.1318 164.563 75.0507V205.693C164.563 207.612 166.118 209.168 168.037 209.168H192.275C192.321 209.168 192.359 209.13 192.359 209.084C192.359 209.038 192.397 209 192.443 209H220.073C220.119 209 220.156 209.038 220.156 209.084C220.156 209.13 220.194 209.168 220.24 209.168H259.359C261.43 209.168 263.041 207.368 262.812 205.31L248.296 74.667C248.101 72.9074 246.613 71.5762 244.843 71.5762H223.631C221.712 71.5762 220.156 73.1318 220.156 75.0507V84.5255C220.156 86.4444 218.601 88 216.682 88H195.834C193.915 88 192.359 86.4444 192.359 84.5255V75.0507Z" fill="#DCB06E"/>
<rect x="34.0002" y="191.002" width="233" height="36" rx="5" fill="#CEA363"/>
<path fill-rule="evenodd" clip-rule="evenodd" d="M179.363 169.865C179.379 169.477 179.387 169.086 179.387 168.693C179.387 152.846 166.54 140 150.694 140C134.847 140 122 152.846 122 168.693C122 169.086 122.008 169.477 122.024 169.865H122V227.252H179.387V169.865H179.363Z" fill="#58452B"/>
</svg>
