<svg width="1440" height="509" viewBox="0 0 1440 509" fill="none" xmlns="http://www.w3.org/2000/svg">
<path d="M713.635 171H592.06C538.217 171 488.809 200.843 463.75 248.5C438.691 296.157 389.283 326 335.44 326H-9.5C-60.0341 326 -101 366.966 -101 417.5C-101 468.034 -60.0341 509 -9.50001 509H1275.5C1416.06 509 1530 395.056 1530 254.5V76C1530 34.0264 1495.97 0 1454 0H1304.82C1263.94 0 1224.73 16.1784 1195.75 45C1166.77 73.8216 1127.56 90 1086.68 90H899.865C864.553 90 830.827 104.669 806.75 130.5C782.673 156.331 748.947 171 713.635 171Z" fill="#DFAF67"/>
</svg>
