<svg width="1440" height="950" viewBox="0 0 1440 950" fill="none" xmlns="http://www.w3.org/2000/svg">
<path d="M0 104.5V950H1440V0H781.364C752.507 0 729.114 23.3931 729.114 52.25C729.114 81.1069 705.721 104.5 676.864 104.5H0Z" fill="#E6BB7B"/>
<path d="M673.635 612H552.06C498.217 612 448.809 641.843 423.75 689.5C398.691 737.157 349.283 767 295.44 767H0V950H1440V441H1264.82C1223.94 441 1184.73 457.178 1155.75 486C1126.77 514.822 1087.56 531 1046.68 531H859.865C824.553 531 790.827 545.669 766.75 571.5C742.673 597.331 708.947 612 673.635 612Z" fill="#DFAF67"/>
</svg>
