<svg width="105" height="77" viewBox="0 0 105 77" fill="none" xmlns="http://www.w3.org/2000/svg">
<path fill-rule="evenodd" clip-rule="evenodd" d="M7.3921 22.088C8.87361 22.6453 9.98651 24.0843 9.98651 25.6672C9.98651 28.3688 10.6126 30.9242 11.7276 33.1961C15.5553 40.9954 22.8173 48.3105 22.8173 56.9984C22.8173 68.0441 31.7716 76.9984 42.8173 76.9984H74.1135C85.1592 76.9984 94.1135 68.0441 94.1135 56.9984V39.9615C94.1135 28.9158 85.1592 19.9615 74.1135 19.9615H72.8541C60.2298 19.9615 48.2774 8.55608 35.6531 8.55608C33.7602 8.55608 32.1727 7.22389 31.2069 5.59582C29.2197 2.24572 25.5665 0 21.3889 0H11.4074C5.10726 0 1.52588e-05 5.10726 1.52588e-05 11.4074C1.52588e-05 16.2943 3.07303 20.4635 7.3921 22.088Z" fill="#FF7E7E"/>
<path fill-rule="evenodd" clip-rule="evenodd" d="M20.2117 22.7552C20.0495 23.7016 19.965 24.6745 19.965 25.6672C19.965 33.6393 25.4169 40.3381 32.7958 42.2385V56.9984C32.7958 68.0441 41.7501 76.9984 52.7958 76.9984H84.0919C95.1376 76.9984 104.092 68.0441 104.092 56.9984V39.9615C104.092 28.9158 95.1376 19.9615 84.0919 19.9615H61.7683C59.4188 13.3166 53.0811 8.55608 45.6316 8.55608H38.1366C36.8705 3.63572 32.404 0 27.0885 0H21.3848C15.0847 0 9.97739 5.10726 9.97739 11.4074C9.97739 17.3115 14.4627 22.1679 20.2117 22.7552Z" fill="#FF9494"/>
<path d="M57.9301 47.5283C56.4282 46.2994 54.5474 45.6281 52.6068 45.6281C47.964 45.6281 44.2002 49.3918 44.2002 54.0346V57.0354C44.2002 63.3356 49.3075 68.4428 55.6076 68.4428H78.4224C81.4103 68.4428 82.4166 64.4511 79.7859 63.0346L71.7317 58.6977C71.4397 58.5405 71.1636 58.3557 70.907 58.1457L57.9301 47.5283Z" fill="#F26668"/>
</svg>
