<svg width="64" height="68" viewBox="0 0 64 68" fill="none" xmlns="http://www.w3.org/2000/svg">
<path d="M59.3773 29.0894C64.7891 30.1266 64.7891 37.8735 59.3773 38.9106L45.2921 41.6101C42.703 42.1063 40.944 44.5274 41.2721 47.1431L43.0574 61.373C43.7433 66.8405 36.3756 69.2344 33.7168 64.408L26.7969 51.8464C25.525 49.5373 22.6788 48.6126 20.2925 49.7329L7.31065 55.8281C2.32275 58.17 -2.23075 51.9026 1.53787 47.8825L11.3463 37.4196C13.1493 35.4963 13.1493 32.5037 11.3463 30.5804L1.53788 20.1175C-2.23075 16.0974 2.32276 9.83001 7.31067 12.1719L20.2925 18.2671C22.6788 19.3875 25.525 18.4627 26.7969 16.1536L33.7168 3.59204C36.3756 -1.23441 43.7433 1.15951 43.0574 6.62697L41.2721 20.8569C40.944 23.4726 42.703 25.8937 45.2921 26.3899L59.3773 29.0894Z" fill="#FF7E7E"/>
</svg>
