<svg width="429" height="1403" viewBox="0 0 429 1403" fill="none" xmlns="http://www.w3.org/2000/svg">
<path fill-rule="evenodd" clip-rule="evenodd" d="M-211.366 635.255C-211.367 635.051 -211.367 634.848 -211.367 634.644C-211.367 580.545 -172.049 536.689 -123.548 536.689C-105.989 536.689 -89.6329 542.437 -75.9108 552.339C-68.0925 511.619 -33.8342 480.956 7.24333 480.956C31.3405 480.956 53.0909 491.508 68.5336 508.452C91.8383 478.372 128.366 459 169.431 459C225.499 459 273.11 495.113 290.153 545.289C293.428 543.565 297.099 542.6 300.975 542.6C313.893 542.6 324.526 553.323 325.87 567.091C360.676 567.403 388.791 594.503 388.791 627.888C388.791 630.382 388.635 632.84 388.33 635.255H417.939C424.131 635.255 429.15 640.274 429.15 646.466C429.15 652.657 424.131 657.677 417.939 657.677H-233.789C-239.981 657.677 -245 652.657 -245 646.466C-245 640.274 -239.981 635.255 -233.789 635.255H-211.366Z" fill="#E9F8F9"/>
<path d="M54.1243 689.069C54.7686 687.328 57.2314 687.328 57.8757 689.069L59.7322 694.086C59.9348 694.634 60.3664 695.065 60.9138 695.268L65.931 697.124C67.6722 697.769 67.6722 700.231 65.931 700.876L60.9138 702.732C60.3664 702.935 59.9348 703.366 59.7322 703.914L57.8757 708.931C57.2314 710.672 54.7686 710.672 54.1243 708.931L52.2678 703.914C52.0652 703.366 51.6336 702.935 51.0862 702.732L46.069 700.876C44.3278 700.231 44.3278 697.769 46.069 697.124L51.0862 695.268C51.6336 695.065 52.0652 694.634 52.2678 694.086L54.1243 689.069Z" fill="white"/>
<path d="M348.124 5.06901C348.769 3.32778 351.231 3.32778 351.876 5.06901L353.732 10.0862C353.935 10.6336 354.366 11.0652 354.914 11.2678L359.931 13.1243C361.672 13.7686 361.672 16.2314 359.931 16.8757L354.914 18.7322C354.366 18.9348 353.935 19.3664 353.732 19.9138L351.876 24.931C351.231 26.6722 348.769 26.6722 348.124 24.931L346.268 19.9138C346.065 19.3664 345.634 18.9348 345.086 18.7322L340.069 16.8757C338.328 16.2314 338.328 13.7686 340.069 13.1243L345.086 11.2678C345.634 11.0652 346.065 10.6336 346.268 10.0862L348.124 5.06901Z" fill="white"/>
</svg>
