<svg width="675" height="1531" viewBox="0 0 675 1531" fill="none" xmlns="http://www.w3.org/2000/svg">
<path fill-rule="evenodd" clip-rule="evenodd" d="M33.6345 635.774C33.6334 635.571 33.6328 635.367 33.6328 635.163C33.6328 581.064 72.9506 537.208 121.452 537.208C139.011 537.208 155.367 542.957 169.089 552.858C176.908 512.138 211.166 481.475 252.243 481.475C276.34 481.475 298.091 492.027 313.534 508.971C336.838 478.891 373.366 459.52 414.431 459.52C470.499 459.52 518.11 495.633 535.153 545.808C538.428 544.085 542.099 543.119 545.975 543.119C558.893 543.119 569.526 553.842 570.87 567.611C605.676 567.922 633.791 595.023 633.791 628.408C633.791 630.901 633.635 633.36 633.33 635.774H662.939C669.131 635.774 674.15 640.794 674.15 646.985C674.15 653.177 669.131 658.196 662.939 658.196H11.2109C5.0193 658.196 0 653.177 0 646.985C0 640.794 5.0193 635.774 11.2109 635.774H33.6345Z" fill="#E9F8F9"/>
<path d="M299.124 689.589C299.769 687.847 302.231 687.847 302.876 689.589L304.732 694.606C304.935 695.153 305.366 695.585 305.914 695.787L310.931 697.644C312.672 698.288 312.672 700.751 310.931 701.395L305.914 703.252C305.366 703.454 304.935 703.886 304.732 704.433L302.876 709.451C302.231 711.192 299.769 711.192 299.124 709.451L297.268 704.433C297.065 703.886 296.634 703.454 296.086 703.252L291.069 701.395C289.328 700.751 289.328 698.288 291.069 697.644L296.086 695.787C296.634 695.585 297.065 695.153 297.268 694.606L299.124 689.589Z" fill="white"/>
<path d="M402.124 1505.59C402.769 1503.85 405.231 1503.85 405.876 1505.59L407.732 1510.61C407.935 1511.15 408.366 1511.58 408.914 1511.79L413.931 1513.64C415.672 1514.29 415.672 1516.75 413.931 1517.4L408.914 1519.25C408.366 1519.45 407.935 1519.89 407.732 1520.43L405.876 1525.45C405.231 1527.19 402.769 1527.19 402.124 1525.45L400.268 1520.43C400.065 1519.89 399.634 1519.45 399.086 1519.25L394.069 1517.4C392.328 1516.75 392.328 1514.29 394.069 1513.64L399.086 1511.79C399.634 1511.58 400.065 1511.15 400.268 1510.61L402.124 1505.59Z" fill="white"/>
<path d="M593.124 5.58855C593.769 3.84731 596.231 3.84731 596.876 5.58854L598.732 10.6057C598.935 11.1531 599.366 11.5847 599.914 11.7873L604.931 13.6438C606.672 14.2881 606.672 16.7509 604.931 17.3952L599.914 19.2517C599.366 19.4543 598.935 19.8859 598.732 20.4334L596.876 25.4505C596.231 27.1918 593.769 27.1918 593.124 25.4505L591.268 20.4334C591.065 19.8859 590.634 19.4543 590.086 19.2517L585.069 17.3952C583.328 16.7509 583.328 14.2881 585.069 13.6438L590.086 11.7873C590.634 11.5847 591.065 11.1531 591.268 10.6057L593.124 5.58855Z" fill="white"/>
</svg>
