<svg width="617" height="1449" viewBox="0 0 617 1449" fill="none" xmlns="http://www.w3.org/2000/svg">
<path fill-rule="evenodd" clip-rule="evenodd" d="M372.38 894.694C373.065 869.001 397.223 848.355 426.925 848.355C434.747 848.355 442.185 849.787 448.911 852.366C462.135 830.973 484.175 816.965 509.13 816.965C514.212 816.965 519.172 817.546 523.962 818.651C526.337 809.965 535.194 803.512 545.758 803.512C548.024 803.512 550.212 803.809 552.275 804.361C567.636 760.72 608.444 729.52 656.37 729.52C701.716 729.52 740.689 757.451 757.766 797.424C761.29 795.586 765.321 794.543 769.603 794.543C782.851 794.543 793.696 804.525 794.582 817.16C796.573 817.031 798.586 816.965 800.617 816.965C815.532 816.965 829.446 820.513 841.197 826.646C853.953 804.397 878.693 789.311 907.121 789.311C948.605 789.311 982.234 821.435 982.234 861.061C982.234 873.214 979.071 884.662 973.488 894.694H994.938C1001.13 894.694 1006.15 899.713 1006.15 905.905C1006.15 912.096 1001.13 917.116 994.938 917.116H343.209C337.018 917.116 331.999 912.096 331.999 905.905C331.999 899.713 337.018 894.694 343.209 894.694H372.38Z" fill="white" fill-opacity="0.5"/>
<path fill-rule="evenodd" clip-rule="evenodd" d="M390.083 916.693C389.944 915.31 389.873 913.91 389.873 912.495C389.873 886.284 414.3 865.035 444.432 865.035C452.255 865.035 459.693 866.467 466.418 869.046C479.643 847.653 501.683 833.645 526.638 833.645C531.719 833.645 536.68 834.225 541.47 835.331C543.845 826.644 552.702 820.191 563.266 820.191C565.532 820.191 567.72 820.488 569.782 821.041C585.144 777.4 625.951 746.199 673.878 746.199C719.224 746.199 758.197 774.131 775.274 814.103C778.798 812.265 782.829 811.223 787.111 811.223C800.359 811.223 811.204 821.205 812.09 833.839C814.081 833.71 816.094 833.644 818.125 833.644C833.04 833.644 846.954 837.192 858.705 843.325C871.461 821.077 896.2 805.991 924.629 805.991C966.113 805.991 999.742 838.114 999.742 877.741C999.742 892.101 995.326 905.476 987.72 916.693H1011.94C1018.13 916.693 1023.15 921.713 1023.15 927.904C1023.15 934.096 1018.13 939.115 1011.94 939.115H360.209C354.018 939.115 348.999 934.096 348.999 927.904C348.999 921.713 354.018 916.693 360.209 916.693H390.083Z" fill="white" fill-opacity="0.8"/>
<path fill-rule="evenodd" clip-rule="evenodd" d="M814.58 234.396C814.724 232.136 814.798 229.854 814.798 227.553C814.798 175.188 776.789 132.739 729.903 132.739C708.436 132.739 688.829 141.638 673.88 156.314C670.286 154.706 666.291 153.809 662.083 153.809C654.188 153.809 647.044 156.963 641.889 162.057C625.148 148.349 604.929 139.505 582.956 137.425C573.461 59.7762 514.829 0 443.916 0C382.071 0 329.567 45.4667 310.852 108.603C296.261 98.5138 279.151 92.707 260.854 92.707C213.579 92.707 174.223 131.473 165.779 182.718C153.836 177.004 140.585 173.825 126.634 173.825C87.5836 173.825 54.0171 198.736 39.2834 234.396H14.2281C6.37012 234.396 0 240.767 0 248.625C0 256.482 6.37012 262.853 14.2281 262.853H841.353C849.211 262.853 855.581 256.482 855.581 248.625C855.581 240.767 849.211 234.396 841.353 234.396H814.58Z" fill="white" fill-opacity="0.6"/>
<path fill-rule="evenodd" clip-rule="evenodd" d="M824.58 254.396C824.724 252.136 824.798 249.854 824.798 247.553C824.798 195.188 786.789 152.739 739.903 152.739C718.436 152.739 698.829 161.638 683.88 176.314C680.286 174.706 676.291 173.809 672.083 173.809C664.188 173.809 657.044 176.963 651.889 182.057C635.148 168.349 614.929 159.505 592.956 157.425C583.461 79.7762 524.829 20 453.916 20C392.071 20 339.567 65.4667 320.852 128.603C306.261 118.514 289.151 112.707 270.854 112.707C223.579 112.707 184.223 151.473 175.779 202.718C163.836 197.004 150.585 193.825 136.634 193.825C97.5836 193.825 64.0171 218.736 49.2834 254.396H24.2281C16.3701 254.396 10 260.767 10 268.625C10 276.482 16.3701 282.853 24.2281 282.853H851.353C859.211 282.853 865.581 276.482 865.581 268.625C865.581 260.767 859.211 254.396 851.353 254.396H824.58Z" fill="white" fill-opacity="0.6"/>
<path d="M288.124 49.5885C288.769 47.8473 291.231 47.8473 291.876 49.5885L293.732 54.6057C293.935 55.1531 294.366 55.5847 294.914 55.7873L299.931 57.6438C301.672 58.2881 301.672 60.7509 299.931 61.3952L294.914 63.2517C294.366 63.4543 293.935 63.8859 293.732 64.4334L291.876 69.4505C291.231 71.1918 288.769 71.1918 288.124 69.4505L286.268 64.4334C286.065 63.8859 285.634 63.4543 285.086 63.2517L280.069 61.3952C278.328 60.7509 278.328 58.2881 280.069 57.6438L285.086 55.7873C285.634 55.5847 286.065 55.1531 286.268 54.6057L288.124 49.5885Z" fill="white"/>
<path d="M597.124 317.589C597.769 315.847 600.231 315.847 600.876 317.589L602.732 322.606C602.935 323.153 603.366 323.585 603.914 323.787L608.931 325.644C610.672 326.288 610.672 328.751 608.931 329.395L603.914 331.252C603.366 331.454 602.935 331.886 602.732 332.433L600.876 337.451C600.231 339.192 597.769 339.192 597.124 337.451L595.268 332.433C595.065 331.886 594.634 331.454 594.086 331.252L589.069 329.395C587.328 328.751 587.328 326.288 589.069 325.644L594.086 323.787C594.634 323.585 595.065 323.153 595.268 322.606L597.124 317.589Z" fill="white"/>
</svg>
