<svg width="1440" height="397" viewBox="0 0 1440 397" fill="none" xmlns="http://www.w3.org/2000/svg">
<g clip-path="url(#clip0_1086_11930)">
<rect y="187" width="1440" height="477" fill="#76D6E6"/>
<path d="M-5.23035 250.2C-5.23035 250.2 168.275 278.199 721.272 278.2C1082.36 278.2 1476.77 250.2 1476.77 250.2L1795.87 1529.85L-23.6367 1476.77L-5.23035 250.2Z" fill="#A6EAF4"/>
<path d="M-1.42761 265.154C-1.42761 265.154 172.082 293.154 725.08 293.154C1086.17 293.155 1480.58 265.154 1480.58 265.154L1799.68 1544.81L-19.829 1491.73L-1.42761 265.154Z" fill="#DFAF67"/>
<rect x="339.855" y="222.633" width="40.6561" height="10" rx="5" fill="#A6EAF4"/>
<rect x="294.207" y="241.626" width="60.9841" height="10" rx="5" fill="#A6EAF4"/>
<rect x="761.441" y="226.14" width="61" height="10" rx="5" fill="#A6EAF4"/>
<rect x="693.207" y="226.633" width="61" height="10" rx="5" fill="#A6EAF4"/>
<rect x="1153.51" y="238.035" width="41" height="10" rx="5" transform="rotate(-1 1153.51 238.035)" fill="#A6EAF4"/>
<rect x="1080.21" y="238.697" width="61" height="10" rx="5" transform="rotate(-1 1080.21 238.697)" fill="#A6EAF4"/>
<rect x="738.207" y="243.633" width="41" height="10" rx="5" fill="#A6EAF4"/>
<path d="M1322.12 14.069C1322.77 12.3278 1325.23 12.3278 1325.88 14.069L1329.08 22.7357C1329.29 23.2831 1329.72 23.7148 1330.26 23.9173L1338.93 27.1243C1340.67 27.7686 1340.67 30.2314 1338.93 30.8757L1330.26 34.0827C1329.72 34.2852 1329.29 34.7169 1329.08 35.2643L1325.88 43.931C1325.23 45.6722 1322.77 45.6722 1322.12 43.931L1318.92 35.2643C1318.71 34.7169 1318.28 34.2852 1317.74 34.0827L1309.07 30.8757C1307.33 30.2314 1307.33 27.7686 1309.07 27.1243L1317.74 23.9173C1318.28 23.7148 1318.71 23.2831 1318.92 22.7357L1322.12 14.069Z" fill="white"/>
<path d="M103.124 72.069C103.769 70.3278 106.231 70.3278 106.876 72.069L108.732 77.0862C108.935 77.6336 109.366 78.0652 109.914 78.2678L114.931 80.1243C116.672 80.7686 116.672 83.2314 114.931 83.8757L109.914 85.7322C109.366 85.9348 108.935 86.3664 108.732 86.9138L106.876 91.931C106.231 93.6722 103.769 93.6722 103.124 91.931L101.268 86.9138C101.065 86.3664 100.634 85.9348 100.086 85.7322L95.069 83.8757C93.3278 83.2314 93.3278 80.7686 95.069 80.1243L100.086 78.2678C100.634 78.0652 101.065 77.6336 101.268 77.0862L103.124 72.069Z" fill="white"/>
<path d="M179.471 144.958C179.935 143.454 182.065 143.454 182.529 144.958L183.486 148.063C183.623 148.505 183.943 148.867 184.366 149.054L187.707 150.538C188.974 151.101 188.974 152.899 187.707 153.462L184.366 154.946C183.943 155.133 183.623 155.495 183.486 155.937L182.529 159.042C182.065 160.546 179.935 160.546 179.471 159.042L178.514 155.937C178.377 155.495 178.057 155.133 177.634 154.946L174.293 153.462C173.026 152.899 173.026 151.101 174.293 150.538L177.634 149.054C178.057 148.867 178.377 148.505 178.514 148.063L179.471 144.958Z" fill="white"/>
<path d="M1220.12 109.069C1220.77 107.328 1223.23 107.328 1223.88 109.069L1224.38 110.437C1224.58 110.984 1225.02 111.416 1225.56 111.618L1226.93 112.124C1228.67 112.769 1228.67 115.231 1226.93 115.876L1225.56 116.382C1225.02 116.584 1224.58 117.016 1224.38 117.563L1223.88 118.931C1223.23 120.672 1220.77 120.672 1220.12 118.931L1219.62 117.563C1219.42 117.016 1218.98 116.584 1218.44 116.382L1217.07 115.876C1215.33 115.231 1215.33 112.769 1217.07 112.124L1218.44 111.618C1218.98 111.416 1219.42 110.984 1219.62 110.437L1220.12 109.069Z" fill="white"/>
<path d="M1124.12 71.069C1124.77 69.3278 1127.23 69.3278 1127.88 71.069L1129.73 76.0862C1129.93 76.6336 1130.37 77.0652 1130.91 77.2678L1135.93 79.1243C1137.67 79.7686 1137.67 82.2314 1135.93 82.8757L1130.91 84.7322C1130.37 84.9348 1129.93 85.3664 1129.73 85.9138L1127.88 90.931C1127.23 92.6722 1124.77 92.6722 1124.12 90.931L1122.27 85.9138C1122.07 85.3664 1121.63 84.9348 1121.09 84.7322L1116.07 82.8757C1114.33 82.2314 1114.33 79.7686 1116.07 79.1243L1121.09 77.2678C1121.63 77.0652 1122.07 76.6336 1122.27 76.0862L1124.12 71.069Z" fill="white"/>
</g>
<defs>
<clipPath id="clip0_1086_11930">
<rect width="1440" height="397" fill="white"/>
</clipPath>
</defs>
</svg>
