<svg width="1690" height="323" viewBox="0 0 1690 323" fill="none" xmlns="http://www.w3.org/2000/svg">
<path fill-rule="evenodd" clip-rule="evenodd" d="M1515.5 282.491C1592.54 299.541 1668.82 250.887 1685.87 173.819C1702.93 96.752 1654.3 20.4547 1577.26 3.40466C1514.93 -10.3907 1453.09 18.8276 1422.72 71.3073C1409.4 52.1517 1389.11 37.7627 1364.54 32.3242C1318.38 22.1075 1272.62 46.9211 1255 89.0756C1246.71 79.6539 1235.46 72.6859 1222.28 69.7673C1192.42 63.1597 1162.83 79.5711 1152.02 107.191C1137.76 80.4198 1112.32 59.8207 1080.39 52.7538C1030.91 41.8046 981.854 66.8787 960.581 110.521C940.645 91.9312 913.761 77.5581 882.665 70.6763C830.185 59.0618 779.575 71.8541 749.413 100.335C735.93 74.654 703.216 56.5328 665 56.5328C628.328 56.5328 596.722 73.2195 582.314 97.2607C559.889 73.1435 520.457 60.2424 478.131 66.4324C447.209 70.9546 420.684 84.7975 402.951 103.443C371.828 65.6448 311.873 46.1982 248.387 57.9668C213.32 64.4673 182.672 79.4726 159.647 99.4308C144.885 73.7932 117.208 56.5328 85.5 56.5328C38.2797 56.5328 0 94.8125 0 142.033C0 189.253 38.2797 227.533 85.5 227.533C98.2427 227.533 110.334 224.745 121.198 219.747C142.067 275.115 214.371 307.344 291.949 292.963C345.893 282.963 389.379 252.838 410.746 215.517C433.849 232.571 467.343 240.829 502.876 235.633C547.216 229.148 582.513 203.499 595.815 172.007C612.506 187.018 637.308 196.533 665 196.533C686.994 196.533 707.166 190.531 722.899 180.539C731.838 226.104 776.175 267.311 836.208 280.597C897.473 294.156 956.188 274.453 982.8 235.358C996.543 248.552 1013.97 258.257 1033.93 262.674C1091.88 275.499 1149.25 238.903 1162.08 180.935C1162.82 177.592 1163.4 174.251 1163.81 170.92C1172.02 179.926 1183 186.576 1195.8 189.409C1219.38 194.627 1242.79 185.489 1256.92 167.812C1269.25 193.588 1292.89 213.63 1322.94 220.282C1356.69 227.75 1390.22 216.501 1412.7 193.444C1429.19 237.016 1466.62 271.675 1515.5 282.491Z" fill="white"/>
<path fill-rule="evenodd" clip-rule="evenodd" d="M1507.64 315.718C1589.02 333.729 1668.82 285.854 1685.88 208.786C1702.93 131.719 1650.78 54.6427 1569.4 36.6319C1506.6 22.7343 1444.75 48.0661 1411.94 95.7691C1397.91 81.3318 1379.27 70.551 1357.64 65.7641C1310.7 55.3743 1264.63 76.5379 1244.43 114.528C1237.97 109.947 1230.5 106.554 1222.28 104.734C1196.07 98.9343 1170.07 110.868 1156.8 132.55C1140.78 110.454 1116.33 93.6759 1086.8 87.1405C1033.13 75.2618 980.402 101.149 959.33 146.472C937.886 126.788 908.635 111.39 874.774 103.897C827.802 93.5012 782.456 100.639 750.543 120.154C731.255 102.78 700.122 91.4994 665 91.4994C626.757 91.4994 593.245 104.873 574.602 124.925C551.472 105.583 515.957 95.8672 478.131 101.399C454.673 104.83 433.745 113.625 417.267 125.811C384.04 88.888 320.066 70.6117 251.886 83.2505C213.542 90.3584 179.944 106.118 154.719 126.8C139.178 105.408 113.963 91.4995 85.5 91.4995C38.2797 91.4995 0 129.779 0 176.999C0 224.22 38.2797 262.499 85.5 262.499C96.483 262.499 106.982 260.429 116.629 256.656C143.004 305.997 216.399 332.901 295.448 318.247C346.265 308.827 388.744 284.212 414.449 253.083C437.353 268.363 469.198 275.524 502.876 270.599C544.405 264.526 578.002 241.641 593.024 212.888C611.927 224.44 637.215 231.499 665 231.499C681.553 231.499 697.22 228.994 711.178 224.526C726.283 265.31 770.602 301.045 828.317 313.817C894.62 328.491 957.683 308.23 984.301 267.536C999.258 281.688 1018.4 292.204 1040.35 297.061C1101.84 310.67 1162.09 274.71 1174.92 216.742C1174.97 216.524 1175.01 216.305 1175.06 216.087C1175.09 215.931 1175.13 215.776 1175.16 215.621C1181.27 219.677 1188.21 222.697 1195.8 224.376C1216.04 228.855 1236.16 222.757 1250.38 209.759C1264.84 231.126 1287.91 247.495 1316.05 253.721C1348.08 260.811 1379.7 253.209 1402.98 235.595C1422.62 274.589 1460.15 305.209 1507.64 315.718Z" fill="white" fill-opacity="0.5"/>
<rect width="1689" height="145" fill="white"/>
</svg>
