<svg width="50" height="397" viewBox="0 0 50 397" fill="none" xmlns="http://www.w3.org/2000/svg">
<path fill-rule="evenodd" clip-rule="evenodd" d="M33.3331 397C42.538 397 50 389.538 50 380.333L50 330.427C50 325.825 46.2695 322.094 41.6677 322.094L40.826 322.094C36.689 322.094 33.3354 318.741 33.3354 314.604C33.3354 310.467 36.689 307.113 40.826 307.113L41.6677 307.113C46.2695 307.113 50 303.383 50 298.781L50 240.54C50 235.938 46.2695 232.208 41.6677 232.208L40.8259 232.208C36.689 232.208 33.3354 228.854 33.3354 224.717C33.3354 220.58 36.689 217.227 40.8259 217.227L41.6677 217.227C46.2695 217.227 50 213.496 50 208.894L50 150.653C50 146.051 46.2695 142.321 41.6677 142.321L40.8259 142.321C36.689 142.321 33.3354 138.967 33.3354 134.83C33.3354 130.693 36.689 127.34 40.8259 127.34L41.6677 127.34C46.2695 127.34 50 123.609 50 119.008L50 60.7664C50 56.1646 46.2695 52.4342 41.6677 52.4342C37.0659 52.4342 33.3354 48.7037 33.3354 44.1019L33.3354 16.6675C33.3354 7.46262 25.8734 0.000578779 16.6685 0.000578377C7.46363 0.000577975 0.00159631 7.46261 0.00159591 16.6675L0.00159754 66.5739C0.00159734 71.1757 3.73209 74.9062 8.33389 74.9062L9.17566 74.9062C13.3126 74.9062 16.6662 78.2599 16.6662 82.3968C16.6662 86.5337 13.3126 89.8873 9.17566 89.8873L8.33389 89.8873C3.7321 89.8873 0.00160018 93.6178 0.00159997 98.2196L0.00159743 156.461C0.00159723 161.062 3.73209 164.793 8.33389 164.793L9.17566 164.793C13.3126 164.793 16.6662 168.147 16.6662 172.283C16.6662 176.42 13.3126 179.774 9.17566 179.774L8.33389 179.774C3.73209 179.774 0.00159625 183.504 0.00159605 188.106L0.00159731 246.347C0.00159711 250.949 3.73209 254.68 8.33389 254.68L9.17565 254.68C13.3126 254.68 16.6662 258.033 16.6662 262.17C16.6662 266.307 13.3126 269.661 9.17565 269.661L8.33389 269.661C3.7321 269.661 0.00159995 273.391 0.00159975 277.993L0.0015972 336.234C0.001597 340.836 3.73209 344.566 8.33389 344.566C12.9357 344.566 16.6662 348.297 16.6662 352.899L16.6662 380.333C16.6662 389.538 24.1282 397 33.3331 397Z" fill="#377246"/>
</svg>
