<svg width="50" height="397" viewBox="0 0 50 397" fill="none" xmlns="http://www.w3.org/2000/svg">
<path fill-rule="evenodd" clip-rule="evenodd" d="M16.6669 397C7.46203 397 -6.05496e-07 389.538 -7.28533e-07 380.333L-1.39561e-06 330.427C-1.45712e-06 325.825 3.73049 322.094 8.33229 322.094L9.17405 322.094C13.311 322.094 16.6646 318.741 16.6646 314.604C16.6646 310.467 13.311 307.113 9.17404 307.113L8.33229 307.113C3.73049 307.113 -5.47367e-07 303.383 -6.36625e-07 298.781L-1.76629e-06 240.54C-1.85555e-06 235.938 3.73049 232.208 8.33229 232.208L9.17406 232.208C13.311 232.208 16.6646 228.854 16.6646 224.717C16.6646 220.58 13.311 217.227 9.17406 217.227L8.33229 217.227C3.73049 217.227 -9.6829e-07 213.496 -1.05755e-06 208.894L-2.18721e-06 150.653C-2.27647e-06 146.051 3.73049 142.321 8.33229 142.321L9.17406 142.321C13.311 142.321 16.6646 138.967 16.6646 134.83C16.6646 130.693 13.311 127.34 9.17406 127.34L8.33229 127.34C3.73049 127.34 -1.38921e-06 123.609 -1.47847e-06 119.008L-2.60814e-06 60.7664C-2.69739e-06 56.1646 3.73049 52.4342 8.33229 52.4342C12.9341 52.4342 16.6646 48.7037 16.6646 44.1019L16.6646 16.6675C16.6646 7.46262 24.1266 0.000578779 33.3315 0.000578377C42.5364 0.000577975 49.9984 7.46261 49.9984 16.6675L49.9984 66.5739C49.9984 71.1757 46.2679 74.9062 41.6661 74.9062L40.8243 74.9062C36.6874 74.9062 33.3338 78.2599 33.3338 82.3968C33.3338 86.5337 36.6874 89.8873 40.8243 89.8873L41.6661 89.8873C46.2679 89.8873 49.9984 93.6178 49.9984 98.2196L49.9984 156.461C49.9984 161.062 46.2679 164.793 41.6661 164.793L40.8243 164.793C36.6874 164.793 33.3338 168.147 33.3338 172.283C33.3338 176.42 36.6874 179.774 40.8243 179.774L41.6661 179.774C46.2679 179.774 49.9984 183.504 49.9984 188.106L49.9984 246.347C49.9984 250.949 46.2679 254.68 41.6661 254.68L40.8243 254.68C36.6874 254.68 33.3338 258.033 33.3338 262.17C33.3338 266.307 36.6874 269.661 40.8243 269.661L41.6661 269.661C46.2679 269.661 49.9984 273.391 49.9984 277.993L49.9984 336.234C49.9984 340.836 46.2679 344.566 41.6661 344.566C37.0643 344.566 33.3338 348.297 33.3338 352.899L33.3338 380.333C33.3338 389.538 25.8718 397 16.6669 397Z" fill="#377246"/>
</svg>
