<svg width="923" height="447" viewBox="0 0 923 447" fill="none" xmlns="http://www.w3.org/2000/svg">
<path fill-rule="evenodd" clip-rule="evenodd" d="M922.999 43.547C922.999 19.4972 903.503 0.000976562 879.453 0.000976562H-20.4552C-44.505 0.000976562 -64.0012 19.4972 -64.0012 43.547V311.455C-64.0012 335.505 -44.505 355.001 -20.4552 355.001H371.141C395.191 355.001 414.687 374.497 414.687 398.547V403.156C414.687 427.206 434.183 446.702 458.233 446.702H686.849C710.899 446.702 730.396 427.206 730.396 403.156V398.547C730.396 374.497 749.892 355.001 773.942 355.001H791.233C811.746 355.001 828.375 371.63 828.375 392.143V411.322C828.375 421.242 836.417 429.285 846.338 429.285C856.258 429.285 864.3 421.242 864.3 411.322V384.35C864.3 368.141 877.44 355.001 893.65 355.001C909.859 355.001 922.999 341.861 922.999 325.652V43.547Z" fill="#397A39"/>
</svg>
