<svg width="375" height="129" viewBox="0 0 375 129" fill="none" xmlns="http://www.w3.org/2000/svg">
<path fill-rule="evenodd" clip-rule="evenodd" d="M-4 0C-15.0457 0 -24 8.9543 -24 20V21.9337C-24 26.352 -27.5817 29.9337 -32 29.9337C-43.0457 29.9337 -52 38.888 -52 49.9337V62.674C-52 73.7197 -43.0457 82.674 -32 82.674H40C51.0457 82.674 60 91.6283 60 102.674V114C60 122.284 66.7157 129 75 129C83.2843 129 90 122.284 90 114V102.674C90 91.6283 98.9543 82.674 110 82.674H199.837C207.659 82.674 214 89.015 214 96.837C214 104.659 220.341 111 228.163 111H303.837C311.659 111 318 104.659 318 96.837C318 89.015 324.341 82.674 332.163 82.674H417C428.046 82.674 437 73.7197 437 62.674V49.9337C437 38.888 428.046 29.9337 417 29.9337H202.934C197.447 29.9337 193 25.4862 193 20C193 8.9543 184.046 0 173 0H-4Z" fill="#7FB732"/>
</svg>
