<svg width="1440" height="246" viewBox="0 0 1440 246" fill="none" xmlns="http://www.w3.org/2000/svg">
<path fill-rule="evenodd" clip-rule="evenodd" d="M396 20C396 8.95431 387.046 0 376 0H-46C-57.0457 0 -66 8.95431 -66 20V83.5C-66 91.5081 -59.5081 98 -51.5 98C-43.4919 98 -37 104.492 -37 112.5V167V195C-37 206.046 -28.0457 215 -17 215H66C77.0457 215 86 206.046 86 195V187C86 175.954 94.9543 167 106 167H500C511.046 167 520 175.954 520 187V231C520 239.284 526.716 246 535 246C543.284 246 550 239.284 550 231V146C550 134.954 558.954 126 570 126H642C653.046 126 662 134.954 662 146V160C662 171.046 670.954 180 682 180H817C828.046 180 837 171.046 837 160V146C837 134.954 845.954 126 857 126H1005C1016.05 126 1025 117.046 1025 106V72C1025 60.9543 1016.05 52 1005 52H416C404.954 52 396 43.0457 396 32V20ZM1249 52C1237.95 52 1229 60.9543 1229 72V106C1229 117.046 1237.95 126 1249 126H1321C1332.05 126 1341 134.954 1341 146V176C1341 184.284 1347.72 191 1356 191C1364.28 191 1371 184.284 1371 176V146C1371 134.954 1379.95 126 1391 126H1475C1486.05 126 1495 134.954 1495 146C1495 157.046 1503.95 166 1515 166H1579C1590.05 166 1599 157.046 1599 146C1599 134.954 1607.95 126 1619 126H1698C1709.05 126 1718 117.046 1718 106V72C1718 60.9543 1709.05 52 1698 52H1631C1619.95 52 1611 43.0457 1611 32V30C1611 18.9543 1602.05 10 1591 10H1414C1402.95 10 1394 18.9543 1394 30V32C1394 43.0457 1385.05 52 1374 52H1249Z" fill="#7FB732"/>
</svg>
