<svg width="1440" height="246" viewBox="0 0 1440 246" fill="none" xmlns="http://www.w3.org/2000/svg">
<g clip-path="url(#clip0_772_260)">
<path fill-rule="evenodd" clip-rule="evenodd" d="M376 0C387.046 0 396 8.95431 396 20V32C396 43.0457 404.954 52 416 52H1005C1016.05 52 1025 60.9543 1025 72V106C1025 117.046 1016.05 126 1005 126H857C845.954 126 837 134.954 837 146V160C837 171.046 828.046 180 817 180H682C670.954 180 662 171.046 662 160V146C662 134.954 653.046 126 642 126H570C558.954 126 550 134.954 550 146V231C550 239.284 543.284 246 535 246C526.716 246 520 239.284 520 231V187C520 175.954 511.046 167 500 167H106C94.9543 167 86 175.954 86 187V195C86 206.046 77.0457 215 66 215H-17C-28.0457 215 -37 206.046 -37 195V167V112.5C-37 104.492 -43.4919 98 -51.5 98C-59.5081 98 -66 91.5081 -66 83.5V20C-66 8.95431 -57.0457 0 -46 0H376ZM611 184H619V176C619 158.327 604.673 144 587 144H579V152C579 169.673 593.327 184 611 184ZM185 224H193V216C193 198.327 178.673 184 161 184H153H145C127.327 184 113 198.327 113 216V224H121C138.673 224 153 209.673 153 192C153 209.673 167.327 224 185 224Z" fill="#7FB732"/>
<path fill-rule="evenodd" clip-rule="evenodd" d="M1611 30C1611 18.9543 1602.05 10 1591 10H1414C1402.95 10 1394 18.9543 1394 30V32C1394 43.0457 1385.05 52 1374 52H1249C1237.95 52 1229 60.9543 1229 72V106C1229 117.046 1237.95 126 1249 126H1321C1332.05 126 1341 134.954 1341 146V176C1341 184.284 1347.72 191 1356 191C1364.28 191 1371 184.284 1371 176V146C1371 134.954 1379.95 126 1391 126H1475C1486.05 126 1495 134.954 1495 146C1495 157.046 1503.95 166 1515 166H1579C1590.05 166 1599 157.046 1599 146C1599 134.954 1607.95 126 1619 126H1698C1709.05 126 1718 117.046 1718 106V72C1718 60.9543 1709.05 52 1698 52H1631C1619.95 52 1611 43.0457 1611 32V30Z" fill="#7FB732"/>
</g>
<defs>
<clipPath id="clip0_772_260">
<rect width="1440" height="246" fill="white"/>
</clipPath>
</defs>
</svg>
