<svg width="375" height="152" viewBox="0 0 375 152" fill="none" xmlns="http://www.w3.org/2000/svg">
<path fill-rule="evenodd" clip-rule="evenodd" d="M249 32C249 14.3269 234.673 0 217 0H209V8C209 25.6731 223.327 40 241 40H249H257C274.673 40 289 25.6731 289 8V0H281C263.327 0 249 14.3269 249 32ZM-24 43C-24 31.9543 -15.0457 23 -4 23H173C184.046 23 193 31.9543 193 43C193 48.4863 197.447 52.9336 202.934 52.9336H417C428.046 52.9336 437 61.8879 437 72.9336V85.6741C437 96.7197 428.046 105.674 417 105.674H332.163C324.341 105.674 318 112.015 318 119.837C318 127.659 311.659 134 303.837 134H228.163C220.341 134 214 127.659 214 119.837C214 112.015 207.659 105.674 199.837 105.674H110C98.9543 105.674 90 114.628 90 125.674V137C90 145.284 83.2843 152 75 152C66.7157 152 60 145.284 60 137V125.674C60 114.628 51.0457 105.674 40 105.674H-32C-43.0457 105.674 -52 96.7197 -52 85.6741V72.9336C-52 61.8879 -43.0457 52.9336 -32 52.9336C-27.5817 52.9336 -24 49.3521 -24 44.9336V43Z" fill="#377246"/>
</svg>
