<svg width="1440" height="247" viewBox="0 0 1440 247" fill="none" xmlns="http://www.w3.org/2000/svg">
<g clip-path="url(#clip0_772_259)">
<path fill-rule="evenodd" clip-rule="evenodd" d="M465 32C465 14.3269 450.673 0 433 -1.99481e-06L425 -2.3445e-06V8C425 25.6731 439.327 40 457 40H465H473C490.673 40 505 25.6731 505 8V-2.3445e-06L497 -1.99481e-06C479.327 0 465 14.3269 465 32ZM370 1C384.359 1 396 12.6406 396 27C396 41.3594 407.641 53 422 53H973C993.435 53 1010 69.5655 1010 90C1010 110.435 993.435 127 973 127H864C849.088 127 837 139.088 837 154C837 168.912 824.912 181 810 181H689C674.088 181 662 168.912 662 154C662 139.088 649.912 127 635 127H590C567.909 127 550 144.909 550 167V232C550 240.284 543.284 247 535 247C526.716 247 520 240.284 520 232V207.5C520 185.685 502.315 168 480.5 168H110C96.7452 168 86 178.745 86 192C86 205.255 75.2548 216 62 216H3C-19.0914 216 -37 198.091 -37 176V168V113.5C-37 105.492 -43.4919 99 -51.5 99C-59.5081 99 -66 92.5081 -66 84.5V41C-66 18.9086 -48.0914 1 -26 1H370Z" fill="#377246"/>
<path fill-rule="evenodd" clip-rule="evenodd" d="M1346 0H1338V8C1338 25.6731 1352.33 40 1370 40H1378V32C1378 14.3269 1363.67 0 1346 0ZM1590 11C1601.6 11 1611 20.402 1611 32C1611 43.598 1620.4 53 1632 53H1704C1724.43 53 1741 69.5655 1741 90C1741 110.435 1724.43 127 1704 127H1619C1607.95 127 1599 135.954 1599 147C1599 158.046 1590.05 167 1579 167H1515C1503.95 167 1495 158.046 1495 147C1495 135.954 1486.05 127 1475 127H1403.5C1385.55 127 1371 141.551 1371 159.5V177C1371 185.284 1364.28 192 1356 192C1347.72 192 1341 185.284 1341 177V159.5C1341 141.551 1326.45 127 1308.5 127H1289C1268.57 127 1252 110.435 1252 90C1252 69.5655 1268.57 53 1289 53H1373C1384.6 53 1394 43.598 1394 32C1394 20.402 1403.4 11 1415 11H1590Z" fill="#377246"/>
</g>
<defs>
<clipPath id="clip0_772_259">
<rect width="1440" height="247" fill="white"/>
</clipPath>
</defs>
</svg>
