<svg width="1440" height="246" viewBox="0 0 1440 246" fill="none" xmlns="http://www.w3.org/2000/svg">
<path fill-rule="evenodd" clip-rule="evenodd" d="M396 26C396 11.6406 384.359 0 370 0H-26C-48.0914 0 -66 17.9086 -66 40V83.5C-66 91.5081 -59.5081 98 -51.5 98C-43.4919 98 -37 104.492 -37 112.5V167V175C-37 197.091 -19.0914 215 3 215H62C75.2548 215 86 204.255 86 191C86 177.745 96.7452 167 110 167H480.5C502.315 167 520 184.685 520 206.5V231C520 239.284 526.716 246 535 246C543.284 246 550 239.284 550 231V166C550 143.909 567.909 126 590 126H635C649.912 126 662 138.088 662 153C662 167.912 674.088 180 689 180H810C824.912 180 837 167.912 837 153C837 138.088 849.088 126 864 126H973C993.435 126 1010 109.435 1010 89C1010 68.5655 993.435 52 973 52H422C407.641 52 396 40.3594 396 26ZM1289 52C1268.57 52 1252 68.5655 1252 89C1252 109.435 1268.57 126 1289 126H1308.5C1326.45 126 1341 140.551 1341 158.5V176C1341 184.284 1347.72 191 1356 191C1364.28 191 1371 184.284 1371 176V158.5C1371 140.551 1385.55 126 1403.5 126H1475C1486.05 126 1495 134.954 1495 146C1495 157.046 1503.95 166 1515 166H1579C1590.05 166 1599 157.046 1599 146C1599 134.954 1607.95 126 1619 126H1704C1724.43 126 1741 109.435 1741 89C1741 68.5655 1724.43 52 1704 52H1633C1620.85 52 1611 42.1503 1611 30C1611 18.9543 1602.05 10 1591 10H1414C1402.95 10 1394 18.9543 1394 30C1394 42.1503 1384.15 52 1372 52H1289Z" fill="#377246"/>
</svg>
