<svg width="359" height="357" viewBox="0 0 359 357" fill="none" xmlns="http://www.w3.org/2000/svg">
<path fill-rule="evenodd" clip-rule="evenodd" d="M42 33.9995C42 15.2218 26.7777 -0.000488281 8 -0.000488281H-121C-139.778 -0.000488281 -155 15.2218 -155 33.9995V34.9995C-155 53.2249 -169.775 67.9995 -188 67.9995C-206.225 67.9995 -221 82.7741 -221 101V276C-221 294.225 -206.225 309 -188 309H-158.5C-156.567 309 -155 310.567 -155 312.5C-155 314.432 -153.433 316 -151.5 316H-86.5C-75.1782 316 -66 325.178 -66 336.5C-66 347.821 -56.8218 357 -45.5 357H223.5C276.243 357 319 314.243 319 261.5C319 208.756 276.243 166 223.5 166H161C133.938 166 112 144.061 112 117V103C112 83.6695 96.33 67.9995 77 67.9995H76C57.2223 67.9995 42 52.7772 42 33.9995ZM308.183 126C297.588 126 289 134.588 289 145.182C289 155.776 297.588 164.365 308.183 164.365H339.817C350.412 164.365 359 155.776 359 145.182C359 134.588 350.412 126 339.817 126H308.183Z" fill="#173A52"/>
</svg>
