<svg width="1440" height="313" viewBox="0 0 1440 313" fill="none" xmlns="http://www.w3.org/2000/svg">
<path fill-rule="evenodd" clip-rule="evenodd" d="M24.1538 0C16.8892 0 11 5.88916 11 13.1538C11 20.4185 16.8892 26.3076 24.1538 26.3076H45.8462C53.1108 26.3076 59 20.4185 59 13.1538C59 5.88916 53.1108 0 45.8462 0H24.1538ZM252 45.1826C252 34.5884 260.588 26 271.183 26H302.817C313.412 26 322 34.5884 322 45.1826C322 55.7769 313.412 64.3653 302.817 64.3653H271.183C260.588 64.3653 252 55.7769 252 45.1826ZM1311.18 40C1300.59 40 1292 48.5884 1292 59.1826C1292 69.7769 1300.59 78.3653 1311.18 78.3653H1342.82C1353.41 78.3653 1362 69.7769 1362 59.1826C1362 48.5884 1353.41 40 1342.82 40H1311.18ZM-89 40.9998C-111.091 40.9998 -129 58.9084 -129 80.9998V227C-129 249.091 -111.091 267 -89 267H104C107.866 267 111 270.134 111 274C111 277.866 114.134 281 118 281H497.5C504.404 281 510 286.596 510 293.5C510 300.403 515.596 306 522.5 306H950C972.091 306 990 288.091 990 266V232C990 209.908 972.091 192 950 192H711.842C703.645 192 697 185.355 697 177.158C697 168.961 690.355 162.316 682.158 162.316H580.158C571.234 162.316 564 155.082 564 146.158C564 137.234 556.766 130 547.842 130H382C368.193 130 357 118.807 357 105C357 91.1927 345.807 79.9998 332 79.9998H246.5C235.73 79.9998 227 71.2694 227 60.4998C227 49.7303 218.27 40.9998 207.5 40.9998H-89ZM1513 41.1912C1535.09 41.1912 1553 59.0998 1553 81.1912V162.873C1553 184.965 1535.09 202.873 1513 202.873H1507.43C1485.34 202.873 1467.43 220.782 1467.43 242.873V273C1467.43 295.091 1449.52 313 1427.43 313H1297C1274.91 313 1257 295.091 1257 273V133C1257 110.908 1274.91 92.9998 1297 92.9998H1391.02C1405.33 92.9998 1416.92 81.4021 1416.92 67.0955C1416.92 52.789 1428.52 41.1912 1442.83 41.1912H1513ZM715 159.183C715 148.588 723.588 140 734.183 140H765.817C776.412 140 785 148.588 785 159.183C785 169.777 776.412 178.365 765.817 178.365H734.183C723.588 178.365 715 169.777 715 159.183ZM1374 69.8705C1374 66.0868 1377.07 63.0195 1380.85 63.0195H1392.15C1395.93 63.0195 1399 66.0868 1399 69.8705C1399 73.6541 1395.93 76.7214 1392.15 76.7214H1380.85C1377.07 76.7214 1374 73.6541 1374 69.8705ZM338.851 49.5469C335.067 49.5469 332 52.6141 332 56.3978C332 60.1815 335.067 63.2488 338.851 63.2488H350.149C353.933 63.2488 357 60.1815 357 56.3978C357 52.6141 353.933 49.5469 350.149 49.5469H338.851Z" fill="#005271"/>
</svg>
