<svg width="1440" height="629" viewBox="0 0 1440 629" fill="none" xmlns="http://www.w3.org/2000/svg">
<path fill-rule="evenodd" clip-rule="evenodd" d="M2205 160C2205 71.6344 2133.37 0 2045 0H1776C1753.91 0 1736 17.9086 1736 40C1736 62.0914 1718.09 80 1696 80H1539H1465.5C1460.81 80 1457 83.8056 1457 88.5C1457 93.1944 1453.19 97 1448.5 97H1410C1384.04 97 1363 118.043 1363 144V202.5C1363 260.766 1315.77 308 1257.5 308H1210C1165.82 308 1130 343.817 1130 388V442C1130 486.183 1165.82 522 1210 522H1579C1587.44 522 1595.85 521 1604.26 520C1612.67 519 1621.09 518 1629.52 518H1968.5C1979.27 518 1988 509.27 1988 498.5C1988 487.73 1996.73 479 2007.5 479H2096.5C2156.42 479 2205 430.423 2205 370.5V160ZM-217 223C-217 134.634 -145.366 63 -57 63H212C234.091 63 252 80.9086 252 103C252 125.091 269.909 143 292 143H305H364C389.957 143 411 164.043 411 190C411 215.957 389.957 237 364 237H356.5C328.057 237 305 260.057 305 288.5C305 316.943 328.057 340 356.5 340H603C621.778 340 637 355.222 637 374C637 392.778 652.222 408 671 408H847.5C908.527 408 958 457.473 958 518.5C958 579.527 908.527 629 847.5 629H353C339.745 629 329 618.255 329 605C329 591.745 318.255 581 305 581H19.5C8.73045 581 0 572.27 0 561.5C0 550.73 -8.73045 542 -19.5 542H-108.5C-168.423 542 -217 493.423 -217 433.5V223ZM1250.15 262C1242.89 262 1237 267.889 1237 275.154C1237 282.418 1242.89 288.308 1250.15 288.308H1271.85C1279.11 288.308 1285 282.418 1285 275.154C1285 267.889 1279.11 262 1271.85 262H1250.15ZM179 34.1538C179 26.8892 184.889 21 192.154 21H213.846C221.111 21 227 26.8892 227 34.1538C227 41.4185 221.111 47.3076 213.846 47.3076H192.154C184.889 47.3076 179 41.4185 179 34.1538ZM360.183 269C349.588 269 341 277.588 341 288.183C341 298.777 349.588 307.365 360.183 307.365H391.817C402.412 307.365 411 298.777 411 288.183C411 277.588 402.412 269 391.817 269H360.183Z" fill="#173A52"/>
</svg>
