<svg width="351" height="265" viewBox="0 0 351 265" fill="none" xmlns="http://www.w3.org/2000/svg">
<path fill-rule="evenodd" clip-rule="evenodd" d="M-75.8356 19.4995C-75.8356 8.72996 -84.566 -0.000488281 -95.3356 -0.000488281H-172C-194.091 -0.000488281 -212 17.9081 -212 39.9995V186C-212 208.091 -194.091 226 -172 226H-124C-115.163 226 -108 233.163 -108 242C-108 250.836 -100.837 258 -92 258H28.5C30.433 258 32 259.567 32 261.5C32 263.432 33.567 265 35.5 265H311C333.091 265 351 247.091 351 225V200C351 177.908 333.091 160 311 160H134.5C117.655 160 104 146.344 104 129.5V126C104 111.088 91.9117 98.9995 77 98.9995C62.0883 98.9995 50 86.9112 50 71.9995V68.9995C50 52.431 36.5685 38.9995 20 38.9995H-56.3356C-67.1051 38.9995 -75.8356 30.2691 -75.8356 19.4995ZM123 124.182C123 113.588 131.588 105 142.183 105H173.817C184.412 105 193 113.588 193 124.182C193 134.776 184.412 143.365 173.817 143.365H142.183C131.588 143.365 123 134.776 123 124.182ZM210.851 130C207.067 130 204 133.067 204 136.85C204 140.634 207.067 143.701 210.851 143.701H222.149C225.933 143.701 229 140.634 229 136.85C229 133.067 225.933 130 222.149 130H210.851Z" fill="#005271"/>
</svg>
