<svg width="243" height="136" viewBox="0 0 243 136" fill="none" xmlns="http://www.w3.org/2000/svg">
<rect x="7" y="69" width="149" height="10" rx="5" fill="#0A7DA8"/>
<rect x="133" y="46" width="67" height="10" rx="5" fill="#005271"/>
<rect x="90" y="46" width="34" height="10" rx="5" fill="#005271"/>
<rect x="44" y="23" width="61" height="10" rx="5" fill="#173A52"/>
<rect x="67" width="30" height="10" rx="5" fill="#173A52"/>
<rect x="19" width="40" height="10" rx="5" fill="#173A52"/>
<path fill-rule="evenodd" clip-rule="evenodd" d="M5 79C2.23858 79 0 81.2386 0 84C0 86.7614 2.23858 89 5 89H94.7819C96.107 89 97 90.6749 97 92C97 94.7614 99.2386 97 102 97H238C240.761 97 243 94.7614 243 92C243 89.2386 240.761 87 238 87H151.218C149.893 87 149 85.3251 149 84C149 81.2386 146.761 79 144 79H5Z" fill="#123041"/>
<rect x="32" y="107" width="96" height="10" rx="5" fill="#173A52"/>
<rect x="161" y="126" width="39" height="10" rx="5" fill="#005271"/>
</svg>
