<svg width="423" height="161" viewBox="0 0 423 161" fill="none" xmlns="http://www.w3.org/2000/svg">
<path fill-rule="evenodd" clip-rule="evenodd" d="M115 28C122.732 28 129 21.732 129 14C129 6.26801 122.732 0 115 0C107.268 0 101 6.26801 101 14C101 21.732 107.268 28 115 28ZM345 50.9315C326.477 50.9315 310.355 61.6836 302.025 77.5472C300.413 80.6165 296.315 81.725 293.299 80.0142C287.577 76.7675 280.998 74.9198 274 74.9198C269.082 74.9198 264.372 75.8321 260.02 77.5011C256.772 78.7468 252.868 77.0378 251.861 73.7082C242.965 44.305 216.171 22.9452 184.5 22.9452C160.566 22.9452 139.417 35.1439 126.673 53.7939C124.836 56.4818 120.997 57.0625 118.362 55.1514C110.357 49.3467 100.569 45.9335 90 45.9335C62.938 45.9335 41 68.309 41 95.9106C41 100.694 41.6588 105.32 42.8889 109.7C43.8734 113.205 41.4219 117 37.7811 117H22C9.84974 117 0 126.85 0 139C0 151.15 9.84974 161 22 161H401C413.15 161 423 151.15 423 139C423 126.85 413.15 117 401 117H398.726C395.252 117 392.804 113.515 393.375 110.089C393.786 107.619 394 104.989 394 102.194C394 73.8825 372.062 50.9315 345 50.9315ZM283 45C283 52.732 276.732 59 269 59C261.268 59 255 52.732 255 45C255 37.268 261.268 31 269 31C276.732 31 283 37.268 283 45ZM292.5 33C297.747 33 302 28.7467 302 23.5C302 18.2533 297.747 14 292.5 14C287.253 14 283 18.2533 283 23.5C283 28.7467 287.253 33 292.5 33ZM33 98.4999C33 103.747 28.7467 108 23.5 108C18.2533 108 14 103.747 14 98.4999C14 93.2532 18.2533 88.9999 23.5 88.9999C28.7467 88.9999 33 93.2532 33 98.4999ZM407.5 81C412.747 81 417 76.7467 417 71.5C417 66.2533 412.747 62 407.5 62C402.253 62 398 66.2533 398 71.5C398 76.7467 402.253 81 407.5 81Z" fill="white"/>
</svg>
