<svg width="180" height="342" viewBox="0 0 180 342" fill="none" xmlns="http://www.w3.org/2000/svg">
<path fill-rule="evenodd" clip-rule="evenodd" d="M170 0C175.523 0 180 4.47715 180 10V254.913C180 260.435 175.523 264.913 170 264.913C164.477 264.913 160 260.435 160 254.913V10C160 4.47715 164.477 0 170 0ZM87.8413 69.554C93.3634 69.4663 97.9111 73.8719 97.9987 79.394L101.999 331.394C102.086 336.916 97.6809 341.464 92.1587 341.551C86.6366 341.639 82.0889 337.234 82.0013 331.711L78.0013 79.7114C77.9136 74.1893 82.3191 69.6416 87.8413 69.554ZM50 122.553C55.5228 122.553 60 127.03 60 132.553V221.834C60 227.357 55.5228 231.834 50 231.834C44.4771 231.834 40 227.357 40 221.834V132.553C40 127.03 44.4772 122.553 50 122.553ZM141 110.553C141 105.03 136.523 100.553 131 100.553C125.477 100.553 121 105.03 121 110.553L121 252.553C121 258.076 125.477 262.553 131 262.553C136.523 262.553 141 258.076 141 252.553V110.553ZM20 42.5527C20 37.0299 15.5228 32.5527 10 32.5527C4.47715 32.5527 0 37.0299 0 42.5527L8.91712e-06 246.553C9.15853e-06 252.076 4.47716 256.553 10 256.553C15.5229 256.553 20 252.076 20 246.553L20 42.5527Z" fill="white" fill-opacity="0.2"/>
</svg>
